# Blender v2.79 (sub 0) OBJ File: 'Cube_Grass_Side_Tall.blend'
# www.blender.org
mtllib Cube_Grass_Side_Tall.mtl
o Cube_Grass_Side_Tall_Cube.384
v 1.000000 -1.000000 1.000000
v -1.000000 -1.000000 1.000000
v -1.000000 -0.623989 1.000000
v -1.000000 -0.327668 1.000000
v -1.000000 -0.024298 1.000000
v -1.000000 0.281256 1.000000
v -1.000000 0.623989 1.000000
v 1.000000 0.623989 1.000000
v 1.000000 0.281256 1.000000
v 1.000000 -0.024298 1.000000
v 1.000000 -0.327668 1.000000
v 1.000000 -0.623989 1.000000
v -1.000000 0.801033 1.099939
v -1.000000 0.527155 0.848220
v -1.000000 0.995956 0.848220
v -1.000000 0.566632 1.099939
v -1.000000 0.947225 1.020231
v -1.000000 0.995956 0.355842
v -1.000000 0.537025 1.020231
v -1.000000 0.644971 1.116719
v 1.000000 0.995956 0.848220
v 1.000000 0.566632 1.099939
v 1.000000 0.801033 1.099939
v 1.000000 0.527155 0.848220
v 1.000000 0.947225 1.020231
v 1.000000 0.995956 0.355842
v 1.000000 0.537025 1.020231
v 1.000000 0.644971 1.116719
v -1.000000 0.995956 -1.000000
v 1.000000 0.995956 -1.000000
vn 0.0000 0.4787 0.8780
vn 0.0000 0.2985 0.9544
vn 0.0000 -0.9788 0.2050
vn 0.0000 -0.9984 0.0573
vn 0.0000 -0.9374 0.3482
vn 0.0000 -0.0519 0.9987
vn 0.0000 0.9621 0.2726
vn 0.0000 0.9905 0.1376
vn 0.0000 -0.2094 0.9778
vn 0.0000 1.0000 0.0000
vn 0.0000 0.0000 1.0000
usemtl Green_Light
s 1
f 25//1 17//1 13//2 23//2
f 27//3 19//3 14//4 24//4
f 27//3 22//5 16//5 19//3
f 23//2 13//2 20//6 28//6
f 25//7 21//8 15//8 17//7
f 28//6 20//6 16//9 22//9
f 30//10 29//10 18//10 26//10
f 15//8 21//8 26//10 18//10
usemtl Dirt_1
f 4//11 11//11 10//11 5//11
usemtl Dirt_2
f 7//11 6//11 9//11 8//11
f 4//11 3//11 12//11 11//11
usemtl Dirt_3
f 3//11 2//11 1//11 12//11
f 6//11 5//11 10//11 9//11
