# Blender v2.79 (sub 0) OBJ File: 'Cube_Grass_CornerBottom_Tall.blend'
# www.blender.org
mtllib Cube_Grass_CornerBottom_Tall.mtl
o Cube_Grass_CornerBottom_Tall_Cube.387
v 1.000001 -1.000000 -0.999999
v -1.000000 -0.873585 0.873584
v -0.873585 -1.000000 0.873584
v -0.873585 -0.873585 0.999999
v -0.962974 -0.962974 0.873584
v -0.946571 -0.946571 0.946570
v -0.873585 -0.962974 0.962973
v -0.962974 -0.873585 0.962973
v 0.999999 -1.000000 0.873585
v 0.999999 -0.873585 1.000000
v 0.999999 -0.962974 0.962974
v -0.999999 -0.873585 -1.000001
v -0.873584 -1.000000 -1.000001
v -0.962973 -0.962974 -1.000001
v -1.000000 0.623989 0.873584
v -1.000000 0.281256 0.873584
v -1.000000 -0.024298 0.873584
v -1.000000 -0.327668 0.873584
v -1.000000 -0.623989 0.873584
v -0.962974 -0.623989 0.962973
v -0.962974 -0.327668 0.962973
v -0.962974 -0.024298 0.962973
v -0.962974 0.281256 0.962973
v -0.962974 0.623989 0.962973
v -0.873585 -0.623989 0.999999
v -0.873585 -0.327668 0.999999
v -0.873585 -0.024298 0.999999
v -0.873585 0.281256 0.999999
v -0.873585 0.623989 0.999999
v 0.999999 -0.623989 1.000000
v 0.999999 -0.327668 1.000000
v 0.999999 -0.024298 1.000000
v 0.999999 0.281256 1.000000
v 0.999999 0.623989 1.000000
v -0.999999 0.623989 -1.000001
v -0.999999 0.281256 -1.000001
v -0.999999 -0.024298 -1.000001
v -0.999999 -0.327668 -1.000001
v -0.999999 -0.623989 -1.000001
v -0.999999 1.000000 -1.000001
v 0.999999 1.000000 1.000000
v -0.873585 1.000000 0.999999
v -0.962974 1.000000 0.962973
v -1.000000 1.000000 0.873584
vn -0.9808 0.0000 0.1951
vn -0.9239 0.0000 0.3827
vn -0.1951 0.0000 0.9808
vn -0.0000 0.0000 1.0000
vn -0.3827 0.0000 0.9239
vn -1.0000 0.0000 -0.0000
vn 0.0000 -1.0000 0.0000
vn -0.0000 -0.9808 0.1951
vn -0.1794 -0.9673 0.1794
vn -0.1951 -0.9808 -0.0000
vn -0.9673 -0.1794 0.1794
vn -0.9194 -0.3600 0.1585
vn -0.8881 -0.3251 0.3251
vn -0.9194 -0.1585 0.3600
vn -0.1585 -0.9194 0.3600
vn -0.3251 -0.8881 0.3251
vn -0.3600 -0.9194 0.1585
vn -0.1794 -0.1794 0.9673
vn -0.3600 -0.1585 0.9194
vn -0.3251 -0.3251 0.8881
vn -0.1585 -0.3600 0.9194
vn -0.0000 -0.1951 0.9808
vn -0.0000 -0.3827 0.9239
vn -0.0000 -0.9239 0.3827
vn -0.9808 -0.1951 -0.0000
vn -0.9239 -0.3827 -0.0000
vn -0.3827 -0.9239 -0.0000
usemtl Dirt_1
s 1
f 15//1 24//2 43//2 44//1
f 29//3 34//4 41//4 42//3
f 24//5 29//3 42//3 43//5
f 35//6 15//1 44//1 40//6
f 1//7 9//8 3//9 13//10
f 2//11 5//12 6//13 8//14
f 3//9 7//15 6//16 5//17
f 4//18 8//19 6//20 7//21
f 10//22 4//18 7//21 11//23
f 11//24 7//15 3//9 9//8
f 2//11 12//25 14//26 5//12
f 5//17 14//27 13//10 3//9
f 21//5 26//3 27//3 22//5
f 17//1 18//1 21//2 22//2
f 37//6 38//6 18//1 17//1
f 26//3 31//4 32//4 27//3
usemtl Dirt_2
f 29//3 28//3 33//4 34//4
f 26//3 25//3 30//4 31//4
f 24//5 23//5 28//3 29//3
f 21//5 20//5 25//3 26//3
f 15//1 16//1 23//2 24//2
f 18//1 19//1 20//2 21//2
f 35//6 36//6 16//1 15//1
f 38//6 39//6 19//1 18//1
usemtl Dirt_3
f 39//6 12//25 2//11 19//1
f 19//1 2//11 8//14 20//2
f 20//5 8//19 4//18 25//3
f 25//3 4//18 10//22 30//4
f 28//3 27//3 32//4 33//4
f 23//5 22//5 27//3 28//3
f 16//1 17//1 22//2 23//2
f 36//6 37//6 17//1 16//1
