# Blender v2.79 (sub 0) OBJ File: 'Cube_Grass_CornerCenter_Tall.blend'
# www.blender.org
mtllib Cube_Grass_CornerCenter_Tall.mtl
o Cube_Grass_CornerCenter_Tall_Cube.386
v -0.999999 -1.000000 -1.000001
v 0.999999 -1.000000 1.000000
v -0.962974 -1.000000 0.962973
v -0.873585 -1.000000 0.999999
v -1.000000 -1.000000 0.873584
v -1.000000 0.623989 0.873584
v -1.000000 0.281256 0.873584
v -1.000000 -0.024298 0.873584
v -1.000000 -0.327668 0.873584
v -1.000000 -0.623989 0.873584
v -0.962974 -0.623989 0.962973
v -0.962974 -0.327668 0.962973
v -0.962974 -0.024298 0.962973
v -0.962974 0.281256 0.962973
v -0.962974 0.623989 0.962973
v -0.873585 -0.623989 0.999999
v -0.873585 -0.327668 0.999999
v -0.873585 -0.024298 0.999999
v -0.873585 0.281256 0.999999
v -0.873585 0.623989 0.999999
v 0.999999 -0.623989 1.000000
v 0.999999 -0.327668 1.000000
v 0.999999 -0.024298 1.000000
v 0.999999 0.281256 1.000000
v 0.999999 0.623989 1.000000
v -0.999999 0.623989 -1.000001
v -0.999999 0.281256 -1.000001
v -0.999999 -0.024298 -1.000001
v -0.999999 -0.327668 -1.000001
v -0.999999 -0.623989 -1.000001
v -0.999999 1.000000 -1.000001
v 0.999999 1.000000 1.000000
v -0.873585 1.000000 0.999999
v -0.962974 1.000000 0.962973
v -1.000000 1.000000 0.873584
vn -0.9808 0.0000 0.1951
vn -0.9239 0.0000 0.3827
vn -0.1951 0.0000 0.9808
vn -0.0000 0.0000 1.0000
vn -0.3827 0.0000 0.9239
vn -1.0000 0.0000 -0.0000
usemtl Dirt_1
s 1
f 6//1 15//2 34//2 35//1
f 20//3 25//4 32//4 33//3
f 15//5 20//3 33//3 34//5
f 26//6 6//1 35//1 31//6
f 12//5 17//3 18//3 13//5
f 8//1 9//1 12//2 13//2
f 28//6 29//6 9//1 8//1
f 17//3 22//4 23//4 18//3
usemtl Dirt_2
f 20//3 19//3 24//4 25//4
f 17//3 16//3 21//4 22//4
f 15//5 14//5 19//3 20//3
f 12//5 11//5 16//3 17//3
f 6//1 7//1 14//2 15//2
f 9//1 10//1 11//2 12//2
f 26//6 27//6 7//1 6//1
f 29//6 30//6 10//1 9//1
usemtl Dirt_3
f 3//5 4//3 16//3 11//5
f 16//3 4//3 2//4 21//4
f 1//6 5//1 10//1 30//6
f 19//3 18//3 23//4 24//4
f 14//5 13//5 18//3 19//3
f 7//1 8//1 13//2 14//2
f 27//6 28//6 8//1 7//1
f 10//1 5//1 3//2 11//2
