# Blender v2.79 (sub 0) OBJ File: 'Cloud_1.blend'
# www.blender.org
mtllib Cloud_1.mtl
o Cloud_1_Cube.302
v 1.779622 0.453895 -0.002657
v 1.698157 0.459265 0.485874
v 1.764592 1.007645 -0.002657
v 1.698157 0.459265 -0.491188
v 1.631723 0.033766 -0.002657
v 1.559655 0.051782 0.452016
v 1.683316 0.972362 0.452016
v 1.683316 0.972361 -0.457329
v 1.559655 0.051782 -0.457329
v 1.051236 0.538959 -1.144174
v 0.955862 0.098859 -1.066783
v 1.079523 1.061225 -1.066783
v 1.051236 0.538959 1.138861
v 1.079523 1.061225 1.061470
v 0.955862 0.098859 1.061470
v 0.896003 -0.137650 -0.002657
v 0.872983 -0.126848 -0.457329
v 0.872983 -0.126848 0.452016
v 1.206470 1.826250 -0.002657
v 1.162402 1.754182 -0.457329
v 1.162402 1.754182 0.452016
v 1.280400 -0.103458 -0.423470
v 1.333111 -0.112693 -0.002657
v 1.280400 -0.103458 0.418157
v 1.336639 0.044933 0.831716
v 1.454963 0.476683 0.893386
v 1.451091 0.950485 0.831716
v 1.507331 1.459288 0.418157
v 1.576815 1.521840 -0.002657
v 1.507331 1.459287 -0.423470
v 1.451091 0.950485 -0.837029
v 1.454963 0.476683 -0.898700
v 1.336639 0.044933 -0.837029
v 0.870683 -0.095983 -0.837029
v 1.097614 1.517821 -0.837029
v 0.870683 -0.095983 0.831716
v 1.097614 1.517820 0.831716
v 1.173599 -0.084746 0.706761
v 1.366545 1.322148 0.706761
v 1.173599 -0.084746 -0.712074
v 1.366545 1.322148 -0.712074
v -0.824512 0.308503 -0.693674
v -0.551214 0.251525 -0.647242
v -0.786998 0.593257 -0.647242
v -1.097810 0.304997 -0.647242
v -0.862026 0.011862 -0.647242
v -0.605069 0.000329 -0.603541
v -0.551951 0.539611 -0.606442
v -1.043954 0.605199 -0.603541
v -1.113782 0.022283 -0.603541
v -1.509110 0.382657 -0.002657
v -1.463109 0.340695 -0.278517
v -1.425595 0.680327 -0.002657
v -1.463109 0.340695 0.273204
v -1.500623 0.041084 -0.002657
v -1.454729 0.036779 -0.259398
v -1.384900 0.650618 -0.259398
v -1.384900 0.650618 0.254085
v -1.454729 0.036779 0.254085
v -0.824512 0.308503 0.688361
v -1.097810 0.304997 0.641929
v -0.786998 0.593257 0.641929
v -0.551214 0.205002 0.641929
v -0.862026 0.011862 0.641929
v -1.113783 0.022283 0.598228
v -1.043954 0.605199 0.598228
v -0.535241 0.531111 0.598228
v -0.605069 0.000329 0.598228
v -0.918482 -0.105116 -0.002657
v -0.912168 -0.099002 -0.278517
v -1.185466 -0.094016 -0.002657
v -0.912168 -0.099002 0.273204
v -0.638870 -0.103989 -0.002657
v -0.651869 -0.097889 -0.259398
v -1.160582 -0.088608 -0.259398
v -1.160582 -0.088608 0.254085
v -0.651869 -0.097889 0.254085
v -0.730541 1.090228 -0.002657
v -0.736855 1.024640 -0.278517
v -0.736855 1.024640 0.273204
v -1.010153 1.077087 -0.002657
v -0.997154 1.010334 -0.259398
v -0.997154 1.010334 0.254085
v -0.421811 -0.084681 -0.240279
v -0.392047 -0.089896 -0.002657
v -0.421811 -0.084681 0.234966
v -1.123998 -0.071870 -0.473805
v -0.893318 -0.080750 -0.508629
v -0.653168 -0.080460 -0.473805
v -0.755705 0.850677 -0.508629
v -0.995856 0.844047 -0.473805
v -1.258969 0.607470 -0.473805
v -1.325783 0.276630 -0.508629
v -1.323597 0.009148 -0.473805
v -1.355354 -0.067649 0.234966
v -1.394590 -0.071605 -0.002657
v -1.355354 -0.067649 -0.240279
v -1.227212 0.877588 -0.240279
v -1.256977 0.930737 -0.002657
v -1.227212 0.877588 0.234966
v -1.258969 0.607469 0.468491
v -1.325783 0.276630 0.503316
v -1.323597 0.009148 0.468491
v -0.653168 -0.080460 0.468491
v -0.893318 -0.080750 0.503316
v -1.123998 -0.071870 0.468491
v -0.995856 0.844047 0.468491
v -0.755705 0.850677 0.503316
v -0.482119 -0.074115 0.397933
v -0.482119 -0.074115 -0.403247
v -1.275856 -0.059634 0.397933
v -1.166904 0.779846 0.397933
v -1.275856 -0.059634 -0.403247
v -1.166904 0.779846 -0.403247
v 0.553592 0.612363 -1.226402
v 0.620027 1.185294 -1.144174
v 0.069599 0.674347 -1.144174
v 0.487157 0.130511 -1.144174
v 0.164974 1.210471 -1.066783
v 0.041313 0.175384 -1.066783
v -0.510887 1.366740 -0.002657
v -0.438819 1.304318 -0.457329
v -0.438819 1.298195 0.452016
v 0.553592 0.612363 1.221089
v 0.069599 0.674347 1.138861
v 0.620027 1.185294 1.138861
v 0.487157 0.130511 1.138861
v 0.041313 0.175384 1.061470
v 0.164974 1.210471 1.061470
v 0.387176 -0.139181 -0.002657
v 0.398358 -0.128354 -0.491188
v -0.085635 -0.119524 -0.002657
v 0.398358 -0.128354 0.485874
v -0.041566 -0.109945 -0.457329
v -0.041566 -0.109945 0.452016
v 0.720008 1.977662 -0.002657
v 0.708826 1.896198 -0.491188
v 0.708826 1.896198 0.485874
v 0.224833 1.962633 -0.002657
v 0.247853 1.881356 -0.457329
v 0.247853 1.881356 0.452016
v 0.023222 -0.080304 -0.837029
v 0.431740 -0.096031 -0.898700
v 0.675444 1.652961 -0.898700
v 0.250153 1.648370 -0.837029
v -0.215803 1.231438 -0.837029
v -0.334128 0.742379 -0.898700
v -0.330255 0.307744 -0.837029
v -0.386495 -0.072829 0.418157
v -0.361483 -0.075521 -0.425926
v -0.159564 1.705371 -0.423470
v -0.212275 1.774855 -0.002657
v -0.159564 1.705365 0.418157
v -0.215803 1.231438 0.831716
v -0.334127 0.742379 0.893386
v -0.330255 0.291320 0.831716
v 0.431740 -0.096031 0.893386
v 0.023222 -0.080304 0.831715
v 0.250153 1.648370 0.831715
v 0.675444 1.652961 0.893386
v -0.245709 0.013862 0.706761
v -0.052763 1.555097 0.706761
v -0.245709 0.014154 -0.712074
v -0.052763 1.555097 -0.712074
v -0.575476 0.766399 -0.490737
v -0.531136 0.619512 0.546096
v -0.503877 0.526739 -0.584148
v -0.503877 0.520175 0.578834
v -0.468771 0.218445 -0.597115
v -0.468771 0.156210 0.591802
v -0.413329 -0.024546 -0.487849
v -0.419618 -0.062637 0.424530
v -0.386834 -0.078939 -0.244520
v -0.380248 -0.087951 -0.002657
v -0.386834 -0.078939 0.239207
v -0.594890 1.033322 -0.002657
v -0.564910 0.947914 0.259970
v -0.564910 0.950972 -0.265284
v -0.572097 0.780001 0.475597
vn 0.9886 -0.1508 0.0000
vn 0.9281 -0.1368 0.3464
vn 0.8869 -0.3220 0.3313
vn 0.9430 -0.3329 0.0000
vn 0.7028 -0.1044 0.7036
vn 0.6629 -0.2867 0.6916
vn 0.4585 -0.8887 -0.0000
vn 0.4603 -0.8736 0.1582
vn 0.2808 -0.9525 0.1179
vn 0.2785 -0.9604 -0.0000
vn 0.3640 -0.8411 0.4001
vn 0.2516 -0.9207 0.2985
vn 0.9804 0.1969 -0.0000
vn 0.9150 0.1938 0.3538
vn 0.8170 0.5767 -0.0000
vn 0.7697 0.5309 0.3546
vn 0.7098 0.2053 0.6738
vn 0.6704 0.4322 0.6031
vn 0.9281 -0.1368 -0.3464
vn 0.9150 0.1938 -0.3538
vn 0.7028 -0.1044 -0.7036
vn 0.7098 0.2053 -0.6738
vn 0.7697 0.5309 -0.3546
vn 0.6704 0.4322 -0.6031
vn 0.8869 -0.3220 -0.3313
vn 0.2808 -0.9525 -0.1179
vn 0.4603 -0.8736 -0.1582
vn 0.6629 -0.2867 -0.6916
vn 0.2516 -0.9207 -0.2985
vn 0.3640 -0.8411 -0.4001
vn 0.1540 -0.7784 -0.6087
vn 0.1533 -0.7782 -0.6090
vn -0.0572 -0.7206 -0.6910
vn -0.0371 -0.7271 -0.6855
vn 0.3480 -0.0550 -0.9359
vn 0.3074 -0.2247 -0.9247
vn 0.3480 -0.0550 0.9359
vn 0.3950 0.2561 0.8823
vn 0.0454 0.3115 0.9492
vn -0.0002 -0.0106 0.9999
vn 0.4394 0.5749 -0.6902
vn 0.3950 0.2561 -0.8823
vn 0.0454 0.3115 -0.9492
vn 0.0966 0.6762 -0.7304
vn -0.0275 -0.1680 -0.9854
vn -0.0002 -0.0106 -0.9999
vn 0.4394 0.5749 0.6902
vn 0.0966 0.6762 0.7304
vn 0.3074 -0.2247 0.9247
vn -0.0275 -0.1680 0.9854
vn 0.1533 -0.7782 0.6090
vn 0.1540 -0.7784 0.6087
vn -0.0371 -0.7271 0.6855
vn -0.0572 -0.7206 0.6910
vn 0.0346 -0.9979 -0.0539
vn 0.0319 -0.9995 0.0000
vn -0.0197 -0.9998 0.0000
vn -0.0202 -0.9983 -0.0543
vn 0.0334 -0.9961 -0.0817
vn -0.0180 -0.9965 -0.0820
vn 0.0346 -0.9979 0.0539
vn -0.0202 -0.9983 0.0543
vn 0.0334 -0.9961 0.0817
vn -0.0180 -0.9965 0.0820
vn 0.4859 0.8740 -0.0000
vn 0.4728 0.8054 -0.3574
vn 0.1286 0.9249 -0.3579
vn 0.1352 0.9908 0.0000
vn 0.4728 0.8054 0.3574
vn 0.1286 0.9249 0.3579
vn 0.0022 0.0086 -1.0000
vn 0.3431 -0.0433 -0.9383
vn 0.2990 -0.2246 -0.9274
vn -0.0220 -0.1607 -0.9868
vn 0.4838 -0.1387 -0.8641
vn 0.4584 -0.2614 -0.8494
vn -0.0204 -0.8324 -0.5538
vn 0.1207 -0.8658 -0.4856
vn 0.0817 -0.9487 -0.3054
vn -0.0313 -0.9358 -0.3512
vn 0.2261 -0.9035 -0.3642
vn 0.1847 -0.9539 -0.2365
vn 0.0453 0.3241 -0.9449
vn 0.3665 0.2864 -0.8852
vn 0.5027 0.2436 -0.8294
vn 0.3271 0.5610 -0.7604
vn -0.3513 0.0382 -0.9355
vn -0.3217 0.3495 -0.8800
vn -0.7026 0.0486 -0.7099
vn -0.6388 0.3631 -0.6783
vn -0.2801 0.6438 -0.7121
vn 0.1109 0.6486 -0.7530
vn -0.5366 0.5813 -0.6117
vn -0.3582 -0.1236 -0.9254
vn -0.2340 -0.7853 -0.5732
vn -0.1958 -0.7934 -0.5764
vn -0.7144 -0.0881 -0.6942
vn -0.4946 -0.7484 -0.4420
vn -0.4684 -0.7532 -0.4618
vn -0.9916 0.1290 0.0000
vn -0.9267 0.1033 -0.3612
vn -0.9377 -0.0482 -0.3441
vn -0.9995 -0.0311 0.0000
vn -0.7210 -0.6930 0.0000
vn -0.6838 -0.6988 -0.2100
vn -0.6777 -0.7001 -0.2251
vn -0.9047 0.4261 -0.0000
vn -0.8375 0.4027 -0.3695
vn -0.6770 0.7359 0.0000
vn -0.6292 0.6779 -0.3803
vn -0.9267 0.1033 0.3612
vn -0.8375 0.4027 0.3695
vn -0.7026 0.0486 0.7099
vn -0.6388 0.3631 0.6783
vn -0.6292 0.6779 0.3803
vn -0.5366 0.5813 0.6117
vn -0.9377 -0.0482 0.3441
vn -0.6777 -0.7001 0.2251
vn -0.6838 -0.6988 0.2100
vn -0.7144 -0.0881 0.6942
vn -0.4946 -0.7484 0.4420
vn -0.4684 -0.7532 0.4618
vn 0.0023 0.0108 0.9999
vn -0.3513 0.0382 0.9355
vn -0.3582 -0.1236 0.9254
vn -0.0311 -0.1670 0.9855
vn -0.0204 -0.8324 0.5538
vn -0.1958 -0.7934 0.5764
vn -0.2340 -0.7853 0.5732
vn -0.0313 -0.9358 0.3512
vn 0.0512 0.3228 0.9451
vn -0.3217 0.3495 0.8800
vn 0.1110 0.6477 0.7538
vn -0.2801 0.6438 0.7121
vn 0.3626 -0.0849 0.9281
vn 0.4074 0.2680 0.8730
vn 0.5191 -0.2575 0.8150
vn 0.5696 0.2088 0.7950
vn 0.3157 0.4406 0.8404
vn 0.3235 0.5739 0.7523
vn 0.3139 -0.3040 0.8995
vn 0.0733 -0.9508 0.3011
vn 0.1010 -0.8695 0.4835
vn 0.4871 -0.3937 0.7796
vn 0.1174 -0.9681 0.2213
vn 0.0053 -0.9808 0.1951
vn -0.0191 -0.9998 0.0000
vn -0.0196 -0.9983 -0.0543
vn 0.0352 -0.9979 -0.0539
vn 0.0325 -0.9995 0.0000
vn 0.1583 -0.9828 -0.0956
vn 0.1124 -0.9937 0.0000
vn -0.0775 -0.9970 0.0000
vn -0.0814 -0.9948 -0.0615
vn -0.1083 -0.9941 0.0000
vn -0.1129 -0.9919 -0.0578
vn -0.0740 -0.9931 -0.0905
vn -0.1209 -0.9874 -0.1020
vn -0.0196 -0.9983 0.0543
vn -0.0814 -0.9948 0.0615
vn -0.0740 -0.9931 0.0905
vn -0.1129 -0.9919 0.0578
vn -0.1209 -0.9874 0.1020
vn 0.0352 -0.9979 0.0539
vn 0.1079 -0.9920 0.0659
vn 0.1743 0.9847 0.0009
vn 0.1578 0.8878 -0.4324
vn -0.2805 0.8638 -0.4185
vn -0.2906 0.9568 0.0000
vn 0.4032 0.9151 0.0021
vn 0.3882 0.8125 -0.4348
vn 0.1581 0.8887 0.4304
vn 0.3878 0.8145 0.4316
vn -0.2805 0.8638 0.4185
vn -0.3520 0.0314 -0.9355
vn -0.3051 0.3402 -0.8895
vn -0.7033 0.0772 -0.7067
vn -0.6330 0.3707 -0.6796
vn -0.2545 0.6779 -0.6897
vn -0.5200 0.6067 -0.6013
vn -0.3658 -0.3860 -0.8469
vn -0.3782 -0.5970 -0.7075
vn -0.6913 -0.2584 -0.6748
vn -0.6068 -0.5016 -0.6166
vn -0.9026 0.4304 0.0018
vn -0.6276 0.7786 0.0010
vn -0.5929 0.7264 -0.3476
vn -0.8427 0.4052 -0.3546
vn -0.8442 0.4017 0.3548
vn -0.5944 0.7251 0.3478
vn -0.6353 0.3703 0.6777
vn -0.5218 0.6061 0.6004
vn -0.3514 0.0318 0.9357
vn -0.3632 -0.3865 0.8478
vn -0.7042 0.0793 0.7055
vn -0.6887 -0.2567 0.6781
vn -0.3723 -0.6030 0.7055
vn -0.5750 -0.5310 0.6224
vn -0.3051 0.3402 0.8895
vn -0.2545 0.6779 0.6897
vn -0.1252 -0.9868 -0.1025
vn 0.0230 -0.9997 0.0000
vn 0.0694 -0.9940 -0.0849
vn -0.1718 -0.9785 -0.1141
vn -0.1277 -0.9818 -0.1406
vn -0.2679 -0.9331 -0.2399
vn -0.1237 -0.9869 0.1035
vn -0.1258 -0.9819 0.1418
vn -0.2172 -0.9725 0.0839
vn 0.0087 -0.9985 0.0547
vn -0.2626 -0.9337 0.2433
vn -0.2267 0.9094 -0.3486
vn -0.2246 0.9745 0.0000
vn -0.2267 0.9094 0.3486
vn -0.8854 0.1606 0.4362
vn -0.8837 0.1529 -0.4423
vn -0.7551 -0.3425 -0.5590
vn -0.8551 -0.0726 -0.5134
vn -0.9688 0.2479 0.0022
vn -0.9535 0.2439 -0.1773
vn -0.6572 -0.5007 -0.5634
vn -0.9528 0.2439 0.1806
vn -0.8560 -0.0579 0.5137
vn -0.6322 -0.7679 -0.1028
vn -0.6070 -0.5468 0.5766
usemtl Cloud
s 1
f 1//1 2//2 6//3 5//4
f 2//2 26//5 25//6 6//3
f 5//7 6//8 24//9 23//10
f 6//8 25//11 38//12 24//9
f 1//1 3//13 7//14 2//2
f 3//13 29//15 28//16 7//14
f 2//2 7//14 27//17 26//5
f 7//14 28//16 39//18 27//17
f 1//1 4//19 8//20 3//13
f 4//19 32//21 31//22 8//20
f 3//13 8//20 30//23 29//15
f 8//20 31//22 41//24 30//23
f 1//1 5//4 9//25 4//19
f 5//7 23//10 22//26 9//27
f 4//19 9//25 33//28 32//21
f 9//27 22//26 40//29 33//30
f 11//31 34//32 143//33 118//34
f 10//35 32//21 33//28 11//36
f 13//37 14//38 126//39 124//40
f 11//31 33//30 40//29 34//32
f 35//41 12//42 116//43 144//44
f 10//35 11//36 118//45 115//46
f 10//35 12//42 31//22 32//21
f 12//42 35//41 41//24 31//22
f 14//38 37//47 160//48 126//39
f 13//37 26//5 27//17 14//38
f 15//49 13//37 124//40 127//50
f 14//38 27//17 39//18 37//47
f 36//51 15//52 127//53 157//54
f 17//55 16//56 130//57 131//58
f 13//37 15//49 25//6 26//5
f 15//52 36//51 38//12 25//11
f 34//59 17//55 131//58 143//60
f 16//56 18//61 133//62 130//57
f 16//56 17//55 22//26 23//10
f 17//55 34//59 40//29 22//26
f 18//61 36//63 157//64 133//62
f 16//56 23//10 24//9 18//61
f 19//65 20//66 137//67 136//68
f 18//61 24//9 38//12 36//63
f 20//66 35//41 144//44 137//67
f 19//65 29//15 30//23 20//66
f 21//69 19//65 136//68 138//70
f 20//66 30//23 41//24 35//41
f 37//47 21//69 138//70 160//48
f 19//65 21//69 28//16 29//15
f 21//69 37//47 39//18 28//16
f 42//71 43//72 47//73 46//74
f 43//72 169//75 171//76 47//73
f 46//77 47//78 89//79 88//80
f 47//78 171//81 110//82 89//79
f 42//71 44//83 48//84 43//72
f 43//72 48//84 167//85 169//75
f 48//84 165//86 167//85
f 42//71 45//87 49//88 44//83
f 45//87 93//89 92//90 49//88
f 44//83 49//88 91//91 90//92
f 49//88 92//90 114//93 91//91
f 42//71 46//74 50//94 45//87
f 46//77 88//80 87//95 50//96
f 45//87 50//94 94//97 93//89
f 50//96 87//95 113//98 94//99
f 51//100 52//101 56//102 55//103
f 52//101 93//89 94//97 56//102
f 55//104 56//105 97//106 96//104
f 56//105 94//99 113//98 97//106
f 51//100 53//107 57//108 52//101
f 53//107 99//109 98//110 57//108
f 52//101 57//108 92//90 93//89
f 57//108 98//110 114//93 92//90
f 51//100 54//111 58//112 53//107
f 54//111 102//113 101//114 58//112
f 53//107 58//112 100//115 99//109
f 58//112 101//114 112//116 100//115
f 51//100 55//103 59//117 54//111
f 55//104 96//104 95//118 59//119
f 54//111 59//117 103//120 102//113
f 59//119 95//118 111//121 103//122
f 60//123 61//124 65//125 64//126
f 61//124 102//113 103//120 65//125
f 64//127 65//128 106//129 105//130
f 65//128 103//122 111//121 106//129
f 60//123 62//131 66//132 61//124
f 62//131 108//133 107//134 66//132
f 61//124 66//132 101//114 102//113
f 66//132 107//134 112//116 101//114
f 60//123 63//135 67//136 62//131
f 63//135 170//137 168//138 67//136
f 62//131 67//136 166//139 179//140 108//133
f 67//136 168//138 166//139
f 60//123 64//126 68//141 63//135
f 64//127 105//130 104//142 68//143
f 63//135 68//141 172//144 170//137
f 68//143 104//142 109//145 172//146
f 69//147 70//148 74//149 73//150
f 70//148 88//80 89//79 74//149
f 73//150 74//149 84//151 85//152
f 74//149 89//79 110//82 84//151
f 69//147 71//153 75//154 70//148
f 71//153 96//155 97//156 75//154
f 70//148 75//154 87//157 88//80
f 75//154 97//156 113//158 87//157
f 69//147 72//159 76//160 71//153
f 72//159 105//130 106//161 76//160
f 71//153 76//160 95//162 96//155
f 76//160 106//161 111//163 95//162
f 69//147 73//150 77//164 72//159
f 73//150 85//152 86//165 77//164
f 72//159 77//164 104//142 105//130
f 77//164 86//165 109//145 104//142
f 78//166 79//167 82//168 81//169
f 79//167 90//92 91//91 82//168
f 81//169 82//168 98//110 99//109
f 82//168 91//91 114//93 98//110
f 78//166 176//170 178//171 79//167
f 79//167 178//171 165//86 90//92
f 78//166 80//172 177//173 176//170
f 80//172 108//133 179//140 177//173
f 78//166 81//169 83//174 80//172
f 81//169 99//109 100//115 83//174
f 80//172 83//174 107//134 108//133
f 83//174 100//115 112//116 107//134
f 115//46 117//175 119//176 116//43
f 117//175 147//177 146//178 119//176
f 116//43 119//176 145//179 144//44
f 119//176 146//178 164//180 145//179
f 115//46 118//45 120//181 117//175
f 118//34 143//33 142//182 120//181
f 117//175 120//181 148//183 147//177
f 120//181 142//182 163//184 148//183
f 121//185 152//186 151//187 122//188
f 122//188 151//187 164//180 146//178
f 121//185 123//189 153//190 152//186
f 123//189 154//191 162//192 153//190
f 124//40 125//193 128//194 127//50
f 125//193 155//195 156//196 128//194
f 127//53 128//194 158//197 157//54
f 128//194 156//196 161//198 158//197
f 124//40 126//39 129//199 125//193
f 126//39 160//48 159//200 129//199
f 125//193 129//199 154//191 155//195
f 129//199 159//200 162//192 154//191
f 130//57 132//153 134//201 131//58
f 132//153 174//202 173//203 150//204 134//201
f 131//58 134//201 142//205 143//60
f 134//201 150//204 163//206 142//205
f 130//57 133//62 135//207 132//153
f 133//62 157//64 158//208 135//207
f 132//153 135//207 149//209 175//210 174//202
f 135//207 158//208 161//211 149//209
f 136//68 137//67 140//212 139//213
f 137//67 144//44 145//179 140//212
f 139//213 140//212 151//187 152//186
f 140//212 145//179 164//180 151//187
f 136//68 139//213 141//214 138//70
f 139//213 152//186 153//190 141//214
f 138//70 141//214 159//200 160//48
f 141//214 153//190 162//192 159//200
f 173//203 84//151 110//82 171//81
f 179//215 155//195 154//191 123//189
f 172//146 109//145 86//165 175//210
f 165//216 147//177 148//183 169//217 167//218
f 176//219 121//185 122//188 165//216 178//220
f 169//217 148//183 163//184 150//221 171//221
f 175//210 86//165 85//152 174//202
f 179//215 123//189 121//185 176//219 177//222
f 174//202 85//152 84//151 173//203
f 175//210 149//209 172//146
f 165//216 122//188 146//178 147//177
f 170//223 156//196 155//195 179//215 166//223 168//223
f 171//224 150//224 173//224
f 44//83 90//92 165//86 48//84
f 149//225 161//198 156//196 170//225 172//225
f 12//42 10//35 115//46 116//43
