# Blender v2.79 (sub 0) OBJ File: 'Cloud_2.blend'
# www.blender.org
mtllib Cloud_2.mtl
o Cloud_2_Cube.303
v 1.300212 0.123309 -0.691017
v 1.024352 0.097299 -0.644585
v 1.300213 0.435922 -0.644585
v 1.576073 0.097299 -0.644585
v 1.300212 -0.062975 -0.644585
v 1.043471 -0.061224 -0.600885
v 1.060511 0.359829 -0.603785
v 1.556955 0.354840 -0.600885
v 1.556954 -0.061224 -0.600885
v 1.991230 0.123308 -0.000000
v 1.944798 0.097299 -0.275861
v 1.944798 0.435921 -0.000000
v 1.944798 0.097299 0.275861
v 1.944798 -0.062975 -0.000000
v 1.901097 -0.061224 -0.256742
v 1.901098 0.354839 -0.256742
v 1.901098 0.354839 0.256742
v 1.901097 -0.061224 0.256742
v 1.300212 0.123309 0.691017
v 1.576073 0.097299 0.644585
v 1.300213 0.435922 0.644585
v 1.024352 0.097299 0.644585
v 1.300212 -0.062975 0.644585
v 1.556954 -0.061224 0.600885
v 1.556954 0.354839 0.600885
v 1.043471 0.354162 0.600885
v 1.043471 -0.061224 0.600885
v 1.300212 -0.168604 0.000000
v 1.300212 -0.159760 -0.275861
v 1.576073 -0.159760 0.000000
v 1.300212 -0.159760 0.275861
v 1.024351 -0.159760 0.000000
v 1.043471 -0.151436 -0.256742
v 1.556954 -0.151437 -0.256742
v 1.556954 -0.151437 0.256742
v 1.043471 -0.151436 0.256742
v 1.300213 1.102664 0.000000
v 1.300213 0.989260 -0.275861
v 1.300213 0.989260 0.275861
v 1.576074 0.989260 0.000000
v 1.556954 0.866204 -0.256742
v 1.556955 0.866204 0.256742
v 0.829064 -0.126725 -0.237623
v 0.794240 -0.133358 0.000000
v 0.829064 -0.126725 0.237623
v 1.537835 -0.126725 -0.471148
v 1.300212 -0.133358 -0.505972
v 1.062590 -0.126725 -0.471148
v 1.300213 0.767451 -0.505972
v 1.537835 0.648645 -0.471148
v 1.771361 0.303105 -0.471148
v 1.806185 0.070681 -0.505972
v 1.771360 -0.066825 -0.471148
v 1.771361 -0.126726 0.237623
v 1.806184 -0.133359 0.000000
v 1.771361 -0.126726 -0.237623
v 1.771361 0.648645 -0.237623
v 1.806185 0.767451 -0.000000
v 1.771361 0.648645 0.237623
v 1.771361 0.303105 0.471148
v 1.806185 0.070681 0.505972
v 1.771361 -0.066825 0.471148
v 1.062590 -0.126725 0.471148
v 1.300212 -0.133358 0.505972
v 1.537835 -0.126726 0.471148
v 1.537835 0.648645 0.471148
v 1.300213 0.767451 0.505972
v 0.899623 -0.113286 0.400590
v 0.899623 -0.113286 -0.400590
v 1.700802 -0.113286 0.400590
v 1.700803 0.522720 0.400590
v 1.700802 -0.113286 -0.400590
v 1.700803 0.522720 -0.400590
v -1.169687 1.430792 0.000000
v -1.092296 1.396934 0.454672
v -1.092296 1.396934 -0.454672
v -0.028170 0.881710 -1.223746
v -0.516701 0.787595 -1.141518
v -0.028169 1.430792 -1.141518
v 0.460361 0.841688 -1.141518
v -0.028170 0.273187 -1.141518
v -0.482842 0.190927 -1.064127
v -0.482842 1.396911 -1.064127
v 0.426503 1.396933 -1.064127
v 0.426502 0.278686 -1.064127
v 1.113349 1.427361 0.000000
v 1.035957 1.362619 -0.454672
v 1.035957 1.357885 0.454672
v -0.028170 0.881710 1.223746
v 0.460361 0.840047 1.141518
v -0.028169 1.430792 1.141518
v -0.516701 0.787595 1.141518
v -0.028170 0.273187 1.141518
v 0.426502 0.281957 1.064127
v 0.426503 1.396933 1.064127
v -0.482842 1.396911 1.064127
v -0.482842 0.190927 1.064127
v -0.028170 -0.183148 0.000000
v -0.028170 -0.167486 -0.488531
v 0.460361 -0.167486 0.000000
v -0.028170 -0.167486 0.488531
v -0.482843 -0.152745 -0.454672
v 0.426502 -0.152745 -0.454672
v 0.426502 -0.152745 0.454672
v -0.482843 -0.152745 0.454672
v -0.028169 2.166007 0.000000
v -0.028169 2.083779 -0.488531
v -0.516700 2.083779 0.000000
v -0.028169 2.083779 0.488531
v 0.460362 2.083778 0.000000
v 0.426503 2.006387 -0.454672
v -0.482841 2.006388 -0.454672
v -0.482841 2.006388 0.454672
v 0.426503 2.006387 0.454672
v -0.857557 0.135901 0.777934
v -0.924213 0.767057 0.896043
v -0.862541 1.357602 0.834372
v -0.862541 1.776634 0.420814
v -0.924212 1.838305 0.000000
v -0.862541 1.776634 -0.420814
v -0.862541 1.357602 -0.834372
v -0.924213 0.767057 -0.896043
v -0.862542 0.197432 -0.834372
v 0.392644 -0.061041 -0.834372
v -0.028170 -0.079305 -0.896043
v -0.448984 -0.089437 -0.834372
v -0.448983 1.776633 -0.834372
v -0.028169 1.838304 -0.896043
v 0.392645 1.776633 -0.834372
v 0.806203 1.336780 -0.834372
v 0.867874 0.712175 -0.896043
v 0.806202 0.169442 -0.834372
v 0.806202 -0.108984 0.420814
v 0.778669 -0.112157 -0.423269
v 0.806203 1.776632 -0.420814
v 0.867874 1.838303 0.000000
v 0.806203 1.776632 0.420814
v 0.806203 1.330290 0.834372
v 0.867873 0.699569 0.896043
v 0.806202 0.163548 0.834372
v -0.448984 -0.089437 0.834372
v -0.028170 -0.079305 0.896043
v 0.392644 -0.061041 0.834372
v 0.392645 1.776633 0.834372
v -0.028169 1.838304 0.896043
v -0.448983 1.776633 0.834372
v -0.737587 1.651679 0.709418
v -0.737587 1.651679 -0.709418
v 0.681248 -0.042067 0.709418
v 0.681249 1.651678 0.709418
v 0.681248 -0.043127 -0.709418
v 0.681249 1.651678 -0.709418
v -2.014908 0.107871 -0.000000
v -1.955880 0.081106 0.350694
v -1.955880 0.517741 0.000000
v -1.955880 0.081106 -0.350694
v -1.955880 -0.120456 0.000000
v -1.900325 -0.115094 0.326389
v -1.900325 0.426776 0.326389
v -1.900325 0.426776 -0.326389
v -1.900325 -0.115094 -0.326389
v -1.136436 0.107871 -0.878472
v -1.487130 0.081106 -0.819444
v -1.136436 0.459578 -0.819444
v -0.826709 0.029648 -0.826340
v -1.136436 -0.120456 -0.819444
v -1.462825 -0.115094 -0.763889
v -1.462825 0.426776 -0.763889
v -0.810047 -0.115191 -0.763889
v -1.136436 0.107871 0.878472
v -0.901649 0.049127 0.838954
v -1.136436 0.459578 0.819444
v -1.487130 0.081105 0.819444
v -1.136436 -0.120456 0.819444
v -0.851515 -0.115933 0.770947
v -0.934490 0.353895 0.767658
v -1.462825 0.426776 0.763889
v -1.462825 -0.115095 0.763889
v -1.136436 -0.235595 0.000000
v -1.136436 -0.224352 -0.350694
v -0.785742 -0.224352 0.000000
v -1.136436 -0.224352 0.350695
v -1.487131 -0.224352 0.000000
v -1.462825 -0.213770 -0.326389
v -0.810047 -0.213770 -0.326389
v -0.810047 -0.213770 0.326389
v -1.462825 -0.213770 0.326389
v -1.487130 1.139559 0.000000
v -1.462824 1.050011 -0.326389
v -1.462824 1.050011 0.326389
v -1.735395 -0.182355 -0.302083
v -1.779665 -0.190788 0.000000
v -1.735395 -0.182355 0.302083
v -1.735394 -0.115132 0.598958
v -1.779665 0.052976 0.643229
v -1.735394 0.364153 0.598958
v -1.735394 0.805342 0.302083
v -1.779665 0.919836 0.000000
v -1.735394 0.805342 -0.302083
v -1.735394 0.364154 -0.598958
v -1.779665 0.052976 -0.643229
v -1.735394 -0.115132 -0.598958
v -0.834353 -0.182355 -0.598958
v -1.136436 -0.190788 -0.643229
v -1.438520 -0.182355 -0.598958
v -1.438519 0.805342 -0.598958
v -1.136436 0.839780 -0.643229
v -0.537478 -0.182356 0.302083
v -0.493207 -0.190788 0.000000
v -0.537478 -0.182356 -0.302083
v -0.754252 0.006257 0.762442
v -1.438520 -0.182356 0.598958
v -1.136436 -0.190788 0.643229
v -0.834353 -0.182356 0.598958
v -1.136436 0.839780 0.643229
v -1.438519 0.805342 0.598958
v -1.645695 -0.165270 0.509259
v -1.645695 0.653223 0.509259
v -1.645695 -0.165270 -0.509259
v -1.645695 0.653223 -0.509259
v -0.627177 -0.165271 0.509259
v -0.627177 -0.165271 -0.509259
v -0.461240 -0.158358 -0.313318
v -0.428459 -0.170315 0.000000
v -0.684669 -0.061131 -0.732330
v -0.539727 -0.126799 -0.596709
v -0.461240 -0.158358 0.313318
v -0.489473 -0.155632 0.365633
v -0.541994 -0.125874 0.601432
v -0.539727 -0.126799 0.596709
v -0.724349 0.004327 -0.782463
v -0.523087 -0.148107 -0.451084
v -0.523087 -0.148107 0.451084
v -1.076744 0.785326 -0.642826
v -0.924951 0.352967 -0.783447
v -1.149605 0.984968 -0.479745
v -1.136435 0.962392 0.505053
v -1.078324 0.806494 0.634713
v -1.210618 1.187619 0.000000
v -1.157473 1.103194 -0.349128
v -1.157473 1.103194 0.349128
v 1.112317 0.645389 -0.488080
v 1.051154 0.461332 0.548752
v 1.011421 0.342857 -0.581491
v 1.011421 0.339418 0.581491
v 0.941136 0.079456 -0.594458
v 0.941136 0.075097 0.594458
v 0.852273 -0.068600 -0.485192
v 0.849445 -0.092776 0.427187
v 0.800287 -0.117667 -0.241863
v 0.784541 -0.130291 0.000000
v 0.800287 -0.117667 0.241863
v 1.160052 1.041869 0.000000
v 1.122504 0.900055 0.262627
v 1.122503 0.900055 -0.262627
v 1.111078 0.669361 0.478254
vn 0.0002 -0.0373 -0.9993
vn -0.0000 -0.2608 -0.9654
vn -0.3153 -0.2860 -0.9049
vn -0.3517 -0.0461 -0.9350
vn -0.4718 -0.3054 -0.8272
vn -0.4977 -0.1473 -0.8547
vn -0.0000 -0.8946 -0.4469
vn -0.0000 -0.9541 -0.2994
vn -0.1212 -0.9511 -0.2841
vn -0.1444 -0.8946 -0.4229
vn -0.2349 -0.9410 -0.2437
vn -0.2624 -0.9003 -0.3473
vn -0.3706 0.2856 -0.8838
vn -0.0011 0.3025 -0.9532
vn -0.5055 0.2654 -0.8210
vn -0.3526 0.4743 -0.8067
vn 0.3968 0.2779 -0.8748
vn 0.3558 -0.0525 -0.9331
vn 0.6796 0.2761 -0.6796
vn 0.7051 -0.0749 -0.7051
vn 0.3558 0.5497 -0.7558
vn 0.4604 0.4881 -0.7415
vn 0.6415 0.4208 -0.6415
vn 0.3170 -0.2860 -0.9043
vn 0.1477 -0.8931 -0.4248
vn 0.1234 -0.9504 -0.2855
vn 0.6711 -0.3152 -0.6711
vn 0.3139 -0.8961 -0.3139
vn 0.2462 -0.9374 -0.2462
vn 0.9993 -0.0372 -0.0000
vn 0.9654 -0.2608 -0.0000
vn 0.9043 -0.2860 -0.3170
vn 0.9331 -0.0525 -0.3558
vn 0.4469 -0.8946 -0.0000
vn 0.2994 -0.9541 -0.0000
vn 0.2855 -0.9504 -0.1234
vn 0.4248 -0.8931 -0.1477
vn 0.8748 0.2779 -0.3968
vn 0.9532 0.3023 0.0000
vn 0.7415 0.4881 -0.4604
vn 0.7558 0.5497 -0.3558
vn 0.8748 0.2779 0.3968
vn 0.9331 -0.0525 0.3558
vn 0.6796 0.2761 0.6796
vn 0.7051 -0.0749 0.7051
vn 0.7558 0.5497 0.3558
vn 0.7415 0.4881 0.4604
vn 0.6415 0.4208 0.6415
vn 0.9043 -0.2860 0.3170
vn 0.4248 -0.8931 0.1477
vn 0.2855 -0.9504 0.1234
vn 0.6711 -0.3152 0.6711
vn 0.3139 -0.8961 0.3139
vn 0.2462 -0.9374 0.2462
vn -0.0001 -0.0371 0.9993
vn -0.0000 -0.2608 0.9654
vn 0.3170 -0.2860 0.9043
vn 0.3558 -0.0525 0.9331
vn -0.0000 -0.8946 0.4469
vn -0.0000 -0.9541 0.2994
vn 0.1234 -0.9504 0.2855
vn 0.1477 -0.8931 0.4248
vn 0.3968 0.2779 0.8748
vn -0.0030 0.3030 0.9530
vn 0.4604 0.4881 0.7415
vn 0.3558 0.5497 0.7558
vn -0.4140 0.2828 0.8652
vn -0.3805 -0.0594 0.9229
vn -0.5709 0.2528 0.7811
vn -0.5501 0.1830 0.8148
vn -0.3692 0.5516 0.7479
vn -0.3455 0.4890 0.8010
vn -0.3339 0.3873 0.8594
vn -0.3613 -0.3240 0.8744
vn -0.1391 -0.8940 0.4258
vn -0.1219 -0.9509 0.2845
vn -0.5394 -0.3692 0.7568
vn -0.2506 -0.9218 0.2956
vn -0.2037 -0.9482 0.2436
vn -0.0000 -1.0000 -0.0000
vn -0.0767 -0.9971 -0.0000
vn -0.0810 -0.9934 -0.0810
vn -0.0000 -0.9971 -0.0767
vn -0.2133 -0.9770 -0.0000
vn -0.2329 -0.9646 -0.1238
vn 0.0810 -0.9934 -0.0810
vn 0.0767 -0.9971 -0.0000
vn 0.0810 -0.9934 0.0810
vn -0.0000 -0.9971 0.0767
vn -0.0810 -0.9934 0.0810
vn -0.2098 -0.9716 0.1098
vn 0.3859 0.8380 -0.3859
vn 0.5119 0.7643 -0.3922
vn 0.5163 0.6832 -0.5163
vn 0.3922 0.7643 -0.5119
vn -0.4094 0.8352 -0.3673
vn -0.4206 0.7577 -0.4990
vn -0.4222 0.7254 -0.5436
vn -0.3817 0.5501 -0.7428
vn -0.4094 0.8352 0.3673
vn -0.4112 0.7342 0.5403
vn -0.4123 0.7638 0.4965
vn 0.3859 0.8380 0.3859
vn 0.3922 0.7643 0.5119
vn 0.5163 0.6832 0.5163
vn 0.5119 0.7643 0.3922
vn -0.9379 0.3469 0.0030
vn -0.8753 0.3296 0.3539
vn -0.6656 0.6649 0.3389
vn -0.7071 0.7071 -0.0000
vn -0.6712 0.3094 0.6736
vn -0.5784 0.5752 0.5784
vn -0.6656 0.6649 -0.3389
vn -0.8746 0.3309 -0.3545
vn -0.5784 0.5752 -0.5784
vn -0.6710 0.3094 -0.6738
vn 0.0020 0.0156 -0.9999
vn 0.0227 -0.3530 -0.9353
vn -0.2836 -0.3874 -0.8772
vn -0.3479 -0.0060 -0.9375
vn -0.5502 -0.2861 -0.7845
vn -0.7060 -0.0047 -0.7082
vn 0.0392 -0.5867 -0.8088
vn -0.2114 -0.6252 -0.7513
vn -0.3896 -0.5880 -0.7089
vn -0.3535 0.3263 -0.8767
vn -0.0019 0.3423 -0.9396
vn -0.3389 0.6649 -0.6656
vn -0.0000 0.7071 -0.7071
vn 0.3585 0.3284 -0.8739
vn 0.3505 0.0089 -0.9365
vn 0.6864 0.2950 -0.6647
vn 0.6990 -0.0153 -0.7150
vn 0.3420 0.6627 -0.6662
vn 0.5909 0.5629 -0.5779
vn 0.2906 -0.3443 -0.8927
vn 0.2353 -0.5727 -0.7853
vn 0.5885 -0.3957 -0.7050
vn 0.3313 -0.7963 -0.5061
vn 0.9454 0.3258 0.0010
vn 0.8873 0.2973 -0.3527
vn 0.6738 0.6546 -0.3427
vn 0.7142 0.6999 0.0006
vn 0.6748 0.6530 0.3438
vn 0.8876 0.2944 0.3542
vn 0.5932 0.5599 0.5785
vn 0.6885 0.2909 0.6643
vn 0.0021 0.0156 0.9999
vn 0.0233 -0.3531 0.9353
vn 0.2893 -0.3431 0.8937
vn 0.3508 0.0090 0.9364
vn 0.5906 -0.3958 0.7032
vn 0.6994 -0.0189 0.7145
vn 0.0403 -0.5859 0.8094
vn 0.2327 -0.5728 0.7859
vn 0.3296 -0.7996 0.5019
vn 0.3599 0.3280 0.8734
vn -0.0019 0.3423 0.9396
vn 0.3429 0.6620 0.6664
vn -0.0000 0.7071 0.7071
vn -0.3535 0.3263 0.8767
vn -0.3571 -0.0142 0.9339
vn -0.7099 -0.0167 0.7041
vn -0.3389 0.6649 0.6656
vn -0.2997 -0.3809 0.8747
vn -0.2314 -0.5939 0.7705
vn -0.5144 -0.3465 0.7844
vn -0.4106 -0.5653 0.7154
vn -0.0000 -1.0000 0.0001
vn 0.1227 -0.9924 0.0001
vn 0.1054 -0.9917 -0.0742
vn 0.0092 -0.9921 -0.1248
vn -0.0583 -0.9932 -0.1012
vn -0.0823 -0.9764 -0.1997
vn 0.0179 -0.9780 -0.2077
vn 0.0922 -0.9852 -0.1443
vn 0.0159 -0.9766 -0.2144
vn 0.0910 -0.9857 -0.1418
vn 0.0768 -0.9970 0.0000
vn 0.3190 -0.9294 -0.1857
vn -0.0773 -0.9915 -0.1046
vn -0.0827 -0.9966 0.0000
vn 0.0954 -0.9664 -0.2385
vn 0.0914 -0.9856 0.1425
vn 0.0092 -0.9921 0.1248
vn 0.0959 -0.9662 0.2394
vn 0.0179 -0.9780 0.2077
vn -0.0651 -0.9940 0.0875
vn 0.3090 -0.9278 0.2093
vn -0.1127 -0.9852 0.1295
vn 0.1090 -0.9879 0.1107
vn 0.1255 -0.9890 0.0782
vn -0.1232 -0.9690 0.2142
vn -0.2544 -0.9359 0.2438
vn -0.0444 -0.9556 0.2911
vn -0.0256 -0.9624 0.2703
vn 0.0340 -0.9841 0.1742
vn 0.0000 1.0000 -0.0000
vn 0.3550 0.9349 0.0000
vn 0.3462 0.8719 -0.3462
vn 0.0000 0.9349 -0.3550
vn -0.3462 0.8719 -0.3462
vn -0.3550 0.9349 -0.0000
vn -0.3462 0.8719 0.3462
vn 0.0000 0.9349 0.3550
vn 0.3462 0.8719 0.3462
vn -0.9989 -0.0468 -0.0000
vn -0.9632 -0.2688 -0.0000
vn -0.9010 -0.2945 0.3185
vn -0.9327 -0.0611 0.3555
vn -0.6689 -0.3242 0.6689
vn -0.7048 -0.0815 0.7048
vn -0.3692 -0.9294 -0.0000
vn -0.2554 -0.9668 -0.0000
vn -0.2458 -0.9624 0.1154
vn -0.3529 -0.9259 0.1350
vn -0.2186 -0.9510 0.2186
vn -0.2707 -0.9238 0.2707
vn -0.8797 0.2750 0.3879
vn -0.9538 0.3004 0.0000
vn -0.7332 0.5276 0.4291
vn -0.7467 0.5961 0.2950
vn -0.6811 0.2687 0.6811
vn -0.6389 0.4284 0.6389
vn -0.8797 0.2750 -0.3879
vn -0.9327 -0.0611 -0.3555
vn -0.6811 0.2687 -0.6811
vn -0.7048 -0.0815 -0.7048
vn -0.7467 0.5961 -0.2950
vn -0.7332 0.5276 -0.4291
vn -0.6389 0.4284 -0.6389
vn -0.9010 -0.2945 -0.3185
vn -0.3529 -0.9259 -0.1350
vn -0.2458 -0.9624 -0.1154
vn -0.6689 -0.3242 -0.6689
vn -0.2707 -0.9238 -0.2707
vn -0.2186 -0.9510 -0.2186
vn -0.0089 -0.0374 -0.9993
vn -0.0138 -0.2867 -0.9579
vn -0.3185 -0.2945 -0.9010
vn -0.3529 -0.0581 -0.9338
vn -0.0001 -0.9294 -0.3691
vn -0.0000 -0.9668 -0.2554
vn -0.1154 -0.9624 -0.2458
vn -0.1350 -0.9259 -0.3529
vn -0.3678 0.2895 -0.8837
vn 0.0502 0.3112 -0.9490
vn -0.3758 0.5459 -0.7488
vn -0.1849 0.5752 -0.7968
vn 0.2193 0.2291 -0.9484
vn 0.1997 0.1460 -0.9689
vn 0.2730 -0.1416 -0.9515
vn 0.4024 0.0422 -0.9145
vn 0.5218 0.5734 -0.6316
vn 0.4121 0.4613 -0.7857
vn 0.2845 -0.3925 -0.8747
vn 0.1214 -0.9309 -0.3444
vn 0.1066 -0.9649 -0.2399
vn 0.2350 -0.4972 -0.8352
vn 0.3769 -0.4562 -0.8061
vn 0.1867 -0.9610 -0.2042
vn 0.0243 -0.0234 0.9994
vn -0.0112 -0.2805 0.9598
vn 0.3189 -0.2883 0.9029
vn 0.3426 -0.0174 0.9393
vn 0.4294 -0.2821 0.8580
vn -0.0001 -0.9294 0.3691
vn -0.0001 -0.9668 0.2554
vn 0.1096 -0.9639 0.2425
vn 0.1136 -0.9286 0.3534
vn 0.1863 -0.9600 0.2089
vn 0.3385 0.2567 0.9053
vn 0.0853 0.3147 0.9454
vn 0.4242 0.4732 0.7721
vn 0.4462 0.5609 0.6974
vn 0.5594 0.2675 0.7846
vn -0.3678 0.2895 0.8837
vn -0.3529 -0.0581 0.9338
vn -0.1832 0.5787 0.7947
vn -0.3750 0.5462 0.7490
vn -0.3185 -0.2945 0.9010
vn -0.1350 -0.9259 0.3529
vn -0.1154 -0.9624 0.2458
vn 0.2062 -0.9728 -0.1054
vn 0.2146 -0.9767 -0.0000
vn 0.2063 -0.9728 0.1054
vn -0.4007 0.8683 -0.2925
vn -0.3960 0.7908 -0.4667
vn -0.4007 0.8683 0.2925
vn -0.3953 0.7911 0.4669
vn -0.8831 0.1467 -0.4457
vn -0.9709 0.1546 -0.1827
vn -0.9879 0.1550 0.0060
vn -0.8799 0.1451 0.4524
vn -0.8534 0.0598 0.5178
vn -0.9694 0.1499 0.1944
vn -0.1810 0.8537 -0.4883
vn -0.1769 0.7257 -0.6649
vn -0.1738 0.7263 0.6651
vn -0.1792 0.8520 0.4919
vn 0.4653 0.6621 0.5875
vn 0.5074 0.3081 0.8048
vn -0.8506 0.0549 -0.5230
vn -0.1753 0.9484 0.2643
vn -0.7163 -0.1907 0.6712
vn -0.8276 -0.1459 -0.5420
vn 0.5798 0.6318 -0.5144
vn -0.1753 0.9484 -0.2643
vn 0.8892 0.0267 0.4567
vn 0.8860 0.0173 -0.4633
vn 0.8280 -0.1494 -0.5405
vn 0.9936 0.1133 0.0006
vn 0.9769 0.1112 -0.1827
vn 0.4985 -0.7160 -0.4888
vn 0.4979 -0.7614 -0.4152
vn 0.9766 0.1116 0.1840
vn 0.3464 -0.9375 0.0340
vn 0.8327 -0.1404 0.5357
vn -0.3462 -0.6336 -0.6919
vn 0.3955 -0.4498 -0.8008
vn -0.2140 -0.9492 -0.2309
vn 0.5097 -0.7144 0.4795
usemtl Cloud
s 1
f 1//1 5//2 6//3 2//4
f 2//4 6//3 248//5 246//6
f 5//7 47//8 48//9 6//10
f 6//10 48//9 69//11 248//12
f 1//1 2//4 7//13 3//14
f 2//4 246//6 244//15 7//13
f 7//13 244//15 242//16
f 1//1 3//14 8//17 4//18
f 4//18 8//17 51//19 52//20
f 3//14 49//21 50//22 8//17
f 8//17 50//22 73//23 51//19
f 1//1 4//18 9//24 5//2
f 5//7 9//25 46//26 47//8
f 4//18 52//20 53//27 9//24
f 9//25 53//28 72//29 46//26
f 10//30 14//31 15//32 11//33
f 11//33 15//32 53//27 52//20
f 14//34 55//35 56//36 15//37
f 15//37 56//36 72//29 53//28
f 10//30 11//33 16//38 12//39
f 12//39 16//38 57//40 58//41
f 11//33 52//20 51//19 16//38
f 16//38 51//19 73//23 57//40
f 10//30 12//39 17//42 13//43
f 13//43 17//42 60//44 61//45
f 12//39 58//46 59//47 17//42
f 17//42 59//47 71//48 60//44
f 10//30 13//43 18//49 14//31
f 14//34 18//50 54//51 55//35
f 13//43 61//45 62//52 18//49
f 18//50 62//53 70//54 54//51
f 19//55 23//56 24//57 20//58
f 20//58 24//57 62//52 61//45
f 23//59 64//60 65//61 24//62
f 24//62 65//61 70//54 62//53
f 19//55 20//58 25//63 21//64
f 21//64 25//63 66//65 67//66
f 20//58 61//45 60//44 25//63
f 25//63 60//44 71//48 66//65
f 19//55 21//64 26//67 22//68
f 22//68 26//67 245//69 247//70
f 21//64 67//71 256//72 243//73 26//67
f 26//67 243//73 245//69
f 19//55 22//68 27//74 23//56
f 23//59 27//75 63//76 64//60
f 22//68 247//77 249//77 27//74
f 27//75 249//78 68//79 63//76
f 28//80 32//81 33//82 29//83
f 29//83 33//82 48//9 47//8
f 32//81 44//84 43//85 33//82
f 33//82 43//85 69//11 48//9
f 28//80 29//83 34//86 30//87
f 30//87 34//86 56//36 55//35
f 29//83 47//8 46//26 34//86
f 34//86 46//26 72//29 56//36
f 28//80 30//87 35//88 31//89
f 31//89 35//88 65//61 64//60
f 30//87 55//35 54//51 35//88
f 35//88 54//51 70//54 65//61
f 28//80 31//89 36//90 32//81
f 32//81 36//90 45//91 44//84
f 31//89 64//60 63//76 36//90
f 36//90 63//76 68//79 45//91
f 37//92 40//93 41//94 38//95
f 38//95 41//94 50//22 49//21
f 40//93 58//41 57//40 41//94
f 41//94 57//40 73//23 50//22
f 37//96 38//97 255//98 253//96
f 38//97 49//99 242//16 255//98
f 37//100 253//100 254//101 39//102
f 39//102 254//101 256//72 67//71
f 37//103 39//104 42//105 40//106
f 40//106 42//105 59//47 58//46
f 39//104 67//66 66//65 42//105
f 42//105 66//65 71//48 59//47
f 74//107 75//108 118//109 119//110
f 75//108 117//111 147//112 118//109
f 74//107 119//110 120//113 76//114
f 76//114 120//113 148//115 121//116
f 77//117 81//118 82//119 78//120
f 78//120 82//119 123//121 122//122
f 81//118 125//123 126//124 82//119
f 82//119 231//125 123//121
f 77//117 78//120 83//126 79//127
f 79//127 83//126 127//128 128//129
f 78//120 122//122 121//116 83//126
f 83//126 121//116 148//115 127//128
f 77//117 79//127 84//130 80//131
f 80//131 84//130 130//132 131//133
f 79//127 128//129 129//134 84//130
f 84//130 129//134 152//135 130//132
f 77//117 80//131 85//136 81//118
f 81//118 85//136 124//137 125//123
f 80//131 131//133 132//138 85//136
f 85//136 132//138 151//139 124//137
f 86//140 87//141 135//142 136//143
f 87//141 130//132 152//135 135//142
f 86//140 136//143 137//144 88//145
f 88//145 137//144 150//146 138//147
f 89//148 93//149 94//150 90//151
f 90//151 94//150 140//152 139//153
f 93//149 142//154 143//155 94//150
f 94//150 143//155 149//156 140//152
f 89//148 90//151 95//157 91//158
f 91//158 95//157 144//159 145//160
f 90//151 139//153 138//147 95//157
f 95//157 138//147 150//146 144//159
f 89//148 91//158 96//161 92//162
f 92//162 96//161 117//111 116//163
f 91//158 145//160 146//164 96//161
f 96//161 146//164 147//112 117//111
f 89//148 92//162 97//165 93//149
f 93//149 97//165 141//166 142//154
f 92//162 116//163 115//167 97//165
f 97//165 115//167 211//168 141//166
f 98//169 224//170 223//171 99//172
f 99//172 102//173 126//174 125//175
f 102//173 232//176 226//177 126//174
f 98//169 99//172 103//178 100//179
f 100//179 103//178 134//180 250//181 251//182
f 99//172 125//175 124//183 103//178
f 103//178 124//183 151//139 134//180
f 98//169 100//179 104//184 101//185
f 101//185 104//184 143//186 142//187
f 100//179 251//182 252//188 133//189 104//184
f 104//184 133//189 149//156 143//186
f 98//169 101//185 105//190 228//191 227//192 224//170
f 101//185 142//187 141//193 105//190
f 105//190 141//193 211//194 229//195 230//196 233//197
f 106//198 110//199 111//200 107//201
f 107//201 111//200 129//134 128//129
f 110//199 136//143 135//142 111//200
f 111//200 135//142 152//135 129//134
f 106//198 107//201 112//202 108//203
f 108//203 112//202 120//113 119//110
f 107//201 128//129 127//128 112//202
f 112//202 127//128 148//115 120//113
f 106//198 108//203 113//204 109//205
f 109//205 113//204 146//164 145//160
f 108//203 119//110 118//109 113//204
f 113//204 118//109 147//112 146//164
f 106//198 109//205 114//206 110//199
f 110//199 114//206 137//144 136//143
f 109//205 145//160 144//159 114//206
f 114//206 144//159 150//146 137//144
f 153//207 157//208 158//209 154//210
f 154//210 158//209 194//211 195//212
f 157//213 192//214 193//215 158//216
f 158//216 193//215 217//217 194//218
f 153//207 154//210 159//219 155//220
f 155//220 159//219 197//221 198//222
f 154//210 195//212 196//223 159//219
f 159//219 196//223 218//224 197//221
f 153//207 155//220 160//225 156//226
f 156//226 160//225 200//227 201//228
f 155//220 198//229 199//230 160//225
f 160//225 199//230 220//231 200//227
f 153//207 156//226 161//232 157//208
f 157//213 161//233 191//234 192//214
f 156//226 201//228 202//235 161//232
f 161//233 202//236 219//237 191//234
f 162//238 166//239 167//240 163//241
f 163//241 167//240 202//235 201//228
f 166//242 204//243 205//244 167//245
f 167//245 205//244 219//237 202//236
f 162//238 163//241 168//246 164//247
f 164//247 168//246 206//248 207//249
f 163//241 201//228 200//227 168//246
f 168//246 200//227 220//231 206//248
f 162//238 164//247 235//250 123//251 165//252
f 165//252 123//251 231//253
f 164//247 207//254 234//255 235//250
f 162//238 165//252 169//256 166//239
f 166//242 169//257 203//258 204//243
f 165//252 231//259 225//260
f 169//257 226//177 222//261 203//258
f 170//262 174//263 175//264 171//265
f 171//265 175//264 229//266 211//266
f 174//267 213//268 214//269 175//270
f 175//270 214//269 221//271 230//196 229//195
f 170//262 171//265 176//272 172//273
f 172//273 176//272 238//274 215//275
f 171//265 115//276 176//272
f 170//262 172//273 177//277 173//278
f 173//278 177//277 196//223 195//212
f 172//273 215//279 216//280 177//277
f 177//277 216//280 218//224 196//223
f 170//262 173//278 178//281 174//263
f 174//267 178//282 212//283 213//268
f 173//278 195//212 194//211 178//281
f 178//282 194//218 217//217 212//283
f 179//80 183//81 184//82 180//83
f 180//83 184//82 205//244 204//243
f 183//81 192//214 191//234 184//82
f 184//82 191//234 219//237 205//244
f 179//80 180//83 185//86 181//87
f 181//87 185//86 210//284 209//285
f 180//83 204//243 203//258 185//86
f 185//86 203//258 222//261 210//284
f 179//80 181//87 186//88 182//89
f 182//89 186//88 214//269 213//268
f 181//87 209//285 208//286 186//88
f 186//88 208//286 221//271 214//269
f 179//80 182//89 187//90 183//81
f 183//81 187//90 193//215 192//214
f 182//89 213//268 212//283 187//90
f 187//90 212//283 217//217 193//215
f 188//287 189//288 199//230 198//229
f 189//288 206//248 220//231 199//230
f 188//289 198//222 197//221 190//290
f 190//290 197//221 218//224 216//280
f 236//291 240//292 239//293 74//107 76//114
f 224//170 227//192 208//286 209//285
f 237//294 238//295 116//163 117//111 75//108
f 226//177 232//176 223//171 210//284 222//261
f 239//293 241//296 237//294 75//108 74//107
f 240//297 236//298 207//249 206//248 189//288
f 237//299 241//300 190//290 216//280 215//279
f 233//197 228//191 105//190
f 238//274 237//301 215//275
f 227//192 228//191 233//197 230//196 221//271 208//286
f 115//276 171//265 211//302
f 234//303 236//291 76//114 121//116 122//122
f 223//171 224//170 209//285 210//284
f 241//300 239//304 188//289 190//290
f 238//295 176//305 116//163
f 123//121 235//306 122//122
f 223//171 232//176 102//173
f 236//307 234//255 207//254
f 239//308 240//297 189//288 188//287
f 250//181 248//12 69//11 43//85
f 256//309 88//145 138//147 139//153
f 249//78 252//188 45//91 68//79
f 242//310 244//311 246//311 132//138 131//133
f 253//312 255//313 242//310 87//141 86//140
f 246//314 248//315 134//180 151//139 132//138
f 252//188 251//182 44//84 45//91
f 256//309 254//316 253//312 86//140 88//145
f 251//182 250//181 43//85 44//84
f 252//188 249//317 133//189
f 242//310 131//133 130//132 87//141
f 247//318 245//318 243//318 256//309 139//153 140//152
f 248//315 250//181 134//180
f 231//125 82//119 126//124 225//319
f 225//260 226//320 169//256 165//252
f 126//174 226//177 225//321
f 99//172 223//171 102//173
f 122//122 235//306 234//303
f 116//163 176//305 115//167
f 3//14 7//13 242//16 49//99
f 133//189 249//322 247//322 140//152 149//156
