# Blender v2.79 (sub 0) OBJ File: 'Grass_3.blend'
# www.blender.org
mtllib Grass_3.mtl
o Grass_3_Cube.214
v -0.273599 1.089017 0.182803
v -0.431264 0.996505 0.000000
v -0.273599 1.089017 -0.182802
v -0.405361 1.313573 0.000000
v -0.115934 1.181530 0.000000
v -0.404664 0.945089 0.000000
v -0.479258 1.194745 0.000000
v -0.198822 0.961578 -0.197819
v -0.372420 1.257434 -0.123872
v -0.006103 1.031497 0.000000
v -0.265582 1.320123 0.000000
v -0.198822 0.961578 0.197819
v -0.372420 1.257434 0.123872
v -0.155351 1.158402 0.137102
v -0.391848 1.019633 0.137102
v -0.391848 1.019633 -0.137102
v -0.155351 1.158402 -0.137102
v -0.357084 0.944855 0.142742
v -0.429320 1.165350 0.095677
v -0.357084 0.944855 -0.142741
v -0.429320 1.165350 -0.095677
v -0.049573 1.005990 0.151202
v -0.264280 1.262190 0.095677
v -0.049573 1.005990 -0.151201
v -0.264280 1.262190 -0.095677
v -0.044800 1.133084 0.140743
v -0.252504 1.133220 0.000000
v -0.044800 1.133084 -0.140743
v -0.044607 1.429816 0.000000
v 0.162904 1.132948 0.000000
v -0.256045 0.980296 0.000000
v -0.185401 1.355725 0.000000
v -0.044910 0.980296 -0.152304
v -0.044655 1.355633 -0.095371
v 0.184127 0.980296 0.000000
v 0.096091 1.355541 0.000000
v -0.044910 0.980296 0.152305
v -0.044655 1.355633 0.095372
v 0.110978 1.132982 0.105558
v -0.200578 1.133186 0.105558
v -0.200578 1.133186 -0.105557
v 0.110978 1.132982 -0.105557
v -0.209570 0.980296 0.109900
v -0.153403 1.298006 0.073664
v -0.209570 0.980296 -0.109899
v -0.153403 1.298006 -0.073663
v 0.126861 0.980296 0.116413
v 0.064017 1.297864 0.073664
v 0.126861 0.980296 -0.116413
v 0.064017 1.297864 -0.073663
v 0.255795 1.021440 0.305663
v -0.000371 1.188199 0.000000
v 0.255795 1.021440 -0.305662
v 0.536188 0.958873 0.000000
v 0.469863 1.338840 0.000000
v -0.179559 0.947926 0.000000
v 0.240931 1.382260 0.000000
v 0.199348 0.934729 -0.316177
v 0.416346 1.268069 -0.209308
v 0.416346 1.268069 0.209309
v 0.199348 0.934729 0.316178
v 0.591761 1.153877 0.000000
v 0.521002 0.907690 0.000000
v 0.465561 0.972626 0.209716
v 0.063671 1.146509 0.229247
v 0.063671 1.146509 -0.229247
v 0.465561 0.972627 -0.209716
v 0.239834 1.291937 -0.160951
v -0.089557 0.946256 -0.248410
v 0.239834 1.291937 0.160951
v -0.089557 0.946256 0.248411
v 0.444496 0.918956 0.221343
v 0.509610 1.116319 0.160951
v 0.444496 0.918957 -0.221342
v 0.509610 1.116319 -0.160951
vn -0.1058 0.1801 0.9779
vn 0.0112 0.1233 0.9923
vn 0.5766 0.4625 0.6735
vn 0.4879 0.5336 0.6908
vn 0.2957 0.7250 0.6220
vn -0.3321 0.5660 0.7545
vn -0.7772 0.0955 0.6220
vn -0.7035 -0.1685 0.6904
vn -0.6112 -0.2398 0.7543
vn -0.9475 -0.3196 0.0000
vn -0.9048 -0.4258 0.0000
vn -0.9829 0.1841 0.0000
vn -0.7772 0.0955 -0.6220
vn -0.7035 -0.1685 -0.6904
vn -0.6112 -0.2398 -0.7543
vn -0.1058 0.1801 -0.9779
vn 0.0112 0.1233 -0.9923
vn -0.3321 0.5660 -0.7545
vn 0.2957 0.7250 -0.6220
vn 0.4879 0.5336 -0.6908
vn 0.5766 0.4625 -0.6735
vn -0.5061 0.8625 0.0000
vn 0.3187 0.9478 0.0000
vn 0.7377 0.6751 0.0000
vn 0.8069 0.5907 0.0000
vn -0.0061 0.1474 0.9890
vn -0.0119 0.0717 0.9973
vn 0.6197 0.1149 0.7764
vn 0.6044 0.1901 0.7736
vn 0.5427 0.3984 0.7394
vn 0.0003 0.5554 0.8315
vn -0.5422 0.3991 0.7394
vn -0.6198 0.1615 0.7680
vn -0.6413 0.0558 0.7653
vn -0.9839 0.1787 0.0000
vn -0.9989 0.0474 0.0000
vn -0.7485 0.6631 0.0000
vn -0.5422 0.3991 -0.7394
vn -0.6198 0.1615 -0.7680
vn -0.6413 0.0558 -0.7653
vn -0.0061 0.1474 -0.9890
vn -0.0119 0.0717 -0.9973
vn 0.0003 0.5554 -0.8315
vn 0.5427 0.3984 -0.7394
vn 0.6044 0.1901 -0.7736
vn 0.6197 0.1149 -0.7764
vn 0.0006 1.0000 0.0000
vn 0.7494 0.6621 0.0000
vn 0.9745 0.2245 0.0000
vn 0.9904 0.1377 0.0000
vn 0.1331 0.1840 0.9739
vn -0.0123 0.1532 0.9881
vn 0.6463 -0.1635 0.7453
vn 0.7253 -0.1262 0.6767
vn 0.7886 0.0932 0.6078
vn 0.3742 0.5735 0.7288
vn -0.2219 0.7657 0.6037
vn -0.4610 0.5630 0.6859
vn -0.6171 0.5128 0.5967
vn -0.7043 0.7099 0.0000
vn -0.7917 0.6109 0.0000
vn -0.2325 0.9726 0.0000
vn -0.2219 0.7657 -0.6037
vn -0.4610 0.5630 -0.6859
vn -0.6171 0.5128 -0.5967
vn 0.1331 0.1840 -0.9739
vn -0.0123 0.1532 -0.9881
vn 0.3742 0.5735 -0.7288
vn 0.7886 0.0932 -0.6078
vn 0.7253 -0.1262 -0.6767
vn 0.6463 -0.1635 -0.7453
vn 0.9652 -0.2613 0.0000
vn 0.9562 -0.2925 0.0000
vn 0.9856 0.1691 0.0000
vn 0.5575 0.8301 0.0000
usemtl Green_Light
s 1
f 1//1 12//2 22//3 14//4
f 1//1 14//4 23//5 13//6
f 1//1 13//6 19//7 15//8
f 1//1 15//8 18//9 12//2
f 2//10 6//11 18//9 15//8
f 2//10 15//8 19//7 7//12
f 2//10 7//12 21//13 16//14
f 2//10 16//14 20//15 6//11
f 3//16 8//17 20//15 16//14
f 3//16 16//14 21//13 9//18
f 3//16 9//18 25//19 17//20
f 3//16 17//20 24//21 8//17
f 4//22 11//23 25//19 9//18
f 4//22 9//18 21//13 7//12
f 4//22 7//12 19//7 13//6
f 4//22 13//6 23//5 11//23
f 5//24 10//25 24//21 17//20
f 5//24 17//20 25//19 11//23
f 5//24 11//23 23//5 14//4
f 5//24 14//4 22//3 10//25
f 26//26 37//27 47//28 39//29
f 26//26 39//29 48//30 38//31
f 26//26 38//31 44//32 40//33
f 26//26 40//33 43//34 37//27
f 27//35 31//36 43//34 40//33
f 27//35 40//33 44//32 32//37
f 27//35 32//37 46//38 41//39
f 27//35 41//39 45//40 31//36
f 28//41 33//42 45//40 41//39
f 28//41 41//39 46//38 34//43
f 28//41 34//43 50//44 42//45
f 28//41 42//45 49//46 33//42
f 29//47 36//48 50//44 34//43
f 29//47 34//43 46//38 32//37
f 29//47 32//37 44//32 38//31
f 29//47 38//31 48//30 36//48
f 30//49 35//50 49//46 42//45
f 30//49 42//45 50//44 36//48
f 30//49 36//48 48//30 39//29
f 30//49 39//29 47//28 35//50
f 51//51 61//52 72//53 64//54
f 51//51 64//54 73//55 60//56
f 51//51 60//56 70//57 65//58
f 51//51 65//58 71//59 61//52
f 52//60 56//61 71//59 65//58
f 52//60 65//58 70//57 57//62
f 52//60 57//62 68//63 66//64
f 52//60 66//64 69//65 56//61
f 53//66 58//67 69//65 66//64
f 53//66 66//64 68//63 59//68
f 53//66 59//68 75//69 67//70
f 53//66 67//70 74//71 58//67
f 54//72 63//73 74//71 67//70
f 54//72 67//70 75//69 62//74
f 54//72 62//74 73//55 64//54
f 54//72 64//54 72//53 63//73
f 55//75 62//74 75//69 59//68
f 55//75 59//68 68//63 57//62
f 55//75 57//62 70//57 60//56
f 55//75 60//56 73//55 62//74
