# Blender v2.79 (sub 0) OBJ File: 'Grass_1.blend'
# www.blender.org
mtllib Grass_1.mtl
o Grass_1_Cube.216
v -0.273599 1.093005 0.182803
v -0.431264 1.000493 0.000000
v -0.273599 1.093005 -0.182802
v -0.405361 1.317561 0.000000
v -0.115934 1.185518 0.000000
v -0.404664 0.949078 0.000000
v -0.479258 1.198733 0.000000
v -0.198822 0.965566 -0.197819
v -0.372420 1.261422 -0.123872
v 0.043507 0.993507 0.000000
v -0.265582 1.324111 0.000000
v -0.198822 0.965566 0.197819
v -0.372420 1.261422 0.123872
v -0.155351 1.162390 0.137102
v -0.391848 1.023621 0.137102
v -0.391848 1.023621 -0.137102
v -0.155351 1.162390 -0.137102
v -0.357084 0.948843 0.142742
v -0.429320 1.169338 0.095677
v -0.357084 0.948843 -0.142741
v -0.429320 1.169338 -0.095677
v -0.030492 0.983265 0.151202
v -0.264280 1.266178 0.095677
v -0.030492 0.983265 -0.151201
v -0.264280 1.266178 -0.095677
vn -0.1037 0.1796 0.9782
vn 0.0293 0.1294 0.9911
vn 0.5898 0.4879 0.6435
vn 0.4769 0.5334 0.6985
vn 0.2957 0.7250 0.6220
vn -0.3321 0.5660 0.7546
vn -0.7772 0.0955 0.6220
vn -0.7035 -0.1685 0.6904
vn -0.6112 -0.2398 0.7543
vn -0.9475 -0.3196 0.0000
vn -0.9048 -0.4258 0.0000
vn -0.9829 0.1841 0.0000
vn -0.7772 0.0955 -0.6220
vn -0.7035 -0.1685 -0.6904
vn -0.6112 -0.2398 -0.7543
vn -0.1037 0.1796 -0.9782
vn 0.0293 0.1294 -0.9911
vn -0.3321 0.5660 -0.7545
vn 0.2957 0.7250 -0.6220
vn 0.4769 0.5334 -0.6985
vn 0.5898 0.4879 -0.6435
vn -0.5061 0.8625 0.0000
vn 0.3187 0.9478 0.0000
vn 0.7257 0.6880 0.0000
vn 0.7868 0.6172 0.0000
usemtl Green_Light
s 1
f 1//1 12//2 22//3 14//4
f 1//1 14//4 23//5 13//6
f 1//1 13//6 19//7 15//8
f 1//1 15//8 18//9 12//2
f 2//10 6//11 18//9 15//8
f 2//10 15//8 19//7 7//12
f 2//10 7//12 21//13 16//14
f 2//10 16//14 20//15 6//11
f 3//16 8//17 20//15 16//14
f 3//16 16//14 21//13 9//18
f 3//16 9//18 25//19 17//20
f 3//16 17//20 24//21 8//17
f 4//22 11//23 25//19 9//18
f 4//22 9//18 21//13 7//12
f 4//22 7//12 19//7 13//6
f 4//22 13//6 23//5 11//23
f 5//24 10//25 24//21 17//20
f 5//24 17//20 25//19 11//23
f 5//24 11//23 23//5 14//4
f 5//24 14//4 22//3 10//25
