# Blender v2.79 (sub 0) OBJ File: 'RockPlatforms_Medium.blend'
# www.blender.org
mtllib RockPlatforms_Medium.mtl
o RockPlatforms_Medium_Cube.380
v -1.552932 2.745051 -0.012348
v -1.449346 2.744278 0.604813
v -1.420237 2.850254 -0.008321
v -1.449251 2.744391 -0.628847
v -1.615253 2.610170 -0.015629
v -1.507633 2.610108 0.625862
v -1.325140 2.847234 0.555932
v -1.325068 2.847319 -0.572622
v -1.507518 2.610245 -0.656112
v -0.000004 2.745215 -1.553020
v -0.620968 2.744478 -1.450625
v -0.000002 2.850366 -1.420180
v 0.620949 2.744500 -1.448978
v -0.000008 2.610376 -1.615575
v -0.646054 2.610355 -1.509416
v -0.567383 2.847377 -1.325975
v 0.567371 2.847394 -1.324737
v 0.646027 2.610383 -1.507400
v 1.552783 2.745215 -0.000232
v 1.449158 2.744500 -0.620769
v 1.420137 2.850366 -0.000040
v 1.449139 2.744478 0.619482
v 1.615063 2.610376 -0.000504
v 1.507398 2.610383 -0.646029
v 1.325007 2.847393 -0.567101
v 1.324993 2.847377 0.566402
v 1.507375 2.610355 0.644012
v -0.000144 2.745050 1.540440
v 0.620856 2.744390 1.441261
v -0.000098 2.850253 1.411818
v -0.621137 2.744278 1.433022
v -0.000182 2.610170 1.599442
v 0.645911 2.610245 1.497316
v 0.567308 2.847318 1.319755
v -0.567504 2.847234 1.313568
v -0.646262 2.610108 1.487233
v -0.000002 0.000000 -0.000000
v -0.000002 0.006178 -0.929653
v 0.929651 0.006178 -0.000000
v -0.000002 0.006178 0.929652
v -0.929654 0.006178 -0.000000
v -0.864640 0.011993 -0.864638
v 0.864636 0.011993 -0.864638
v 0.864636 0.011993 0.864638
v -0.864640 0.011993 0.864638
v -0.000011 2.911053 -0.000784
v -0.000005 2.904252 -0.566022
v -0.565756 2.904228 -0.002039
v -0.000025 2.904228 0.563691
v 0.565725 2.904252 -0.000291
v 0.527583 2.897848 -0.527585
v -0.527600 2.897833 -0.528750
v -0.527630 2.897797 0.523820
v 0.527569 2.897833 0.526419
v -0.000006 0.131602 2.375929
v 0.949384 0.132240 2.216887
v -0.000020 0.287283 2.403407
v -0.949397 0.132237 2.216635
v -0.000002 0.055239 2.163784
v 0.860955 0.057783 2.016494
v 0.961975 0.287291 2.243630
v -0.962013 0.287277 2.242622
v -0.860959 0.057783 2.016494
v 2.376318 0.131607 -0.000013
v 2.217138 0.132244 -0.949389
v 2.404967 0.287304 -0.000051
v 2.217137 0.132243 0.949338
v 2.163782 0.055239 -0.000000
v 2.016492 0.057783 -0.860957
v 2.244637 0.287305 -0.961988
v 2.244634 0.287302 0.961786
v 2.016492 0.057783 0.860957
v -0.000002 0.131607 -2.376333
v -0.949391 0.132243 -2.217190
v -0.000002 0.287304 -2.405020
v 0.949387 0.132244 -2.217140
v -0.000002 0.055239 -2.163785
v -0.860959 0.057783 -2.016495
v -0.961992 0.287302 -2.244840
v 0.961986 0.287305 -2.244639
v 0.860955 0.057783 -2.016495
v -2.376327 0.131602 -0.000391
v -2.217147 0.132237 0.948885
v -2.404990 0.287283 -0.001563
v -2.217144 0.132240 -0.949641
v -2.163786 0.055239 -0.000000
v -2.016496 0.057783 0.860957
v -2.244664 0.287277 0.959971
v -2.244652 0.287291 -0.962996
v -2.016496 0.057783 -0.860957
v -1.584923 0.029255 -0.798704
v -1.703013 0.024621 -0.000000
v -1.584923 0.029255 0.798703
v -1.184643 2.610081 1.162202
v -1.138683 2.743534 1.120611
v -1.040616 2.844236 1.027456
v -0.971501 2.878736 0.484462
v -1.041554 2.883873 -0.004370
v -0.971456 2.878789 -0.493873
v -1.763652 0.287298 -1.764149
v -1.741024 0.132878 -1.741148
v -1.580322 0.060327 -1.580320
v 0.798702 0.029255 -1.584921
v -0.000002 0.024621 -1.703012
v -0.798705 0.029255 -1.584921
v -0.491130 2.878814 -0.972364
v -0.000005 2.883929 -1.041737
v 0.491115 2.878826 -0.971423
v 1.763643 0.287305 -1.763645
v 1.741019 0.132880 -1.741021
v 1.580318 0.060327 -1.580320
v 1.584919 0.029255 0.798703
v 1.703010 0.024621 -0.000000
v 1.584919 0.029255 -0.798704
v 0.971421 2.878826 -0.491117
v 1.041497 2.883929 -0.000235
v 0.971410 2.878814 0.490176
v 1.763637 0.287298 1.763140
v 1.741018 0.132878 1.740895
v 1.580318 0.060327 1.580320
v -0.798705 0.029255 1.584921
v -0.000002 0.024621 1.703011
v 0.798702 0.029255 1.584921
v 0.491083 2.878789 0.968667
v -0.000052 2.883873 1.037132
v -0.491195 2.878736 0.964768
v -1.580322 0.060327 1.580320
v -1.741030 0.132872 1.740466
v -1.763672 0.287274 1.761426
v -1.040497 2.844377 -1.043122
v -1.138523 2.743724 -1.142375
v -1.184445 2.610314 -1.189427
v 1.040466 2.844416 -1.040195
v 1.138476 2.743779 -1.138296
v 1.184384 2.610383 -1.184386
v 1.040432 2.844377 1.037806
v 1.138429 2.743724 1.134577
v 1.184325 2.610314 1.179343
v -1.345967 0.038643 1.345965
v -0.828963 2.868364 0.820258
v -1.345967 0.038643 -1.345966
v -0.828888 2.868454 -0.830894
v 1.345963 0.038643 1.345965
v 0.828837 2.868454 0.826831
v 1.345964 0.038643 -1.345966
v 0.828861 2.868481 -0.828863
vn -0.9073 0.4204 0.0021
vn -0.9291 0.3699 -0.0014
vn -0.8712 0.3722 0.3201
vn -0.8514 0.4193 0.3153
vn -0.6565 0.3766 0.6536
vn -0.6399 0.4198 0.6437
vn -0.8685 0.3762 -0.3227
vn -0.9354 0.0666 -0.3473
vn -0.9976 0.0694 -0.0002
vn -0.9353 0.0705 0.3467
vn -0.6163 0.7875 -0.0014
vn -0.5717 0.7919 0.2145
vn -0.5728 0.7918 0.2121
vn -0.6164 0.7875 0.0018
vn -0.0864 0.9963 -0.0001
vn -0.0798 0.9962 0.0359
vn -0.0635 0.9974 0.0339
vn -0.0669 0.9978 0.0001
vn -0.4274 0.7981 0.4248
vn -0.4247 0.7980 0.4275
vn -0.0629 0.9960 0.0628
vn -0.0576 0.9967 0.0577
vn -0.5674 0.7969 -0.2071
vn -0.5638 0.7975 -0.2148
vn -0.4163 0.8072 -0.4186
vn -0.4159 0.8072 -0.4189
vn -0.0630 0.9975 -0.0335
vn -0.0790 0.9962 -0.0357
vn -0.0568 0.9968 -0.0570
vn -0.0618 0.9962 -0.0621
vn -0.8475 0.4307 -0.3103
vn -0.6509 0.3835 -0.6552
vn -0.7049 0.0651 -0.7063
vn -0.6326 0.4407 -0.6368
vn 0.0014 0.4224 -0.9064
vn 0.0009 0.3706 -0.9288
vn -0.3184 0.3759 -0.8702
vn -0.3070 0.4299 -0.8491
vn 0.3206 0.3753 -0.8697
vn 0.3467 0.0678 -0.9355
vn 0.0004 0.0690 -0.9976
vn -0.3459 0.0669 -0.9359
vn 0.0007 0.7882 -0.6155
vn -0.2118 0.7968 -0.5660
vn -0.2057 0.7963 -0.5688
vn 0.0008 0.7882 -0.6155
vn 0.0001 0.9963 -0.0863
vn -0.0355 0.9962 -0.0792
vn -0.0333 0.9974 -0.0631
vn 0.0001 0.9978 -0.0668
vn 0.2078 0.7955 -0.5692
vn 0.2138 0.7959 -0.5665
vn 0.4191 0.8055 -0.4190
vn 0.4190 0.8055 -0.4191
vn 0.0335 0.9974 -0.0631
vn 0.0357 0.9962 -0.0792
vn 0.0570 0.9967 -0.0570
vn 0.0621 0.9961 -0.0621
vn 0.3103 0.4279 -0.8489
vn 0.6534 0.3823 -0.6534
vn 0.7055 0.0665 -0.7055
vn 0.6361 0.4369 -0.6359
vn -0.7055 0.0722 0.7050
vn 0.9073 0.4206 0.0003
vn 0.9291 0.3699 0.0000
vn 0.8699 0.3750 -0.3205
vn 0.8494 0.4272 -0.3099
vn 0.8699 0.3743 0.3212
vn 0.9354 0.0682 0.3469
vn 0.9976 0.0694 0.0000
vn 0.9356 0.0678 -0.3466
vn 0.6162 0.7876 0.0000
vn 0.5667 0.7957 -0.2137
vn 0.5695 0.7953 -0.2077
vn 0.6162 0.7876 0.0002
vn 0.0862 0.9963 0.0000
vn 0.0792 0.9962 -0.0357
vn 0.0631 0.9974 -0.0335
vn 0.0667 0.9978 0.0000
vn 0.5699 0.7947 0.2089
vn 0.5673 0.7951 0.2144
vn 0.4191 0.8031 0.4235
vn 0.4201 0.8031 0.4225
vn 0.0631 0.9974 0.0336
vn 0.0792 0.9962 0.0358
vn 0.0569 0.9967 0.0573
vn 0.0620 0.9961 0.0624
vn 0.8495 0.4255 0.3119
vn 0.6522 0.3802 0.6558
vn 0.7047 0.0682 0.7062
vn 0.6344 0.4310 0.6417
vn -0.0069 0.4025 0.9154
vn -0.0048 0.3636 0.9315
vn 0.3168 0.3707 0.8731
vn 0.3049 0.4149 0.8573
vn -0.3249 0.3679 0.8713
vn -0.3475 0.0749 0.9347
vn -0.0018 0.0754 0.9972
vn 0.3449 0.0716 0.9359
vn -0.0037 0.7786 0.6275
vn 0.2134 0.7900 0.5748
vn 0.2060 0.7894 0.5783
vn -0.0042 0.7786 0.6275
vn -0.0004 0.9962 0.0873
vn 0.0355 0.9962 0.0799
vn 0.0333 0.9974 0.0636
vn -0.0004 0.9977 0.0674
vn -0.2138 0.7855 0.5808
vn -0.2209 0.7860 0.5774
vn -0.0340 0.9974 0.0638
vn -0.0364 0.9961 0.0802
vn -0.3164 0.4063 0.8572
vn 0.0000 -1.0000 0.0000
vn -0.0160 -0.9999 0.0000
vn -0.0171 -0.9997 -0.0171
vn 0.0000 -0.9999 -0.0160
vn -0.0227 -0.9987 -0.0447
vn 0.0000 -0.9989 -0.0466
vn -0.0466 -0.9989 0.0000
vn -0.0447 -0.9987 -0.0227
vn -0.0407 -0.9983 -0.0407
vn 0.0171 -0.9997 -0.0171
vn 0.0160 -0.9999 0.0000
vn 0.0447 -0.9987 -0.0227
vn 0.0466 -0.9989 0.0000
vn 0.0227 -0.9987 -0.0447
vn 0.0407 -0.9983 -0.0407
vn 0.0171 -0.9997 0.0171
vn -0.0000 -0.9999 0.0160
vn 0.0227 -0.9987 0.0447
vn 0.0000 -0.9989 0.0466
vn 0.0447 -0.9987 0.0227
vn 0.0407 -0.9983 0.0407
vn -0.0171 -0.9997 0.0171
vn -0.0447 -0.9987 0.0227
vn -0.0227 -0.9987 0.0447
vn -0.0407 -0.9983 0.0407
vn -0.0000 1.0000 0.0000
vn 0.0286 0.9996 0.0000
vn 0.0302 0.9991 -0.0302
vn 0.0000 0.9996 -0.0287
vn -0.0302 0.9991 -0.0302
vn -0.0287 0.9996 0.0001
vn -0.0305 0.9991 0.0305
vn -0.0001 0.9996 0.0288
vn 0.0302 0.9991 0.0303
vn -0.0000 -0.9431 0.3325
vn -0.0000 -0.9767 0.2146
vn 0.0734 -0.9774 0.1982
vn 0.1144 -0.9467 0.3010
vn 0.1478 -0.9779 0.1478
vn 0.2193 -0.9507 0.2193
vn -0.0003 -0.1772 0.9842
vn 0.3376 -0.1864 0.9226
vn 0.6928 -0.1974 0.6935
vn -0.3382 -0.1826 0.9232
vn -0.6930 -0.1926 0.6947
vn -0.1145 -0.9466 0.3012
vn -0.0735 -0.9774 0.1983
vn -0.2196 -0.9506 0.2195
vn -0.1479 -0.9779 0.1480
vn 0.3320 -0.9433 -0.0000
vn 0.2144 -0.9768 0.0000
vn 0.1980 -0.9775 -0.0734
vn 0.3007 -0.9468 -0.1143
vn 0.1477 -0.9779 -0.1477
vn 0.2192 -0.9507 -0.2192
vn 0.9829 -0.1842 0.0000
vn 0.9216 -0.1909 -0.3379
vn 0.6929 -0.1994 -0.6929
vn 0.9217 -0.1905 0.3380
vn 0.3007 -0.9468 0.1143
vn 0.1980 -0.9774 0.0734
vn 0.0000 -0.9433 -0.3319
vn 0.0000 -0.9768 -0.2143
vn -0.0734 -0.9775 -0.1980
vn -0.1142 -0.9469 -0.3007
vn -0.1477 -0.9779 -0.1477
vn -0.2191 -0.9508 -0.2192
vn 0.0001 -0.1846 -0.9828
vn -0.3377 -0.1919 -0.9215
vn -0.6927 -0.2011 -0.6926
vn 0.3379 -0.1910 -0.9216
vn 0.1143 -0.9468 -0.3007
vn 0.0734 -0.9775 -0.1980
vn -0.3319 -0.9433 -0.0001
vn -0.2143 -0.9768 0.0000
vn -0.1981 -0.9774 0.0735
vn -0.3009 -0.9468 0.1143
vn -0.9829 -0.1842 0.0008
vn -0.9218 -0.1879 0.3391
vn -0.9215 -0.1924 -0.3374
vn -0.3006 -0.9469 -0.1143
vn -0.1979 -0.9775 -0.0733
usemtl Rock
s 1
f 1//1 5//2 6//3 2//4
f 2//4 6//3 94//5 95//6
f 9//7 89//8 84//9 5//2
f 88//10 6//3 5//2 84//9
f 1//11 2//12 7//13 3//14
f 3//15 7//16 97//17 98//18
f 2//12 95//19 96//20 7//13
f 7//16 96//21 140//22 97//17
f 1//11 3//14 8//23 4//24
f 4//24 8//23 130//25 131//26
f 3//15 98//18 99//27 8//28
f 8//28 99//27 142//29 130//30
f 1//1 4//31 9//7 5//2
f 132//32 100//33 89//8 9//7
f 4//31 131//34 132//32 9//7
f 10//35 14//36 15//37 11//38
f 11//38 15//37 132//32 131//34
f 18//39 80//40 75//41 14//36
f 79//42 15//37 14//36 75//41
f 10//43 11//44 16//45 12//46
f 12//47 16//48 106//49 107//50
f 11//44 131//26 130//25 16//45
f 16//48 130//30 142//29 106//49
f 10//43 12//46 17//51 13//52
f 13//52 17//51 133//53 134//54
f 12//47 107//50 108//55 17//56
f 17//56 108//55 146//57 133//58
f 10//35 13//59 18//39 14//36
f 135//60 109//61 80//40 18//39
f 13//59 134//62 135//60 18//39
f 129//63 94//5 6//3 88//10
f 19//64 23//65 24//66 20//67
f 20//67 24//66 135//60 134//62
f 27//68 71//69 66//70 23//65
f 70//71 24//66 23//65 66//70
f 19//72 20//73 25//74 21//75
f 21//76 25//77 115//78 116//79
f 20//73 134//54 133//53 25//74
f 25//77 133//58 146//57 115//78
f 19//72 21//75 26//80 22//81
f 22//81 26//80 136//82 137//83
f 21//76 116//79 117//84 26//85
f 26//85 117//84 144//86 136//87
f 19//64 22//88 27//68 23//65
f 138//89 118//90 71//69 27//68
f 22//88 137//91 138//89 27//68
f 132//32 15//37 79//42 100//33
f 28//92 32//93 33//94 29//95
f 29//95 33//94 138//89 137//91
f 36//96 62//97 57//98 32//93
f 61//99 33//94 32//93 57//98
f 28//100 29//101 34//102 30//103
f 30//104 34//105 124//106 125//107
f 29//101 137//83 136//82 34//102
f 34//105 136//87 144//86 124//106
f 28//100 30//103 35//108 31//109
f 31//109 35//108 96//20 95//19
f 30//104 125//107 126//110 35//111
f 35//111 126//110 140//22 96//21
f 28//92 31//112 36//96 32//93
f 129//63 62//97 36//96 94//5
f 31//112 95//6 94//5 36//96
f 135//60 24//66 70//71 109//61
f 37//113 41//114 42//115 38//116
f 38//116 42//115 105//117 104//118
f 41//114 92//119 91//120 42//115
f 42//115 91//120 141//121 105//117
f 37//113 38//116 43//122 39//123
f 39//123 43//122 114//124 113//125
f 38//116 104//118 103//126 43//122
f 43//122 103//126 145//127 114//124
f 37//113 39//123 44//128 40//129
f 40//129 44//128 123//130 122//131
f 39//123 113//125 112//132 44//128
f 44//128 112//132 143//133 123//130
f 37//113 40//129 45//134 41//114
f 41//114 45//134 93//135 92//119
f 40//129 122//131 121//136 45//134
f 45//134 121//136 139//137 93//135
f 46//138 50//139 51//140 47//141
f 47//141 51//140 108//55 107//50
f 50//139 116//79 115//78 51//140
f 51//140 115//78 146//57 108//55
f 46//138 47//141 52//142 48//143
f 48//143 52//142 99//27 98//18
f 47//141 107//50 106//49 52//142
f 52//142 106//49 142//29 99//27
f 46//138 48//143 53//144 49//145
f 49//145 53//144 126//110 125//107
f 48//143 98//18 97//17 53//144
f 53//144 97//17 140//22 126//110
f 46//138 49//145 54//146 50//139
f 50//139 54//146 117//84 116//79
f 49//145 125//107 124//106 54//146
f 54//146 124//106 144//86 117//84
f 55//147 59//148 60//149 56//150
f 56//150 60//149 120//151 119//152
f 59//148 122//131 123//130 60//149
f 60//149 123//130 143//133 120//151
f 55//153 56//154 61//99 57//98
f 56//154 119//155 118//90 61//99
f 55//153 57//98 62//97 58//156
f 58//156 62//97 129//63 128//157
f 55//147 58//158 63//159 59//148
f 59//148 63//159 121//136 122//131
f 58//158 128//160 127//161 63//159
f 63//159 127//161 139//137 121//136
f 64//162 68//163 69//164 65//165
f 65//165 69//164 111//166 110//167
f 68//163 113//125 114//124 69//164
f 69//164 114//124 145//127 111//166
f 64//168 65//169 70//71 66//70
f 65//169 110//170 109//61 70//71
f 64//168 66//70 71//69 67//171
f 67//171 71//69 118//90 119//155
f 64//162 67//172 72//173 68//163
f 68//163 72//173 112//132 113//125
f 67//172 119//152 120//151 72//173
f 72//173 120//151 143//133 112//132
f 73//174 77//175 78//176 74//177
f 74//177 78//176 102//178 101//179
f 77//175 104//118 105//117 78//176
f 78//176 105//117 141//121 102//178
f 73//180 74//181 79//42 75//41
f 74//181 101//182 100//33 79//42
f 73//180 75//41 80//40 76//183
f 76//183 80//40 109//61 110//170
f 73//174 76//184 81//185 77//175
f 77//175 81//185 103//126 104//118
f 76//184 110//167 111//166 81//185
f 81//185 111//166 145//127 103//126
f 82//186 86//187 87//188 83//189
f 83//189 87//188 127//161 128//160
f 86//187 92//119 93//135 87//188
f 87//188 93//135 139//137 127//161
f 82//190 83//191 88//10 84//9
f 83//191 128//157 129//63 88//10
f 82//190 84//9 89//8 85//192
f 85//192 89//8 100//33 101//182
f 138//89 33//94 61//99 118//90
f 82//186 85//193 90//194 86//187
f 86//187 90//194 91//120 92//119
f 85//193 101//179 102//178 90//194
f 90//194 102//178 141//121 91//120
