# Blender v2.79 (sub 0) OBJ File: 'RockPlatform_Tall.blend'
# www.blender.org
mtllib RockPlatform_Tall.mtl
o RockPlatform_Tall_Cube.379
v -1.164248 4.063729 0.033244
v -1.086092 4.062748 0.494711
v -1.042250 4.177111 0.051485
v -1.086023 4.062862 -0.428260
v -1.230081 3.830880 0.014966
v -1.147960 3.830815 0.503011
v -0.971171 4.173355 0.462706
v -0.971121 4.173439 -0.361839
v -1.147873 3.830959 -0.472328
v 0.003902 4.063898 -1.120303
v -0.462839 4.062953 -1.043662
v 0.005304 4.177223 -0.983415
v 0.470588 4.062975 -1.042468
v 0.002452 3.831097 -1.202329
v -0.490522 3.831075 -1.121552
v -0.411744 4.173497 -0.914493
v 0.422155 4.173513 -0.913624
v 0.495418 3.831104 -1.120049
v 1.171951 4.063898 0.042023
v 1.093719 4.062975 -0.422407
v 1.052791 4.177223 0.057296
v 1.093705 4.062952 0.505339
v 1.234856 3.831097 0.026237
v 1.152700 3.831104 -0.464814
v 0.981499 4.173514 -0.357965
v 0.981489 4.173497 0.470053
v 1.152682 3.831075 0.516536
v 0.003801 4.063729 1.195570
v 0.470521 4.062862 1.120741
v 0.005237 4.177111 1.092197
v -0.462961 4.062748 1.114771
v 0.002322 3.830880 1.243532
v 0.495331 3.830959 1.165760
v 0.422111 4.173439 1.022707
v -0.411828 4.173355 1.018366
v -0.490678 3.830815 1.158246
v 0.000002 0.000001 -0.000000
v 0.000002 0.006506 -0.692815
v 0.692817 0.006506 -0.000000
v 0.000002 0.006506 0.692815
v -0.692813 0.006506 -0.000000
v -0.644362 0.012629 -0.644364
v 0.644365 0.012629 -0.644364
v 0.644365 0.012629 0.644363
v -0.644362 0.012629 0.644363
v 0.007372 4.257860 0.079402
v 0.007145 4.248848 -0.368449
v -0.442281 4.248823 0.075954
v 0.007130 4.248823 0.521658
v 0.456556 4.248848 0.077256
v 0.425013 4.240363 -0.339656
v -0.411164 4.240346 -0.340524
v -0.411187 4.240309 0.487066
v 0.425003 4.240346 0.489003
v -0.000001 0.156292 1.770639
v 0.707523 0.156964 1.652114
v -0.000011 0.373363 1.791116
v -0.707526 0.156960 1.651927
v 0.000002 0.058168 1.612540
v 0.641622 0.060847 1.502773
v 0.716906 0.373371 1.672044
v -0.716928 0.373357 1.671293
v -0.641619 0.060847 1.502773
v 1.770932 0.156297 -0.000010
v 1.652305 0.156967 -0.707524
v 1.792283 0.373385 -0.000038
v 1.652304 0.156967 0.707485
v 1.612542 0.058168 -0.000000
v 1.502776 0.060847 -0.641621
v 1.672798 0.373386 -0.716913
v 1.672796 0.373383 0.716762
v 1.502776 0.060847 0.641620
v 0.000002 0.156297 -1.770941
v -0.707522 0.156967 -1.652341
v 0.000001 0.373385 -1.792319
v 0.707525 0.156967 -1.652303
v 0.000002 0.058168 -1.612540
v -0.641619 0.060847 -1.502774
v -0.716912 0.373383 -1.672947
v 0.716915 0.373386 -1.672796
v 0.641622 0.060847 -1.502774
v -1.770932 0.156292 -0.000291
v -1.652305 0.156960 0.707147
v -1.792293 0.373363 -0.001165
v -1.652303 0.156964 -0.707711
v -1.612538 0.058168 -0.000000
v -1.502772 0.060847 0.641620
v -1.672812 0.373357 0.715409
v -1.672803 0.373371 -0.717664
v -1.502772 0.060847 -0.641621
v -1.181146 0.030806 -0.595226
v -1.269152 0.025927 -0.000000
v -1.181146 0.030806 0.595226
v -0.901496 3.830786 0.911030
v -0.852136 4.061795 0.880450
v -0.760244 4.169620 0.806706
v -0.760452 4.215066 0.446868
v -0.817218 4.221864 0.066714
v -0.760418 4.215122 -0.317712
v -1.314342 0.373379 -1.314716
v -1.297479 0.157635 -1.297574
v -1.177717 0.063525 -1.177719
v 0.595228 0.030806 -1.181148
v 0.000002 0.025927 -1.269154
v -0.595224 0.030806 -1.181148
v -0.380198 4.215148 -0.693597
v 0.006453 4.221923 -0.747514
v 0.392752 4.215162 -0.692895
v 1.314342 0.373386 -1.314340
v 1.297482 0.157637 -1.297480
v 1.177721 0.063525 -1.177719
v 1.181150 0.030806 0.595226
v 1.269156 0.025927 -0.000000
v 1.181150 0.030806 -0.595227
v 0.772958 4.215162 -0.315658
v 0.830089 4.221923 0.069795
v 0.772950 4.215148 0.451126
v 1.314337 0.373379 1.313964
v 1.297481 0.157635 1.297386
v 1.177721 0.063525 1.177719
v -0.595224 0.030806 1.181147
v 0.000002 0.025927 1.269153
v 0.595228 0.030806 1.181147
v 0.392729 4.215122 0.827011
v 0.006418 4.221864 0.884022
v -0.380247 4.215066 0.824106
v -1.177717 0.063525 1.177719
v -1.297483 0.157629 1.297066
v -1.314357 0.373354 1.312686
v -0.760161 4.169760 -0.707190
v -0.852019 4.061990 -0.812872
v -0.901349 3.831032 -0.878093
v 0.770368 4.169800 -0.705136
v 0.859701 4.062047 -0.809916
v 0.906219 3.831104 -0.874336
v 0.770344 4.169760 0.813969
v 0.859667 4.061990 0.890569
v 0.906176 3.831032 0.923804
v -1.003067 0.040692 1.003068
v -0.645509 4.201333 0.704731
v -1.003067 0.040692 -1.003069
v -0.645453 4.201427 -0.584127
v 1.003070 0.040692 1.003068
v 0.657277 4.201427 0.709629
v 1.003070 0.040692 -1.003069
v 0.657294 4.201457 -0.582612
vn -0.9620 0.2729 0.0079
vn -0.9763 0.2164 -0.0035
vn -0.9185 0.2071 0.3367
vn -0.9042 0.2539 0.3433
vn -0.6950 0.1994 0.6908
vn -0.6801 0.2357 0.6942
vn -0.9106 0.2322 -0.3419
vn -0.9371 0.0301 -0.3477
vn -0.9995 0.0304 -0.0005
vn -0.9376 0.0298 0.3465
vn -0.6732 0.7394 -0.0072
vn -0.6384 0.7322 0.2372
vn -0.6348 0.7323 0.2465
vn -0.6745 0.7382 0.0094
vn -0.1916 0.9815 -0.0014
vn -0.1870 0.9794 0.0761
vn -0.1357 0.9882 0.0705
vn -0.1381 0.9904 0.0012
vn -0.4886 0.7284 0.4803
vn -0.4772 0.7275 0.4930
vn -0.1515 0.9769 0.1506
vn -0.1251 0.9839 0.1272
vn -0.6090 0.7625 -0.2184
vn -0.5988 0.7651 -0.2366
vn -0.4381 0.7867 -0.4349
vn -0.4309 0.7870 -0.4414
vn -0.1295 0.9894 -0.0653
vn -0.1770 0.9814 -0.0749
vn -0.1159 0.9864 -0.1166
vn -0.1363 0.9809 -0.1386
vn -0.8970 0.3007 -0.3240
vn -0.6804 0.2486 -0.6893
vn -0.7056 0.0308 -0.7080
vn -0.6687 0.3299 -0.6663
vn 0.0020 0.3330 -0.9429
vn 0.0007 0.2494 -0.9684
vn -0.3315 0.2512 -0.9094
vn -0.3223 0.3358 -0.8851
vn 0.3334 0.2489 -0.9093
vn 0.3462 0.0329 -0.9376
vn 0.0003 0.0340 -0.9994
vn -0.3454 0.0327 -0.9379
vn 0.0002 0.7749 -0.6321
vn -0.2176 0.7826 -0.5833
vn -0.2142 0.7824 -0.5848
vn 0.0014 0.7749 -0.6321
vn 0.0000 0.9831 -0.1831
vn -0.0709 0.9822 -0.1739
vn -0.0640 0.9898 -0.1275
vn 0.0002 0.9912 -0.1326
vn 0.2181 0.7797 -0.5869
vn 0.2194 0.7798 -0.5864
vn 0.4451 0.7812 -0.4378
vn 0.4365 0.7816 -0.4455
vn 0.0646 0.9897 -0.1280
vn 0.0714 0.9820 -0.1746
vn 0.1171 0.9862 -0.1172
vn 0.1378 0.9806 -0.1397
vn 0.3271 0.3311 -0.8851
vn 0.6830 0.2439 -0.6885
vn 0.7062 0.0311 -0.7073
vn 0.6744 0.3202 -0.6654
vn -0.7070 0.0297 0.7066
vn 0.9650 0.2620 0.0071
vn 0.9777 0.2102 -0.0026
vn 0.9127 0.2259 -0.3406
vn 0.9013 0.2885 -0.3233
vn 0.9191 0.2025 0.3380
vn 0.9376 0.0279 0.3467
vn 0.9996 0.0296 -0.0004
vn 0.9373 0.0302 -0.3471
vn 0.6815 0.7318 -0.0060
vn 0.6078 0.7574 -0.2386
vn 0.6178 0.7547 -0.2206
vn 0.6824 0.7309 0.0081
vn 0.1933 0.9811 -0.0012
vn 0.1791 0.9809 -0.0754
vn 0.1308 0.9892 -0.0658
vn 0.1391 0.9903 0.0010
vn 0.6395 0.7284 0.2459
vn 0.6417 0.7283 0.2404
vn 0.4767 0.7278 0.4929
vn 0.4854 0.7284 0.4835
vn 0.1358 0.9882 0.0703
vn 0.1875 0.9793 0.0766
vn 0.1245 0.9840 0.1271
vn 0.1504 0.9770 0.1509
vn 0.9065 0.2473 0.3423
vn 0.6920 0.1972 0.6944
vn 0.7061 0.0269 0.7076
vn 0.6786 0.2345 0.6960
vn -0.0062 0.2035 0.9791
vn -0.0052 0.1795 0.9837
vn 0.3357 0.1851 0.9236
vn 0.3268 0.2133 0.9207
vn -0.3439 0.1857 0.9205
vn -0.3476 0.0302 0.9372
vn -0.0018 0.0301 0.9995
vn 0.3447 0.0282 0.9383
vn -0.0047 0.6827 0.7307
vn 0.2514 0.7017 0.6666
vn 0.2390 0.7000 0.6730
vn -0.0038 0.6827 0.7307
vn -0.0010 0.9785 0.2063
vn 0.0788 0.9776 0.1950
vn 0.0696 0.9876 0.1408
vn -0.0006 0.9891 0.1473
vn -0.2448 0.6985 0.6724
vn -0.2592 0.7005 0.6650
vn -0.0707 0.9875 0.1409
vn -0.0807 0.9775 0.1951
vn -0.3360 0.2122 0.9176
vn 0.0000 -1.0000 0.0000
vn -0.0226 -0.9997 0.0000
vn -0.0241 -0.9994 -0.0241
vn 0.0000 -0.9997 -0.0226
vn -0.0320 -0.9975 -0.0631
vn -0.0000 -0.9978 -0.0658
vn -0.0658 -0.9978 0.0000
vn -0.0631 -0.9975 -0.0320
vn -0.0574 -0.9967 -0.0574
vn 0.0241 -0.9994 -0.0241
vn 0.0226 -0.9997 0.0000
vn 0.0631 -0.9975 -0.0320
vn 0.0658 -0.9978 0.0000
vn 0.0320 -0.9975 -0.0631
vn 0.0574 -0.9967 -0.0574
vn 0.0241 -0.9994 0.0241
vn 0.0000 -0.9997 0.0226
vn 0.0320 -0.9975 0.0631
vn -0.0000 -0.9978 0.0658
vn 0.0631 -0.9975 0.0320
vn 0.0574 -0.9967 0.0574
vn -0.0241 -0.9994 0.0241
vn -0.0631 -0.9975 0.0320
vn -0.0320 -0.9975 0.0631
vn -0.0574 -0.9967 0.0574
vn -0.0000 1.0000 0.0003
vn 0.0483 0.9988 0.0003
vn 0.0504 0.9974 -0.0506
vn 0.0001 0.9989 -0.0477
vn -0.0501 0.9975 -0.0504
vn -0.0483 0.9988 0.0004
vn -0.0523 0.9972 0.0530
vn -0.0002 0.9988 0.0498
vn 0.0521 0.9972 0.0530
vn -0.0000 -0.8540 0.5203
vn -0.0000 -0.9420 0.3356
vn 0.1153 -0.9433 0.3112
vn 0.1801 -0.8616 0.4746
vn 0.2333 -0.9440 0.2334
vn 0.3485 -0.8701 0.3485
vn -0.0003 -0.0957 0.9954
vn 0.3428 -0.1008 0.9340
vn 0.7028 -0.1069 0.7033
vn -0.3433 -0.0987 0.9340
vn -0.7028 -0.1042 0.7037
vn -0.1803 -0.8614 0.4749
vn -0.1154 -0.9433 0.3114
vn -0.3488 -0.8699 0.3487
vn -0.2335 -0.9439 0.2336
vn 0.5197 -0.8544 -0.0000
vn 0.3352 -0.9422 0.0000
vn 0.3109 -0.9434 -0.1153
vn 0.4742 -0.8618 -0.1800
vn 0.2333 -0.9440 -0.2333
vn 0.3484 -0.8702 -0.3484
vn 0.9950 -0.0996 0.0000
vn 0.9336 -0.1033 -0.3432
vn 0.7030 -0.1080 -0.7030
vn 0.9336 -0.1031 0.3433
vn 0.4743 -0.8618 0.1800
vn 0.3110 -0.9434 0.1153
vn 0.0000 -0.8544 -0.5197
vn 0.0000 -0.9422 -0.3351
vn -0.1153 -0.9434 -0.3109
vn -0.1799 -0.8619 -0.4742
vn -0.2332 -0.9441 -0.2332
vn -0.3482 -0.8703 -0.3483
vn 0.0001 -0.0998 -0.9950
vn -0.3430 -0.1039 -0.9336
vn -0.7029 -0.1089 -0.7029
vn 0.3432 -0.1034 -0.9336
vn 0.1800 -0.8618 -0.4742
vn 0.1153 -0.9434 -0.3109
vn -0.5197 -0.8544 -0.0001
vn -0.3352 -0.9422 0.0001
vn -0.3111 -0.9434 0.1154
vn -0.4745 -0.8616 0.1800
vn -0.9950 -0.0996 0.0004
vn -0.9335 -0.1016 0.3438
vn -0.9336 -0.1041 -0.3430
vn -0.4741 -0.8619 -0.1800
vn -0.3109 -0.9434 -0.1152
usemtl Rock
s 1
f 1//1 5//2 6//3 2//4
f 2//4 6//3 94//5 95//6
f 9//7 89//8 84//9 5//2
f 88//10 6//3 5//2 84//9
f 1//11 2//12 7//13 3//14
f 3//15 7//16 97//17 98//18
f 2//12 95//19 96//20 7//13
f 7//16 96//21 140//22 97//17
f 1//11 3//14 8//23 4//24
f 4//24 8//23 130//25 131//26
f 3//15 98//18 99//27 8//28
f 8//28 99//27 142//29 130//30
f 1//1 4//31 9//7 5//2
f 132//32 100//33 89//8 9//7
f 4//31 131//34 132//32 9//7
f 10//35 14//36 15//37 11//38
f 11//38 15//37 132//32 131//34
f 18//39 80//40 75//41 14//36
f 79//42 15//37 14//36 75//41
f 10//43 11//44 16//45 12//46
f 12//47 16//48 106//49 107//50
f 11//44 131//26 130//25 16//45
f 16//48 130//30 142//29 106//49
f 10//43 12//46 17//51 13//52
f 13//52 17//51 133//53 134//54
f 12//47 107//50 108//55 17//56
f 17//56 108//55 146//57 133//58
f 10//35 13//59 18//39 14//36
f 135//60 109//61 80//40 18//39
f 13//59 134//62 135//60 18//39
f 129//63 94//5 6//3 88//10
f 19//64 23//65 24//66 20//67
f 20//67 24//66 135//60 134//62
f 27//68 71//69 66//70 23//65
f 70//71 24//66 23//65 66//70
f 19//72 20//73 25//74 21//75
f 21//76 25//77 115//78 116//79
f 20//73 134//54 133//53 25//74
f 25//77 133//58 146//57 115//78
f 19//72 21//75 26//80 22//81
f 22//81 26//80 136//82 137//83
f 21//76 116//79 117//84 26//85
f 26//85 117//84 144//86 136//87
f 19//64 22//88 27//68 23//65
f 138//89 118//90 71//69 27//68
f 22//88 137//91 138//89 27//68
f 132//32 15//37 79//42 100//33
f 28//92 32//93 33//94 29//95
f 29//95 33//94 138//89 137//91
f 36//96 62//97 57//98 32//93
f 61//99 33//94 32//93 57//98
f 28//100 29//101 34//102 30//103
f 30//104 34//105 124//106 125//107
f 29//101 137//83 136//82 34//102
f 34//105 136//87 144//86 124//106
f 28//100 30//103 35//108 31//109
f 31//109 35//108 96//20 95//19
f 30//104 125//107 126//110 35//111
f 35//111 126//110 140//22 96//21
f 28//92 31//112 36//96 32//93
f 129//63 62//97 36//96 94//5
f 31//112 95//6 94//5 36//96
f 135//60 24//66 70//71 109//61
f 37//113 41//114 42//115 38//116
f 38//116 42//115 105//117 104//118
f 41//114 92//119 91//120 42//115
f 42//115 91//120 141//121 105//117
f 37//113 38//116 43//122 39//123
f 39//123 43//122 114//124 113//125
f 38//116 104//118 103//126 43//122
f 43//122 103//126 145//127 114//124
f 37//113 39//123 44//128 40//129
f 40//129 44//128 123//130 122//131
f 39//123 113//125 112//132 44//128
f 44//128 112//132 143//133 123//130
f 37//113 40//129 45//134 41//114
f 41//114 45//134 93//135 92//119
f 40//129 122//131 121//136 45//134
f 45//134 121//136 139//137 93//135
f 46//138 50//139 51//140 47//141
f 47//141 51//140 108//55 107//50
f 50//139 116//79 115//78 51//140
f 51//140 115//78 146//57 108//55
f 46//138 47//141 52//142 48//143
f 48//143 52//142 99//27 98//18
f 47//141 107//50 106//49 52//142
f 52//142 106//49 142//29 99//27
f 46//138 48//143 53//144 49//145
f 49//145 53//144 126//110 125//107
f 48//143 98//18 97//17 53//144
f 53//144 97//17 140//22 126//110
f 46//138 49//145 54//146 50//139
f 50//139 54//146 117//84 116//79
f 49//145 125//107 124//106 54//146
f 54//146 124//106 144//86 117//84
f 55//147 59//148 60//149 56//150
f 56//150 60//149 120//151 119//152
f 59//148 122//131 123//130 60//149
f 60//149 123//130 143//133 120//151
f 55//153 56//154 61//99 57//98
f 56//154 119//155 118//90 61//99
f 55//153 57//98 62//97 58//156
f 58//156 62//97 129//63 128//157
f 55//147 58//158 63//159 59//148
f 59//148 63//159 121//136 122//131
f 58//158 128//160 127//161 63//159
f 63//159 127//161 139//137 121//136
f 64//162 68//163 69//164 65//165
f 65//165 69//164 111//166 110//167
f 68//163 113//125 114//124 69//164
f 69//164 114//124 145//127 111//166
f 64//168 65//169 70//71 66//70
f 65//169 110//170 109//61 70//71
f 64//168 66//70 71//69 67//171
f 67//171 71//69 118//90 119//155
f 64//162 67//172 72//173 68//163
f 68//163 72//173 112//132 113//125
f 67//172 119//152 120//151 72//173
f 72//173 120//151 143//133 112//132
f 73//174 77//175 78//176 74//177
f 74//177 78//176 102//178 101//179
f 77//175 104//118 105//117 78//176
f 78//176 105//117 141//121 102//178
f 73//180 74//181 79//42 75//41
f 74//181 101//182 100//33 79//42
f 73//180 75//41 80//40 76//183
f 76//183 80//40 109//61 110//170
f 73//174 76//184 81//185 77//175
f 77//175 81//185 103//126 104//118
f 76//184 110//167 111//166 81//185
f 81//185 111//166 145//127 103//126
f 82//186 86//187 87//188 83//189
f 83//189 87//188 127//161 128//160
f 86//187 92//119 93//135 87//188
f 87//188 93//135 139//137 127//161
f 82//190 83//191 88//10 84//9
f 83//191 128//157 129//63 88//10
f 82//190 84//9 89//8 85//192
f 85//192 89//8 100//33 101//182
f 138//89 33//94 61//99 118//90
f 82//186 85//193 90//194 86//187
f 86//187 90//194 91//120 92//119
f 85//193 101//179 102//178 90//194
f 90//194 102//178 141//121 91//120
