# Blender v2.79 (sub 0) OBJ File: 'RockPlatforms_Large.blend'
# www.blender.org
mtllib RockPlatforms_Large.mtl
o RockPlatforms_Large_Cube.381
v -3.085080 3.438497 0.033098
v -2.986380 3.437507 0.737261
v -2.975061 3.541870 0.051341
v -2.986304 3.437633 -0.671395
v -3.161781 3.235729 0.014782
v -3.059396 3.235654 0.753553
v -2.883655 3.538053 0.690092
v -2.883599 3.538146 -0.589760
v -3.059301 3.235812 -0.723606
v 1.517912 3.439138 -1.787550
v 0.785805 3.439603 -1.846676
v 1.523749 3.543873 -1.609501
v 2.138945 3.437746 -1.610170
v 1.535124 3.235957 -1.892041
v 0.791732 3.235957 -1.953933
v 0.797197 3.545757 -1.663677
v 2.108807 3.538222 -1.446975
v 2.176086 3.235957 -1.706365
v 2.988832 3.438671 0.042176
v 2.894037 3.437746 -0.665542
v 2.886939 3.541987 0.057456
v 2.894030 3.437735 0.749084
v 3.060705 3.235953 0.026429
v 2.962416 3.235957 -0.716092
v 2.799000 3.538222 -0.585829
v 2.798995 3.538213 0.698426
v 2.962407 3.235943 0.768582
v -1.556437 3.438879 1.858958
v -0.806022 3.439381 1.920310
v -1.558641 3.543700 1.716686
v -2.199521 3.437463 1.679608
v -1.576252 3.235623 1.927916
v -0.814208 3.235671 1.992285
v -0.814097 3.545612 1.773360
v -2.164419 3.538024 1.549744
v -2.239992 3.235597 1.740882
v 1.850768 0.003253 -0.000000
v 1.838596 0.009950 -0.960175
v 2.588530 0.013011 -0.000000
v 1.838596 0.009950 0.960176
v 0.964909 0.000000 -0.000000
v 0.964548 0.006888 -0.992544
v 2.541604 0.019134 -0.863069
v 2.541604 0.019134 0.863069
v 0.964548 0.006888 0.992544
v -1.546602 3.627110 0.080520
v -1.536721 3.617835 -0.625871
v -2.174072 3.613564 0.075847
v -1.536742 3.617800 0.780892
v -0.801743 3.631627 0.082128
v -0.801849 3.622084 -0.648085
v -2.134518 3.605090 -0.559229
v -2.134545 3.605044 0.705346
v -0.801866 3.622055 0.806276
v -1.874619 0.152432 2.458588
v -0.967535 0.152098 2.538322
v -1.861833 0.339747 2.499425
v -2.651765 0.153436 2.219537
v -1.865283 0.063333 2.235126
v -0.971977 0.061994 2.308623
v -0.958113 0.339752 2.580355
v -2.648982 0.339745 2.257241
v -2.591626 0.067351 2.014637
v 3.619545 0.152775 -0.000005
v 3.504940 0.153445 -0.950658
v 3.637177 0.339780 -0.000018
v 3.504940 0.153444 0.950640
v 3.469098 0.064673 -0.000000
v 3.363466 0.067351 -0.860326
v 3.520609 0.339781 -0.968191
v 3.520608 0.339779 0.968117
v 3.363467 0.067351 0.860326
v 1.841743 0.152440 -2.459022
v 0.956735 0.152105 -2.538694
v 1.827904 0.339781 -2.501160
v 2.592340 0.153445 -2.220006
v 1.833515 0.063333 -2.235126
v 0.961664 0.061994 -2.308622
v 0.946274 0.339781 -2.581842
v 2.588057 0.339781 -2.259112
v 2.535361 0.067351 -2.014637
v -3.722213 0.152769 -0.000296
v -3.602790 0.153437 0.950264
v -3.742269 0.339758 -0.001183
v -3.602787 0.153441 -0.950846
v -3.564655 0.064673 -0.000000
v -3.454599 0.067351 0.860326
v -3.620796 0.339750 0.966614
v -3.620787 0.339766 -0.968942
v -3.454599 0.067351 -0.860326
v -1.874615 0.152440 -2.459031
v -2.651761 0.153444 -2.220043
v -1.861814 0.339780 -2.501197
v -0.967531 0.152105 -2.538694
v -1.865283 0.063333 -2.235126
v -2.591626 0.067351 -2.014637
v -2.648962 0.339778 -2.259262
v -0.958096 0.339781 -2.581842
v -0.971977 0.061994 -2.308623
v 1.841741 0.152437 2.458870
v 2.592339 0.153443 2.219913
v 1.827897 0.339769 2.500552
v 0.956732 0.152101 2.538473
v 1.833515 0.063333 2.235126
v 2.535361 0.067351 2.014637
v 2.588052 0.339774 2.258744
v 0.946264 0.339764 2.580956
v 0.961664 0.061994 2.308623
v 1.515537 3.627121 0.081088
v 1.505573 3.617840 -0.625654
v 0.788964 3.631630 0.082279
v 1.505566 3.617828 0.782344
v 2.120949 3.613593 0.077367
v 2.082555 3.605107 -0.558361
v 0.788571 3.622084 -0.648085
v 0.788561 3.622067 0.806877
v 2.082550 3.605098 0.708151
v -1.882775 0.003253 -0.000000
v -1.870146 0.009950 -0.960176
v -0.974904 0.000000 -0.000000
v -1.870146 0.009950 0.960176
v -2.646578 0.013011 -0.000000
v -2.597727 0.019134 -0.863069
v -0.974579 0.006888 -0.992544
v -0.974579 0.006888 0.992544
v -2.597727 0.019134 0.863069
v 1.517857 3.439048 1.867738
v 2.138912 3.437691 1.691431
v 1.523713 3.543814 1.722581
v 0.785726 3.439471 1.924969
v 1.535054 3.235840 1.939188
v 2.176044 3.235886 1.755911
v 2.108785 3.538185 1.558079
v 0.797145 3.545671 1.776409
v 0.791630 3.235786 1.998297
v -1.556285 3.439133 -1.787848
v -2.199366 3.437723 -1.611364
v -1.558540 3.543869 -1.609721
v -0.805890 3.439603 -1.846676
v -1.576056 3.235950 -1.892417
v -2.239794 3.235928 -1.707868
v -2.164311 3.538205 -1.447855
v -0.814010 3.545757 -1.663677
v -0.814036 3.235957 -1.953933
v -3.133740 0.037311 -0.797645
v -3.221982 0.032432 -0.000000
v -3.133740 0.037311 0.797645
v -2.752137 3.235603 1.369867
v -2.690945 3.436538 1.324847
v -2.612426 3.534252 1.223793
v -2.576230 3.579803 0.648943
v -2.648154 3.586606 0.066628
v -2.576193 3.579865 -0.520130
v -3.256351 0.339773 -1.775392
v -3.245606 0.154113 -1.743418
v -3.128800 0.070030 -1.579066
v -0.973603 0.027553 -1.817836
v -1.856300 0.029993 -1.759001
v -2.547351 0.037311 -1.582495
v 0.787386 3.593434 -1.262459
v 1.494605 3.590052 -1.220405
v 2.043082 3.579905 -1.094243
v 3.170902 0.339781 -1.775017
v 3.162186 0.154114 -1.743324
v 3.050809 0.070030 -1.579066
v 3.055813 0.037311 0.797645
v 3.140529 0.032432 -0.000000
v 3.055813 0.037311 -0.797645
v 2.505041 3.579905 -0.518076
v 2.574437 3.586668 0.069884
v 2.505037 3.579898 0.653902
v 3.170899 0.339777 1.774832
v 3.162185 0.154113 1.743278
v 3.050809 0.070030 1.579066
v 0.963467 0.027553 1.817836
v 1.825154 0.029993 1.759001
v 2.493117 0.037311 1.582495
v -0.802223 3.593363 1.402451
v -1.526867 3.589962 1.357570
v -2.094828 3.579790 1.224447
v -3.128800 0.070030 1.579066
v -3.245610 0.154105 1.742865
v -3.256368 0.339745 1.773179
v -2.612329 3.534414 -1.125421
v -2.690812 3.436760 -1.258716
v -2.751969 3.235885 -1.338770
v 2.538511 3.534454 -1.123338
v 2.610467 3.436817 -1.255760
v 2.667542 3.235957 -1.335013
v 2.538500 3.534434 1.233246
v 2.610450 3.436789 1.337922
v 2.667521 3.235921 1.386399
v 2.493117 0.037311 -1.582495
v 1.825154 0.029993 -1.759001
v 0.963467 0.027553 -1.817836
v -2.094768 3.579892 -1.094944
v -1.526815 3.590048 -1.220580
v -0.802181 3.593434 -1.262459
v -2.547351 0.037311 1.582495
v -1.856300 0.029993 1.759001
v -0.973603 0.027553 1.817836
v 2.043070 3.579886 1.229407
v 1.494587 3.590022 1.360689
v 0.787361 3.593392 1.403954
v -0.001003 0.339781 -2.581842
v -0.000439 0.152105 -2.538694
v -0.000173 0.061994 -2.308623
v -0.001017 0.339758 2.580657
v -0.000442 0.152100 2.538398
v -0.000173 0.061994 2.308623
v -0.002540 3.622084 -0.648085
v -0.002290 3.631628 0.082204
v -0.002553 3.622061 0.806578
v -0.000018 0.006888 -0.992544
v 0.000002 0.000000 -0.000000
v -0.000018 0.006888 0.992544
v -0.004323 3.545641 1.774893
v -0.006046 3.439426 1.922652
v -0.007150 3.235729 1.995307
v -0.004254 3.545757 -1.663677
v -0.005940 3.439603 -1.846676
v -0.007014 3.235957 -1.953933
v -2.955068 0.047197 1.344310
v -2.430527 3.566062 1.045232
v -2.955068 0.047197 -1.344311
v -2.430462 3.566170 -0.925369
v 2.884281 0.047197 1.344310
v 2.364472 3.566185 1.051644
v 2.884281 0.047197 -1.344311
v 2.364480 3.566199 -0.923855
v -0.000076 0.027553 -1.817836
v -0.003300 3.593434 -1.262459
v -0.000076 0.027553 1.817836
v -0.003335 3.593377 1.403206
vn -0.9344 0.3561 0.0072
vn -0.9609 0.2768 -0.0030
vn -0.9211 0.2745 0.2760
vn -0.8945 0.3477 0.2809
vn -0.7399 0.2822 0.6106
vn -0.7113 0.3508 0.6091
vn -0.9126 0.2978 -0.2802
vn -0.9588 0.0447 -0.2805
vn -0.9990 0.0456 -0.0004
vn -0.9591 0.0444 0.2795
vn -0.6757 0.7371 -0.0067
vn -0.6330 0.7461 0.2064
vn -0.6391 0.7442 0.1940
vn -0.6770 0.7359 0.0083
vn -0.1328 0.9911 -0.0006
vn -0.1265 0.9909 0.0461
vn -0.0956 0.9945 0.0419
vn -0.0983 0.9952 0.0005
vn -0.4660 0.7821 0.4136
vn -0.4890 0.7789 0.3928
vn -0.1014 0.9910 0.0869
vn -0.0889 0.9933 0.0743
vn -0.6173 0.7677 -0.1721
vn -0.5941 0.7777 -0.2057
vn -0.4517 0.8214 -0.3481
vn -0.4117 0.8295 -0.3773
vn -0.0931 0.9949 -0.0400
vn -0.1222 0.9915 -0.0457
vn -0.0849 0.9939 -0.0704
vn -0.0952 0.9920 -0.0825
vn -0.8838 0.3880 -0.2613
vn -0.7237 0.3291 -0.6066
vn -0.7781 0.0380 -0.6270
vn -0.6938 0.4373 -0.5723
vn 0.1605 0.4620 -0.8723
vn 0.1726 0.3408 -0.9241
vn 0.0394 0.3412 -0.9392
vn 0.0361 0.4652 -0.8845
vn -0.0000 0.3421 -0.9397
vn -0.0000 0.4660 -0.8848
vn 0.4261 0.3392 -0.8387
vn 0.4686 0.0264 -0.8830
vn 0.1925 0.0076 -0.9813
vn 0.0442 -0.0034 -0.9990
vn 0.0872 0.8589 -0.5047
vn 0.0192 0.8637 -0.5036
vn 0.0214 0.8636 -0.5038
vn 0.0993 0.8578 -0.5043
vn 0.0260 0.9930 -0.1149
vn 0.0057 0.9930 -0.1177
vn 0.0047 0.9965 -0.0829
vn 0.0225 0.9963 -0.0828
vn -0.0000 0.8650 -0.5018
vn -0.0000 0.9930 -0.1180
vn -0.0000 0.9966 -0.0823
vn 0.2553 0.8449 -0.4700
vn 0.2268 0.8480 -0.4791
vn 0.4776 0.8067 -0.3480
vn 0.4295 0.8183 -0.3820
vn 0.0551 0.9954 -0.0786
vn 0.0597 0.9927 -0.1052
vn 0.0890 0.9935 -0.0704
vn 0.0991 0.9916 -0.0830
vn 0.4026 0.4537 -0.7950
vn 0.7369 0.3221 -0.5943
vn 0.7889 0.0435 -0.6130
vn 0.7128 0.4216 -0.5606
vn -0.7791 0.0372 0.6258
vn 0.9415 0.3369 0.0061
vn 0.9639 0.2664 -0.0023
vn 0.9189 0.2873 -0.2703
vn 0.8950 0.3675 -0.2528
vn 0.9260 0.2664 0.2675
vn 0.9617 0.0485 0.2696
vn 0.9987 0.0512 -0.0003
vn 0.9614 0.0508 -0.2703
vn 0.7029 0.7113 -0.0059
vn 0.6207 0.7561 -0.2074
vn 0.6460 0.7439 -0.1710
vn 0.7038 0.7103 0.0072
vn 0.1386 0.9904 -0.0005
vn 0.1276 0.9908 -0.0460
vn 0.0973 0.9945 -0.0400
vn 0.1025 0.9947 0.0004
vn 0.6641 0.7232 0.1896
vn 0.6544 0.7270 0.2080
vn 0.5094 0.7689 0.3863
vn 0.4767 0.7752 0.4145
vn 0.0994 0.9942 0.0415
vn 0.1313 0.9903 0.0464
vn 0.0923 0.9930 0.0736
vn 0.1043 0.9907 0.0868
vn 0.9034 0.3335 0.2696
vn 0.7501 0.2788 0.5997
vn 0.7894 0.0388 0.6127
vn 0.7259 0.3469 0.5939
vn -0.0000 -0.0062 -1.0000
vn -0.1654 0.3319 0.9287
vn -0.1743 0.2687 0.9473
vn -0.0420 0.2668 0.9628
vn -0.0402 0.3331 0.9420
vn -0.0025 0.2677 0.9635
vn -0.0032 0.3360 0.9419
vn -0.4265 0.2769 0.8611
vn -0.4567 0.0213 0.8893
vn -0.1877 0.0036 0.9822
vn -0.0441 -0.0074 0.9990
vn -0.1009 0.8032 0.5870
vn -0.0235 0.8090 0.5874
vn -0.0258 0.8087 0.5876
vn -0.1122 0.8024 0.5862
vn -0.0274 0.9919 0.1242
vn -0.0063 0.9918 0.1273
vn -0.0050 0.9961 0.0885
vn -0.0232 0.9958 0.0884
vn -0.0014 0.8120 0.5837
vn -0.0002 0.9919 0.1274
vn -0.0001 0.9961 0.0878
vn -0.2747 0.7964 0.5388
vn -0.2563 0.7972 0.5466
vn -0.0559 0.9949 0.0835
vn -0.0622 0.9917 0.1128
vn -0.4045 0.3397 0.8491
vn 0.0087 -1.0000 -0.0000
vn 0.0019 -1.0000 -0.0000
vn 0.0021 -0.9999 -0.0161
vn 0.0098 -0.9998 -0.0166
vn 0.0030 -0.9988 -0.0480
vn 0.0146 -0.9987 -0.0485
vn 0.0000 -1.0000 -0.0000
vn -0.0000 -0.9999 -0.0160
vn 0.0000 -0.9989 -0.0475
vn 0.0269 -0.9995 -0.0180
vn 0.0251 -0.9997 0.0000
vn 0.0656 -0.9976 -0.0234
vn 0.0679 -0.9977 -0.0000
vn 0.0366 -0.9982 -0.0470
vn 0.0610 -0.9973 -0.0420
vn 0.0269 -0.9995 0.0180
vn 0.0098 -0.9998 0.0166
vn 0.0366 -0.9982 0.0470
vn 0.0146 -0.9987 0.0485
vn 0.0656 -0.9976 0.0234
vn 0.0610 -0.9973 0.0420
vn 0.0021 -0.9999 0.0161
vn 0.0000 -0.9999 0.0160
vn 0.0030 -0.9988 0.0480
vn 0.0000 -0.9989 0.0475
vn -0.0143 0.9999 0.0001
vn -0.0031 1.0000 0.0001
vn -0.0034 0.9995 -0.0300
vn -0.0159 0.9994 -0.0309
vn -0.0046 0.9966 -0.0828
vn -0.0217 0.9963 -0.0827
vn -0.0000 1.0000 0.0001
vn -0.0000 0.9996 -0.0298
vn -0.0430 0.9985 -0.0333
vn -0.0408 0.9992 0.0002
vn -0.0527 0.9955 -0.0785
vn -0.0442 0.9984 0.0346
vn -0.0163 0.9994 0.0319
vn -0.0035 0.9995 0.0309
vn -0.0000 0.9995 0.0306
vn -0.0689 -0.9287 0.3644
vn -0.0485 -0.9723 0.2287
vn -0.0104 -0.9744 0.2244
vn -0.0155 -0.9304 0.3662
vn -0.0000 -0.9755 0.2201
vn -0.0000 -0.9310 0.3651
vn -0.0141 -0.9987 0.0484
vn -0.0030 -0.9988 0.0480
vn -0.1955 -0.1980 0.9605
vn -0.0449 -0.2147 0.9757
vn -0.0002 -0.2197 0.9756
vn -0.0010 -0.0110 0.9999
vn -0.4718 -0.1718 0.8648
vn -0.7906 -0.1407 0.5960
vn -0.1724 -0.9255 0.3372
vn -0.1235 -0.9685 0.2162
vn -0.0351 -0.9983 0.0470
vn -0.3112 -0.9149 0.2573
vn -0.2243 -0.9614 0.1597
vn -0.0584 -0.9974 0.0421
vn 0.4982 -0.8671 -0.0000
vn 0.3185 -0.9479 0.0000
vn 0.2993 -0.9511 -0.0758
vn 0.4502 -0.8828 -0.1338
vn 0.2338 -0.9593 -0.1586
vn 0.3212 -0.9111 -0.2583
vn 0.9955 -0.0944 0.0000
vn 0.9617 -0.1036 -0.2536
vn 0.8030 -0.1343 -0.5807
vn 0.9617 -0.1035 0.2537
vn 0.8029 -0.1338 0.5809
vn 0.4502 -0.8828 0.1338
vn 0.2993 -0.9511 0.0758
vn 0.3212 -0.9111 0.2583
vn 0.2338 -0.9593 0.1587
vn 0.0707 -0.9287 -0.3641
vn 0.0503 -0.9722 -0.2288
vn 0.0106 -0.9745 -0.2243
vn 0.0158 -0.9306 -0.3658
vn 0.0000 -0.9755 -0.2199
vn 0.0000 -0.9311 -0.3647
vn 0.2018 -0.2024 -0.9583
vn 0.0460 -0.2198 -0.9745
vn 0.0000 -0.2241 -0.9746
vn 0.4864 -0.1723 -0.8566
vn 0.1775 -0.9245 -0.3374
vn 0.1291 -0.9678 -0.2162
vn -0.4810 -0.8767 -0.0001
vn -0.3074 -0.9516 0.0000
vn -0.2885 -0.9544 0.0766
vn -0.4350 -0.8905 0.1333
vn -0.0652 -0.9979 -0.0000
vn -0.0630 -0.9977 0.0235
vn -0.9942 -0.1071 0.0004
vn -0.9578 -0.1144 0.2638
vn -0.9577 -0.1168 -0.2630
vn -0.7906 -0.1456 -0.5948
vn -0.4346 -0.8907 -0.1333
vn -0.2883 -0.9545 -0.0765
vn -0.0630 -0.9977 -0.0235
vn -0.3107 -0.9151 -0.2570
vn -0.2241 -0.9614 -0.1595
vn -0.0584 -0.9974 -0.0421
vn -0.0687 -0.9289 -0.3638
vn -0.0485 -0.9724 -0.2284
vn -0.1233 -0.9686 -0.2158
vn -0.1720 -0.9258 -0.3366
vn -0.0141 -0.9987 -0.0484
vn -0.0351 -0.9983 -0.0470
vn -0.1951 -0.2045 -0.9592
vn -0.4715 -0.1785 -0.8636
vn -0.4556 0.0229 -0.8899
vn -0.1866 0.0062 -0.9824
vn -0.0431 -0.0037 -0.9991
vn -0.0447 -0.2202 -0.9744
vn 0.4355 0.2782 0.8561
vn 0.4684 0.0200 0.8833
vn -0.0154 -0.9306 -0.3657
vn -0.0104 -0.9745 -0.2242
vn -0.0030 -0.9988 -0.0480
vn 0.0708 -0.9286 0.3643
vn 0.0503 -0.9721 0.2289
vn 0.1291 -0.9678 0.2163
vn 0.1775 -0.9244 0.3375
vn 0.2016 -0.2002 0.9588
vn 0.4863 -0.1710 0.8569
vn 0.1916 0.0011 0.9815
vn 0.0432 -0.0092 0.9990
vn 0.0458 -0.2165 0.9752
vn 0.0158 -0.9305 0.3660
vn 0.0106 -0.9744 0.2244
vn 0.0147 0.9999 0.0001
vn 0.0424 0.9991 0.0001
vn 0.0449 0.9984 -0.0334
vn 0.0164 0.9994 -0.0310
vn 0.0034 0.9995 -0.0300
vn 0.0031 1.0000 0.0001
vn 0.0035 0.9995 0.0308
vn 0.0167 0.9994 0.0318
vn 0.0049 0.9961 0.0882
vn 0.0236 0.9958 0.0880
vn 0.0458 0.9984 0.0344
vn 0.0577 0.9949 0.0829
vn -0.0084 -1.0000 0.0000
vn -0.0242 -0.9997 -0.0000
vn -0.0259 -0.9995 -0.0180
vn -0.0095 -0.9998 -0.0166
vn -0.0020 -0.9999 -0.0161
vn -0.0018 -1.0000 -0.0000
vn -0.0020 -0.9999 0.0161
vn -0.0095 -0.9998 0.0166
vn -0.0259 -0.9995 0.0180
vn 0.1656 0.3397 0.9258
vn 0.1750 0.2713 0.9464
vn 0.4152 0.3456 0.8415
vn 0.0379 0.2685 0.9625
vn 0.0996 0.8074 0.5816
vn 0.2590 0.7988 0.5430
vn 0.2841 0.7970 0.5330
vn 0.1130 0.8063 0.5806
vn 0.0276 0.9920 0.1234
vn 0.0634 0.9917 0.1121
vn 0.0235 0.8116 0.5838
vn 0.0207 0.8117 0.5837
vn 0.0059 0.9919 0.1267
vn 0.0351 0.3379 0.9405
vn -0.4129 0.3418 -0.8442
vn -0.1538 0.4639 -0.8724
vn -0.1671 0.3415 -0.9249
vn -0.3859 0.4604 -0.7994
vn -0.0384 0.3413 -0.9392
vn -0.0846 0.8600 -0.5032
vn -0.2183 0.8521 -0.4756
vn -0.2409 0.8503 -0.4679
vn -0.0946 0.8592 -0.5027
vn -0.0252 0.9931 -0.1148
vn -0.0576 0.9928 -0.1049
vn -0.0206 0.8638 -0.5034
vn -0.0188 0.8639 -0.5033
vn -0.0056 0.9930 -0.1177
vn -0.0348 0.4655 -0.8843
usemtl Rock
s 1
f 1//1 5//2 6//3 2//4
f 2//4 6//3 148//5 149//6
f 9//7 89//8 84//9 5//2
f 88//10 6//3 5//2 84//9
f 1//11 2//12 7//13 3//14
f 3//15 7//16 151//17 152//18
f 2//12 149//19 150//20 7//13
f 7//16 150//21 224//22 151//17
f 1//11 3//14 8//23 4//24
f 4//24 8//23 184//25 185//26
f 3//15 152//18 153//27 8//28
f 8//28 153//27 226//29 184//30
f 1//1 4//31 9//7 5//2
f 186//32 154//33 89//8 9//7
f 4//31 185//34 186//32 9//7
f 10//35 14//36 15//37 11//38
f 11//38 15//37 222//39 221//40
f 18//41 80//42 75//43 14//36
f 79//44 15//37 14//36 75//43
f 10//45 11//46 16//47 12//48
f 12//49 16//50 160//51 161//52
f 11//46 221//53 220//53 16//47
f 16//50 220//54 232//55 160//51
f 10//45 12//48 17//56 13//57
f 13//57 17//56 187//58 188//59
f 12//49 161//52 162//60 17//61
f 17//61 162//60 230//62 187//63
f 10//35 13//64 18//41 14//36
f 189//65 163//66 80//42 18//41
f 13//64 188//67 189//65 18//41
f 183//68 148//5 6//3 88//10
f 19//69 23//70 24//71 20//72
f 20//72 24//71 189//65 188//67
f 27//73 71//74 66//75 23//70
f 70//76 24//71 23//70 66//75
f 19//77 20//78 25//79 21//80
f 21//81 25//82 169//83 170//84
f 20//78 188//59 187//58 25//79
f 25//82 187//63 230//62 169//83
f 19//77 21//80 26//85 22//86
f 22//86 26//85 190//87 191//88
f 21//81 170//84 171//89 26//90
f 26//90 171//89 228//91 190//92
f 19//69 22//93 27//73 23//70
f 192//94 172//95 71//74 27//73
f 22//93 191//96 192//94 27//73
f 222//39 15//37 79//44 205//97
f 28//98 32//99 33//100 29//101
f 29//101 33//100 219//102 218//103
f 36//104 62//105 57//106 32//99
f 61//107 33//100 32//99 57//106
f 28//108 29//109 34//110 30//111
f 30//112 34//113 178//114 179//115
f 29//109 218//116 217//116 34//110
f 34//113 217//117 234//118 178//114
f 28//108 30//111 35//119 31//120
f 31//120 35//119 150//20 149//19
f 30//112 179//115 180//121 35//122
f 35//122 180//121 224//22 150//21
f 28//98 31//123 36//104 32//99
f 183//68 62//105 36//104 148//5
f 31//123 149//6 148//5 36//104
f 189//65 24//71 70//76 163//66
f 37//124 41//125 42//126 38//127
f 38//127 42//126 195//128 194//129
f 41//125 215//130 214//131 42//126
f 42//126 214//131 231//132 195//128
f 37//124 38//127 43//133 39//134
f 39//134 43//133 168//135 167//136
f 38//127 194//129 193//137 43//133
f 43//133 193//137 229//138 168//135
f 37//124 39//134 44//139 40//140
f 40//140 44//139 177//141 176//142
f 39//134 167//136 166//143 44//139
f 44//139 166//143 227//144 177//141
f 37//124 40//140 45//145 41//125
f 41//125 45//145 216//146 215//130
f 40//140 176//142 175//147 45//145
f 45//145 175//147 233//148 216//146
f 46//149 50//150 51//151 47//152
f 47//152 51//151 198//153 197//154
f 50//150 212//155 211//156 51//151
f 51//151 211//156 232//55 198//153
f 46//149 47//152 52//157 48//158
f 48//158 52//157 153//27 152//18
f 47//152 197//154 196//159 52//157
f 52//157 196//159 226//29 153//27
f 46//149 48//158 53//160 49//161
f 49//161 53//160 180//121 179//115
f 48//158 152//18 151//17 53//160
f 53//160 151//17 224//22 180//121
f 46//149 49//161 54//162 50//150
f 50//150 54//162 213//163 212//155
f 49//161 179//115 178//114 54//162
f 54//162 178//114 234//118 213//163
f 55//164 59//165 60//166 56//167
f 56//167 60//166 210//168 209//169
f 59//165 200//170 201//171 60//166
f 60//166 201//171 233//148 210//168
f 55//172 56//173 61//107 57//106
f 56//173 209//174 208//175 61//107
f 55//172 57//106 62//105 58//176
f 58//176 62//105 183//68 182//177
f 55//164 58//178 63//179 59//165
f 59//165 63//179 199//180 200//170
f 58//178 182//181 181//182 63//179
f 63//179 181//182 223//183 199//180
f 64//184 68//185 69//186 65//187
f 65//187 69//186 165//188 164//189
f 68//185 167//136 168//135 69//186
f 69//186 168//135 229//138 165//188
f 64//190 65//191 70//76 66//75
f 65//191 164//192 163//66 70//76
f 64//190 66//75 71//74 67//193
f 67//193 71//74 172//95 173//194
f 64//184 67//195 72//196 68//185
f 68//185 72//196 166//143 167//136
f 67//195 173//197 174//198 72//196
f 72//196 174//198 227//144 166//143
f 73//199 77//200 78//201 74//202
f 74//202 78//201 207//203 206//204
f 77//200 194//129 195//128 78//201
f 78//201 195//128 231//132 207//203
f 73//205 74//206 79//44 75//43
f 74//206 206//207 205//97 79//44
f 73//205 75//43 80//42 76//208
f 76//208 80//42 163//66 164//192
f 73//199 76//209 81//210 77//200
f 77//200 81//210 193//137 194//129
f 76//209 164//189 165//188 81//210
f 81//210 165//188 229//138 193//137
f 82//211 86//212 87//213 83//214
f 83//214 87//213 181//182 182//181
f 86//212 146//215 147//216 87//213
f 87//213 147//216 223//183 181//182
f 82//217 83//218 88//10 84//9
f 83//218 182//177 183//68 88//10
f 82//217 84//9 89//8 85//219
f 85//219 89//8 154//33 155//220
f 219//102 33//100 61//107 208//175
f 82//211 85//221 90//222 86//212
f 86//212 90//222 145//223 146//215
f 85//221 155//224 156//225 90//222
f 90//222 156//225 225//226 145//223
f 91//227 95//228 96//229 92//230
f 92//230 96//229 156//225 155//224
f 95//228 158//231 159//232 96//229
f 96//229 159//232 225//226 156//225
f 91//233 92//234 97//235 93//236
f 92//234 155//220 154//33 97//235
f 91//233 93//236 98//237 94//238
f 94//238 98//237 205//97 206//207
f 192//94 132//239 106//240 172//95
f 91//227 94//241 99//242 95//228
f 95//228 99//242 157//243 158//231
f 94//241 206//204 207//203 99//242
f 99//242 207//203 231//132 157//243
f 100//244 104//245 105//246 101//247
f 101//247 105//246 174//198 173//197
f 104//245 176//142 177//141 105//246
f 105//246 177//141 227//144 174//198
f 100//248 101//249 106//240 102//250
f 101//249 173//194 172//95 106//240
f 100//248 102//250 107//251 103//252
f 103//252 107//251 208//175 209//174
f 100//244 103//253 108//254 104//245
f 104//245 108//254 175//147 176//142
f 103//253 209//169 210//168 108//254
f 108//254 210//168 233//148 175//147
f 109//255 113//256 114//257 110//258
f 110//258 114//257 162//60 161//52
f 113//256 170//84 169//83 114//257
f 114//257 169//83 230//62 162//60
f 109//255 110//258 115//259 111//260
f 111//260 115//259 211//156 212//155
f 110//258 161//52 160//51 115//259
f 115//259 160//51 232//55 211//156
f 109//255 111//260 116//261 112//262
f 112//262 116//261 204//263 203//264
f 111//260 212//155 213//163 116//261
f 116//261 213//163 234//118 204//263
f 109//255 112//262 117//265 113//256
f 113//256 117//265 171//89 170//84
f 112//262 203//264 202//266 117//265
f 117//265 202//266 228//91 171//89
f 118//267 122//268 123//269 119//270
f 119//270 123//269 159//232 158//231
f 122//268 146//215 145//223 123//269
f 123//269 145//223 225//226 159//232
f 118//267 119//270 124//271 120//272
f 120//272 124//271 214//131 215//130
f 119//270 158//231 157//243 124//271
f 124//271 157//243 231//132 214//131
f 118//267 120//272 125//273 121//274
f 121//274 125//273 201//171 200//170
f 120//272 215//130 216//146 125//273
f 125//273 216//146 233//148 201//171
f 118//267 121//274 126//275 122//268
f 122//268 126//275 147//216 146//215
f 121//274 200//170 199//180 126//275
f 126//275 199//180 223//183 147//216
f 127//276 131//277 132//239 128//278
f 128//278 132//239 192//94 191//96
f 135//279 107//251 102//250 131//277
f 106//240 132//239 131//277 102//250
f 127//280 128//281 133//282 129//283
f 129//284 133//285 202//266 203//264
f 128//281 191//88 190//87 133//282
f 133//285 190//92 228//91 202//266
f 127//280 129//283 134//286 130//287
f 130//287 134//286 217//116 218//116
f 129//284 203//264 204//263 134//288
f 134//288 204//263 234//118 217//117
f 127//276 130//289 135//279 131//277
f 219//102 208//175 107//251 135//279
f 130//289 218//103 219//102 135//279
f 186//32 141//290 97//235 154//33
f 136//291 140//292 141//290 137//293
f 137//293 141//290 186//32 185//34
f 144//294 98//237 93//236 140//292
f 97//235 141//290 140//292 93//236
f 136//295 137//296 142//297 138//298
f 138//299 142//300 196//159 197//154
f 137//296 185//26 184//25 142//297
f 142//300 184//30 226//29 196//159
f 136//295 138//298 143//301 139//302
f 139//302 143//301 220//53 221//53
f 138//299 197//154 198//153 143//303
f 143//303 198//153 232//55 220//54
f 136//291 139//304 144//294 140//292
f 222//39 205//97 98//237 144//294
f 139//304 221//40 222//39 144//294
