# Blender v2.79 (sub 0) OBJ File: 'Gem_Green.blend'
# www.blender.org
mtllib Gem_Green.mtl
o Gem_Green_Cube.281
v 0.000000 -0.974765 -0.000000
v 0.125803 0.537220 0.393864
v 0.154903 0.474341 0.467846
v 0.393864 0.537220 0.125803
v 0.467846 0.474341 0.154903
v 0.467846 0.474341 -0.154903
v 0.393864 0.537220 -0.125803
v 0.125803 0.537220 -0.393864
v 0.154903 0.474341 -0.467846
v -0.125803 0.537220 -0.393864
v -0.154903 0.474341 -0.467846
v -0.393864 0.537220 -0.125803
v -0.467846 0.474341 -0.154903
v -0.467846 0.474341 0.154903
v -0.393864 0.537220 0.125803
v -0.125803 0.537220 0.393864
v -0.154903 0.474341 0.467846
v -0.747411 0.118150 0.247466
v -0.748614 0.048172 0.247864
v -0.247864 0.048172 0.748614
v -0.247466 0.118150 0.747411
v -0.247466 0.118150 -0.747411
v -0.247864 0.048172 -0.748614
v -0.748614 0.048172 -0.247864
v -0.747411 0.118150 -0.247466
v 0.247466 0.118150 0.747411
v 0.247864 0.048172 0.748614
v 0.748614 0.048172 0.247864
v 0.747411 0.118150 0.247466
v 0.747411 0.118150 -0.247466
v 0.748614 0.048172 -0.247864
v 0.247864 0.048172 -0.748614
v 0.247466 0.118150 -0.747411
vn 0.0000 0.6174 0.7866
vn 0.0000 0.6814 0.7319
vn 0.5687 0.5942 -0.5687
vn 0.5289 0.6637 -0.5289
vn 0.7866 0.6174 0.0000
vn 0.7319 0.6814 0.0000
vn 0.0000 -0.5906 -0.8070
vn -0.5823 -0.5673 0.5823
vn 0.5823 -0.5673 0.5823
vn -0.7866 0.6174 0.0000
vn -0.7319 0.6814 0.0000
vn 0.0000 0.6174 -0.7866
vn 0.0000 0.6814 -0.7319
vn 0.5687 0.5942 0.5687
vn 0.5289 0.6637 0.5289
vn 0.8070 -0.5906 0.0000
vn 0.0000 1.0000 0.0000
vn -0.5687 0.5942 -0.5687
vn -0.5289 0.6637 -0.5289
vn 0.0000 -0.5906 0.8070
vn 0.5823 -0.5673 -0.5823
vn -0.8070 -0.5906 0.0000
vn 0.6476 0.7620 0.0000
vn 0.0000 0.7620 0.6476
vn -0.6476 0.7620 0.0000
vn -0.4619 0.7572 0.4619
vn -0.5289 0.6637 0.5289
vn 0.4619 0.7572 0.4619
vn -0.4619 0.7572 -0.4619
vn 0.4619 0.7572 -0.4619
vn 0.0000 0.7620 -0.6476
vn -0.5823 -0.5673 -0.5823
vn -0.7070 0.0162 0.7070
vn -0.7070 0.0162 -0.7070
vn 0.7070 0.0162 -0.7070
vn 0.7070 0.0162 0.7070
vn -0.9999 0.0172 -0.0000
vn 0.0000 0.0172 0.9999
vn 0.9999 0.0172 0.0000
vn 0.0000 0.0172 -0.9999
vn -0.5687 0.5942 0.5687
usemtl Gem_Green
s 1
f 21//1 26//1 3//2 17//2
f 30//3 33//3 9//4 6//4
f 29//5 30//5 6//6 5//6
f 1//7 23//7 32//7
f 1//8 20//8 19//8
f 27//9 1//9 28//9
f 25//10 18//10 14//11 13//11
f 33//12 22//12 11//13 9//13
f 26//14 29//14 5//15 3//15
f 1//16 31//16 28//16
f 7//17 8//17 10//17 12//17 15//17 16//17 2//17 4//17
f 22//18 25//18 13//19 11//19
f 1//20 27//20 20//20
f 31//21 1//21 32//21
f 1//22 19//22 24//22
f 5//6 6//6 7//23 4//23
f 2//24 16//24 17//2 3//2
f 15//25 12//25 13//11 14//11
f 16//26 15//26 14//27 17//27
f 4//28 2//28 3//15 5//15
f 12//29 10//29 11//19 13//19
f 8//30 7//30 6//4 9//4
f 9//13 11//13 10//31 8//31
f 23//32 1//32 24//32
f 21//33 18//33 19//33 20//33
f 25//34 22//34 23//34 24//34
f 33//35 30//35 31//35 32//35
f 29//36 26//36 27//36 28//36
f 18//37 25//37 24//37 19//37
f 26//38 21//38 20//38 27//38
f 28//39 31//39 30//39 29//39
f 32//40 23//40 22//40 33//40
f 18//41 21//41 17//27 14//27
