# Blender v2.79 (sub 0) OBJ File: 'Gem_Pink.blend'
# www.blender.org
mtllib Gem_Pink.mtl
o Gem_Pink_Cube.282
v -0.029255 0.969061 -0.000000
v 0.000000 0.969061 0.029255
v 0.029255 0.969061 -0.000000
v 0.000000 0.969061 -0.029255
v 0.029255 -0.969061 0.000000
v -0.000000 -0.969061 0.029255
v -0.029255 -0.969061 0.000000
v -0.000000 -0.969061 -0.029255
v -0.436485 0.040408 -0.565148
v -0.436485 -0.040408 -0.565148
v -0.565148 -0.040408 -0.436484
v -0.565148 0.040408 -0.436484
v 0.436484 -0.040408 -0.565148
v 0.436484 0.040408 -0.565148
v 0.565148 0.040408 -0.436485
v 0.565148 -0.040409 -0.436485
v -0.436484 -0.040408 0.565148
v -0.436484 0.040408 0.565148
v -0.565148 0.040408 0.436485
v -0.565148 -0.040408 0.436485
v 0.436485 -0.040408 0.565148
v 0.565148 -0.040408 0.436484
v 0.565148 0.040408 0.436484
v 0.436485 0.040408 0.565148
vn -0.7351 -0.6780 0.0000
vn -0.8796 -0.2872 0.3793
vn -0.8796 -0.2872 -0.3793
vn -0.8796 0.2872 -0.3793
vn -0.8796 0.2872 0.3793
vn -0.7351 0.6780 0.0000
vn 0.8796 0.2872 0.3793
vn 0.8796 0.2872 -0.3793
vn 0.7351 0.6780 0.0000
vn 0.0000 -0.6780 0.7351
vn 0.3793 -0.2872 0.8796
vn -0.3793 -0.2872 0.8796
vn 0.7351 -0.6780 -0.0000
vn 0.8796 -0.2872 -0.3793
vn 0.8796 -0.2872 0.3793
vn -0.3793 -0.2872 -0.8796
vn 0.3793 -0.2872 -0.8796
vn -0.0000 -0.6780 -0.7351
vn -0.3793 0.2872 0.8796
vn 0.3793 0.2872 0.8796
vn 0.0000 0.6780 0.7351
vn 0.0000 1.0000 -0.0000
vn -0.0000 -1.0000 0.0000
vn -0.3793 0.2872 -0.8796
vn 0.3793 0.2872 -0.8796
vn -0.0000 0.6780 -0.7351
usemtl Gem_Pink
s 1
f 7//1 20//2 11//3
f 12//4 19//5 1//6
f 23//7 15//8 3//9
f 6//10 21//11 17//12
f 5//13 16//14 22//15
f 10//16 13//17 8//18
f 18//19 24//20 2//21
f 1//22 2//22 3//22 4//22
f 5//23 6//23 7//23 8//23
f 9//24 10//16 11//3 12//4
f 13//17 14//25 15//8 16//14
f 17//12 18//19 19//5 20//2
f 21//11 22//15 23//7 24//20
f 12//4 1//6 4//26 9//24
f 5//13 22//15 21//11 6//10
f 7//1 11//3 10//16 8//18
f 20//2 7//1 6//10 17//12
f 16//14 5//13 8//18 13//17
f 15//8 23//7 22//15 16//14
f 19//5 12//4 11//3 20//2
f 24//20 18//19 17//12 21//11
f 13//17 10//16 9//24 14//25
f 23//7 3//9 2//21 24//20
f 3//9 15//8 14//25 4//26
f 1//6 19//5 18//19 2//21
f 4//26 14//25 9//24
