# Blender v2.79 (sub 0) OBJ File: 'Gem_Blue.blend'
# www.blender.org
mtllib Gem_Blue.mtl
o Gem_Blue_Cube.280
v -0.215064 -1.054651 0.137904
v -0.215064 -0.687666 0.348485
v -0.493135 -0.687666 0.137904
v -0.215064 0.687666 0.348485
v -0.215064 1.054651 0.137904
v -0.493135 0.687666 0.137904
v -0.215064 -1.054651 -0.137904
v -0.493135 -0.687666 -0.137904
v -0.215064 -0.687666 -0.348485
v -0.215064 1.054651 -0.137904
v -0.215064 0.687666 -0.348485
v -0.493135 0.687666 -0.137904
v 0.215064 -1.054651 0.137904
v 0.493135 -0.687666 0.137904
v 0.215064 -0.687666 0.348485
v 0.215064 1.054651 0.137904
v 0.215064 0.687666 0.348485
v 0.493135 0.687666 0.137904
v 0.215064 -1.054651 -0.137904
v 0.215064 -0.687666 -0.348485
v 0.493135 -0.687666 -0.137904
v 0.215064 1.054651 -0.137904
v 0.493135 0.687666 -0.137904
v 0.215064 0.687666 -0.348485
vn 0.0000 0.0000 1.0000
vn 1.0000 0.0000 0.0000
vn 0.0000 1.0000 0.0000
vn -1.0000 0.0000 0.0000
vn 0.0000 0.0000 -1.0000
vn -0.5490 -0.4160 0.7250
vn -0.5490 0.4160 0.7250
vn -0.5490 -0.4160 -0.7250
vn -0.5490 0.4160 -0.7250
vn 0.5490 -0.4160 0.7250
vn 0.5490 0.4160 0.7250
vn 0.5490 -0.4160 -0.7250
vn 0.5490 0.4160 -0.7250
vn -0.7970 -0.6039 0.0000
vn -0.6037 0.0000 0.7972
vn -0.7970 0.6039 0.0000
vn -0.6037 0.0000 -0.7972
vn 0.0000 -0.4977 -0.8674
vn 0.0000 0.4977 -0.8674
vn 0.6037 0.0000 -0.7972
vn 0.7970 -0.6039 0.0000
vn 0.7970 0.6039 0.0000
vn 0.6037 0.0000 0.7972
vn 0.0000 -0.4977 0.8674
vn 0.0000 0.4977 0.8674
vn 0.0000 -1.0000 0.0000
usemtl Gem_Blue
s off
f 15//1 17//1 4//1 2//1
f 21//2 23//2 18//2 14//2
f 22//3 10//3 5//3 16//3
f 3//4 6//4 12//4 8//4
f 9//5 11//5 24//5 20//5
f 1//6 2//6 3//6
f 4//7 5//7 6//7
f 7//8 8//8 9//8
f 10//9 11//9 12//9
f 13//10 14//10 15//10
f 16//11 17//11 18//11
f 19//12 20//12 21//12
f 22//13 23//13 24//13
f 7//14 1//14 3//14 8//14
f 2//15 4//15 6//15 3//15
f 5//16 10//16 12//16 6//16
f 11//17 9//17 8//17 12//17
f 19//18 7//18 9//18 20//18
f 10//19 22//19 24//19 11//19
f 23//20 21//20 20//20 24//20
f 13//21 19//21 21//21 14//21
f 22//22 16//22 18//22 23//22
f 17//23 15//23 14//23 18//23
f 1//24 13//24 15//24 2//24
f 16//25 5//25 4//25 17//25
f 7//26 19//26 13//26 1//26
