# Blender v2.79 (sub 0) OBJ File: 'Heart.blend'
# www.blender.org
mtllib Heart.mtl
o Heart_Cube.005
v 0.540427 0.439033 -0.356967
v 0.480969 0.383949 -0.367110
v 0.515920 0.535099 -0.353564
v 0.616942 0.372974 -0.348373
v 0.567901 0.239167 -0.354616
v 0.412076 0.519245 -0.359157
v 0.611500 0.488465 -0.325664
v 0.740061 0.289666 -0.166719
v 0.740061 0.289666 0.166719
v 0.694955 0.112231 -0.174031
v 0.735855 0.437474 -0.150367
v 0.735855 0.437474 0.150367
v 0.694955 0.112231 0.174031
v 0.066063 0.475127 -0.176867
v 0.066063 0.475127 0.176867
v 0.122964 0.557949 -0.176972
v 0.028258 0.392209 -0.176832
v 0.028258 0.392209 0.176832
v 0.122964 0.557949 0.176972
v 0.197384 0.200189 0.369934
v 0.295751 0.256170 0.368006
v 0.142465 0.331380 0.359346
v 0.098757 0.163945 0.372882
v 0.247540 0.065038 0.365292
v 0.369868 0.082426 0.356354
v 0.221685 0.402005 0.355286
v 0.069635 0.268319 0.365088
v 0.124058 0.053015 0.366992
v 0.223572 -0.252621 0.300364
v 0.260385 -0.174784 0.320407
v 0.131159 -0.284133 0.289867
v 0.273315 -0.293079 0.283798
v 0.367214 -0.186314 0.312330
v 0.134865 -0.179557 0.317142
v 0.145209 -0.368517 0.256827
v 0.223572 -0.252621 -0.300364
v 0.131159 -0.284133 -0.289867
v 0.260385 -0.174784 -0.320407
v 0.273315 -0.293079 -0.283798
v 0.145209 -0.368517 -0.256827
v 0.134865 -0.179557 -0.317142
v 0.367214 -0.186314 -0.312330
v 0.341819 -0.355294 -0.126239
v 0.341819 -0.355294 0.126239
v 0.175780 -0.467568 -0.107612
v 0.488377 -0.222728 -0.150198
v 0.488377 -0.222728 0.150198
v 0.175780 -0.467568 0.107612
v 0.540427 0.439033 0.356967
v 0.616942 0.372974 0.348373
v 0.515920 0.535099 0.353564
v 0.480969 0.383949 0.367110
v 0.567901 0.239167 0.354616
v 0.611500 0.488465 0.325664
v 0.412076 0.519245 0.359157
v 0.468357 0.670096 -0.171789
v 0.468357 0.670096 0.171789
v 0.591035 0.617277 -0.153723
v 0.332244 0.672368 -0.177531
v 0.332244 0.672368 0.177531
v 0.591035 0.617277 0.153723
v 0.197384 0.200189 -0.369934
v 0.098757 0.163945 -0.372882
v 0.142465 0.331380 -0.359346
v 0.295751 0.256170 -0.368006
v 0.247540 0.065038 -0.365292
v 0.124058 0.053015 -0.366992
v 0.069635 0.268319 -0.365088
v 0.221685 0.402005 -0.355286
v 0.369868 0.082426 -0.356354
v 0.362181 0.614947 -0.309063
v 0.484026 0.620058 -0.300810
v 0.590043 0.569891 -0.271432
v 0.685220 0.546329 -0.140770
v 0.685220 0.546329 0.140770
v 0.164316 -0.430424 0.199124
v 0.316957 -0.331009 0.228311
v 0.446247 -0.205258 0.264670
v 0.446247 -0.205258 -0.264670
v 0.316957 -0.331009 -0.228311
v 0.164316 -0.430424 -0.199124
v 0.159984 0.499481 0.307466
v 0.094714 0.421509 0.307921
v 0.043774 0.346441 0.308711
v 0.688313 0.439180 -0.267459
v 0.693746 0.309544 -0.294135
v 0.647640 0.150099 -0.304602
v 0.688313 0.439180 0.267459
v 0.693746 0.309544 0.294135
v 0.647640 0.150099 0.304602
v 0.608431 -0.067632 -0.169469
v 0.608431 -0.067632 0.169469
v 0.043774 0.346441 -0.308711
v 0.094714 0.421509 -0.307921
v 0.159984 0.499481 -0.307466
v 0.590043 0.569891 0.271432
v 0.484026 0.620058 0.300810
v 0.362181 0.614947 0.309063
v 0.310490 0.465048 0.355288
v 0.391174 0.309319 0.366518
v 0.480252 0.130583 0.351126
v 0.208509 0.626073 -0.177181
v 0.208509 0.626073 0.177181
v 0.406275 -0.057992 0.333443
v 0.274638 -0.060321 0.342736
v 0.138455 -0.064078 0.345348
v 0.138455 -0.064078 -0.345348
v 0.274638 -0.060321 -0.342736
v 0.406275 -0.057992 -0.333443
v 0.310490 0.465048 -0.355288
v 0.391174 0.309319 -0.366518
v 0.480252 0.130583 -0.351126
v 0.657324 0.516417 0.232071
v 0.657324 0.516417 -0.232071
v 0.551932 -0.033188 -0.313153
v 0.551932 -0.033188 0.313153
v 0.246752 0.565689 -0.307727
v 0.246752 0.565689 0.307727
v -0.540427 0.439033 -0.356967
v -0.480969 0.383949 -0.367110
v -0.515920 0.535099 -0.353564
v -0.616942 0.372974 -0.348373
v -0.567901 0.239167 -0.354616
v -0.412076 0.519245 -0.359157
v -0.611500 0.488465 -0.325664
v -0.740061 0.289666 -0.166719
v -0.740061 0.289666 0.166719
v -0.694955 0.112231 -0.174031
v -0.735855 0.437474 -0.150367
v -0.735855 0.437474 0.150367
v -0.694955 0.112231 0.174031
v -0.066063 0.475127 -0.176867
v -0.066063 0.475127 0.176867
v -0.122964 0.557949 -0.176972
v -0.028258 0.392209 -0.176832
v -0.028258 0.392209 0.176832
v -0.122964 0.557949 0.176972
v -0.197384 0.200189 0.369934
v -0.295751 0.256170 0.368006
v -0.142465 0.331380 0.359346
v -0.098757 0.163945 0.372882
v -0.247540 0.065038 0.365292
v -0.369868 0.082426 0.356354
v -0.221685 0.402005 0.355286
v -0.069635 0.268319 0.365088
v -0.124058 0.053015 0.366992
v -0.223572 -0.252621 0.300364
v -0.260385 -0.174784 0.320407
v -0.131159 -0.284133 0.289867
v -0.273315 -0.293079 0.283798
v -0.367214 -0.186314 0.312330
v -0.134865 -0.179557 0.317142
v -0.145209 -0.368517 0.256827
v -0.223572 -0.252621 -0.300364
v -0.131159 -0.284133 -0.289867
v -0.260385 -0.174784 -0.320407
v -0.273315 -0.293079 -0.283798
v -0.145209 -0.368517 -0.256827
v -0.134865 -0.179557 -0.317142
v -0.367214 -0.186314 -0.312330
v -0.341819 -0.355294 -0.126239
v -0.341819 -0.355294 0.126239
v -0.175780 -0.467568 -0.107612
v -0.488377 -0.222728 -0.150198
v -0.488377 -0.222728 0.150198
v -0.175780 -0.467568 0.107612
v -0.540427 0.439033 0.356967
v -0.616942 0.372974 0.348373
v -0.515920 0.535099 0.353564
v -0.480969 0.383949 0.367110
v -0.567901 0.239167 0.354616
v -0.611500 0.488465 0.325664
v -0.412076 0.519245 0.359157
v -0.468357 0.670096 -0.171789
v -0.468357 0.670096 0.171789
v -0.591035 0.617277 -0.153723
v -0.332244 0.672368 -0.177531
v -0.332244 0.672368 0.177531
v -0.591035 0.617277 0.153723
v -0.197384 0.200189 -0.369934
v -0.098757 0.163945 -0.372882
v -0.142465 0.331380 -0.359346
v -0.295751 0.256170 -0.368006
v -0.247540 0.065038 -0.365292
v -0.124058 0.053015 -0.366992
v -0.069635 0.268319 -0.365088
v -0.221685 0.402005 -0.355286
v -0.369868 0.082426 -0.356354
v -0.362181 0.614947 -0.309063
v -0.484026 0.620058 -0.300810
v -0.590043 0.569891 -0.271432
v -0.685220 0.546329 -0.140770
v -0.685220 0.546329 0.140770
v -0.164316 -0.430424 0.199124
v -0.316957 -0.331009 0.228311
v -0.446247 -0.205258 0.264670
v -0.446247 -0.205258 -0.264670
v -0.316957 -0.331009 -0.228311
v -0.164316 -0.430424 -0.199124
v -0.159984 0.499481 0.307466
v -0.094714 0.421509 0.307921
v -0.043774 0.346441 0.308711
v 0.000000 0.316831 -0.176832
v 0.000000 0.316831 0.176832
v 0.000000 -0.569697 -0.091652
v 0.000000 -0.569697 0.091652
v 0.000000 -0.192482 0.307192
v 0.000000 -0.316312 0.268153
v 0.000000 -0.428292 0.230694
v 0.000000 -0.192482 -0.307192
v 0.000000 -0.316312 -0.268153
v 0.000000 -0.428292 -0.230694
v -0.688313 0.439180 -0.267459
v -0.693746 0.309544 -0.294135
v -0.647640 0.150099 -0.304602
v -0.688313 0.439180 0.267459
v -0.693746 0.309544 0.294135
v -0.647640 0.150099 0.304602
v 0.000000 0.221302 0.366836
v 0.000000 0.141356 0.377103
v 0.000000 0.043734 0.365056
v 0.000000 0.221302 -0.366836
v 0.000000 0.141356 -0.377103
v 0.000000 0.043734 -0.365056
v -0.608431 -0.067632 -0.169469
v -0.608431 -0.067632 0.169469
v -0.043774 0.346441 -0.308711
v -0.094714 0.421509 -0.307921
v -0.159984 0.499481 -0.307466
v -0.590043 0.569891 0.271432
v -0.484026 0.620058 0.300810
v -0.362181 0.614947 0.309063
v -0.310490 0.465048 0.355288
v -0.391174 0.309319 0.366518
v -0.480252 0.130583 0.351126
v -0.208509 0.626073 -0.177181
v -0.208509 0.626073 0.177181
v -0.406275 -0.057992 0.333443
v -0.274638 -0.060321 0.342736
v -0.138455 -0.064078 0.345348
v -0.138455 -0.064078 -0.345348
v -0.274638 -0.060321 -0.342736
v -0.406275 -0.057992 -0.333443
v -0.310490 0.465048 -0.355288
v -0.391174 0.309319 -0.366518
v -0.480252 0.130583 -0.351126
v -0.657324 0.516417 0.232071
v -0.657324 0.516417 -0.232071
v 0.000000 -0.516670 -0.173468
v 0.000000 0.281019 -0.309394
v 0.000000 -0.516670 0.173468
v 0.000000 0.281019 0.309394
v -0.551932 -0.033188 -0.313153
v -0.551932 -0.033188 0.313153
v 0.000000 -0.068549 0.340508
v 0.000000 -0.068549 -0.340508
v -0.246752 0.565689 -0.307727
v -0.246752 0.565689 0.307727
vn 0.1810 0.0910 -0.9793
vn 0.4249 0.0639 -0.9030
vn 0.2548 -0.0903 -0.9628
vn 0.0471 0.0146 -0.9988
vn 0.1491 -0.1133 -0.9823
vn 0.0071 -0.0056 -1.0000
vn 0.7813 -0.0404 -0.6229
vn 0.3555 -0.1411 -0.9240
vn 0.2238 -0.2095 -0.9518
vn -0.0461 0.2667 -0.9627
vn 0.2373 0.3793 -0.8943
vn -0.1063 0.4143 -0.9039
vn 0.2214 0.7677 -0.6014
vn -0.1290 0.1969 -0.9719
vn -0.2069 0.3253 -0.9227
vn 0.5473 0.3634 -0.7539
vn 0.8085 0.2820 -0.5165
vn 0.5584 0.6781 -0.4780
vn 0.7296 0.5512 -0.4049
vn 0.9179 -0.3397 -0.2053
vn 0.9179 -0.3397 0.2053
vn 0.8283 -0.5200 0.2085
vn 0.8283 -0.5200 -0.2085
vn 0.9774 -0.0965 -0.1884
vn 0.8634 -0.3114 -0.3969
vn -0.8952 0.4255 -0.1325
vn -0.8952 0.4255 0.1325
vn -0.8367 0.5140 0.1892
vn -0.8367 0.5140 -0.1892
vn 0.7737 -0.4868 -0.4055
vn 0.7702 0.6161 -0.1650
vn 0.7702 0.6161 0.1650
vn 0.9525 0.2475 0.1775
vn 0.9525 0.2475 -0.1775
vn 0.9774 -0.0965 0.1884
vn 0.8085 0.2820 0.5165
vn 0.7813 -0.0404 0.6229
vn 0.7296 0.5512 0.4049
vn 0.8634 -0.3114 0.3969
vn 0.7737 -0.4868 0.4055
vn -0.7011 0.6761 -0.2268
vn -0.7011 0.6761 0.2268
vn -0.4826 0.8434 0.2361
vn -0.4826 0.8434 -0.2361
vn -0.6426 0.6226 -0.4466
vn -0.7837 0.5051 -0.3616
vn 0.7146 -0.6752 -0.1831
vn 0.7146 -0.6752 0.1831
vn 0.5919 -0.7882 0.1688
vn 0.5919 -0.7882 -0.1688
vn -0.4396 0.7664 -0.4684
vn -0.9084 0.4055 -0.1023
vn -0.9084 0.4055 0.1023
vn -0.8555 0.4567 -0.2441
vn -0.8738 0.4479 -0.1895
vn -0.8555 0.4567 0.2441
vn -0.7837 0.5051 0.3616
vn -0.8738 0.4479 0.1895
vn -0.6426 0.6226 0.4466
vn -0.4396 0.7664 0.4684
vn 0.0199 0.0201 0.9996
vn 0.0496 -0.0980 0.9940
vn 0.0869 -0.0989 0.9913
vn 0.0161 0.0146 0.9998
vn 0.1491 -0.1133 0.9823
vn 0.0071 -0.0056 1.0000
vn 0.0476 -0.1807 0.9824
vn 0.1582 -0.2201 0.9626
vn 0.2238 -0.2095 0.9518
vn -0.1496 0.1947 0.9694
vn -0.1791 0.2179 0.9594
vn -0.2536 0.3064 0.9175
vn -0.3229 0.3355 0.8850
vn -0.1290 0.1969 0.9719
vn -0.2069 0.3253 0.9227
vn -0.2224 0.2762 0.9350
vn 0.0131 0.0124 0.9998
vn 0.0000 0.0968 0.9953
vn 0.0000 -0.0059 1.0000
vn -0.4134 0.4205 0.8076
vn -0.4824 0.5021 0.7177
vn 0.0155 -0.1223 0.9924
vn -0.0039 -0.2084 0.9780
vn 0.0000 -0.1437 0.9896
vn 0.0000 -0.2240 0.9746
vn 0.0142 -0.2981 0.9544
vn 0.1928 -0.4881 0.8512
vn 0.2146 -0.3655 0.9058
vn 0.0300 -0.2369 0.9711
vn 0.4513 -0.7088 0.5422
vn 0.5308 -0.5780 0.6197
vn -0.0294 -0.2466 0.9687
vn -0.0305 -0.3103 0.9502
vn 0.0000 -0.2642 0.9645
vn 0.0000 -0.3152 0.9490
vn 0.1007 -0.5027 0.8586
vn 0.3318 -0.7356 0.5906
vn 0.0000 -0.5067 0.8621
vn 0.0000 -0.7869 0.6171
vn 0.0142 -0.2981 -0.9544
vn 0.1928 -0.4881 -0.8512
vn 0.1007 -0.5027 -0.8586
vn -0.0305 -0.3103 -0.9502
vn 0.0000 -0.5067 -0.8621
vn 0.0000 -0.3152 -0.9490
vn 0.4513 -0.7088 -0.5422
vn 0.3318 -0.7356 -0.5906
vn 0.0000 -0.7869 -0.6171
vn -0.0294 -0.2466 -0.9687
vn 0.0300 -0.2369 -0.9711
vn -0.0039 -0.2084 -0.9780
vn 0.0476 -0.1807 -0.9824
vn -0.0000 -0.2642 -0.9645
vn -0.0000 -0.2240 -0.9746
vn 0.2146 -0.3655 -0.9058
vn 0.5308 -0.5780 -0.6197
vn 0.1582 -0.2201 -0.9626
vn 0.4943 -0.8451 -0.2036
vn 0.4943 -0.8451 0.2036
vn 0.4675 -0.8622 0.1949
vn 0.4675 -0.8622 -0.1949
vn -0.1791 0.9596 -0.2172
vn -0.1791 0.9596 0.2172
vn 0.2121 0.9603 0.1811
vn 0.2121 0.9603 -0.1811
vn 0.1810 0.0910 0.9793
vn 0.0471 0.0146 0.9988
vn 0.2548 -0.0903 0.9628
vn 0.4249 0.0639 0.9030
vn 0.3555 -0.1411 0.9240
vn 0.5473 0.3634 0.7539
vn 0.2373 0.3793 0.8943
vn 0.5584 0.6781 0.4780
vn 0.2214 0.7677 0.6014
vn -0.0461 0.2667 0.9627
vn -0.1063 0.4143 0.9039
vn 0.5253 0.8353 -0.1622
vn 0.5253 0.8353 0.1622
vn -0.9774 -0.0965 -0.1884
vn -0.9774 -0.0965 0.1884
vn -0.9525 0.2475 0.1775
vn -0.9525 0.2475 -0.1775
vn -0.1547 0.8926 -0.4236
vn -0.1547 0.8926 0.4236
vn 0.0199 0.0201 -0.9996
vn 0.0496 -0.0980 -0.9940
vn 0.0155 -0.1223 -0.9924
vn 0.0131 0.0124 -0.9998
vn -0.0000 -0.1437 -0.9896
vn -0.0000 -0.0059 -1.0000
vn -0.2224 0.2762 -0.9350
vn -0.1791 0.2179 -0.9594
vn -0.4134 0.4205 -0.8076
vn -0.3229 0.3355 -0.8850
vn 0.0000 0.0968 -0.9953
vn -0.4824 0.5021 -0.7177
vn -0.1496 0.1947 -0.9694
vn 0.0161 0.0146 -0.9998
vn -0.2536 0.3064 -0.9175
vn 0.0869 -0.0989 -0.9913
vn -0.1810 0.0910 -0.9793
vn -0.0471 0.0146 -0.9988
vn -0.2548 -0.0903 -0.9628
vn -0.4249 0.0639 -0.9030
vn -0.0071 -0.0056 -1.0000
vn -0.1491 -0.1133 -0.9823
vn -0.3555 -0.1411 -0.9240
vn -0.7813 -0.0404 -0.6229
vn -0.2238 -0.2095 -0.9518
vn -0.2373 0.3793 -0.8943
vn 0.0461 0.2667 -0.9627
vn -0.2214 0.7677 -0.6014
vn 0.1063 0.4143 -0.9039
vn 0.1290 0.1969 -0.9719
vn 0.2069 0.3253 -0.9227
vn -0.5473 0.3634 -0.7539
vn -0.8085 0.2820 -0.5165
vn -0.5584 0.6781 -0.4780
vn -0.7296 0.5512 -0.4049
vn -0.8283 -0.5200 -0.2085
vn -0.8283 -0.5200 0.2085
vn -0.9179 -0.3397 0.2053
vn -0.9179 -0.3397 -0.2053
vn -0.8634 -0.3114 -0.3969
vn 0.8367 0.5140 -0.1892
vn 0.8367 0.5140 0.1892
vn 0.8952 0.4255 0.1325
vn 0.8952 0.4255 -0.1325
vn -0.7737 -0.4868 -0.4055
vn -0.7702 0.6161 0.1650
vn -0.7702 0.6161 -0.1650
vn -0.7813 -0.0404 0.6229
vn -0.8085 0.2820 0.5165
vn -0.7296 0.5512 0.4049
vn -0.8634 -0.3114 0.3969
vn -0.7737 -0.4868 0.4055
vn 0.4826 0.8434 -0.2361
vn 0.4826 0.8434 0.2361
vn 0.7011 0.6761 0.2268
vn 0.7011 0.6761 -0.2268
vn 0.7837 0.5051 -0.3616
vn 0.6426 0.6226 -0.4466
vn -0.5919 -0.7882 -0.1688
vn -0.5919 -0.7882 0.1688
vn -0.7146 -0.6752 0.1831
vn -0.7146 -0.6752 -0.1831
vn 0.4396 0.7664 -0.4684
vn 0.9084 0.4055 0.1023
vn 0.9084 0.4055 -0.1023
vn 0.8555 0.4567 -0.2441
vn 0.8738 0.4479 -0.1895
vn 0.7837 0.5051 0.3616
vn 0.8555 0.4567 0.2441
vn 0.8738 0.4479 0.1895
vn 0.6426 0.6226 0.4466
vn 0.4396 0.7664 0.4684
vn -0.0199 0.0201 0.9996
vn -0.0161 0.0146 0.9998
vn -0.0869 -0.0989 0.9913
vn -0.0496 -0.0980 0.9940
vn -0.0071 -0.0056 1.0000
vn -0.1491 -0.1133 0.9823
vn -0.1582 -0.2201 0.9626
vn -0.0476 -0.1807 0.9824
vn -0.2238 -0.2095 0.9518
vn 0.1791 0.2179 0.9594
vn 0.1496 0.1947 0.9694
vn 0.3229 0.3355 0.8850
vn 0.2536 0.3064 0.9175
vn 0.1290 0.1969 0.9719
vn 0.2069 0.3253 0.9227
vn -0.0131 0.0124 0.9998
vn 0.2224 0.2762 0.9350
vn 0.4134 0.4205 0.8076
vn 0.4824 0.5021 0.7177
vn -0.0155 -0.1223 0.9924
vn 0.0039 -0.2084 0.9780
vn -0.0142 -0.2981 0.9544
vn -0.0300 -0.2369 0.9711
vn -0.2146 -0.3655 0.9058
vn -0.1928 -0.4881 0.8512
vn -0.5308 -0.5780 0.6197
vn -0.4513 -0.7088 0.5422
vn 0.0305 -0.3103 0.9502
vn 0.0294 -0.2466 0.9687
vn -0.1007 -0.5027 0.8586
vn -0.3318 -0.7356 0.5906
vn -0.0142 -0.2981 -0.9544
vn 0.0305 -0.3103 -0.9502
vn -0.1007 -0.5027 -0.8586
vn -0.1928 -0.4881 -0.8512
vn -0.3318 -0.7356 -0.5906
vn -0.4513 -0.7088 -0.5422
vn -0.0300 -0.2369 -0.9711
vn 0.0294 -0.2466 -0.9687
vn -0.0476 -0.1807 -0.9824
vn 0.0039 -0.2084 -0.9780
vn -0.2146 -0.3655 -0.9058
vn -0.5308 -0.5780 -0.6197
vn -0.1582 -0.2201 -0.9626
vn -0.4675 -0.8622 -0.1949
vn -0.4675 -0.8622 0.1949
vn -0.4943 -0.8451 0.2036
vn -0.4943 -0.8451 -0.2036
vn -0.2121 0.9603 -0.1811
vn -0.2121 0.9603 0.1811
vn 0.1791 0.9596 0.2172
vn 0.1791 0.9596 -0.2172
vn -0.1810 0.0910 0.9793
vn -0.4249 0.0639 0.9030
vn -0.2548 -0.0903 0.9628
vn -0.0471 0.0146 0.9988
vn -0.3555 -0.1411 0.9240
vn -0.2373 0.3793 0.8943
vn -0.5473 0.3634 0.7539
vn -0.2214 0.7677 0.6014
vn -0.5584 0.6781 0.4780
vn 0.0461 0.2667 0.9627
vn 0.1063 0.4143 0.9039
vn -0.5253 0.8353 0.1622
vn -0.5253 0.8353 -0.1622
vn 0.1547 0.8926 -0.4236
vn 0.1547 0.8926 0.4236
vn -0.0199 0.0201 -0.9996
vn -0.0131 0.0124 -0.9998
vn -0.0155 -0.1223 -0.9924
vn -0.0496 -0.0980 -0.9940
vn 0.1791 0.2179 -0.9594
vn 0.2224 0.2762 -0.9350
vn 0.3229 0.3355 -0.8850
vn 0.4134 0.4205 -0.8076
vn 0.4824 0.5021 -0.7177
vn -0.0161 0.0146 -0.9998
vn 0.1496 0.1947 -0.9694
vn 0.2536 0.3064 -0.9175
vn -0.0869 -0.0989 -0.9913
usemtl Red
s 1
f 1//1 4//2 5//3 2//4
f 2//4 5//3 112//5 111//6
f 4//2 86//7 87//8 5//3
f 5//3 87//8 115//9 112//5
f 1//1 2//4 6//10 3//11
f 3//11 6//10 71//12 72//13
f 2//4 111//6 110//14 6//10
f 6//10 110//14 117//15 71//12
f 1//1 3//11 7//16 4//2
f 4//2 7//16 85//17 86//7
f 3//11 72//13 73//18 7//16
f 7//16 73//18 114//19 85//17
f 10//20 13//21 92//22 91//23
f 8//24 10//20 87//25 86//7
f 17//26 18//27 15//28 14//29
f 10//20 91//23 115//30 87//25
f 74//31 75//32 12//33 11//34
f 8//24 9//35 13//21 10//20
f 8//24 86//7 85//17 11//34
f 11//34 85//17 114//19 74//31
f 9//35 12//33 88//36 89//37
f 12//33 75//32 113//38 88//36
f 9//35 89//37 90//39 13//21
f 13//21 90//39 116//40 92//22
f 16//41 19//42 103//43 102//44
f 14//29 16//41 95//45 94//46
f 46//47 47//48 44//49 43//50
f 16//41 102//44 117//51 95//45
f 203//52 204//53 18//27 17//26
f 14//29 15//28 19//42 16//41
f 14//29 94//46 93//54 17//26
f 17//26 93//54 250//55 203//52
f 15//28 18//27 84//56 83//57
f 18//27 204//53 252//58 84//56
f 15//28 83//57 82//59 19//42
f 19//42 82//59 118//60 103//43
f 20//61 24//62 25//63 21//64
f 21//64 25//63 101//65 100//66
f 24//62 105//67 104//68 25//63
f 25//63 104//68 116//69 101//65
f 20//61 21//64 26//70 22//71
f 22//71 26//70 82//72 83//73
f 21//64 100//66 99//74 26//70
f 26//70 99//74 118//75 82//72
f 20//61 22//71 27//76 23//77
f 23//77 27//76 219//78 220//79
f 22//71 83//73 84//80 27//76
f 27//76 84//80 252//81 219//81
f 20//61 23//77 28//82 24//62
f 24//62 28//82 106//83 105//67
f 23//77 220//79 221//84 28//82
f 28//82 221//84 255//85 106//83
f 29//86 32//87 33//88 30//89
f 30//89 33//88 104//68 105//67
f 32//87 77//90 78//91 33//88
f 33//88 78//91 116//69 104//68
f 29//86 30//89 34//92 31//93
f 31//93 34//92 207//94 208//95
f 30//89 105//67 106//83 34//92
f 34//92 106//83 255//85 207//94
f 29//86 31//93 35//96 32//87
f 32//87 35//96 76//97 77//90
f 31//93 208//95 209//98 35//96
f 35//96 209//98 251//99 76//97
f 36//100 39//101 40//102 37//103
f 37//103 40//102 212//104 211//105
f 39//101 80//106 81//107 40//102
f 40//102 81//107 249//108 212//104
f 36//100 37//103 41//109 38//110
f 38//110 41//109 107//111 108//112
f 37//103 211//105 210//113 41//109
f 41//109 210//113 256//114 107//111
f 36//100 38//110 42//115 39//101
f 39//101 42//115 79//116 80//106
f 38//110 108//112 109//117 42//115
f 42//115 109//117 115//9 79//116
f 45//118 48//119 206//120 205//121
f 43//50 45//118 81//107 80//106
f 59//122 60//123 57//124 56//125
f 45//118 205//121 249//108 81//107
f 91//23 92//22 47//48 46//47
f 43//50 44//49 48//119 45//118
f 43//50 80//106 79//116 46//47
f 46//47 79//116 115//30 91//23
f 44//49 47//48 78//91 77//90
f 47//48 92//22 116//40 78//91
f 44//49 77//90 76//97 48//119
f 48//119 76//97 251//99 206//120
f 49//126 52//127 53//128 50//129
f 50//129 53//128 90//130 89//37
f 52//127 100//66 101//65 53//128
f 53//128 101//65 116//69 90//130
f 49//126 50//129 54//131 51//132
f 51//132 54//131 96//133 97//134
f 50//129 89//37 88//36 54//131
f 54//131 88//36 113//38 96//133
f 49//126 51//132 55//135 52//127
f 52//127 55//135 99//74 100//66
f 51//132 97//134 98//136 55//135
f 55//135 98//136 118//75 99//74
f 58//137 61//138 75//32 74//31
f 56//125 58//137 73//18 72//13
f 126//139 127//140 130//141 129//142
f 58//137 74//31 114//19 73//18
f 102//44 103//43 60//123 59//122
f 56//125 57//124 61//138 58//137
f 56//125 72//13 71//143 59//122
f 59//122 71//143 117//51 102//44
f 57//124 60//123 98//144 97//134
f 60//123 103//43 118//60 98//144
f 57//124 97//134 96//133 61//138
f 61//138 96//133 113//38 75//32
f 62//145 66//146 67//147 63//148
f 63//148 67//147 224//149 223//150
f 66//146 108//112 107//111 67//147
f 67//147 107//111 256//114 224//149
f 62//145 63//148 68//151 64//152
f 64//152 68//151 93//153 94//154
f 63//148 223//150 222//155 68//151
f 68//151 222//156 250//156 93//153
f 62//145 64//152 69//157 65//158
f 65//158 69//157 110//14 111//6
f 64//152 94//154 95//159 69//157
f 69//157 95//159 117//15 110//14
f 62//145 65//158 70//160 66//146
f 66//146 70//160 109//117 108//112
f 65//158 111//6 112//5 70//160
f 70//160 112//5 115//9 109//117
f 119//161 120//162 123//163 122//164
f 120//162 245//165 246//166 123//163
f 122//164 123//163 215//167 214//168
f 123//163 246//166 253//169 215//167
f 119//161 121//170 124//171 120//162
f 121//170 190//172 189//173 124//171
f 120//162 124//171 244//174 245//165
f 124//171 189//173 257//175 244//174
f 119//161 122//164 125//176 121//170
f 122//164 214//168 213//177 125//176
f 121//170 125//176 191//178 190//172
f 125//176 213//177 248//179 191//178
f 225//180 226//181 131//182 128//183
f 126//139 214//168 215//184 128//183
f 132//185 133//186 136//187 135//188
f 128//183 215//184 253//189 225//180
f 129//142 130//141 193//190 192//191
f 128//183 131//182 127//140 126//139
f 126//139 129//142 213//177 214//168
f 129//142 192//191 248//179 213//177
f 127//140 217//192 216//193 130//141
f 130//141 216//193 247//194 193//190
f 127//140 131//182 218//195 217//192
f 131//182 226//181 254//196 218//195
f 236//197 237//198 137//199 134//200
f 132//185 228//201 229//202 134//200
f 161//203 162//204 165//205 164//206
f 134//200 229//202 257//207 236//197
f 135//188 136//187 204//208 203//209
f 134//200 137//199 133//186 132//185
f 132//185 135//188 227//210 228//201
f 135//188 203//209 250//211 227//210
f 133//186 201//212 202//213 136//187
f 136//187 202//213 252//214 204//208
f 133//186 137//199 200//215 201//212
f 137//199 237//198 258//216 200//215
f 138//217 139//218 143//219 142//220
f 139//218 234//221 235//222 143//219
f 142//220 143//219 238//223 239//224
f 143//219 235//222 254//225 238//223
f 138//217 140//226 144//227 139//218
f 140//226 201//228 200//229 144//227
f 139//218 144//227 233//230 234//221
f 144//227 200//229 258//231 233//230
f 138//217 141//232 145//233 140//226
f 141//232 220//79 219//78 145//233
f 140//226 145//233 202//234 201//228
f 145//233 219//235 252//235 202//234
f 138//217 142//220 146//236 141//232
f 142//220 239//224 240//237 146//236
f 141//232 146//236 221//84 220//79
f 146//236 240//237 255//85 221//84
f 147//238 148//239 151//240 150//241
f 148//239 239//224 238//223 151//240
f 150//241 151//240 196//242 195//243
f 151//240 238//223 254//225 196//242
f 147//238 149//244 152//245 148//239
f 149//244 208//95 207//94 152//245
f 148//239 152//245 240//237 239//224
f 152//245 207//94 255//85 240//237
f 147//238 150//241 153//246 149//244
f 150//241 195//243 194//247 153//246
f 149//244 153//246 209//98 208//95
f 153//246 194//247 251//99 209//98
f 154//248 155//249 158//250 157//251
f 155//249 211//105 212//104 158//250
f 157//251 158//250 199//252 198//253
f 158//250 212//104 249//108 199//252
f 154//248 156//254 159//255 155//249
f 156//254 242//256 241//257 159//255
f 155//249 159//255 210//113 211//105
f 159//255 241//257 256//114 210//113
f 154//248 157//251 160//258 156//254
f 157//251 198//253 197//259 160//258
f 156//254 160//258 243//260 242//256
f 160//258 197//259 253//169 243//260
f 205//261 206//262 166//263 163//264
f 161//203 198//253 199//252 163//264
f 174//265 175//266 178//267 177//268
f 163//264 199//252 249//108 205//261
f 164//206 165//205 226//181 225//180
f 163//264 166//263 162//204 161//203
f 161//203 164//206 197//259 198//253
f 164//206 225//180 253//189 197//259
f 162//204 195//243 196//242 165//205
f 165//205 196//242 254//196 226//181
f 162//204 166//263 194//247 195//243
f 166//263 206//262 251//99 194//247
f 167//269 168//270 171//271 170//272
f 168//270 217//192 218//273 171//271
f 170//272 171//271 235//222 234//221
f 171//271 218//273 254//225 235//222
f 167//269 169//274 172//275 168//270
f 169//274 231//276 230//277 172//275
f 168//270 172//275 216//193 217//192
f 172//275 230//277 247//194 216//193
f 167//269 170//272 173//278 169//274
f 170//272 234//221 233//230 173//278
f 169//274 173//278 232//279 231//276
f 173//278 233//230 258//231 232//279
f 192//191 193//190 179//280 176//281
f 174//265 190//172 191//178 176//281
f 176//281 191//178 248//179 192//191
f 177//268 178//267 237//198 236//197
f 176//281 179//280 175//266 174//265
f 174//265 177//268 189//282 190//172
f 177//268 236//197 257//207 189//282
f 175//266 231//276 232//283 178//267
f 178//267 232//283 258//216 237//198
f 175//266 179//280 230//277 231//276
f 179//280 193//190 247//194 230//277
f 180//284 181//285 185//286 184//287
f 181//285 223//150 224//149 185//286
f 184//287 185//286 241//257 242//256
f 185//286 224//149 256//114 241//257
f 180//284 182//288 186//289 181//285
f 182//288 228//290 227//291 186//289
f 181//285 186//289 222//155 223//150
f 186//289 227//291 250//292 222//292
f 180//284 183//293 187//294 182//288
f 183//293 245//165 244//174 187//294
f 182//288 187//294 229//295 228//290
f 187//294 244//174 257//175 229//295
f 180//284 184//287 188//296 183//293
f 184//287 242//256 243//260 188//296
f 183//293 188//296 246//166 245//165
f 188//296 243//260 253//169 246//166
f 11//34 12//33 9//35 8//24
