# Blender v2.79 (sub 0) OBJ File: 'Heart_Half.blend'
# www.blender.org
mtllib Heart_Half.mtl
o Heart_Half_Cube.007
v -0.540427 0.439033 -0.356967
v -0.480969 0.383949 -0.367110
v -0.515920 0.535099 -0.353564
v -0.616942 0.372974 -0.348373
v -0.567901 0.239167 -0.354616
v -0.412076 0.519245 -0.359157
v -0.611500 0.488465 -0.325664
v -0.740061 0.289666 -0.166719
v -0.740061 0.289666 0.166719
v -0.694955 0.112231 -0.174031
v -0.735855 0.437474 -0.150367
v -0.735855 0.437474 0.150367
v -0.694955 0.112231 0.174031
v -0.066063 0.475127 -0.176867
v -0.066063 0.475127 0.176867
v -0.122964 0.557949 -0.176972
v -0.028258 0.392209 -0.176832
v -0.028258 0.392209 0.176832
v -0.122964 0.557949 0.176972
v -0.197384 0.200189 0.369934
v -0.295751 0.256170 0.368006
v -0.142465 0.331380 0.359346
v -0.098757 0.163945 0.372882
v -0.247540 0.065038 0.365292
v -0.369868 0.082426 0.356354
v -0.221685 0.402005 0.355286
v -0.069635 0.268319 0.365088
v -0.124058 0.053015 0.366992
v -0.223572 -0.252621 0.300364
v -0.260385 -0.174784 0.320407
v -0.131159 -0.284133 0.289867
v -0.273315 -0.293079 0.283798
v -0.367214 -0.186314 0.312330
v -0.134865 -0.179557 0.317142
v -0.145209 -0.368517 0.256827
v -0.223572 -0.252621 -0.300364
v -0.131159 -0.284133 -0.289867
v -0.260385 -0.174784 -0.320407
v -0.273315 -0.293079 -0.283798
v -0.145209 -0.368517 -0.256827
v -0.134865 -0.179557 -0.317142
v -0.367214 -0.186314 -0.312330
v -0.341819 -0.355294 -0.126239
v -0.341819 -0.355294 0.126239
v -0.175780 -0.467568 -0.107612
v -0.488377 -0.222728 -0.150198
v -0.488377 -0.222728 0.150198
v -0.175780 -0.467568 0.107612
v -0.540427 0.439033 0.356967
v -0.616942 0.372974 0.348373
v -0.515920 0.535099 0.353564
v -0.480969 0.383949 0.367110
v -0.567901 0.239167 0.354616
v -0.611500 0.488465 0.325664
v -0.412076 0.519245 0.359157
v -0.468357 0.670096 -0.171789
v -0.468357 0.670096 0.171789
v -0.591035 0.617277 -0.153723
v -0.332244 0.672368 -0.177531
v -0.332244 0.672368 0.177531
v -0.591035 0.617277 0.153723
v -0.197384 0.200189 -0.369934
v -0.098757 0.163945 -0.372882
v -0.142465 0.331380 -0.359346
v -0.295751 0.256170 -0.368006
v -0.247540 0.065038 -0.365292
v -0.124058 0.053015 -0.366992
v -0.069635 0.268319 -0.365088
v -0.221685 0.402005 -0.355286
v -0.369868 0.082426 -0.356354
v -0.362181 0.614947 -0.309063
v -0.484026 0.620058 -0.300810
v -0.590043 0.569891 -0.271432
v -0.685220 0.546329 -0.140770
v -0.685220 0.546329 0.140770
v -0.164316 -0.430424 0.199124
v -0.316957 -0.331009 0.228311
v -0.446247 -0.205258 0.264670
v -0.446247 -0.205258 -0.264670
v -0.316957 -0.331009 -0.228311
v -0.164316 -0.430424 -0.199124
v -0.159984 0.499481 0.307466
v -0.094714 0.421509 0.307921
v -0.043774 0.346441 0.308711
v 0.000000 0.316831 -0.176832
v 0.000000 0.316831 0.176832
v 0.000000 -0.569697 -0.091652
v 0.000000 -0.569697 0.091652
v 0.000000 -0.192482 0.307192
v 0.000000 -0.316312 0.268153
v 0.000000 -0.428292 0.230694
v 0.000000 -0.192482 -0.307192
v 0.000000 -0.316312 -0.268153
v 0.000000 -0.428292 -0.230694
v -0.688313 0.439180 -0.267459
v -0.693746 0.309544 -0.294135
v -0.647640 0.150099 -0.304602
v -0.688313 0.439180 0.267459
v -0.693746 0.309544 0.294135
v -0.647640 0.150099 0.304602
v 0.000000 0.221302 0.366836
v 0.000000 0.141356 0.377103
v 0.000000 0.043734 0.365056
v 0.000000 0.221302 -0.366836
v 0.000000 0.141356 -0.377103
v 0.000000 0.043734 -0.365056
v -0.608431 -0.067632 -0.169469
v -0.608431 -0.067632 0.169469
v -0.043774 0.346441 -0.308711
v -0.094714 0.421509 -0.307921
v -0.159984 0.499481 -0.307466
v -0.590043 0.569891 0.271432
v -0.484026 0.620058 0.300810
v -0.362181 0.614947 0.309063
v -0.310490 0.465048 0.355288
v -0.391174 0.309319 0.366518
v -0.480252 0.130583 0.351126
v -0.208509 0.626073 -0.177181
v -0.208509 0.626073 0.177181
v -0.406275 -0.057992 0.333443
v -0.274638 -0.060321 0.342736
v -0.138455 -0.064078 0.345348
v -0.138455 -0.064078 -0.345348
v -0.274638 -0.060321 -0.342736
v -0.406275 -0.057992 -0.333443
v -0.310490 0.465048 -0.355288
v -0.391174 0.309319 -0.366518
v -0.480252 0.130583 -0.351126
v -0.657324 0.516417 0.232071
v -0.657324 0.516417 -0.232071
v 0.000000 -0.516670 -0.173468
v 0.000000 0.281019 -0.309394
v 0.000000 -0.516670 0.173468
v 0.000000 0.281019 0.309394
v -0.551932 -0.033188 -0.313153
v -0.551932 -0.033188 0.313153
v 0.000000 -0.068549 0.340508
v 0.000000 -0.068549 -0.340508
v -0.246752 0.565689 -0.307727
v -0.246752 0.565689 0.307727
vn -0.9774 -0.0965 -0.1884
vn -0.9774 -0.0965 0.1884
vn -0.9525 0.2475 0.1775
vn -0.9525 0.2475 -0.1775
vn -0.1810 0.0910 -0.9793
vn -0.0471 0.0146 -0.9988
vn -0.2548 -0.0903 -0.9628
vn -0.4249 0.0639 -0.9030
vn -0.0071 -0.0056 -1.0000
vn -0.1491 -0.1133 -0.9823
vn -0.3555 -0.1411 -0.9240
vn -0.7813 -0.0404 -0.6229
vn -0.2238 -0.2095 -0.9518
vn -0.2373 0.3793 -0.8943
vn 0.0461 0.2667 -0.9627
vn -0.2214 0.7677 -0.6014
vn 0.1063 0.4143 -0.9039
vn 0.1290 0.1969 -0.9719
vn 0.2069 0.3253 -0.9227
vn -0.5473 0.3634 -0.7539
vn -0.8085 0.2820 -0.5165
vn -0.5584 0.6781 -0.4780
vn -0.7296 0.5512 -0.4049
vn -0.8283 -0.5200 -0.2085
vn -0.8283 -0.5200 0.2085
vn -0.9179 -0.3397 0.2053
vn -0.9179 -0.3397 -0.2053
vn -0.8634 -0.3114 -0.3969
vn 0.8367 0.5140 -0.1892
vn 0.8367 0.5140 0.1892
vn 0.8952 0.4255 0.1325
vn 0.8952 0.4255 -0.1325
vn -0.7737 -0.4868 -0.4055
vn -0.7702 0.6161 0.1650
vn -0.7702 0.6161 -0.1650
vn -0.7813 -0.0404 0.6229
vn -0.8085 0.2820 0.5165
vn -0.7296 0.5512 0.4049
vn -0.8634 -0.3114 0.3969
vn -0.7737 -0.4868 0.4055
vn 0.4826 0.8434 -0.2361
vn 0.4826 0.8434 0.2361
vn 0.7011 0.6761 0.2268
vn 0.7011 0.6761 -0.2268
vn 0.7837 0.5051 -0.3616
vn 0.6426 0.6226 -0.4466
vn -0.5919 -0.7882 -0.1688
vn -0.5919 -0.7882 0.1688
vn -0.7146 -0.6752 0.1831
vn -0.7146 -0.6752 -0.1831
vn 0.4396 0.7664 -0.4684
vn 0.9730 0.2238 0.0564
vn 0.9730 0.2238 -0.0564
vn 0.8555 0.4567 -0.2441
vn 0.9853 0.1571 -0.0665
vn 0.7837 0.5051 0.3616
vn 0.8555 0.4567 0.2441
vn 0.9853 0.1571 0.0665
vn 0.6426 0.6226 0.4466
vn 0.4396 0.7664 0.4684
vn -0.0199 0.0201 0.9996
vn -0.0161 0.0146 0.9998
vn -0.0869 -0.0989 0.9913
vn -0.0496 -0.0980 0.9940
vn -0.0071 -0.0056 1.0000
vn -0.1491 -0.1133 0.9823
vn -0.1582 -0.2201 0.9626
vn -0.0476 -0.1807 0.9824
vn -0.2238 -0.2095 0.9518
vn 0.1791 0.2179 0.9594
vn 0.1496 0.1947 0.9694
vn 0.3229 0.3355 0.8850
vn 0.2536 0.3064 0.9175
vn 0.1290 0.1969 0.9719
vn 0.2069 0.3253 0.9227
vn -0.0131 0.0124 0.9998
vn 0.2224 0.2762 0.9350
vn -0.0106 -0.0059 0.9999
vn 0.0047 0.0968 0.9953
vn 0.4134 0.4205 0.8076
vn 0.4824 0.5021 0.7177
vn -0.0155 -0.1223 0.9924
vn 0.0039 -0.2084 0.9780
vn -0.0027 -0.1437 0.9896
vn 0.0260 -0.2240 0.9742
vn -0.0142 -0.2981 0.9544
vn -0.0300 -0.2369 0.9711
vn -0.2146 -0.3655 0.9058
vn -0.1928 -0.4881 0.8512
vn -0.5308 -0.5780 0.6197
vn -0.4513 -0.7088 0.5422
vn 0.0305 -0.3103 0.9502
vn 0.0294 -0.2466 0.9687
vn 0.0566 -0.3147 0.9475
vn 0.0529 -0.2638 0.9631
vn -0.1007 -0.5027 0.8586
vn -0.3318 -0.7356 0.5906
vn -0.0749 -0.5053 0.8597
vn -0.3113 -0.7478 0.5864
vn -0.0142 -0.2981 -0.9544
vn 0.0305 -0.3103 -0.9502
vn -0.1007 -0.5027 -0.8586
vn -0.1928 -0.4881 -0.8512
vn 0.0566 -0.3147 -0.9475
vn -0.0749 -0.5053 -0.8597
vn -0.3318 -0.7356 -0.5906
vn -0.4513 -0.7088 -0.5422
vn -0.3113 -0.7478 -0.5864
vn -0.0300 -0.2369 -0.9711
vn 0.0294 -0.2466 -0.9687
vn -0.0476 -0.1807 -0.9824
vn 0.0039 -0.2084 -0.9780
vn 0.0529 -0.2638 -0.9631
vn 0.0260 -0.2240 -0.9742
vn -0.2146 -0.3655 -0.9058
vn -0.5308 -0.5780 -0.6197
vn -0.1582 -0.2201 -0.9626
vn -0.4675 -0.8622 -0.1949
vn -0.4675 -0.8622 0.1949
vn -0.4943 -0.8451 0.2036
vn -0.4943 -0.8451 -0.2036
vn -0.2121 0.9603 -0.1811
vn -0.2121 0.9603 0.1811
vn 0.1791 0.9596 0.2172
vn 0.1791 0.9596 -0.2172
vn -0.1810 0.0910 0.9793
vn -0.4249 0.0639 0.9030
vn -0.2548 -0.0903 0.9628
vn -0.0471 0.0146 0.9988
vn -0.3555 -0.1411 0.9240
vn -0.2373 0.3793 0.8943
vn -0.5473 0.3634 0.7539
vn -0.2214 0.7677 0.6014
vn -0.5584 0.6781 0.4780
vn 0.0461 0.2667 0.9627
vn 0.1063 0.4143 0.9039
vn -0.5253 0.8353 0.1622
vn -0.5253 0.8353 -0.1622
vn 0.1547 0.8926 -0.4236
vn 0.1547 0.8926 0.4236
vn -0.0199 0.0201 -0.9996
vn -0.0131 0.0124 -0.9998
vn -0.0155 -0.1223 -0.9924
vn -0.0496 -0.0980 -0.9940
vn -0.0106 -0.0059 -0.9999
vn -0.0027 -0.1437 -0.9896
vn 0.1791 0.2179 -0.9594
vn 0.2224 0.2762 -0.9350
vn 0.3229 0.3355 -0.8850
vn 0.4134 0.4205 -0.8076
vn 0.0047 0.0968 -0.9953
vn 0.4824 0.5021 -0.7177
vn -0.0161 0.0146 -0.9998
vn 0.1496 0.1947 -0.9694
vn 0.2536 0.3064 -0.9175
vn -0.0869 -0.0989 -0.9913
vn 1.0000 0.0000 0.0000
usemtl Red
s 1
f 8//1 9//2 12//3 11//4
f 1//5 2//6 5//7 4//8
f 2//6 127//9 128//10 5//7
f 4//8 5//7 97//11 96//12
f 5//7 128//10 135//13 97//11
f 1//5 3//14 6//15 2//6
f 3//14 72//16 71//17 6//15
f 2//6 6//15 126//18 127//9
f 6//15 71//17 139//19 126//18
f 1//5 4//8 7//20 3//14
f 4//8 96//12 95//21 7//20
f 3//14 7//20 73//22 72//16
f 7//20 95//21 130//23 73//22
f 107//24 108//25 13//26 10//27
f 8//1 96//12 97//28 10//27
f 14//29 15//30 18//31 17//32
f 10//27 97//28 135//33 107//24
f 11//4 12//3 75//34 74//35
f 10//27 13//26 9//2 8//1
f 8//1 11//4 95//21 96//12
f 11//4 74//35 130//23 95//21
f 9//2 99//36 98//37 12//3
f 12//3 98//37 129//38 75//34
f 9//2 13//26 100//39 99//36
f 13//26 108//25 136//40 100//39
f 118//41 119//42 19//43 16//44
f 14//29 110//45 111//46 16//44
f 43//47 44//48 47//49 46//50
f 16//44 111//46 139//51 118//41
f 17//32 18//31 86//52 85//53
f 16//44 19//43 15//30 14//29
f 14//29 17//32 109//54 110//45
f 17//32 85//53 132//55 109//54
f 15//30 83//56 84//57 18//31
f 18//31 84//57 134//58 86//52
f 15//30 19//43 82//59 83//56
f 19//43 119//42 140//60 82//59
f 20//61 21//62 25//63 24//64
f 21//62 116//65 117//66 25//63
f 24//64 25//63 120//67 121//68
f 25//63 117//66 136//69 120//67
f 20//61 22//70 26//71 21//62
f 22//70 83//72 82//73 26//71
f 21//62 26//71 115//74 116//65
f 26//71 82//73 140//75 115//74
f 20//61 23//76 27//77 22//70
f 23//76 102//78 101//79 27//77
f 22//70 27//77 84//80 83//72
f 27//77 101//81 134//81 84//80
f 20//61 24//64 28//82 23//76
f 24//64 121//68 122//83 28//82
f 23//76 28//82 103//84 102//78
f 28//82 122//83 137//85 103//84
f 29//86 30//87 33//88 32//89
f 30//87 121//68 120//67 33//88
f 32//89 33//88 78//90 77//91
f 33//88 120//67 136//69 78//90
f 29//86 31//92 34//93 30//87
f 31//92 90//94 89//95 34//93
f 30//87 34//93 122//83 121//68
f 34//93 89//95 137//85 122//83
f 29//86 32//89 35//96 31//92
f 32//89 77//91 76//97 35//96
f 31//92 35//96 91//98 90//94
f 35//96 76//97 133//99 91//98
f 36//100 37//101 40//102 39//103
f 37//101 93//104 94//105 40//102
f 39//103 40//102 81//106 80//107
f 40//102 94//105 131//108 81//106
f 36//100 38//109 41//110 37//101
f 38//109 124//111 123//112 41//110
f 37//101 41//110 92//113 93//104
f 41//110 123//112 138//114 92//113
f 36//100 39//103 42//115 38//109
f 39//103 80//107 79//116 42//115
f 38//109 42//115 125//117 124//111
f 42//115 79//116 135//13 125//117
f 87//118 88//119 48//120 45//121
f 43//47 80//107 81//106 45//121
f 56//122 57//123 60//124 59//125
f 45//121 81//106 131//108 87//118
f 46//50 47//49 108//25 107//24
f 45//121 48//120 44//48 43//47
f 43//47 46//50 79//116 80//107
f 46//50 107//24 135//33 79//116
f 44//48 77//91 78//90 47//49
f 47//49 78//90 136//40 108//25
f 44//48 48//120 76//97 77//91
f 48//120 88//119 133//99 76//97
f 49//126 50//127 53//128 52//129
f 50//127 99//36 100//130 53//128
f 52//129 53//128 117//66 116//65
f 53//128 100//130 136//69 117//66
f 49//126 51//131 54//132 50//127
f 51//131 113//133 112//134 54//132
f 50//127 54//132 98//37 99//36
f 54//132 112//134 129//38 98//37
f 49//126 52//129 55//135 51//131
f 52//129 116//65 115//74 55//135
f 51//131 55//135 114//136 113//133
f 55//135 115//74 140//75 114//136
f 74//35 75//34 61//137 58//138
f 56//122 72//16 73//22 58//138
f 58//138 73//22 130//23 74//35
f 59//125 60//124 119//42 118//41
f 58//138 61//137 57//123 56//122
f 56//122 59//125 71//139 72//16
f 59//125 118//41 139//51 71//139
f 57//123 113//133 114//140 60//124
f 60//124 114//140 140//60 119//42
f 57//123 61//137 112//134 113//133
f 61//137 75//34 129//38 112//134
f 62//141 63//142 67//143 66//144
f 63//142 105//145 106//146 67//143
f 66//144 67//143 123//112 124//111
f 67//143 106//146 138//114 123//112
f 62//141 64//147 68//148 63//142
f 64//147 110//149 109//150 68//148
f 63//142 68//148 104//151 105//145
f 68//148 109//150 132//152 104//152
f 62//141 65//153 69//154 64//147
f 65//153 127//9 126//18 69//154
f 64//147 69//154 111//155 110//149
f 69//154 126//18 139//19 111//155
f 62//141 66//144 70//156 65//153
f 66//144 124//111 125//117 70//156
f 65//153 70//156 128//10 127//9
f 70//156 125//117 135//13 128//10
f 85//53 86//52 134//58 101//157 102//157 103//157 137//157 89//157 90//157 91//157 133//157 88//157 87//157 131//157 94//157 93//157 92//157 138//157 106//157 105//157 104//157 132//55
