# Blender v2.79 (sub 0) OBJ File: 'Thunder.blend'
# www.blender.org
mtllib Thunder.mtl
o Thunder_Cube.049
v -0.291701 -0.854595 0.000000
v -0.250204 -0.830016 -0.029244
v -0.250204 -0.830016 0.029244
v -0.241812 -0.857563 0.000000
v -0.610019 0.208036 0.143893
v -0.589297 0.085823 0.136166
v -0.632434 0.141712 0.141041
v -0.538202 0.089509 0.157501
v -0.558818 0.211650 0.165344
v -0.581266 0.145345 0.162454
v -0.558818 0.211650 -0.165344
v -0.538202 0.089509 -0.157501
v -0.581266 0.145345 -0.162455
v -0.589297 0.085823 -0.136166
v -0.610019 0.208036 -0.143893
v -0.632434 0.141712 -0.141041
v -0.037059 0.248419 0.165456
v -0.017077 0.126744 0.155798
v -0.065799 0.181822 0.161989
v 0.040270 0.130679 0.134108
v 0.019971 0.252432 0.144007
v -0.008673 0.185815 0.140465
v 0.019971 0.252432 -0.144007
v 0.040270 0.130679 -0.134108
v -0.008673 0.185815 -0.140465
v -0.017077 0.126744 -0.155798
v -0.037059 0.248419 -0.165456
v -0.065799 0.181822 -0.161989
v -0.036939 -0.182086 -0.121535
v 0.008364 -0.341569 -0.099269
v 0.018087 -0.251423 -0.112018
v -0.029666 -0.352631 -0.076759
v -0.075589 -0.192650 -0.099969
v -0.020350 -0.262160 -0.090226
v -0.075589 -0.192650 0.099969
v -0.029666 -0.352631 0.076759
v -0.020350 -0.262160 0.090226
v 0.008364 -0.341569 0.099269
v -0.036939 -0.182086 0.121535
v 0.018087 -0.251423 0.112018
v 0.440752 -0.050719 -0.101907
v 0.420258 -0.228398 -0.077289
v 0.481449 -0.123912 -0.090942
v 0.377330 -0.239893 -0.099269
v 0.399528 -0.062179 -0.123126
v 0.439634 -0.135366 -0.112484
v 0.399528 -0.062179 0.123127
v 0.377330 -0.239893 0.099269
v 0.439634 -0.135367 0.112484
v 0.420258 -0.228398 0.077289
v 0.440752 -0.050719 0.101907
v 0.481449 -0.123912 0.090942
v -0.091915 0.735525 0.137264
v -0.137460 0.714517 0.153660
v -0.089629 0.714516 0.175099
v -0.064477 0.735525 0.149564
v -0.064477 0.735525 -0.149564
v -0.089629 0.714516 -0.175099
v -0.137460 0.714517 -0.153660
v -0.091915 0.735525 -0.137264
v 0.502124 0.735525 0.149564
v 0.483743 0.714516 0.175073
v 0.536294 0.714517 0.153610
v 0.533824 0.735525 0.136618
v 0.533824 0.735525 -0.136619
v 0.536294 0.714517 -0.153610
v 0.483743 0.714516 -0.175074
v 0.502124 0.735525 -0.149564
vn 0.0159 -0.1066 0.9942
vn 0.0107 -0.0967 0.9953
vn 0.0224 -0.1142 0.9932
vn 0.0272 -0.1176 0.9927
vn 0.2496 0.2774 0.9278
vn 0.3560 -0.2582 0.8981
vn 0.6532 -0.5273 0.5434
vn 0.8103 -0.0938 0.5785
vn -0.5954 0.1975 0.7788
vn -0.5224 0.0063 0.8527
vn -0.8495 0.2086 0.4847
vn -0.9360 0.3520 0.0000
vn 0.0029 -0.0413 -0.9991
vn 0.0006 -0.0206 -0.9998
vn 0.0016 -0.0294 -0.9996
vn -0.7534 0.4154 0.5097
vn -0.5273 0.7175 0.4552
vn -0.5273 0.7175 -0.4552
vn -0.7534 0.4154 -0.5097
vn 0.6532 -0.5273 -0.5434
vn 0.8103 -0.0938 -0.5785
vn -0.0594 -0.9982 -0.0000
vn -0.0436 -0.7334 0.6783
vn -0.2124 0.7386 -0.6398
vn -0.3889 0.2591 -0.8841
vn 0.5091 0.6822 -0.5248
vn 0.5091 0.6822 0.5248
vn 0.6353 0.5953 0.4919
vn 0.6353 0.5953 -0.4919
vn -0.8495 0.2086 -0.4847
vn 0.4853 -0.5329 0.6931
vn 0.4756 -0.5826 0.6590
vn 0.6374 -0.7706 -0.0000
vn 0.7110 -0.5834 0.3926
vn 0.4756 -0.5826 -0.6590
vn 0.4853 -0.5329 -0.6931
vn 0.7110 -0.5834 -0.3926
vn 0.0016 -0.0294 0.9996
vn 0.0006 -0.0206 0.9998
vn 0.0029 -0.0413 0.9991
vn -0.5113 -0.7175 -0.4730
vn -0.5715 -0.6779 -0.4624
vn -0.2933 -0.5213 -0.8014
vn -0.3325 -0.4692 -0.8181
vn 0.3439 0.3562 -0.8689
vn 0.3274 0.2528 -0.9105
vn 0.3274 0.2528 0.9105
vn 0.3439 0.3562 0.8689
vn -0.5715 -0.6779 0.4624
vn -0.5113 -0.7175 0.4730
vn 0.3560 -0.2582 -0.8981
vn 0.2496 0.2774 -0.9278
vn -0.5224 0.0063 -0.8527
vn -0.5954 0.1975 -0.7788
vn 0.0107 -0.0967 -0.9953
vn 0.0159 -0.1066 -0.9942
vn 0.0272 -0.1176 -0.9927
vn 0.0224 -0.1142 -0.9932
vn 0.0436 -0.1590 -0.9863
vn 0.0408 -0.1498 -0.9879
vn 0.0456 -0.1654 -0.9852
vn 0.0408 -0.1498 0.9879
vn 0.0436 -0.1590 0.9863
vn 0.0456 -0.1654 0.9852
vn 0.6301 0.7370 -0.2443
vn 0.1241 0.8970 -0.4243
vn -0.0467 0.9376 -0.3445
vn -0.2183 0.9576 -0.1880
vn -0.2183 0.9576 0.1880
vn -0.0467 0.9376 0.3445
vn 0.1241 0.8970 0.4243
vn 0.6301 0.7370 0.2443
vn -0.0436 -0.7334 -0.6783
vn -0.2933 -0.5213 0.8014
vn -0.3743 -0.1340 0.9176
vn -0.8574 -0.1585 0.4897
vn -0.3889 0.2591 0.8841
vn -0.8574 -0.1585 -0.4897
vn -0.3743 -0.1340 -0.9176
vn 0.3542 -0.0260 -0.9348
vn 0.7225 0.0655 -0.6883
vn 0.7225 0.0655 0.6883
vn 0.3542 -0.0260 0.9348
vn -0.4264 -0.2507 0.8691
vn -0.7585 -0.3133 0.5714
vn -0.3325 -0.4692 0.8181
vn 0.8940 -0.0345 0.4467
vn 0.4870 -0.1736 0.8560
vn 0.4870 -0.1736 -0.8560
vn 0.8940 -0.0345 -0.4467
vn -0.7585 -0.3133 -0.5714
vn -0.4264 -0.2507 -0.8691
vn 0.0064 -0.0720 0.9974
vn 0.0060 -0.0692 0.9976
vn 0.0340 -0.1297 0.9910
vn 0.0352 -0.1332 0.9905
vn 0.0060 -0.0692 -0.9976
vn 0.0064 -0.0720 -0.9974
vn 0.0352 -0.1332 -0.9905
vn 0.0340 -0.1297 -0.9910
vn -0.2124 0.7386 0.6398
usemtl Gold
s 1
f 18//1 8//2 39//3 47//4
f 62//5 17//6 21//7 63//8
f 3//9 38//10 36//11 1//12
f 11//13 58//14 67//14 27//15
f 5//16 54//17 59//18 15//19
f 23//20 66//21 63//8 21//7
f 1//22 4//22 3//23
f 58//24 11//25 15//19 59//18
f 24//26 20//27 51//28 41//29
f 36//11 32//30 1//12
f 48//31 3//32 4//33 50//34
f 2//35 44//36 42//37 4//33
f 17//38 62//39 55//39 9//40
f 33//41 14//42 12//43 29//44
f 24//26 41//29 45//45 26//46
f 51//28 20//27 18//47 47//48
f 6//49 14//42 33//41 35//50
f 66//21 23//20 27//51 67//52
f 30//53 2//54 1//12 32//30
f 12//55 26//56 45//57 29//58
f 42//37 50//34 4//33
f 30//59 44//60 2//61
f 48//62 38//63 3//64
f 65//65 68//66 57//67 60//68 53//69 56//70 61//71 64//72
f 4//22 1//22 2//73
f 6//49 8//74 10//75 7//76
f 7//76 10//75 9//77 5//16
f 12//43 14//42 16//78 13//79
f 13//79 16//78 15//19 11//25
f 24//26 26//46 28//80 25//81
f 25//81 28//80 27//51 23//20
f 18//47 20//27 22//82 19//83
f 19//83 22//82 21//7 17//6
f 36//11 38//10 40//84 37//85
f 37//85 40//84 39//86 35//50
f 48//31 50//34 52//87 49//88
f 49//88 52//87 51//28 47//48
f 42//37 44//36 46//89 43//90
f 43//90 46//89 45//45 41//29
f 30//53 32//30 34//91 31//92
f 31//92 34//91 33//41 29//44
f 5//16 15//19 16//78 7//76
f 7//76 16//78 14//42 6//49
f 32//30 36//11 37//85 34//91
f 34//91 37//85 35//50 33//41
f 8//2 18//1 19//93 10//94
f 10//94 19//93 17//38 9//40
f 38//63 48//62 49//95 40//96
f 40//96 49//95 47//4 39//3
f 26//56 12//55 13//97 28//98
f 28//98 13//97 11//13 27//15
f 44//60 30//59 31//99 46//100
f 46//100 31//99 29//58 45//57
f 23//20 21//7 22//82 25//81
f 25//81 22//82 20//27 24//26
f 50//34 42//37 43//90 52//87
f 52//87 43//90 41//29 51//28
f 6//49 35//50 39//86 8//74
f 56//70 53//69 54//17 55//101
f 60//68 57//67 58//24 59//18
f 68//66 65//65 66//21 67//52
f 64//72 61//71 62//5 63//8
f 53//69 60//68 59//18 54//17
f 61//71 56//70 55//101 62//5
f 63//8 66//21 65//65 64//72
f 67//52 58//24 57//67 68//66
f 9//77 55//101 54//17 5//16
