# Blender v2.79 (sub 0) OBJ File: 'Cube_Grass_Single.blend'
# www.blender.org
mtllib Cube_Grass_Single.mtl
o Cube_Grass_Single_Cube.276
v -0.889089 0.995956 0.848270
v -1.099939 0.801033 0.879509
v -0.917115 0.801033 1.099939
v -0.889089 0.527155 0.848270
v -1.099939 0.566632 0.879509
v -0.917115 0.566632 1.099939
v -1.116719 0.644971 0.895095
v -1.030448 0.947225 0.856114
v -1.054233 0.801033 1.044832
v -1.099939 0.801033 0.381802
v -0.932904 0.644971 1.116719
v -0.894319 0.947225 1.020243
v -0.891754 0.995956 0.355917
v -0.438210 0.801033 1.099939
v -0.417146 0.995956 0.848220
v -1.030448 0.537025 0.856114
v -0.894319 0.537025 1.020243
v -0.891754 0.527155 0.355917
v -0.417146 0.527155 0.848220
v -1.054233 0.566632 1.044832
v -1.099939 0.566632 0.381802
v -0.438210 0.566632 1.099939
v -1.070765 0.644971 1.061313
v -1.001095 0.909324 0.984115
v -1.116719 0.644971 0.394693
v -1.031114 0.947225 0.362438
v -0.451407 0.644971 1.116719
v -0.419747 0.947225 1.020231
v -0.421143 0.995956 0.355842
v -1.001095 0.544701 0.984115
v -1.031114 0.537025 0.362438
v -0.419747 0.537025 1.020231
v -1.000000 -0.873585 0.873585
v -0.873585 -1.000000 0.873585
v -0.873585 -0.873585 1.000000
v -0.962974 -0.962974 0.873585
v -0.946571 -0.946571 0.946571
v -0.873585 -0.962974 0.962974
v -0.962974 -0.873585 0.962974
v -1.000000 0.623989 0.873585
v -1.000000 0.281256 0.873585
v -1.000000 -0.024298 0.873585
v -1.000000 -0.327668 0.873585
v -1.000000 -0.623989 0.873585
v -0.962974 -0.623989 0.962974
v -0.962974 -0.327668 0.962974
v -0.962974 -0.024298 0.962974
v -0.962974 0.281256 0.962974
v -0.962974 0.623989 0.962974
v -0.873585 -0.623989 1.000000
v -0.873585 -0.327668 1.000000
v -0.873585 -0.024298 1.000000
v -0.873585 0.281256 1.000000
v -0.873585 0.623989 1.000000
v 0.889089 0.995956 0.848270
v 1.099939 0.801033 0.879509
v 0.917115 0.801033 1.099939
v 0.889089 0.527155 0.848270
v 1.099939 0.566632 0.879509
v 0.917115 0.566632 1.099939
v 1.116719 0.644971 0.895095
v 1.030448 0.947225 0.856114
v 1.054233 0.801033 1.044832
v 1.099939 0.801033 0.381802
v 0.932904 0.644971 1.116719
v 0.894319 0.947225 1.020243
v 0.891754 0.995956 0.355917
v 0.438210 0.801033 1.099939
v 0.417146 0.995956 0.848220
v 1.030448 0.537025 0.856114
v 0.894319 0.537025 1.020243
v 0.891754 0.527155 0.355917
v 0.417146 0.527155 0.848220
v 1.054233 0.566632 1.044832
v 1.099939 0.566632 0.381802
v 0.438210 0.566632 1.099939
v 1.070765 0.644971 1.061313
v 1.001095 0.909324 0.984115
v 1.116719 0.644971 0.394693
v 1.031114 0.947225 0.362438
v 0.451407 0.644971 1.116719
v 0.419747 0.947225 1.020231
v 0.421143 0.995956 0.355842
v 1.001095 0.544701 0.984115
v 1.031114 0.537025 0.362438
v 0.419747 0.537025 1.020231
v 1.000000 -0.873585 0.873585
v 0.873585 -1.000000 0.873585
v 0.873585 -0.873585 1.000000
v 0.962974 -0.962974 0.873585
v 0.946571 -0.946571 0.946571
v 0.873585 -0.962974 0.962974
v 0.962974 -0.873585 0.962974
v 0.000000 0.566632 1.099939
v 0.000000 0.995956 0.848220
v 1.000000 0.623989 0.873585
v 1.000000 0.281256 0.873585
v 1.000000 -0.024298 0.873585
v 1.000000 -0.327668 0.873585
v 1.000000 -0.623989 0.873585
v 0.962974 -0.623989 0.962974
v 0.962974 -0.327668 0.962974
v 0.962974 -0.024298 0.962974
v 0.962974 0.281256 0.962974
v 0.962974 0.623989 0.962974
v 0.873585 -0.623989 1.000000
v 0.873585 -0.327668 1.000000
v 0.873585 -0.024298 1.000000
v 0.873585 0.281256 1.000000
v 0.873585 0.623989 1.000000
v 0.000000 0.644971 1.116719
v 0.000000 0.537025 1.020231
v 0.000000 0.995956 0.355842
v 0.000000 0.947225 1.020231
v 0.000000 0.527155 0.848220
v 0.000000 -0.873585 1.000000
v 0.000000 -0.962974 0.962974
v 0.000000 -1.000000 0.873585
v 0.000000 0.623989 1.000000
v 0.000000 0.281256 1.000000
v 0.000000 -0.024298 1.000000
v 0.000000 -0.327668 1.000000
v 0.000000 -0.623989 1.000000
v 0.000000 0.801033 1.099939
v -0.889089 0.995956 -0.848270
v -1.099939 0.801033 -0.879509
v -0.917115 0.801033 -1.099939
v -0.889089 0.527155 -0.848270
v -1.099939 0.566632 -0.879509
v -0.917115 0.566632 -1.099939
v -1.116719 0.644971 -0.895095
v -1.030448 0.947225 -0.856114
v -1.054233 0.801033 -1.044832
v -1.099939 0.801033 -0.381802
v -0.932904 0.644971 -1.116719
v -0.894319 0.947225 -1.020243
v -0.891754 0.995956 -0.355917
v -0.438210 0.801033 -1.099939
v -0.417146 0.995956 -0.848220
v -1.030448 0.537025 -0.856114
v -0.894319 0.537025 -1.020243
v -0.891754 0.527155 -0.355917
v -0.417146 0.527155 -0.848220
v -1.054233 0.566632 -1.044832
v -1.099939 0.566632 -0.381802
v -0.438210 0.566632 -1.099939
v -1.070765 0.644971 -1.061313
v -1.001095 0.909324 -0.984115
v -1.116719 0.644971 -0.394693
v -1.031114 0.947225 -0.362438
v -0.451407 0.644971 -1.116719
v -0.419747 0.947225 -1.020231
v -0.421143 0.995956 -0.355842
v -1.001095 0.544701 -0.984115
v -1.031114 0.537025 -0.362438
v -0.419747 0.537025 -1.020231
v -1.116719 0.644971 0.000000
v -1.000000 -0.873585 -0.873585
v -0.873585 -1.000000 -0.873585
v -0.873585 -0.873585 -1.000000
v -0.962974 -0.962974 -0.873585
v -0.946571 -0.946571 -0.946571
v -0.873585 -0.962974 -0.962974
v -0.962974 -0.873585 -0.962974
v -1.031114 0.537025 0.000000
v -0.421143 0.995956 0.000000
v -1.031114 0.947225 0.000000
v -1.000000 0.623989 -0.873585
v -1.000000 0.281256 -0.873585
v -1.000000 -0.024298 -0.873585
v -1.000000 -0.327668 -0.873585
v -1.000000 -0.623989 -0.873585
v -0.962974 -0.623989 -0.962974
v -0.962974 -0.327668 -0.962974
v -0.962974 -0.024298 -0.962974
v -0.962974 0.281256 -0.962974
v -0.962974 0.623989 -0.962974
v -0.873585 -0.623989 -1.000000
v -0.873585 -0.327668 -1.000000
v -0.873585 -0.024298 -1.000000
v -0.873585 0.281256 -1.000000
v -0.873585 0.623989 -1.000000
v -0.891754 0.527155 0.000000
v -1.099939 0.801033 0.000000
v -1.099939 0.566632 0.000000
v -0.891754 0.995956 0.000000
v -1.000000 -0.873585 0.000000
v -0.962974 -0.962974 0.000000
v -0.873585 -1.000000 0.000000
v -1.000000 0.623989 0.000000
v -1.000000 0.281256 0.000000
v -1.000000 -0.024298 0.000000
v -1.000000 -0.327668 0.000000
v -1.000000 -0.623989 0.000000
v 0.889089 0.995956 -0.848270
v 1.099939 0.801033 -0.879509
v 0.917115 0.801033 -1.099939
v 0.889089 0.527155 -0.848270
v 1.099939 0.566632 -0.879509
v 0.917115 0.566632 -1.099939
v 1.116719 0.644971 -0.895095
v 1.030448 0.947225 -0.856114
v 1.054233 0.801033 -1.044832
v 1.099939 0.801033 -0.381802
v 0.932904 0.644971 -1.116719
v 0.894319 0.947225 -1.020243
v 0.891754 0.995956 -0.355917
v 0.438210 0.801033 -1.099939
v 0.417146 0.995956 -0.848220
v 1.030448 0.537025 -0.856114
v 0.894319 0.537025 -1.020243
v 0.891754 0.527155 -0.355917
v 0.417146 0.527155 -0.848220
v 1.054233 0.566632 -1.044832
v 1.099939 0.566632 -0.381802
v 0.438210 0.566632 -1.099939
v 1.070765 0.644971 -1.061313
v 1.001095 0.909324 -0.984115
v 1.116719 0.644971 -0.394693
v 1.031114 0.947225 -0.362438
v 0.451407 0.644971 -1.116719
v 0.419747 0.947225 -1.020231
v 0.421143 0.995956 -0.355842
v 1.001095 0.544701 -0.984115
v 1.031114 0.537025 -0.362438
v 0.419747 0.537025 -1.020231
v 1.116719 0.644971 0.000000
v 1.000000 -0.873585 -0.873585
v 0.873585 -1.000000 -0.873585
v 0.873585 -0.873585 -1.000000
v 0.962974 -0.962974 -0.873585
v 0.946571 -0.946571 -0.946571
v 0.873585 -0.962974 -0.962974
v 0.962974 -0.873585 -0.962974
v 0.000000 0.566632 -1.099939
v 0.000000 0.995956 -0.848220
v 1.031114 0.537025 0.000000
v 0.421143 0.995956 0.000000
v 1.031114 0.947225 0.000000
v 1.000000 0.623989 -0.873585
v 1.000000 0.281256 -0.873585
v 1.000000 -0.024298 -0.873585
v 1.000000 -0.327668 -0.873585
v 1.000000 -0.623989 -0.873585
v 0.962974 -0.623989 -0.962974
v 0.962974 -0.327668 -0.962974
v 0.962974 -0.024298 -0.962974
v 0.962974 0.281256 -0.962974
v 0.962974 0.623989 -0.962974
v 0.873585 -0.623989 -1.000000
v 0.873585 -0.327668 -1.000000
v 0.873585 -0.024298 -1.000000
v 0.873585 0.281256 -1.000000
v 0.873585 0.623989 -1.000000
v 0.000000 0.644971 -1.116719
v 0.000000 0.537025 -1.020231
v 0.000000 0.995956 -0.355842
v 0.000000 0.947225 -1.020231
v 0.000000 0.527155 -0.848220
v 0.891754 0.527155 0.000000
v 1.099939 0.801033 0.000000
v 0.000000 0.995956 0.000000
v 1.099939 0.566632 0.000000
v 0.000000 -0.873585 -1.000000
v 0.000000 -0.962974 -0.962974
v 0.000000 -1.000000 -0.873585
v 0.891754 0.995956 0.000000
v 0.000000 0.623989 -1.000000
v 0.000000 0.281256 -1.000000
v 0.000000 -0.024298 -1.000000
v 0.000000 -0.327668 -1.000000
v 0.000000 -0.623989 -1.000000
v 1.000000 -0.873585 0.000000
v 0.962974 -0.962974 0.000000
v 0.873585 -1.000000 0.000000
v 0.000000 0.801033 -1.099939
v 1.000000 0.623989 0.000000
v 1.000000 0.281256 0.000000
v 1.000000 -0.024298 0.000000
v 1.000000 -0.327668 0.000000
v 1.000000 -0.623989 0.000000
v 0.000000 -1.000000 0.000000
vn -0.1678 0.9760 0.1389
vn 0.0000 0.9905 0.1376
vn 0.0000 1.0000 0.0000
vn -0.1671 0.9859 0.0003
vn -0.3290 0.9443 0.0006
vn -0.3399 0.9293 0.1445
vn -0.3447 0.8941 0.2859
vn -0.1661 0.9445 0.2833
vn 0.0000 0.9621 0.2726
vn -0.9462 0.2925 0.1387
vn -0.9627 0.2707 0.0002
vn -0.9987 -0.0519 0.0000
vn -0.9879 -0.0575 0.1443
vn -0.9622 -0.0576 0.2660
vn -0.9173 0.2891 0.2738
vn -0.8274 0.4896 0.2750
vn -0.8805 0.4589 0.1190
vn -0.9044 0.4268 0.0003
vn 0.0000 -0.0519 0.9987
vn -0.0000 -0.2094 0.9778
vn -0.1899 0.3187 0.9286
vn -0.3773 0.3240 0.8675
vn -0.3722 -0.0616 0.9261
vn -0.2026 -0.0593 0.9775
vn 0.0000 0.2985 0.9544
vn 0.0000 0.4787 0.8780
vn -0.1631 0.5110 0.8440
vn -0.3680 0.5310 0.7633
vn -0.0487 -0.9980 0.0399
vn 0.0000 -0.9984 0.0573
vn 0.0000 -0.9788 0.2050
vn -0.0505 -0.9780 0.2023
vn -0.1823 -0.9721 0.1475
vn -0.2301 -0.9723 0.0401
vn -0.2358 -0.9718 0.0001
vn -0.0704 -0.9975 0.0001
vn -0.9661 -0.2302 0.1170
vn -0.9778 -0.2094 0.0000
vn -0.3541 -0.9333 0.0602
vn -0.3942 -0.9190 0.0002
vn -0.3220 -0.9407 0.1070
vn -0.9330 -0.2511 0.2579
vn 0.0000 -0.9374 0.3482
vn -0.1662 -0.2384 0.9568
vn -0.3597 -0.2642 0.8949
vn -0.0709 -0.9476 0.3114
vn -0.1336 -0.9515 0.2770
vn -0.9047 0.4259 0.0000
vn -0.9628 0.2702 0.0000
vn -0.1674 0.9859 0.0000
vn -0.3301 0.9440 0.0000
vn -0.3952 -0.9186 0.0000
vn -0.2362 -0.9717 0.0000
vn -0.0706 -0.9975 0.0000
vn 0.1678 0.9760 0.1389
vn 0.1671 0.9859 0.0003
vn 0.3399 0.9293 0.1445
vn 0.3290 0.9443 0.0006
vn 0.1661 0.9445 0.2833
vn 0.3447 0.8941 0.2859
vn 0.9462 0.2925 0.1387
vn 0.9879 -0.0575 0.1443
vn 0.9987 -0.0519 0.0000
vn 0.9627 0.2707 0.0002
vn 0.9173 0.2891 0.2738
vn 0.9622 -0.0576 0.2660
vn 0.8805 0.4589 0.1190
vn 0.8274 0.4896 0.2750
vn 0.9044 0.4268 0.0003
vn 0.1899 0.3187 0.9286
vn 0.2026 -0.0593 0.9775
vn 0.3722 -0.0616 0.9261
vn 0.3773 0.3240 0.8675
vn 0.1631 0.5110 0.8440
vn 0.3680 0.5310 0.7633
vn 0.0487 -0.9980 0.0399
vn 0.0505 -0.9780 0.2023
vn 0.2301 -0.9723 0.0401
vn 0.1823 -0.9721 0.1475
vn 0.0704 -0.9975 0.0001
vn 0.2358 -0.9718 0.0001
vn 0.9661 -0.2302 0.1170
vn 0.9778 -0.2094 0.0000
vn 0.3541 -0.9333 0.0602
vn 0.3942 -0.9190 0.0002
vn 0.3220 -0.9407 0.1070
vn 0.9330 -0.2511 0.2579
vn 0.1662 -0.2384 0.9568
vn 0.3597 -0.2642 0.8949
vn 0.0709 -0.9476 0.3114
vn 0.1336 -0.9515 0.2770
vn 0.9628 0.2702 0.0000
vn 0.9047 0.4259 0.0000
vn 0.3301 0.9440 0.0000
vn 0.1674 0.9859 0.0000
vn 0.2362 -0.9717 0.0000
vn 0.3952 -0.9186 0.0000
vn 0.0706 -0.9975 0.0000
vn -0.1678 0.9760 -0.1389
vn -0.1671 0.9859 -0.0003
vn 0.0000 0.9905 -0.1376
vn -0.3399 0.9293 -0.1445
vn -0.3290 0.9443 -0.0006
vn -0.1661 0.9445 -0.2833
vn -0.3447 0.8941 -0.2859
vn 0.0000 0.9621 -0.2726
vn -0.9462 0.2925 -0.1387
vn -0.9879 -0.0575 -0.1443
vn -0.9627 0.2707 -0.0002
vn -0.9173 0.2891 -0.2738
vn -0.9622 -0.0576 -0.2660
vn -0.8805 0.4589 -0.1190
vn -0.8274 0.4896 -0.2750
vn -0.9044 0.4268 -0.0003
vn 0.0000 -0.0519 -0.9987
vn 0.0000 -0.2094 -0.9778
vn -0.1899 0.3187 -0.9286
vn -0.2026 -0.0593 -0.9775
vn -0.3722 -0.0616 -0.9261
vn -0.3773 0.3240 -0.8675
vn 0.0000 0.2985 -0.9544
vn -0.1631 0.5110 -0.8440
vn 0.0000 0.4787 -0.8780
vn -0.3680 0.5310 -0.7633
vn -0.0487 -0.9980 -0.0399
vn -0.0505 -0.9780 -0.2023
vn 0.0000 -0.9788 -0.2050
vn 0.0000 -0.9984 -0.0573
vn -0.2301 -0.9723 -0.0401
vn -0.1823 -0.9721 -0.1475
vn -0.0704 -0.9975 -0.0001
vn -0.2358 -0.9718 -0.0001
vn -0.9661 -0.2302 -0.1170
vn -0.3541 -0.9333 -0.0602
vn -0.3942 -0.9190 -0.0002
vn -0.3220 -0.9407 -0.1070
vn -0.9330 -0.2511 -0.2579
vn 0.0000 -0.9374 -0.3482
vn -0.1662 -0.2384 -0.9568
vn -0.3597 -0.2642 -0.8949
vn -0.0709 -0.9476 -0.3114
vn -0.1336 -0.9515 -0.2770
vn 0.1678 0.9760 -0.1389
vn 0.1671 0.9859 -0.0003
vn 0.3290 0.9443 -0.0006
vn 0.3399 0.9293 -0.1445
vn 0.3447 0.8941 -0.2859
vn 0.1661 0.9445 -0.2833
vn 0.9462 0.2925 -0.1387
vn 0.9627 0.2707 -0.0002
vn 0.9879 -0.0575 -0.1443
vn 0.9622 -0.0576 -0.2660
vn 0.9173 0.2891 -0.2738
vn 0.8274 0.4896 -0.2750
vn 0.8805 0.4589 -0.1190
vn 0.9044 0.4268 -0.0003
vn 0.1899 0.3187 -0.9286
vn 0.3773 0.3240 -0.8675
vn 0.3722 -0.0616 -0.9261
vn 0.2026 -0.0593 -0.9775
vn 0.1631 0.5110 -0.8440
vn 0.3680 0.5310 -0.7633
vn 0.0487 -0.9980 -0.0399
vn 0.0505 -0.9780 -0.2023
vn 0.1823 -0.9721 -0.1475
vn 0.2301 -0.9723 -0.0401
vn 0.2358 -0.9718 -0.0001
vn 0.0704 -0.9975 -0.0001
vn 0.9661 -0.2302 -0.1170
vn 0.3541 -0.9333 -0.0602
vn 0.3942 -0.9190 -0.0002
vn 0.3220 -0.9407 -0.1070
vn 0.9330 -0.2511 -0.2579
vn 0.1662 -0.2384 -0.9568
vn 0.3597 -0.2642 -0.8949
vn 0.0709 -0.9476 -0.3114
vn 0.1336 -0.9515 -0.2770
vn 0.0000 -1.0000 0.0000
vn 0.0000 -0.9808 0.1951
vn -0.1794 -0.9673 0.1794
vn -0.1951 -0.9808 0.0000
vn -0.9673 -0.1794 0.1794
vn -0.9194 -0.3600 0.1585
vn -0.8881 -0.3251 0.3251
vn -0.9194 -0.1585 0.3600
vn -0.1585 -0.9194 0.3600
vn -0.3251 -0.8881 0.3251
vn -0.3600 -0.9194 0.1585
vn -0.1794 -0.1794 0.9673
vn -0.3600 -0.1585 0.9194
vn -0.3251 -0.3251 0.8881
vn -0.1585 -0.3600 0.9194
vn 0.0000 -0.1951 0.9808
vn 0.0000 -0.3827 0.9239
vn 0.0000 -0.9239 0.3827
vn -0.3827 0.0000 0.9239
vn -0.1951 0.0000 0.9808
vn -0.9808 0.0000 0.1951
vn -0.9239 0.0000 0.3827
vn -1.0000 0.0000 0.0000
vn 0.0000 0.0000 1.0000
vn -0.3827 -0.9239 0.0000
vn -0.9808 -0.1951 0.0000
vn -0.9239 -0.3827 0.0000
vn 0.1951 -0.9808 0.0000
vn 0.1794 -0.9673 0.1794
vn 0.9673 -0.1794 0.1794
vn 0.9194 -0.1585 0.3600
vn 0.8881 -0.3251 0.3251
vn 0.9194 -0.3600 0.1585
vn 0.3600 -0.9194 0.1585
vn 0.3251 -0.8881 0.3251
vn 0.1585 -0.9194 0.3600
vn 0.1794 -0.1794 0.9673
vn 0.1585 -0.3600 0.9194
vn 0.3251 -0.3251 0.8881
vn 0.3600 -0.1585 0.9194
vn 0.3827 0.0000 0.9239
vn 0.1951 0.0000 0.9808
vn 0.9808 0.0000 0.1951
vn 0.9239 0.0000 0.3827
vn 1.0000 0.0000 0.0000
vn 0.3827 -0.9239 0.0000
vn 0.9239 -0.3827 0.0000
vn 0.9808 -0.1951 0.0000
vn -0.1794 -0.9673 -0.1794
vn 0.0000 -0.9808 -0.1951
vn -0.9673 -0.1794 -0.1794
vn -0.9194 -0.1585 -0.3600
vn -0.8881 -0.3251 -0.3251
vn -0.9194 -0.3600 -0.1585
vn -0.3600 -0.9194 -0.1585
vn -0.3251 -0.8881 -0.3251
vn -0.1585 -0.9194 -0.3600
vn -0.1794 -0.1794 -0.9673
vn -0.1585 -0.3600 -0.9194
vn -0.3251 -0.3251 -0.8881
vn -0.3600 -0.1585 -0.9194
vn -0.0000 -0.1951 -0.9808
vn -0.0000 -0.3827 -0.9239
vn 0.0000 -0.9239 -0.3827
vn -0.3827 0.0000 -0.9239
vn -0.1951 0.0000 -0.9808
vn -0.9808 0.0000 -0.1951
vn -0.9239 0.0000 -0.3827
vn 0.0000 0.0000 -1.0000
vn 0.1794 -0.9673 -0.1794
vn 0.9673 -0.1794 -0.1794
vn 0.9194 -0.3600 -0.1585
vn 0.8881 -0.3251 -0.3251
vn 0.9194 -0.1585 -0.3600
vn 0.1585 -0.9194 -0.3600
vn 0.3251 -0.8881 -0.3251
vn 0.3600 -0.9194 -0.1585
vn 0.1794 -0.1794 -0.9673
vn 0.3600 -0.1585 -0.9194
vn 0.3251 -0.3251 -0.8881
vn 0.1585 -0.3600 -0.9194
vn 0.3827 0.0000 -0.9239
vn 0.1951 0.0000 -0.9808
vn 0.9808 0.0000 -0.1951
vn 0.9239 0.0000 -0.3827
usemtl Green_Light
s 1
f 1//1 15//2 29//3 13//4
f 1//1 13//4 26//5 8//6
f 1//1 8//6 24//7 12//8
f 1//1 12//8 28//9 15//2
f 2//10 10//11 25//12 7//13
f 2//10 7//13 23//14 9//15
f 2//10 9//15 24//16 8//17
f 2//10 8//17 26//18 10//11
f 262//3 166//3 29//3 113//3
f 111//19 27//19 22//20 94//20
f 114//9 95//2 15//2 28//9
f 3//21 9//22 23//23 11//24
f 3//21 11//24 27//19 14//25
f 3//21 14//25 28//26 12//27
f 3//21 12//27 24//28 9//22
f 4//29 19//30 32//31 17//32
f 4//29 17//32 30//33 16//34
f 4//29 16//34 31//35 18//36
f 5//37 7//13 25//12 21//38
f 5//39 21//40 31//35 16//34
f 5//39 16//34 30//33 20//41
f 5//37 20//42 23//14 7//13
f 124//25 14//25 27//19 111//19
f 112//31 94//43 22//43 32//31
f 6//44 11//24 23//23 20//45
f 6//46 20//47 30//33 17//32
f 6//46 17//32 32//31 22//43
f 6//44 22//20 27//19 11//24
f 112//31 32//31 19//30 115//30
f 114//26 28//26 14//25 124//25
f 15//2 95//2 113//3 29//3
f 26//18 167//48 184//49 10//11
f 26//5 13//4 186//50 167//51
f 31//35 21//40 185//52 165//53
f 10//11 184//49 157//12 25//12
f 25//12 157//12 185//38 21//38
f 31//35 165//53 183//54 18//36
f 29//3 166//3 186//50 13//4
f 55//55 67//56 83//3 69//2
f 55//55 62//57 80//58 67//56
f 55//55 66//59 78//60 62//57
f 55//55 69//2 82//9 66//59
f 56//61 61//62 79//63 64//64
f 56//61 63//65 77//66 61//62
f 56//61 62//67 78//68 63//65
f 56//61 64//64 80//69 62//67
f 262//3 113//3 83//3 238//3
f 111//19 94//20 76//20 81//19
f 114//9 82//9 69//2 95//2
f 57//70 65//71 77//72 63//73
f 57//70 68//25 81//19 65//71
f 57//70 66//74 82//26 68//25
f 57//70 63//73 78//75 66//74
f 58//76 71//77 86//31 73//30
f 58//76 70//78 84//79 71//77
f 58//76 72//80 85//81 70//78
f 59//82 75//83 79//63 61//62
f 59//84 70//78 85//81 75//85
f 59//84 74//86 84//79 70//78
f 59//82 61//62 77//66 74//87
f 124//25 111//19 81//19 68//25
f 112//31 86//31 76//43 94//43
f 60//88 74//89 77//72 65//71
f 60//90 71//77 84//79 74//91
f 60//90 76//43 86//31 71//77
f 60//88 65//71 81//19 76//20
f 112//31 115//30 73//30 86//31
f 114//26 124//25 68//25 82//26
f 69//2 83//3 113//3 95//2
f 80//69 64//64 261//92 239//93
f 80//58 239//94 267//95 67//56
f 85//81 237//96 263//97 75//85
f 64//64 79//63 227//63 261//92
f 79//63 75//83 263//83 227//63
f 85//81 72//80 260//98 237//96
f 83//3 67//56 267//95 238//3
f 125//99 137//100 153//3 139//101
f 125//99 132//102 150//103 137//100
f 125//99 136//104 148//105 132//102
f 125//99 139//101 152//106 136//104
f 126//107 131//108 149//12 134//109
f 126//107 133//110 147//111 131//108
f 126//107 132//112 148//113 133//110
f 126//107 134//109 150//114 132//112
f 262//3 257//3 153//3 166//3
f 255//115 235//116 146//116 151//115
f 258//106 152//106 139//101 236//101
f 127//117 135//118 147//119 133//120
f 127//117 138//121 151//115 135//118
f 127//117 136//122 152//123 138//121
f 127//117 133//120 148//124 136//122
f 128//125 141//126 156//127 143//128
f 128//125 140//129 154//130 141//126
f 128//125 142//131 155//132 140//129
f 129//133 145//38 149//12 131//108
f 129//134 140//129 155//132 145//135
f 129//134 144//136 154//130 140//129
f 129//133 131//108 147//111 144//137
f 276//121 255//115 151//115 138//121
f 256//127 156//127 146//138 235//138
f 130//139 144//140 147//119 135//118
f 130//141 141//126 154//130 144//142
f 130//141 146//138 156//127 141//126
f 130//139 135//118 151//115 146//116
f 256//127 259//128 143//128 156//127
f 258//123 276//121 138//121 152//123
f 139//101 153//3 257//3 236//101
f 150//114 134//109 184//49 167//48
f 150//103 167//51 186//50 137//100
f 155//132 165//53 185//52 145//135
f 134//109 149//12 157//12 184//49
f 149//12 145//38 185//38 157//12
f 155//132 142//131 183//54 165//53
f 153//3 137//100 186//50 166//3
f 195//143 209//101 223//3 207//144
f 195//143 207//144 220//145 202//146
f 195//143 202//146 218//147 206//148
f 195//143 206//148 222//106 209//101
f 196//149 204//150 219//63 201//151
f 196//149 201//151 217//152 203//153
f 196//149 203//153 218//154 202//155
f 196//149 202//155 220//156 204//150
f 262//3 238//3 223//3 257//3
f 255//115 221//115 216//116 235//116
f 258//106 236//101 209//101 222//106
f 197//157 203//158 217//159 205//160
f 197//157 205//160 221//115 208//121
f 197//157 208//121 222//123 206//161
f 197//157 206//161 218//162 203//158
f 198//163 213//128 226//127 211//164
f 198//163 211//164 224//165 210//166
f 198//163 210//166 225//167 212//168
f 199//169 201//151 219//63 215//83
f 199//170 215//171 225//167 210//166
f 199//170 210//166 224//165 214//172
f 199//169 214//173 217//152 201//151
f 276//121 208//121 221//115 255//115
f 256//127 235//138 216//138 226//127
f 200//174 205//160 217//159 214//175
f 200//176 214//177 224//165 211//164
f 200//176 211//164 226//127 216//138
f 200//174 216//116 221//115 205//160
f 256//127 226//127 213//128 259//128
f 258//123 222//123 208//121 276//121
f 209//101 236//101 257//3 223//3
f 220//156 239//93 261//92 204//150
f 220//145 207//144 267//95 239//94
f 225//167 215//171 263//97 237//96
f 204//150 261//92 227//63 219//63
f 219//63 227//63 263//83 215//83
f 225//167 237//96 260//98 212//168
f 223//3 238//3 267//95 207//144
usemtl Dirt_1
f 282//178 118//179 34//180 189//181
f 33//182 36//183 37//184 39//185
f 34//180 38//186 37//187 36//188
f 35//189 39//190 37//191 38//192
f 116//193 35//189 38//192 117//194
f 117//195 38//186 34//180 118//179
f 46//196 51//197 52//197 47//196
f 42//198 43//198 46//199 47//199
f 192//200 193//200 43//198 42//198
f 51//197 122//201 121//201 52//197
f 36//188 188//202 189//181 34//180
f 33//182 187//203 188//204 36//183
f 282//178 275//205 88//206 118//179
f 87//207 93//208 91//209 90//210
f 88//206 90//211 91//212 92//213
f 89//214 92//215 91//216 93//217
f 116//193 117//194 92//215 89//214
f 117//195 118//179 88//206 92//213
f 102//218 103//218 108//219 107//219
f 98//220 103//221 102//221 99//220
f 279//222 98//220 99//220 280//222
f 107//219 108//219 121//201 122//201
f 90//211 88//206 275//205 274//223
f 87//207 90//210 274//224 273//225
f 282//178 189//181 159//226 266//227
f 158//228 164//229 162//230 161//231
f 159//226 161//232 162//233 163//234
f 160//235 163//236 162//237 164//238
f 264//239 265//240 163//236 160//235
f 265//241 266//227 159//226 163//234
f 174//242 175//242 180//243 179//243
f 170//244 175//245 174//245 171//244
f 192//200 170//244 171//244 193//200
f 179//243 180//243 270//246 271//246
f 161//232 159//226 189//181 188//202
f 158//228 161//231 188//204 187//203
f 282//178 266//227 229//247 275//205
f 228//248 231//249 232//250 234//251
f 229//247 233//252 232//253 231//254
f 230//255 234//256 232//257 233//258
f 264//239 230//255 233//258 265//240
f 265//241 233//252 229//247 266//227
f 246//259 251//260 252//260 247//259
f 242//261 243//261 246//262 247//262
f 279//222 280//222 243//261 242//261
f 251//260 271//246 270//246 252//260
f 231//254 274//223 275//205 229//247
f 228//248 273//225 274//224 231//249
usemtl Dirt_2
f 49//196 48//196 53//197 54//197
f 46//196 45//196 50//197 51//197
f 40//198 41//198 48//199 49//199
f 43//198 44//198 45//199 46//199
f 190//200 191//200 41//198 40//198
f 193//200 194//200 44//198 43//198
f 51//197 50//197 123//201 122//201
f 54//197 53//197 120//201 119//201
f 105//218 110//219 109//219 104//218
f 102//218 107//219 106//219 101//218
f 96//220 105//221 104//221 97//220
f 99//220 102//221 101//221 100//220
f 277//222 96//220 97//220 278//222
f 280//222 99//220 100//220 281//222
f 107//219 122//201 123//201 106//219
f 110//219 119//201 120//201 109//219
f 177//242 182//243 181//243 176//242
f 174//242 179//243 178//243 173//242
f 168//244 177//245 176//245 169//244
f 171//244 174//245 173//245 172//244
f 190//200 168//244 169//244 191//200
f 193//200 171//244 172//244 194//200
f 179//243 271//246 272//246 178//243
f 182//243 268//246 269//246 181//243
f 249//259 248//259 253//260 254//260
f 246//259 245//259 250//260 251//260
f 240//261 241//261 248//262 249//262
f 243//261 244//261 245//262 246//262
f 277//222 278//222 241//261 240//261
f 280//222 281//222 244//261 243//261
f 251//260 250//260 272//246 271//246
f 254//260 253//260 269//246 268//246
usemtl Dirt_3
f 194//200 187//203 33//182 44//198
f 44//198 33//182 39//185 45//199
f 45//196 39//190 35//189 50//197
f 48//196 47//196 52//197 53//197
f 41//198 42//198 47//199 48//199
f 191//200 192//200 42//198 41//198
f 53//197 52//197 121//201 120//201
f 50//197 35//189 116//193 123//201
f 281//222 100//220 87//207 273//225
f 100//220 101//221 93//208 87//207
f 101//218 106//219 89//214 93//217
f 104//218 109//219 108//219 103//218
f 97//220 104//221 103//221 98//220
f 278//222 97//220 98//220 279//222
f 109//219 120//201 121//201 108//219
f 106//219 123//201 116//193 89//214
f 194//200 172//244 158//228 187//203
f 172//244 173//245 164//229 158//228
f 173//242 178//243 160//235 164//238
f 176//242 181//243 180//243 175//242
f 169//244 176//245 175//245 170//244
f 191//200 169//244 170//244 192//200
f 181//243 269//246 270//246 180//243
f 178//243 272//246 264//239 160//235
f 281//222 273//225 228//248 244//261
f 244//261 228//248 234//251 245//262
f 245//259 234//256 230//255 250//260
f 248//259 247//259 252//260 253//260
f 241//261 242//261 247//262 248//262
f 278//222 279//222 242//261 241//261
f 253//260 252//260 270//246 269//246
f 250//260 230//255 264//239 272//246
