# Blender v2.79 (sub 0) OBJ File: 'Cube_Default.blend'
# www.blender.org
mtllib Cube_Default.mtl
o Cube_Default_Cube.264
v -0.707284 0.707284 -1.010406
v -0.707284 -0.707284 -1.010406
v 0.707284 -0.707284 -1.010406
v 0.707284 0.707284 -1.010406
v -0.707284 1.010406 0.707284
v -0.707284 1.010406 -0.707284
v 0.707284 1.010406 -0.707284
v 0.707284 1.010406 0.707284
v 1.010406 0.707284 -0.707284
v 1.010406 -0.707284 -0.707284
v 1.010406 -0.707284 0.707284
v 1.010406 0.707284 0.707284
v -1.010406 -0.707284 -0.707284
v -1.010406 -0.707284 0.707284
v -1.010406 0.707284 0.707284
v -1.010406 0.707284 -0.707284
v -0.707284 -1.010406 -0.707284
v -0.707284 -1.010406 0.707284
v 0.707284 -1.010406 -0.707284
v 0.707284 -1.010406 0.707284
v -0.707284 -0.707284 1.010406
v -0.707284 0.707284 1.010406
v 0.707284 0.707284 1.010406
v 0.707284 -0.707284 1.010406
v 0.936710 0.677466 -0.677466
v 0.936710 -0.677466 -0.677466
v 0.936710 -0.677466 0.677466
v 0.936710 0.677466 0.677466
v -0.936710 -0.677466 -0.677466
v -0.936710 -0.677466 0.677466
v -0.936710 0.677466 0.677466
v -0.936710 0.677466 -0.677466
v -0.677466 0.677466 -0.936710
v -0.677466 -0.677466 -0.936710
v 0.677466 -0.677466 -0.936710
v 0.677466 0.677466 -0.936710
v -0.677466 -0.677466 0.936710
v -0.677466 0.677466 0.936710
v 0.677466 0.677466 0.936710
v 0.677466 -0.677466 0.936710
v -0.677466 0.936710 0.677466
v -0.677466 0.936710 -0.677466
v 0.677466 0.936710 -0.677466
v 0.677466 0.936710 0.677466
v -0.677466 -0.936710 -0.677466
v -0.677466 -0.936710 0.677466
v 0.677466 -0.936710 -0.677466
v 0.677466 -0.936710 0.677466
v -0.878472 -1.010406 0.878472
v -0.878472 -0.878472 1.010406
v -1.010406 -0.878472 0.878472
v -0.878472 -0.971763 0.971763
v -0.961767 -0.961767 0.961767
v -0.971763 -0.878472 0.971763
v -0.971763 -0.971763 0.878472
v -0.878472 0.878472 1.010406
v -0.878472 1.010406 0.878472
v -1.010406 0.878472 0.878472
v -0.878472 0.971763 0.971763
v -0.961767 0.961767 0.961767
v -0.971763 0.971763 0.878472
v -0.971763 0.878472 0.971763
v -1.010406 -0.878472 -0.878472
v -0.878472 -0.878472 -1.010406
v -0.878472 -1.010406 -0.878472
v -0.971763 -0.878472 -0.971763
v -0.961767 -0.961767 -0.961767
v -0.878472 -0.971763 -0.971763
v -0.971763 -0.971763 -0.878472
v -0.878472 1.010406 -0.878472
v -0.878472 0.878472 -1.010406
v -1.010406 0.878472 -0.878472
v -0.878472 0.971763 -0.971763
v -0.961767 0.961767 -0.961767
v -0.971763 0.878472 -0.971763
v -0.971763 0.971763 -0.878472
v 1.010406 -0.878472 0.878472
v 0.878472 -0.878472 1.010406
v 0.878472 -1.010406 0.878472
v 0.971763 -0.878472 0.971763
v 0.961767 -0.961767 0.961767
v 0.878472 -0.971763 0.971763
v 0.971763 -0.971763 0.878472
v 0.878472 1.010406 0.878472
v 0.878472 0.878472 1.010406
v 1.010406 0.878472 0.878472
v 0.878472 0.971763 0.971763
v 0.961767 0.961767 0.961767
v 0.971763 0.878472 0.971763
v 0.971763 0.971763 0.878472
v 0.878472 -0.878472 -1.010406
v 1.010406 -0.878472 -0.878472
v 0.878472 -1.010406 -0.878472
v 0.971763 -0.878472 -0.971763
v 0.961767 -0.961767 -0.961767
v 0.971763 -0.971763 -0.878472
v 0.878472 -0.971763 -0.971763
v 0.878472 1.010406 -0.878472
v 1.010406 0.878472 -0.878472
v 0.878472 0.878472 -1.010406
v 0.971763 0.971763 -0.878472
v 0.961767 0.961767 -0.961767
v 0.971763 0.878472 -0.971763
v 0.878472 0.971763 -0.971763
vn -0.1655 -0.1655 0.9722
vn 0.1655 -0.1655 0.9722
vn 0.0000 0.0000 1.0000
vn 0.9722 -0.1655 -0.1655
vn 0.9722 0.1655 -0.1655
vn 1.0000 0.0000 0.0000
vn -0.9722 0.1655 0.1655
vn -0.9722 0.1655 -0.1655
vn -1.0000 0.0000 0.0000
vn -0.1655 0.1655 0.9722
vn 0.9722 0.1655 0.1655
vn 0.0000 0.9270 0.3751
vn 0.1655 0.9722 -0.1655
vn -0.1655 0.9722 -0.1655
vn 0.0000 1.0000 0.0000
vn 0.1655 -0.9722 -0.1655
vn 0.1655 -0.9722 0.1655
vn 0.0000 -1.0000 0.0000
vn -0.1655 -0.9722 -0.1655
vn 0.0000 0.3751 -0.9270
vn 0.1655 0.1655 0.9722
vn -0.1655 0.9722 0.1655
vn -0.1655 0.1655 -0.9722
vn 0.1655 0.1655 -0.9722
vn 0.0000 0.0000 -1.0000
vn -0.3751 0.0000 0.9270
vn 0.1655 -0.1655 -0.9722
vn 0.1655 0.9722 0.1655
vn 0.3751 -0.9270 0.0000
vn -0.1655 -0.9722 0.1655
vn -0.1655 -0.1655 -0.9722
vn 0.0000 -0.3751 0.9270
vn -0.9722 -0.1655 0.1655
vn 0.9722 -0.1655 0.1655
vn 0.9270 0.0000 -0.3751
vn -0.9722 -0.1655 -0.1655
vn 0.3751 0.0000 0.9270
vn -0.3751 0.0000 -0.9270
vn 0.3751 0.0000 -0.9270
vn 0.3751 0.9270 0.0000
vn -0.3751 -0.9270 0.0000
vn -0.3751 0.9270 0.0000
vn 0.9270 0.0000 0.3751
vn -0.9270 0.0000 -0.3751
vn 0.0000 0.9270 -0.3751
vn 0.0000 -0.9270 0.3751
vn -0.9270 0.0000 0.3751
vn 0.0000 -0.9270 -0.3751
vn 0.0000 0.3751 0.9270
vn -0.9270 -0.3751 0.0000
vn 0.9270 -0.3751 0.0000
vn -0.9270 0.3751 0.0000
vn 0.9270 0.3751 0.0000
vn 0.0000 -0.3751 -0.9270
vn -0.1336 -0.9341 0.3310
vn -0.2699 -0.9243 0.2699
vn -0.3310 -0.9341 0.1336
vn -0.3310 -0.1336 0.9341
vn -0.2699 -0.2699 0.9243
vn -0.1336 -0.3310 0.9341
vn -0.9341 -0.3310 0.1336
vn -0.9243 -0.2699 0.2699
vn -0.9341 -0.1336 0.3310
vn -0.1336 0.3310 0.9341
vn -0.2699 0.2699 0.9243
vn -0.3310 0.1336 0.9341
vn -0.3310 0.9341 0.1336
vn -0.2699 0.9243 0.2699
vn -0.1336 0.9341 0.3310
vn -0.9341 0.1336 0.3310
vn -0.9243 0.2699 0.2699
vn -0.9341 0.3310 0.1336
vn -0.9341 -0.1336 -0.3310
vn -0.9243 -0.2699 -0.2699
vn -0.9341 -0.3310 -0.1336
vn -0.1336 -0.3310 -0.9341
vn -0.2699 -0.2699 -0.9243
vn -0.3310 -0.1336 -0.9341
vn -0.3310 -0.9341 -0.1336
vn -0.2699 -0.9243 -0.2699
vn -0.1336 -0.9341 -0.3310
vn -0.1336 0.9341 -0.3310
vn -0.2699 0.9243 -0.2699
vn -0.3310 0.9341 -0.1336
vn -0.3310 0.1336 -0.9341
vn -0.2699 0.2699 -0.9243
vn -0.1336 0.3310 -0.9341
vn -0.9341 0.3310 -0.1336
vn -0.9243 0.2699 -0.2699
vn -0.9341 0.1336 -0.3310
vn 0.9341 -0.1336 0.3310
vn 0.9243 -0.2699 0.2699
vn 0.9341 -0.3310 0.1336
vn 0.1336 -0.3310 0.9341
vn 0.2699 -0.2699 0.9243
vn 0.3310 -0.1336 0.9341
vn 0.3310 -0.9341 0.1336
vn 0.2699 -0.9243 0.2699
vn 0.1336 -0.9341 0.3310
vn 0.1336 0.9341 0.3310
vn 0.2699 0.9243 0.2699
vn 0.3310 0.9341 0.1336
vn 0.3310 0.1336 0.9341
vn 0.2699 0.2699 0.9243
vn 0.1336 0.3310 0.9341
vn 0.9341 0.3310 0.1336
vn 0.9243 0.2699 0.2699
vn 0.9341 0.1336 0.3310
vn 0.3310 -0.1336 -0.9341
vn 0.2699 -0.2699 -0.9243
vn 0.1336 -0.3310 -0.9341
vn 0.9341 -0.3310 -0.1336
vn 0.9243 -0.2699 -0.2699
vn 0.9341 -0.1336 -0.3310
vn 0.1336 -0.9341 -0.3310
vn 0.2699 -0.9243 -0.2699
vn 0.3310 -0.9341 -0.1336
vn 0.3310 0.9341 -0.1336
vn 0.2699 0.9243 -0.2699
vn 0.1336 0.9341 -0.3310
vn 0.9341 0.1336 -0.3310
vn 0.9243 0.2699 -0.2699
vn 0.9341 0.3310 -0.1336
vn 0.1336 0.3310 -0.9341
vn 0.2699 0.2699 -0.9243
vn 0.3310 0.1336 -0.9341
usemtl Main
s 1
f 50//1 78//2 24//3 21//3
f 92//4 99//5 9//6 10//6
f 58//7 72//8 16//9 15//9
f 56//10 50//1 21//3 22//3
f 99//5 86//11 12//6 9//6
f 21//12 24//12 40//12 37//12
f 98//13 70//14 6//15 7//15
f 93//16 79//17 20//18 19//18
f 65//19 93//16 19//18 17//18
f 5//20 8//20 44//20 41//20
f 85//21 56//10 22//3 23//3
f 70//14 57//22 5//15 6//15
f 71//23 100//24 4//25 1//25
f 16//26 13//26 29//26 32//26
f 100//24 91//27 3//25 4//25
f 84//28 98//13 7//15 8//15
f 78//2 85//21 23//3 24//3
f 9//29 12//29 28//29 25//29
f 57//22 84//28 8//15 5//15
f 79//17 49//30 18//18 20//18
f 64//31 71//23 1//25 2//25
f 17//32 19//32 47//32 45//32
f 91//27 64//31 2//25 3//25
f 51//33 58//7 15//9 14//9
f 77//34 92//4 10//6 11//6
f 2//35 1//35 33//35 34//35
f 63//36 51//33 14//9 13//9
f 72//8 63//36 13//9 16//9
f 86//11 77//34 11//6 12//6
f 10//37 9//37 25//37 26//37
f 14//38 15//38 31//38 30//38
f 12//39 11//39 27//39 28//39
f 11//40 10//40 26//40 27//40
f 15//41 16//41 32//41 31//41
f 13//42 14//42 30//42 29//42
f 22//43 21//43 37//43 38//43
f 4//44 3//44 35//44 36//44
f 3//45 2//45 34//45 35//45
f 23//46 22//46 38//46 39//46
f 24//47 23//47 39//47 40//47
f 1//48 4//48 36//48 33//48
f 7//49 6//49 42//49 43//49
f 19//50 20//50 48//50 47//50
f 18//51 17//51 45//51 46//51
f 8//52 7//52 43//52 44//52
f 6//53 5//53 41//53 42//53
f 20//54 18//54 46//54 48//54
f 49//30 52//55 53//56 55//57
f 50//1 54//58 53//59 52//60
f 51//33 55//61 53//62 54//63
f 56//10 59//64 60//65 62//66
f 57//22 61//67 60//68 59//69
f 58//7 62//70 60//71 61//72
f 63//36 66//73 67//74 69//75
f 64//31 68//76 67//77 66//78
f 65//19 69//79 67//80 68//81
f 70//14 73//82 74//83 76//84
f 71//23 75//85 74//86 73//87
f 72//8 76//88 74//89 75//90
f 77//34 80//91 81//92 83//93
f 78//2 82//94 81//95 80//96
f 79//17 83//97 81//98 82//99
f 84//28 87//100 88//101 90//102
f 85//21 89//103 88//104 87//105
f 86//11 90//106 88//107 89//108
f 91//27 94//109 95//110 97//111
f 92//4 96//112 95//113 94//114
f 93//16 97//115 95//116 96//117
f 98//13 101//118 102//119 104//120
f 99//5 103//121 102//122 101//123
f 100//24 104//124 102//125 103//126
f 65//19 49//30 55//57 69//79
f 69//75 55//61 51//33 63//36
f 50//1 56//10 62//66 54//58
f 54//63 62//70 58//7 51//33
f 57//22 70//14 76//84 61//67
f 61//72 76//88 72//8 58//7
f 71//23 64//31 66//78 75//85
f 75//90 66//73 63//36 72//8
f 93//16 65//19 68//81 97//115
f 97//111 68//76 64//31 91//27
f 70//14 98//13 104//120 73//82
f 73//87 104//124 100//24 71//23
f 99//5 92//4 94//114 103//121
f 103//126 94//109 91//27 100//24
f 79//17 93//16 96//117 83//97
f 83//93 96//112 92//4 77//34
f 98//13 84//28 90//102 101//118
f 101//123 90//106 86//11 99//5
f 85//21 78//2 80//96 89//103
f 89//108 80//91 77//34 86//11
f 49//30 79//17 82//99 52//55
f 52//60 82//94 78//2 50//1
f 84//28 57//22 59//69 87//100
f 87//105 59//64 56//10 85//21
f 49//30 65//19 17//18 18//18
usemtl Main_Dark
f 26//6 25//6 28//6 27//6
f 30//9 31//9 32//9 29//9
f 34//25 33//25 36//25 35//25
f 40//3 39//3 38//3 37//3
f 43//15 42//15 41//15 44//15
f 45//18 47//18 48//18 46//18
