{
    "asset" : {
        "generator" : "Khronos glTF Blender I/O v1.7.33",
        "version" : "2.0"
    },
    "scene" : 0,
    "scenes" : [
        {
            "name" : "Scene",
            "nodes" : [
                0
            ]
        }
    ],
    "nodes" : [
        {
            "mesh" : 0,
            "name" : "Cube_Grass_SideCenter_Tall"
        }
    ],
    "materials" : [
        {
            "doubleSided" : true,
            "name" : "Dirt_1",
            "pbrMetallicRoughness" : {
                "baseColorFactor" : [
                    0.48689132928848267,
                    0.2469639927148819,
                    0.1019323468208313,
                    1
                ],
                "metallicFactor" : 0,
                "roughnessFactor" : 0.5
            }
        },
        {
            "doubleSided" : true,
            "name" : "Dirt_2",
            "pbrMetallicRoughness" : {
                "baseColorFactor" : [
                    0.3185347318649292,
                    0.16343075037002563,
                    0.06885882467031479,
                    1
                ],
                "metallicFactor" : 0,
                "roughnessFactor" : 0.5
            }
        },
        {
            "doubleSided" : true,
            "name" : "Dirt_3",
            "pbrMetallicRoughness" : {
                "baseColorFactor" : [
                    0.7873923778533936,
                    0.3653056025505066,
                    0.16989240050315857,
                    1
                ],
                "metallicFactor" : 0,
                "roughnessFactor" : 0.5
            }
        }
    ],
    "meshes" : [
        {
            "name" : "Cube.385",
            "primitives" : [
                {
                    "attributes" : {
                        "POSITION" : 0,
                        "NORMAL" : 1
                    },
                    "indices" : 2,
                    "material" : 0
                },
                {
                    "attributes" : {
                        "POSITION" : 3,
                        "NORMAL" : 4
                    },
                    "indices" : 5,
                    "material" : 1
                },
                {
                    "attributes" : {
                        "POSITION" : 6,
                        "NORMAL" : 7
                    },
                    "indices" : 8,
                    "material" : 2
                }
            ]
        }
    ],
    "accessors" : [
        {
            "bufferView" : 0,
            "componentType" : 5126,
            "count" : 8,
            "max" : [
                0.9999999403953552,
                1,
                0.9999999403953552
            ],
            "min" : [
                -0.9999999403953552,
                -0.3276683986186981,
                0.9999999403953552
            ],
            "type" : "VEC3"
        },
        {
            "bufferView" : 1,
            "componentType" : 5126,
            "count" : 8,
            "type" : "VEC3"
        },
        {
            "bufferView" : 2,
            "componentType" : 5123,
            "count" : 12,
            "type" : "SCALAR"
        },
        {
            "bufferView" : 3,
            "componentType" : 5126,
            "count" : 8,
            "max" : [
                0.9999999403953552,
                0.623988926410675,
                0.9999999403953552
            ],
            "min" : [
                -0.9999999403953552,
                -0.623988926410675,
                0.9999999403953552
            ],
            "type" : "VEC3"
        },
        {
            "bufferView" : 4,
            "componentType" : 5126,
            "count" : 8,
            "type" : "VEC3"
        },
        {
            "bufferView" : 5,
            "componentType" : 5123,
            "count" : 12,
            "type" : "SCALAR"
        },
        {
            "bufferView" : 6,
            "componentType" : 5126,
            "count" : 8,
            "max" : [
                0.9999999403953552,
                0.2812558114528656,
                0.9999999403953552
            ],
            "min" : [
                -0.9999999403953552,
                -1,
                0.9999999403953552
            ],
            "type" : "VEC3"
        },
        {
            "bufferView" : 7,
            "componentType" : 5126,
            "count" : 8,
            "type" : "VEC3"
        },
        {
            "bufferView" : 8,
            "componentType" : 5123,
            "count" : 12,
            "type" : "SCALAR"
        }
    ],
    "bufferViews" : [
        {
            "buffer" : 0,
            "byteLength" : 96,
            "byteOffset" : 0
        },
        {
            "buffer" : 0,
            "byteLength" : 96,
            "byteOffset" : 96
        },
        {
            "buffer" : 0,
            "byteLength" : 24,
            "byteOffset" : 192
        },
        {
            "buffer" : 0,
            "byteLength" : 96,
            "byteOffset" : 216
        },
        {
            "buffer" : 0,
            "byteLength" : 96,
            "byteOffset" : 312
        },
        {
            "buffer" : 0,
            "byteLength" : 24,
            "byteOffset" : 408
        },
        {
            "buffer" : 0,
            "byteLength" : 96,
            "byteOffset" : 432
        },
        {
            "buffer" : 0,
            "byteLength" : 96,
            "byteOffset" : 528
        },
        {
            "buffer" : 0,
            "byteLength" : 24,
            "byteOffset" : 624
        }
    ],
    "buffers" : [
        {
            "byteLength" : 648,
            "uri" : "data:application/octet-stream;base64,"
        }
    ]
}
