# Blender v2.79 (sub 0) OBJ File: 'Arrow.blend'
# www.blender.org
mtllib Arrow.mtl
o Arrow_Cube.248
v -1.017085 -0.000000 0.251767
v -1.015778 -0.000000 -0.256991
v 0.161702 -0.000000 0.254796
v 0.163009 -0.000000 -0.253962
v 0.794202 -0.000000 -0.003530
v 0.794173 -0.000000 0.007612
v 0.161048 0.000000 0.509272
v 0.163663 -0.000000 -0.508438
v -1.059481 -0.000000 0.180167
v -1.058541 -0.000000 -0.185609
v 0.162573 -0.000000 -0.084376
v 0.162138 -0.000000 0.085210
v 0.162573 0.147278 -0.084376
v 0.162138 0.147278 0.085210
v 0.794192 -0.000000 0.000184
v 0.794183 -0.000000 0.003898
v -0.998021 0.147278 0.218424
v -1.017085 0.113886 0.251767
v -0.996886 0.147278 -0.223550
v -1.015778 0.113886 -0.256991
v 0.196315 0.147278 -0.220484
v 0.163009 0.113886 -0.253962
v 0.161702 0.113886 0.254796
v 0.195180 0.147278 0.221490
v 0.688314 0.147278 -0.045543
v 0.794202 0.113886 -0.003530
v 0.688071 0.147278 0.049079
v 0.794173 0.113886 0.007612
v 0.194618 0.147278 0.440069
v 0.161048 0.113886 0.509272
v 0.196877 0.147278 -0.439063
v 0.163663 0.113886 -0.508438
v -1.022381 0.147278 0.177284
v -1.059481 0.113886 0.180167
v -1.058541 0.113886 -0.185609
v -1.021457 0.147278 -0.182535
v 0.688233 0.147278 -0.014002
v 0.794192 0.113886 0.000184
v 0.794183 0.113886 0.003898
v 0.688152 0.147278 0.017539
vn 0.0000 -1.0000 0.0000
vn -0.0000 1.0000 -0.0000
vn -0.9648 0.0000 0.2629
vn -0.8605 0.0000 0.5095
vn -0.8578 0.0000 -0.5139
vn -0.9635 0.0000 -0.2678
vn 1.0000 0.0000 0.0026
vn 0.1065 0.9943 0.0003
vn 0.1520 0.9884 0.0004
vn 0.6251 -0.0000 -0.7806
vn -1.0000 0.0000 -0.0026
vn 0.6210 0.0000 0.7838
vn 0.0026 0.0000 -1.0000
vn -0.6464 0.7363 -0.2000
vn -0.6066 0.7071 -0.3634
vn -0.6520 0.7395 -0.1673
vn 0.0018 0.7071 -0.7071
vn -0.0018 0.7071 0.7071
vn 0.3005 0.9538 0.0008
vn -0.7071 0.7071 -0.0018
vn 0.4391 0.7071 0.5542
vn 0.4420 0.7071 -0.5520
vn -0.6084 0.7071 0.3603
vn -0.6474 0.7363 0.1967
vn -0.6529 0.7395 0.1639
vn -0.0026 0.0000 1.0000
usemtl Main_Dark
s 1
f 12//1 3//1 1//1 9//1
f 21//2 19//2 36//2 13//2
f 9//3 1//4 18//4 34//3
f 2//5 10//6 35//6 20//5
f 3//1 6//1 7//1
f 14//2 33//2 17//2 24//2
f 6//7 16//7 39//7 28//7
f 27//8 24//2 29//2
f 11//1 4//1 5//1 15//1
f 14//2 24//2 27//8 40//9
f 13//2 36//2 33//2 14//2
f 15//7 5//7 26//7 38//7
f 5//1 4//1 8//1
f 8//10 32//10 26//10 5//10
f 23//11 3//11 7//11 30//11
f 21//2 13//2 37//9 25//8
f 3//1 12//1 16//1 6//1
f 12//1 11//1 15//1 16//1
f 21//2 25//8 31//2
f 30//12 7//12 6//12 28//12
f 13//2 14//2 40//9 37//9
f 4//11 22//11 32//11 8//11
f 16//7 15//7 38//7 39//7
f 4//13 2//13 20//13 22//13
f 10//6 9//3 34//3 35//6
f 4//1 11//1 10//1 2//1
f 11//1 12//1 9//1 10//1
f 36//14 19//15 20//15 35//16
f 19//17 21//17 22//17 20//17
f 24//18 17//18 18//18 23//18
f 40//9 27//8 28//19 39//19
f 32//20 22//20 21//20 31//20
f 27//21 29//21 30//21 28//21
f 29//20 24//20 23//20 30//20
f 26//22 32//22 31//22 25//22
f 17//23 33//24 34//25 18//23
f 33//24 36//14 35//16 34//25
f 25//8 37//9 38//19 26//19
f 37//9 40//9 39//19 38//19
f 1//26 3//26 23//26 18//26
