# Blender v2.79 (sub 0) OBJ File: 'Arrow_Up.blend'
# www.blender.org
mtllib Arrow_Up.mtl
o Arrow_Up_Cube.247
v 0.240515 0.886974 0.105260
v -0.268187 0.894628 0.105260
v 0.258248 2.065632 0.105260
v -0.250455 2.073285 0.105260
v 0.007831 2.701305 0.105261
v 0.018972 2.701137 0.105261
v 0.512696 2.061803 0.105260
v -0.504902 2.077113 0.105260
v 0.168391 0.845475 0.105260
v -0.197345 0.850978 0.105260
v -0.080887 2.070734 0.105260
v 0.088680 2.068183 0.105260
v -0.080887 2.070734 0.252539
v 0.088680 2.068183 0.252539
v 0.011544 2.701249 0.105261
v 0.015258 2.701193 0.105261
v 0.207412 0.906452 0.252539
v 0.240515 0.886974 0.219147
v -0.234514 0.913101 0.252539
v -0.268187 0.894628 0.219147
v -0.216564 2.106171 0.252539
v -0.250455 2.073285 0.219147
v 0.258248 2.065632 0.219147
v 0.225362 2.099522 0.252539
v -0.035499 2.595949 0.252539
v 0.007831 2.701305 0.219147
v 0.059113 2.594525 0.252539
v 0.018972 2.701137 0.219147
v 0.443917 2.096234 0.252539
v 0.512696 2.061803 0.219147
v -0.435119 2.109459 0.252539
v -0.504902 2.077113 0.219147
v 0.165971 0.882607 0.252539
v 0.168391 0.845475 0.219147
v -0.197345 0.850978 0.219147
v -0.193808 0.888020 0.252539
v -0.003962 2.595474 0.252539
v 0.011544 2.701249 0.219147
v 0.015258 2.701193 0.219147
v 0.027575 2.595000 0.252539
v -0.084622 -0.000000 0.110683
v -0.110683 -0.000000 0.084622
v -0.110683 -0.000000 -0.084622
v -0.084622 -0.000000 -0.110683
v 0.110683 -0.000000 0.084622
v 0.084622 -0.000000 0.110683
v 0.084622 -0.000000 -0.110683
v 0.110683 -0.000000 -0.084622
v -0.089943 2.052365 0.063882
v -0.063882 2.052365 0.089943
v -0.110683 2.031625 0.084622
v -0.084622 2.031625 0.110683
v -0.063882 2.052365 -0.089943
v -0.089943 2.052365 -0.063882
v -0.084622 2.031625 -0.110683
v -0.110683 2.031625 -0.084622
v 0.063882 2.052365 0.089943
v 0.089943 2.052365 0.063882
v 0.084622 2.031625 0.110683
v 0.110683 2.031625 0.084622
v 0.089943 2.052365 -0.063882
v 0.063882 2.052365 -0.089943
v 0.110683 2.031625 -0.084622
v 0.084622 2.031625 -0.110683
vn -0.1765 0.7786 -0.6021
vn 0.1765 0.7787 -0.6021
vn 0.2623 0.8008 -0.5385
vn -0.2623 0.8008 -0.5385
vn 0.1765 0.7786 0.6021
vn -0.1765 0.7786 0.6021
vn -0.2623 0.8008 0.5385
vn 0.2623 0.8008 0.5385
vn 0.0000 0.0000 -1.0000
vn 0.0000 0.0000 1.0000
vn 1.0000 0.0000 0.0000
vn 0.0000 1.0000 -0.0000
vn 0.6021 0.7786 -0.1765
vn 0.6021 0.7786 0.1765
vn 0.5385 0.8008 0.2623
vn 0.5385 0.8008 -0.2623
vn -0.6021 0.7786 0.1765
vn -0.6021 0.7786 -0.1765
vn -0.5385 0.8008 -0.2623
vn -0.5385 0.8008 0.2623
vn -1.0000 0.0000 0.0000
vn 0.7071 0.0000 0.7071
vn -0.7071 0.0000 0.7071
vn -0.7071 0.0000 -0.7071
vn 0.7071 0.0000 -0.7071
vn 0.0000 -1.0000 0.0000
vn 0.2508 -0.9680 0.0000
vn 0.4987 -0.8668 0.0000
vn -0.5246 -0.8514 0.0000
vn -0.2798 -0.9600 0.0000
vn 0.0150 0.9999 0.0000
vn 0.0151 0.9999 0.0000
vn 0.0016 0.1065 0.9943
vn 0.0023 0.1520 0.9884
vn -0.7727 0.6347 0.0000
vn -0.0150 -0.9999 0.0000
vn 0.7915 0.6112 0.0000
vn -0.9999 0.0150 0.0000
vn -0.2081 -0.6439 0.7363
vn -0.3709 -0.6020 0.7071
vn -0.1754 -0.6499 0.7395
vn -0.7070 0.0106 0.7071
vn 0.7070 -0.0106 0.7071
vn 0.0045 0.3004 0.9538
vn -0.0106 -0.7070 0.7071
vn 0.5597 0.4322 0.7071
vn -0.5464 0.4488 0.7071
vn 0.3527 -0.6129 0.7071
vn 0.1886 -0.6498 0.7363
vn 0.1558 -0.6549 0.7395
vn 0.9999 -0.0150 0.0000
usemtl Wood
s 1
f 53//1 62//2 64//3 55//4
f 57//5 50//6 52//7 59//8
f 44//9 55//9 64//9 47//9
f 46//10 59//10 52//10 41//10
f 48//11 63//11 60//11 45//11
f 61//12 62//12 53//12 54//12 49//12 50//12 57//12 58//12
f 61//13 58//14 60//15 63//16
f 49//17 54//18 56//19 51//20
f 42//21 51//21 56//21 43//21
f 52//7 50//6 49//17 51//20
f 53//1 55//4 56//19 54//18
f 61//13 63//16 64//3 62//2
f 57//5 59//8 60//15 58//14
f 45//22 60//22 59//22 46//22
f 51//23 42//23 41//23 52//23
f 55//24 44//24 43//24 56//24
f 63//25 48//25 47//25 64//25
f 43//26 44//26 47//26 48//26 45//26 46//26 41//26 42//26
usemtl Main_Dark
f 12//9 3//9 1//9 9//9
f 21//10 19//10 36//10 13//10
f 9//27 1//28 18//28 34//27
f 2//29 10//30 35//30 20//29
f 3//9 6//9 7//9
f 14//10 33//10 17//10 24//10
f 6//31 16//32 39//32 28//31
f 27//33 24//10 29//10
f 11//9 4//9 5//9 15//9
f 14//10 24//10 27//33 40//34
f 13//10 36//10 33//10 14//10
f 15//32 5//32 26//32 38//32
f 5//9 4//9 8//9
f 8//35 32//35 26//35 5//35
f 23//36 3//36 7//36 30//36
f 21//10 13//10 37//34 25//33
f 3//9 12//9 16//9 6//9
f 12//9 11//9 15//9 16//9
f 21//10 25//33 31//10
f 30//37 7//37 6//37 28//37
f 13//10 14//10 40//34 37//34
f 4//36 22//36 32//36 8//36
f 16//32 15//32 38//32 39//32
f 4//38 2//38 20//38 22//38
f 10//30 9//27 34//27 35//30
f 4//9 11//9 10//9 2//9
f 11//9 12//9 9//9 10//9
f 36//39 19//40 20//40 35//41
f 19//42 21//42 22//42 20//42
f 24//43 17//43 18//43 23//43
f 40//34 27//33 28//44 39//44
f 32//45 22//45 21//45 31//45
f 27//46 29//46 30//46 28//46
f 29//45 24//45 23//45 30//45
f 26//47 32//47 31//47 25//47
f 17//48 33//49 34//50 18//48
f 33//49 36//39 35//41 34//50
f 25//33 37//34 38//44 26//44
f 37//34 40//34 39//44 38//44
f 1//51 3//51 23//51 18//51
