# Blender v2.79 (sub 0) OBJ File: 'Goal_Flag.blend'
# www.blender.org
mtllib Goal_Flag.mtl
o Goal_Flag_Cylinder.010
v -0.000000 0.021752 -0.064051
v -0.000000 2.149166 -0.064051
v 0.032026 0.021752 -0.055470
v 0.032026 2.149166 -0.055470
v 0.055470 0.021752 -0.032026
v 0.055470 2.149166 -0.032026
v 0.064051 0.021752 0.000000
v 0.064051 2.149166 0.000000
v 0.055470 0.021752 0.032026
v 0.055470 2.149166 0.032026
v 0.032026 0.021752 0.055470
v 0.032026 2.149166 0.055470
v 0.000000 0.021752 0.064051
v 0.000000 2.149166 0.064051
v -0.032026 0.021752 0.055470
v -0.032026 2.149166 0.055470
v -0.055470 0.021752 0.032026
v -0.055470 2.149166 0.032026
v -0.064051 0.021752 0.000000
v -0.064051 2.149166 0.000000
v -0.055470 0.021752 -0.032026
v -0.055470 2.149166 -0.032026
v -0.032026 0.021752 -0.055470
v -0.032026 2.149166 -0.055470
v 0.000000 2.308002 -0.076879
v 0.000000 2.251724 -0.133158
v 0.000000 2.174845 -0.153758
v 0.000000 2.041687 -0.076879
v 0.031269 2.308002 -0.070232
v 0.054160 2.251724 -0.121646
v 0.062539 2.174845 -0.140465
v 0.054160 2.097966 -0.121646
v 0.031269 2.041687 -0.070232
v 0.057132 2.308002 -0.051442
v 0.098956 2.251724 -0.089100
v 0.114264 2.174845 -0.102884
v 0.098956 2.097966 -0.089100
v 0.057132 2.041687 -0.051442
v 0.073116 2.308002 -0.023757
v 0.126641 2.251724 -0.041148
v 0.146232 2.174845 -0.047514
v 0.126641 2.097966 -0.041148
v 0.073116 2.041687 -0.023757
v 0.076458 2.308002 0.008036
v 0.132428 2.251724 0.013919
v 0.152915 2.174845 0.016072
v 0.132428 2.097966 0.013919
v 0.076458 2.041687 0.008036
v 0.066579 2.308002 0.038439
v 0.115318 2.251724 0.066579
v 0.133158 2.174845 0.076878
v 0.115318 2.097966 0.066579
v 0.066579 2.041687 0.038439
v 0.045188 2.308002 0.062196
v 0.078268 2.251724 0.107727
v 0.090376 2.174845 0.124392
v 0.078268 2.097966 0.107727
v 0.045188 2.041687 0.062196
v 0.015984 2.308002 0.075198
v 0.027685 2.251724 0.130248
v 0.031968 2.174845 0.150397
v 0.027685 2.097966 0.130248
v 0.015984 2.041687 0.075198
v -0.015984 2.308002 0.075198
v -0.027685 2.251724 0.130248
v -0.031968 2.174845 0.150397
v -0.027685 2.097966 0.130248
v -0.015984 2.041687 0.075198
v -0.045188 2.308002 0.062196
v -0.078268 2.251724 0.107727
v -0.090376 2.174845 0.124392
v -0.078268 2.097966 0.107727
v -0.045188 2.041687 0.062196
v -0.066579 2.308002 0.038439
v -0.115318 2.251724 0.066579
v -0.133158 2.174845 0.076878
v -0.115318 2.097966 0.066579
v -0.066579 2.041687 0.038439
v 0.000000 2.021087 -0.000000
v -0.076457 2.308002 0.008036
v -0.132428 2.251724 0.013919
v -0.152915 2.174845 0.016072
v -0.132428 2.097966 0.013919
v -0.076457 2.041687 0.008036
v -0.073116 2.308002 -0.023757
v -0.126641 2.251724 -0.041148
v -0.146232 2.174845 -0.047514
v -0.126641 2.097966 -0.041148
v -0.073116 2.041687 -0.023757
v -0.057132 2.308002 -0.051442
v -0.098955 2.251724 -0.089100
v -0.114264 2.174845 -0.102884
v -0.098955 2.097966 -0.089100
v -0.057132 2.041687 -0.051442
v -0.031269 2.308002 -0.070232
v -0.054160 2.251724 -0.121646
v -0.062539 2.174845 -0.140464
v -0.054160 2.097966 -0.121646
v -0.031269 2.041687 -0.070232
v 0.000000 2.328602 -0.000000
v 0.000000 2.097966 -0.133158
v -0.554839 -0.003050 0.190205
v -0.448256 0.111620 0.153667
v -0.554839 -0.003050 -0.190205
v -0.448256 0.111620 -0.153667
v 0.554841 -0.003050 0.190205
v 0.448258 0.111620 0.153667
v 0.554841 -0.003050 -0.190205
v 0.448258 0.111620 -0.153667
v 0.412063 1.888620 0.019381
v 0.138968 1.840174 0.019381
v 0.131828 1.649237 -0.004306
v 0.146086 2.030877 -0.004306
v 0.138968 1.840174 -0.027992
v 0.657467 2.027866 -0.004306
v 0.436695 1.723232 -0.004306
v 0.387207 2.051697 -0.004306
v 0.412063 1.888620 -0.027992
v 0.796664 1.689780 0.019381
v 0.629622 1.874861 -0.027992
v 0.629622 1.874861 0.019381
v 0.601534 1.719343 -0.004306
v 0.855965 1.567280 -0.004306
v 0.768472 1.609315 -0.004306
v 0.825066 1.772423 -0.004306
v 0.796664 1.689780 -0.027992
v -0.024574 1.837801 -0.027992
v -0.046596 1.609879 -0.004306
v -0.002525 2.065994 -0.004306
v -0.024574 1.837801 0.019381
v 0.289012 1.853472 -0.027992
v 0.322094 1.685016 -0.004306
v 0.255834 2.020924 -0.004306
v 0.289012 1.853472 0.019381
v 0.133426 1.695037 0.013459
v 0.144510 1.985311 0.013459
v 0.133426 1.695037 -0.022070
v 0.144510 1.985311 -0.022070
v 0.521229 1.908217 -0.027992
v 0.516289 1.741978 -0.004306
v 0.525865 2.071308 -0.004306
v 0.521229 1.908217 0.019381
v 0.430456 1.763737 0.013459
v 0.393670 2.013503 0.013459
v 0.430456 1.763737 -0.022070
v 0.393670 2.013503 -0.022070
v 0.725386 1.798675 -0.027992
v 0.687303 1.670174 -0.004306
v 0.763405 1.926521 -0.004306
v 0.725386 1.798675 0.019381
v 0.650757 1.992214 0.013459
v 0.650757 1.992214 -0.022070
v 0.608487 1.757507 -0.022070
v 0.608487 1.757507 0.013459
v 0.840940 1.595844 -0.022070
v 0.829779 1.565455 -0.004306
v 0.852552 1.630900 -0.004306
v 0.840940 1.595844 0.013459
v 0.775355 1.627725 0.013459
v 0.817972 1.751836 0.013459
v 0.775355 1.627725 -0.022070
v 0.817972 1.751836 -0.022070
v -0.041335 1.664327 -0.022070
v -0.007812 2.011274 -0.022070
v -0.041335 1.664327 0.013459
v -0.007812 2.011274 0.013459
v 0.264333 1.981177 -0.022070
v 0.313692 1.725767 -0.022070
v 0.313692 1.725767 0.013459
v 0.264333 1.981177 0.013459
v 0.524988 2.033459 -0.022070
v 0.517470 1.782974 -0.022070
v 0.517470 1.782974 0.013459
v 0.524988 2.033459 0.013459
v 0.754058 1.896197 -0.022070
v 0.696713 1.701152 -0.022070
v 0.696713 1.701152 0.013459
v 0.754058 1.896197 0.013459
v 0.840856 1.653339 -0.017465
v 0.818066 1.587056 -0.017465
v 0.818066 1.587056 0.008853
v 0.840856 1.653339 0.008853
vn -0.0000 0.0000 -1.0000
vn 0.5000 0.0000 -0.8660
vn 0.8660 0.0000 -0.5000
vn 1.0000 0.0000 -0.0000
vn 0.8660 0.0000 0.5000
vn 0.5000 0.0000 0.8660
vn 0.0000 0.0000 1.0000
vn -0.5000 0.0000 0.8660
vn -0.8660 0.0000 0.5000
vn -1.0000 0.0000 0.0000
vn -0.8660 0.0000 -0.5000
vn -0.7325 0.6808 0.0000
vn -0.5000 0.0000 -0.8660
vn 0.0000 0.3036 -0.9528
vn 0.0000 -1.0000 0.0000
vn -0.0000 -0.8511 -0.5250
vn 0.2135 -0.8511 -0.4796
vn -0.0000 -0.4857 -0.8741
vn 0.4067 -0.0000 -0.9135
vn 0.3555 -0.4857 -0.7986
vn -0.0000 0.4857 -0.8741
vn -0.0000 0.8511 -0.5250
vn 0.2135 0.8511 -0.4796
vn 0.3555 0.4857 -0.7986
vn -0.0000 1.0000 -0.0000
vn 0.3901 0.8511 -0.3513
vn 0.6496 0.4857 -0.5849
vn 0.6496 -0.4857 -0.5849
vn 0.3901 -0.8511 -0.3513
vn 0.7431 -0.0000 -0.6691
vn 0.8313 -0.4857 -0.2701
vn 0.4993 -0.8511 -0.1622
vn 0.8313 0.4857 -0.2701
vn 0.9511 -0.0000 -0.3090
vn 0.4993 0.8511 -0.1622
vn 0.8693 -0.4857 0.0914
vn 0.5221 -0.8511 0.0549
vn 0.8693 0.4857 0.0914
vn 0.9945 -0.0000 0.1045
vn 0.5221 0.8511 0.0549
vn 0.7570 -0.4857 0.4371
vn 0.4546 -0.8511 0.2625
vn 0.7570 0.4857 0.4371
vn 0.4546 0.8511 0.2625
vn 0.5138 -0.4857 0.7072
vn 0.3086 -0.8511 0.4247
vn 0.5138 0.4857 0.7072
vn 0.5878 -0.0000 0.8090
vn 0.3086 0.8511 0.4247
vn 0.1817 0.4857 0.8550
vn 0.2079 -0.0000 0.9781
vn 0.1091 0.8511 0.5135
vn 0.1091 -0.8511 0.5135
vn 0.1817 -0.4857 0.8550
vn -0.1091 0.8511 0.5135
vn -0.1091 -0.8511 0.5135
vn -0.2079 -0.0000 0.9781
vn -0.1817 -0.4857 0.8550
vn -0.1817 0.4857 0.8550
vn -0.3086 -0.8511 0.4247
vn -0.5878 -0.0000 0.8090
vn -0.5138 -0.4857 0.7072
vn -0.3086 0.8511 0.4247
vn -0.5138 0.4857 0.7072
vn -0.4546 -0.8511 0.2625
vn -0.7570 -0.4857 0.4371
vn -0.4546 0.8511 0.2625
vn -0.7570 0.4857 0.4371
vn -0.5221 -0.8511 0.0549
vn -0.9945 -0.0000 0.1045
vn -0.8693 -0.4857 0.0914
vn -0.5221 0.8511 0.0549
vn -0.8693 0.4857 0.0914
vn -0.9511 -0.0000 -0.3090
vn -0.8313 -0.4857 -0.2701
vn -0.4993 0.8511 -0.1622
vn -0.8313 0.4857 -0.2701
vn -0.4993 -0.8511 -0.1622
vn -0.3901 0.8511 -0.3513
vn -0.6496 0.4857 -0.5849
vn -0.6496 -0.4857 -0.5849
vn -0.3901 -0.8511 -0.3513
vn -0.7431 -0.0000 -0.6691
vn -0.3555 -0.4857 -0.7986
vn -0.2135 -0.8511 -0.4796
vn -0.3555 0.4857 -0.7986
vn -0.4067 -0.0000 -0.9135
vn -0.2135 0.8511 -0.4796
vn 0.7325 0.6808 0.0000
vn 0.0000 0.3036 0.9528
vn 0.0003 0.0015 1.0000
vn -0.0463 0.2364 0.9706
vn -0.0223 0.2068 0.9781
vn 0.0019 -0.0025 1.0000
vn 0.0559 -0.2210 0.9737
vn 0.0584 -0.2146 0.9750
vn -0.0055 -0.1990 0.9800
vn 0.0013 0.0071 1.0000
vn 0.0255 0.2653 0.9638
vn 0.0028 -0.0012 1.0000
vn 0.0219 0.1955 0.9805
vn 0.0367 0.1919 0.9807
vn 0.0032 -0.0028 1.0000
vn 0.0411 -0.2152 0.9757
vn 0.0363 -0.2015 0.9788
vn 0.0671 -0.3534 0.9331
vn 0.0669 -0.3374 0.9390
vn 0.0671 -0.3534 -0.9331
vn 0.0669 -0.3374 -0.9390
vn 0.0411 -0.2152 -0.9757
vn 0.0363 -0.2015 -0.9788
vn 0.0559 -0.2210 -0.9737
vn 0.0951 -0.3766 -0.9215
vn 0.0951 -0.3766 0.9215
vn 0.0468 0.3558 -0.9334
vn 0.0219 0.1955 -0.9805
vn 0.0367 0.1919 -0.9807
vn 0.0668 0.3291 -0.9419
vn 0.0468 0.3558 0.9334
vn 0.0668 0.3291 0.9419
vn -0.0318 0.3920 0.9194
vn -0.0318 0.3920 -0.9194
vn -0.0223 0.2068 -0.9781
vn 0.0028 -0.0012 -1.0000
vn 0.0032 -0.0028 -1.0000
vn 0.0019 -0.0025 -1.0000
vn 0.2225 0.4048 -0.8869
vn 0.1648 0.2496 -0.9542
vn 0.0255 0.2653 -0.9638
vn 0.0341 0.4212 -0.9063
vn 0.2225 0.4048 0.8869
vn 0.0341 0.4212 0.9063
vn 0.1648 0.2496 0.9542
vn 0.3527 0.2054 0.9129
vn 0.4494 0.3508 0.8216
vn 0.4494 0.3508 -0.8216
vn 0.3527 0.2054 -0.9129
vn 0.1084 -0.3855 0.9163
vn 0.1084 -0.3855 -0.9163
vn 0.0584 -0.2146 -0.9750
vn -0.0055 -0.1990 -0.9800
vn -0.0087 -0.3975 -0.9176
vn -0.0087 -0.3975 0.9176
vn -0.0786 0.4084 -0.9094
vn -0.0463 0.2364 -0.9706
vn -0.0786 0.4084 0.9094
vn 0.0003 0.0015 -1.0000
vn 0.0013 0.0071 -1.0000
vn 0.0822 -0.0118 0.9965
vn 0.5163 0.1387 0.8451
vn 0.0195 0.0034 0.9998
vn -0.1732 -0.2322 0.9571
vn -0.2412 -0.3098 0.9197
vn -0.2104 -0.4371 0.8745
vn 0.3797 -0.1635 0.9105
vn 0.6135 0.1012 0.7832
vn 0.0069 0.0051 -1.0000
vn -0.0907 -0.2111 -0.9732
vn 0.0195 0.0034 -0.9998
vn -0.1732 -0.2322 -0.9571
vn 0.0069 0.0051 1.0000
vn -0.0907 -0.2111 0.9732
vn -0.1828 -0.3987 0.8987
vn -0.1828 -0.3987 -0.8987
vn -0.3232 -0.4316 -0.8422
vn -0.3232 -0.4316 0.8422
vn 0.0304 -0.5127 -0.8580
vn -0.0910 -0.5434 -0.8345
vn -0.2104 -0.4371 -0.8745
vn 0.3797 -0.1635 -0.9105
vn 0.7921 0.0460 -0.6086
vn 0.6135 0.1012 -0.7832
vn 0.8037 0.0682 -0.5910
vn 0.7921 0.0460 0.6086
vn 0.8037 0.0682 0.5910
vn 0.0304 -0.5127 0.8580
vn -0.0910 -0.5434 0.8345
vn -0.4174 -0.5280 0.7395
vn -0.4174 -0.5280 -0.7395
vn -0.2412 -0.3098 -0.9197
vn 0.7159 0.2489 -0.6523
vn 0.5163 0.1387 -0.8451
vn 0.7159 0.2489 0.6523
vn 0.0822 -0.0118 -0.9965
usemtl Metal
s 1
f 1//1 2//1 4//2 3//2
f 3//2 4//2 6//3 5//3
f 5//3 6//3 8//4 7//4
f 7//4 8//4 10//5 9//5
f 9//5 10//5 12//6 11//6
f 11//6 12//6 14//7 13//7
f 13//7 14//7 16//8 15//8
f 15//8 16//8 18//9 17//9
f 17//9 18//9 20//10 19//10
f 19//10 20//10 22//11 21//11
f 102//12 103//12 105//12 104//12
f 21//11 22//11 24//13 23//13
f 23//13 24//13 2//1 1//1
f 104//14 105//14 109//14 108//14
f 79//15 28//16 33//17
f 101//18 27//1 31//19 32//20
f 26//21 25//22 29//23 30//24
f 28//16 101//18 32//20 33//17
f 27//1 26//21 30//24 31//19
f 25//22 100//25 29//23
f 30//24 29//23 34//26 35//27
f 33//17 32//20 37//28 38//29
f 31//19 30//24 35//27 36//30
f 29//23 100//25 34//26
f 79//15 33//17 38//29
f 32//20 31//19 36//30 37//28
f 38//29 37//28 42//31 43//32
f 36//30 35//27 40//33 41//34
f 34//26 100//25 39//35
f 79//15 38//29 43//32
f 37//28 36//30 41//34 42//31
f 35//27 34//26 39//35 40//33
f 43//32 42//31 47//36 48//37
f 41//34 40//33 45//38 46//39
f 39//35 100//25 44//40
f 79//15 43//32 48//37
f 42//31 41//34 46//39 47//36
f 40//33 39//35 44//40 45//38
f 48//37 47//36 52//41 53//42
f 46//39 45//38 50//43 51//5
f 44//40 100//25 49//44
f 79//15 48//37 53//42
f 47//36 46//39 51//5 52//41
f 45//38 44//40 49//44 50//43
f 53//42 52//41 57//45 58//46
f 51//5 50//43 55//47 56//48
f 49//44 100//25 54//49
f 79//15 53//42 58//46
f 52//41 51//5 56//48 57//45
f 50//43 49//44 54//49 55//47
f 56//48 55//47 60//50 61//51
f 54//49 100//25 59//52
f 79//15 58//46 63//53
f 57//45 56//48 61//51 62//54
f 55//47 54//49 59//52 60//50
f 58//46 57//45 62//54 63//53
f 59//52 100//25 64//55
f 79//15 63//53 68//56
f 62//54 61//51 66//57 67//58
f 60//50 59//52 64//55 65//59
f 63//53 62//54 67//58 68//56
f 61//51 60//50 65//59 66//57
f 79//15 68//56 73//60
f 67//58 66//57 71//61 72//62
f 65//59 64//55 69//63 70//64
f 68//56 67//58 72//62 73//60
f 66//57 65//59 70//64 71//61
f 64//55 100//25 69//63
f 79//15 73//60 78//65
f 72//62 71//61 76//9 77//66
f 70//64 69//63 74//67 75//68
f 73//60 72//62 77//66 78//65
f 71//61 70//64 75//68 76//9
f 69//63 100//25 74//67
f 79//15 78//65 84//69
f 77//66 76//9 82//70 83//71
f 75//68 74//67 80//72 81//73
f 78//65 77//66 83//71 84//69
f 76//9 75//68 81//73 82//70
f 74//67 100//25 80//72
f 83//71 82//70 87//74 88//75
f 81//73 80//72 85//76 86//77
f 84//69 83//71 88//75 89//78
f 82//70 81//73 86//77 87//74
f 80//72 100//25 85//76
f 79//15 84//69 89//78
f 86//77 85//76 90//79 91//80
f 89//78 88//75 93//81 94//82
f 87//74 86//77 91//80 92//83
f 85//76 100//25 90//79
f 79//15 89//78 94//82
f 88//75 87//74 92//83 93//81
f 94//82 93//81 98//84 99//85
f 92//83 91//80 96//86 97//87
f 90//79 100//25 95//88
f 79//15 94//82 99//85
f 93//81 92//83 97//87 98//84
f 91//80 90//79 95//88 96//86
f 99//85 98//84 101//18 28//16
f 97//87 96//86 26//21 27//1
f 95//88 100//25 25//22
f 79//15 99//85 28//16
f 98//84 97//87 27//1 101//18
f 96//86 95//88 25//22 26//21
f 108//89 109//89 107//89 106//89
f 106//90 107//90 103//90 102//90
f 109//25 105//25 103//25 107//25
f 104//15 108//15 106//15 102//15
usemtl Flag
f 110//91 144//92 170//93 134//94
f 110//91 134//94 169//95 143//96
f 110//91 143//96 173//97 142//98
f 110//91 142//98 174//99 144//92
f 111//100 136//101 166//102 130//103
f 111//100 130//103 165//104 135//105
f 111//100 135//105 169//95 134//94
f 111//100 134//94 170//93 136//101
f 112//106 135//105 165//104 128//107
f 112//108 128//109 163//110 137//111
f 112//108 137//111 168//112 132//113
f 112//106 132//114 169//95 135//105
f 113//115 138//116 164//117 129//118
f 113//119 129//120 166//102 136//101
f 113//119 136//101 170//93 133//121
f 113//115 133//122 167//123 138//116
f 114//124 137//111 163//110 127//125
f 114//124 127//125 164//117 138//116
f 114//124 138//116 167//123 131//126
f 114//124 131//126 168//112 137//111
f 115//127 152//128 171//129 141//130
f 115//131 141//132 174//99 151//133
f 115//131 151//133 178//134 149//135
f 115//127 149//136 175//137 152//128
f 116//138 143//96 169//95 132//114
f 116//139 132//113 168//112 145//140
f 116//139 145//140 172//141 140//142
f 116//138 140//143 173//97 143//96
f 117//144 146//145 167//123 133//122
f 117//146 133//121 170//93 144//92
f 117//146 144//92 174//99 141//132
f 117//144 141//130 171//129 146//145
f 118//147 145//140 168//112 131//126
f 118//147 131//126 167//123 146//145
f 118//147 146//145 171//129 139//148
f 118//147 139//148 172//141 145//140
f 119//149 160//150 178//134 150//151
f 119//149 150//151 177//152 159//153
f 119//149 159//153 181//154 158//155
f 119//149 158//155 182//156 160//150
f 120//157 153//158 172//141 139//148
f 120//157 139//148 171//129 152//128
f 120//157 152//128 175//137 147//159
f 120//157 147//159 176//160 153//158
f 121//161 151//133 174//99 142//98
f 121//161 142//98 173//97 154//162
f 121//161 154//162 177//152 150//151
f 121//161 150//151 178//134 151//133
f 122//163 154//162 173//97 140//143
f 122//164 140//142 172//141 153//158
f 122//164 153//158 176//160 148//165
f 122//163 148//166 177//152 154//162
f 123//167 156//168 180//169 155//170
f 123//171 155//170 179//172 157//173
f 123//174 157//175 182//156 158//155
f 123//176 158//155 181//154 156//177
f 124//178 159//153 177//152 148//166
f 124//179 148//165 176//160 161//180
f 124//179 161//180 180//169 156//168
f 124//178 156//177 181//154 159//153
f 125//181 162//182 175//137 149//136
f 125//183 149//135 178//134 160//150
f 125//183 160//150 182//156 157//175
f 125//181 157//173 179//172 162//182
f 126//184 161//180 176//160 147//159
f 126//184 147//159 175//137 162//182
f 126//184 162//182 179//172 155//170
f 126//184 155//170 180//169 161//180
