# Blender v2.79 (sub 0) OBJ File: 'Lever.blend'
# www.blender.org
mtllib Lever.mtl
o Lever_Cylinder.001
v -0.500636 -0.006842 0.253617
v -0.592500 -0.006842 0.167061
v -0.565594 -0.006842 0.228265
v -0.592500 -0.006842 -0.167061
v -0.500636 -0.006842 -0.253617
v -0.565594 -0.006842 -0.228265
v 0.592496 -0.006842 0.167061
v 0.500633 -0.006842 0.253617
v 0.565590 -0.006842 0.228265
v 0.500632 -0.006842 -0.253617
v 0.592496 -0.006842 -0.167061
v 0.565590 -0.006842 -0.228265
v -0.372140 0.166665 0.049973
v -0.293965 0.166665 0.112873
v -0.349243 0.166665 0.094450
v -0.293965 0.166665 -0.112873
v -0.372140 0.166665 -0.049973
v -0.349243 0.166665 -0.094450
v 0.372136 0.166665 -0.049973
v 0.293961 0.166665 -0.112873
v 0.349239 0.166665 -0.094450
v 0.293961 0.166665 0.112873
v 0.372136 0.166665 0.049973
v 0.349239 0.166665 0.094450
v -0.454536 0.472020 0.240492
v -0.422710 0.500391 0.216631
v -0.517791 0.500391 0.125241
v -0.550902 0.472025 0.147879
v -0.489989 0.500391 0.189818
v -0.522677 0.472022 0.213366
v -0.550902 0.472025 -0.147879
v -0.517791 0.500391 -0.125241
v -0.422710 0.500391 -0.216631
v -0.454536 0.472020 -0.240492
v -0.522677 0.472022 -0.213366
v -0.489989 0.500391 -0.189818
v 0.550898 0.472025 0.147879
v 0.517787 0.500391 0.125241
v 0.422706 0.500391 0.216631
v 0.454533 0.472020 0.240492
v 0.522673 0.472022 0.213366
v 0.489986 0.500391 0.189818
v 0.454533 0.472020 -0.240492
v 0.422706 0.500391 -0.216631
v 0.517787 0.500391 -0.125241
v 0.550898 0.472025 -0.147879
v 0.522673 0.472022 -0.213366
v 0.489986 0.500391 -0.189818
v -0.318800 0.500391 0.129699
v -0.293965 0.471988 0.112873
v -0.372140 0.471988 0.049973
v -0.398313 0.500391 0.065654
v -0.349243 0.471988 0.094450
v -0.374981 0.500391 0.110976
v -0.398313 0.500391 -0.065654
v -0.372140 0.471988 -0.049973
v -0.293965 0.471988 -0.112873
v -0.318800 0.500391 -0.129699
v -0.349243 0.471988 -0.094450
v -0.374981 0.500391 -0.110976
v 0.318796 0.500391 -0.129699
v 0.293961 0.471988 -0.112873
v 0.372136 0.471988 -0.049973
v 0.398309 0.500391 -0.065654
v 0.374977 0.500391 -0.110976
v 0.349239 0.471988 -0.094450
v 0.398309 0.500391 0.065654
v 0.372136 0.471988 0.049973
v 0.293961 0.471988 0.112873
v 0.318796 0.500391 0.129699
v 0.374977 0.500391 0.110976
v 0.349239 0.471988 0.094450
v 0.082831 0.137514 -0.074608
v 0.663701 1.101856 -0.074608
v 0.114786 0.118266 -0.064613
v 0.695656 1.082608 -0.064613
v 0.138179 0.104175 -0.037304
v 0.719049 1.068518 -0.037304
v 0.146741 0.099018 -0.000000
v 0.727611 1.063360 -0.000000
v 0.138179 0.104175 0.037304
v 0.719049 1.068518 0.037304
v 0.114786 0.118266 0.064613
v 0.695656 1.082608 0.064613
v 0.082831 0.137514 0.074608
v 0.663701 1.101856 0.074608
v 0.050876 0.156762 0.064613
v 0.631746 1.121104 0.064613
v 0.027484 0.170852 0.037304
v 0.608354 1.135195 0.037304
v 0.018921 0.176010 0.000000
v 0.599792 1.140352 0.000000
v 0.027484 0.170852 -0.037304
v 0.608354 1.135195 -0.037304
v 0.050876 0.156762 -0.064613
v 0.631746 1.121104 -0.064613
v 0.759165 1.260342 -0.089550
v 0.725340 1.204187 -0.155105
v 0.679135 1.127479 -0.179100
v 0.599105 0.994615 -0.089550
v 0.790365 1.241548 -0.081808
v 0.779380 1.171636 -0.141695
v 0.741535 1.089892 -0.163616
v 0.686970 1.018219 -0.141695
v 0.630305 0.975822 -0.081808
v 0.816170 1.226005 -0.059921
v 0.824077 1.144713 -0.103786
v 0.793146 1.058804 -0.119841
v 0.731666 0.991296 -0.103786
v 0.656111 0.960278 -0.059921
v 0.832119 1.216398 -0.027673
v 0.851701 1.128074 -0.047930
v 0.825043 1.039591 -0.055345
v 0.759290 0.974657 -0.047930
v 0.672059 0.950671 -0.027673
v 0.835453 1.214390 0.009360
v 0.857476 1.124596 0.016213
v 0.831712 1.035574 0.018721
v 0.765065 0.971178 0.016213
v 0.675393 0.948663 0.009360
v 0.825596 1.220327 0.044775
v 0.840403 1.134879 0.077552
v 0.811998 1.047449 0.089549
v 0.747993 0.981462 0.077552
v 0.665537 0.954600 0.044775
v 0.804253 1.233183 0.072447
v 0.803435 1.157147 0.125482
v 0.769311 1.073161 0.144894
v 0.711025 1.003730 0.125482
v 0.644193 0.967457 0.072447
v 0.775113 1.250735 0.087593
v 0.752964 1.187548 0.151715
v 0.711032 1.108265 0.175185
v 0.660553 1.034131 0.151715
v 0.615053 0.985009 0.087593
v 0.743216 1.269948 0.087593
v 0.697716 1.220826 0.151715
v 0.647238 1.146692 0.175185
v 0.605306 1.067409 0.151715
v 0.583156 1.004222 0.087593
v 0.714077 1.287501 0.072447
v 0.647245 1.251228 0.125482
v 0.588959 1.181796 0.144894
v 0.554834 1.097810 0.125482
v 0.554017 1.021774 0.072447
v 0.692733 1.300357 0.044775
v 0.610277 1.273495 0.077552
v 0.546272 1.207509 0.089549
v 0.517867 1.120078 0.077552
v 0.532673 1.034630 0.044775
v 0.586724 0.974061 -0.000000
v 0.682877 1.306294 0.009360
v 0.593205 1.283779 0.016213
v 0.526558 1.219383 0.018721
v 0.500794 1.130361 0.016213
v 0.522817 1.040568 0.009360
v 0.686210 1.304286 -0.027673
v 0.598980 1.280300 -0.047930
v 0.533227 1.215366 -0.055345
v 0.506569 1.126883 -0.047930
v 0.526151 1.038559 -0.027673
v 0.702159 1.294679 -0.059921
v 0.626603 1.263661 -0.103785
v 0.565124 1.196153 -0.119841
v 0.534193 1.110244 -0.103785
v 0.542099 1.028953 -0.059921
v 0.727965 1.279135 -0.081808
v 0.671300 1.236738 -0.141695
v 0.616735 1.165066 -0.163616
v 0.578889 1.083321 -0.141695
v 0.567905 1.013409 -0.081808
v 0.771545 1.280896 -0.000000
v 0.632930 1.050770 -0.155105
vn -0.0000 0.0000 -1.0000
vn 0.4283 -0.2580 -0.8660
vn 0.7418 -0.4468 -0.5000
vn 0.8566 -0.5160 -0.0000
vn 0.7418 -0.4468 0.5000
vn 0.4283 -0.2580 0.8660
vn 0.0000 -0.0000 1.0000
vn -0.4283 0.2580 0.8660
vn -0.7418 0.4468 0.5000
vn -0.8566 0.5160 0.0000
vn -0.7418 0.4468 -0.5000
vn -0.4283 0.2580 -0.8660
vn -0.2471 0.9275 0.2804
vn -0.0000 1.0000 -0.0000
vn -0.3586 0.9318 0.0560
vn -0.1968 0.0461 -0.9794
vn -0.1864 0.4070 -0.8942
vn 0.1864 0.4070 -0.8942
vn 0.1968 0.0461 -0.9794
vn 0.9128 0.0947 0.3972
vn 0.9743 0.0926 0.2056
vn 0.9754 0.0925 0.2001
vn -0.9743 0.0926 0.2056
vn -0.9754 0.0925 0.2001
vn -0.9754 0.0925 -0.2001
vn -0.9743 0.0926 -0.2056
vn -0.3586 0.9318 -0.0560
vn -0.2471 0.9275 -0.2804
vn 0.0476 0.9024 0.4282
vn 0.2471 0.9275 0.2804
vn 0.8891 0.0000 0.4577
vn 0.8909 0.4078 0.1997
vn 0.9719 0.0000 0.2355
vn 0.1968 0.0461 0.9794
vn 0.1864 0.4070 0.8942
vn -0.1864 0.4070 0.8942
vn -0.1968 0.0461 0.9794
vn 0.3586 0.9318 0.0560
vn 0.8891 0.0000 -0.4577
vn 0.9719 0.0000 -0.2355
vn 0.8909 0.4078 -0.1997
vn -0.1254 0.3018 0.9451
vn -0.1602 0.0000 0.9871
vn -0.3162 0.0000 0.9487
vn -0.4193 0.5307 0.7365
vn -0.8891 0.0000 -0.4577
vn -0.8909 0.4078 -0.1997
vn -0.9719 0.0000 -0.2355
vn -0.0476 0.9024 0.4282
vn 0.0476 0.9024 -0.4282
vn -0.0476 0.9024 -0.4282
vn 0.1254 0.3018 -0.9451
vn 0.1602 0.0000 -0.9871
vn 0.3162 0.0000 -0.9487
vn 0.4193 0.5307 -0.7365
vn 0.3586 0.9318 -0.0560
vn 0.2471 0.9275 -0.2804
vn 0.9743 0.0926 -0.2056
vn 0.9754 0.0925 -0.2001
vn -0.9128 0.0947 -0.3972
vn -0.3661 0.0612 -0.9286
vn 0.9128 0.0947 -0.3972
vn 0.3661 0.0612 -0.9286
vn 0.3661 0.0612 0.9286
vn -0.9128 0.0947 0.3972
vn -0.8891 0.0000 0.4577
vn -0.9719 0.0000 0.2355
vn -0.8909 0.4078 0.1997
vn -0.1602 0.0000 -0.9871
vn -0.1254 0.3018 -0.9451
vn -0.4193 0.5307 -0.7365
vn -0.3162 0.0000 -0.9487
vn 0.1254 0.3018 0.9451
vn 0.1602 0.0000 0.9871
vn 0.4193 0.5307 0.7365
vn 0.3162 0.0000 0.9487
vn 0.0000 -1.0000 0.0000
vn -0.4154 0.8146 0.4047
vn -0.5859 0.7977 0.1429
vn -0.4154 0.8146 -0.4047
vn -0.5859 0.7977 -0.1429
vn 0.5859 0.7977 -0.1429
vn 0.4154 0.8146 -0.4047
vn 0.4154 0.8146 0.4047
vn 0.5859 0.7977 0.1429
vn 0.4713 0.7219 0.5067
vn 0.6706 0.7189 0.1828
vn 0.1681 0.6071 0.7767
vn -0.6706 0.7189 0.1828
vn -0.4713 0.7219 0.5067
vn -0.1681 0.6071 0.7767
vn -0.1681 0.6071 -0.7767
vn -0.4713 0.7219 -0.5067
vn -0.6706 0.7189 -0.1828
vn 0.4713 0.7219 -0.5067
vn 0.1681 0.6071 -0.7767
vn 0.6706 0.7189 -0.1828
vn -0.3661 0.0612 0.9286
vn -0.5160 -0.8566 0.0000
vn -0.4392 -0.7291 -0.5250
vn -0.2563 -0.8392 -0.4796
vn -0.2506 -0.4160 -0.8741
vn 0.3484 -0.2099 -0.9135
vn 0.0539 -0.5995 -0.7986
vn 0.2506 0.4161 -0.8741
vn 0.4392 0.7291 -0.5250
vn 0.6221 0.6189 -0.4796
vn 0.5552 0.2326 -0.7986
vn 0.5160 0.8566 -0.0000
vn 0.7733 0.5278 -0.3513
vn 0.8071 0.0809 -0.5849
vn 0.3058 -0.7512 -0.5849
vn -0.1050 -0.9304 -0.3513
vn 0.6366 -0.3834 -0.6691
vn 0.4615 -0.8450 -0.2701
vn -0.0115 -0.9867 -0.1622
vn 0.9627 -0.0129 -0.2701
vn 0.8147 -0.4907 -0.3090
vn 0.8668 0.4715 -0.1622
vn 0.4941 -0.8646 0.0914
vn 0.0081 -0.9985 0.0549
vn 0.9953 -0.0325 0.0914
vn 0.8519 -0.5131 0.1045
vn 0.8864 0.4597 0.0549
vn 0.3979 -0.8067 0.4371
vn -0.0497 -0.9637 0.2625
vn 0.8991 0.0254 0.4371
vn 0.8286 0.4945 0.2625
vn 0.1895 -0.6812 0.7072
vn -0.1748 -0.8883 0.4247
vn 0.6907 0.1509 0.7072
vn 0.5035 -0.3033 0.8090
vn 0.7035 0.5699 0.4247
vn 0.4063 0.3223 0.8550
vn 0.1781 -0.1073 0.9781
vn 0.5327 0.6728 0.5135
vn -0.3457 -0.7854 0.5135
vn -0.0949 -0.5098 0.8550
vn 0.3457 0.7854 0.5135
vn -0.5327 -0.6728 0.5135
vn -0.1781 0.1073 0.9781
vn -0.4063 -0.3223 0.8550
vn 0.0949 0.5098 0.8550
vn -0.7035 -0.5699 0.4247
vn -0.5035 0.3033 0.8090
vn -0.6907 -0.1509 0.7072
vn 0.1748 0.8883 0.4247
vn -0.1895 0.6812 0.7072
vn -0.8286 -0.4945 0.2625
vn -0.8991 -0.0254 0.4371
vn 0.0497 0.9637 0.2625
vn -0.3979 0.8067 0.4371
vn -0.8864 -0.4597 0.0549
vn -0.8519 0.5131 0.1045
vn -0.9953 0.0325 0.0914
vn -0.0081 0.9985 0.0549
vn -0.4941 0.8646 0.0914
vn -0.8147 0.4907 -0.3090
vn -0.9627 0.0129 -0.2701
vn 0.0115 0.9867 -0.1622
vn -0.4615 0.8450 -0.2701
vn -0.8668 -0.4715 -0.1622
vn 0.1050 0.9304 -0.3513
vn -0.3058 0.7512 -0.5849
vn -0.8071 -0.0809 -0.5849
vn -0.7733 -0.5278 -0.3513
vn -0.6366 0.3834 -0.6691
vn -0.5552 -0.2326 -0.7986
vn -0.6221 -0.6189 -0.4796
vn -0.0540 0.5995 -0.7986
vn -0.3484 0.2099 -0.9135
vn 0.2563 0.8392 -0.4796
usemtl Metal
s 1
f 73//1 74//1 76//2 75//2
f 75//2 76//2 78//3 77//3
f 77//3 78//3 80//4 79//4
f 79//4 80//4 82//5 81//5
f 81//5 82//5 84//6 83//6
f 83//6 84//6 86//7 85//7
f 85//7 86//7 88//8 87//8
f 87//8 88//8 90//9 89//9
f 89//9 90//9 92//10 91//10
f 91//10 92//10 94//11 93//11
f 93//11 94//11 96//12 95//12
f 95//12 96//12 74//1 73//1
usemtl DarkMetal
f 29//13 54//14 52//14 27//15
f 5//16 34//17 43//18 10//19
f 41//20 9//20 7//21 37//22
f 2//23 28//24 31//25 4//26
f 32//27 55//14 60//14 36//28
f 70//14 39//29 42//30 71//14
f 19//14 21//14 20//14 16//14 18//14 17//14 13//14 15//14 14//14 22//14 24//14 23//14
f 18//31 59//31 56//32 17//33
f 8//34 40//35 25//36 1//37
f 71//14 42//30 38//38 67//14
f 53//39 15//39 13//40 51//41
f 62//42 20//43 21//44 66//45
f 24//46 72//46 68//47 23//48
f 26//49 49//14 54//14 29//13
f 32//27 27//15 52//14 55//14
f 44//50 33//51 58//14 61//14
f 36//28 60//14 58//14 33//51
f 50//52 14//53 15//54 53//55
f 64//14 45//56 48//57 65//14
f 65//14 48//57 44//50 61//14
f 11//58 46//59 37//22 7//21
f 35//60 6//60 4//26 31//25
f 34//17 5//16 6//61 35//61
f 46//59 11//58 12//62 47//62
f 47//63 12//63 10//19 43//18
f 40//35 8//34 9//64 41//64
f 38//38 45//56 64//14 67//14
f 26//49 39//29 70//14 49//14
f 3//65 30//65 28//24 2//23
f 66//66 21//66 19//67 63//68
f 68//47 63//68 19//67 23//48
f 22//69 69//70 72//71 24//72
f 50//52 69//70 22//69 14//53
f 56//32 51//41 13//40 17//33
f 62//42 57//73 16//74 20//43
f 16//74 57//73 59//75 18//76
f 4//77 6//77 5//77 10//77 12//77 11//77 7//77 9//77 8//77 1//77 3//77 2//77
f 26//49 29//13 30//78 25//36
f 29//13 27//15 28//79 30//78
f 36//28 33//51 34//17 35//80
f 32//27 36//28 35//80 31//81
f 48//57 45//56 46//82 47//83
f 44//50 48//57 47//83 43//18
f 42//30 39//29 40//35 41//84
f 38//38 42//30 41//84 37//85
f 56//32 59//75 60//86 55//87
f 59//75 57//73 58//88 60//86
f 66//45 63//68 64//89 65//90
f 62//42 66//45 65//90 61//91
f 72//71 69//70 70//92 71//93
f 68//47 72//71 71//93 67//94
f 50//52 53//55 54//95 49//96
f 53//55 51//41 52//97 54//95
f 27//15 32//27 31//81 28//79
f 39//29 26//49 25//36 40//35
f 51//41 56//32 55//87 52//97
f 69//70 50//52 49//96 70//92
f 33//51 44//50 43//18 34//17
f 57//73 62//42 61//91 58//88
f 45//56 38//38 37//85 46//82
f 63//68 68//47 67//94 64//89
f 1//37 25//36 30//98 3//98
usemtl Lever
f 151//99 100//100 105//101
f 173//102 99//1 103//103 104//104
f 98//105 97//106 101//107 102//108
f 100//100 173//102 104//104 105//101
f 99//1 98//105 102//108 103//103
f 97//106 172//109 101//107
f 102//108 101//107 106//110 107//111
f 105//101 104//104 109//112 110//113
f 103//103 102//108 107//111 108//114
f 101//107 172//109 106//110
f 151//99 105//101 110//113
f 104//104 103//103 108//114 109//112
f 110//113 109//112 114//115 115//116
f 108//114 107//111 112//117 113//118
f 106//110 172//109 111//119
f 151//99 110//113 115//116
f 109//112 108//114 113//118 114//115
f 107//111 106//110 111//119 112//117
f 115//116 114//115 119//120 120//121
f 113//118 112//117 117//122 118//123
f 111//119 172//109 116//124
f 151//99 115//116 120//121
f 114//115 113//118 118//123 119//120
f 112//117 111//119 116//124 117//122
f 120//121 119//120 124//125 125//126
f 118//123 117//122 122//127 123//5
f 116//124 172//109 121//128
f 151//99 120//121 125//126
f 119//120 118//123 123//5 124//125
f 117//122 116//124 121//128 122//127
f 125//126 124//125 129//129 130//130
f 123//5 122//127 127//131 128//132
f 121//128 172//109 126//133
f 151//99 125//126 130//130
f 124//125 123//5 128//132 129//129
f 122//127 121//128 126//133 127//131
f 128//132 127//131 132//134 133//135
f 126//133 172//109 131//136
f 151//99 130//130 135//137
f 129//129 128//132 133//135 134//138
f 127//131 126//133 131//136 132//134
f 130//130 129//129 134//138 135//137
f 131//136 172//109 136//139
f 151//99 135//137 140//140
f 134//138 133//135 138//141 139//142
f 132//134 131//136 136//139 137//143
f 135//137 134//138 139//142 140//140
f 133//135 132//134 137//143 138//141
f 151//99 140//140 145//144
f 139//142 138//141 143//145 144//146
f 137//143 136//139 141//147 142//148
f 140//140 139//142 144//146 145//144
f 138//141 137//143 142//148 143//145
f 136//139 172//109 141//147
f 151//99 145//144 150//149
f 144//146 143//145 148//9 149//150
f 142//148 141//147 146//151 147//152
f 145//144 144//146 149//150 150//149
f 143//145 142//148 147//152 148//9
f 141//147 172//109 146//151
f 151//99 150//149 156//153
f 149//150 148//9 154//154 155//155
f 147//152 146//151 152//156 153//157
f 150//149 149//150 155//155 156//153
f 148//9 147//152 153//157 154//154
f 146//151 172//109 152//156
f 155//155 154//154 159//158 160//159
f 153//157 152//156 157//160 158//161
f 156//153 155//155 160//159 161//162
f 154//154 153//157 158//161 159//158
f 152//156 172//109 157//160
f 151//99 156//153 161//162
f 158//161 157//160 162//163 163//164
f 161//162 160//159 165//165 166//166
f 159//158 158//161 163//164 164//167
f 157//160 172//109 162//163
f 151//99 161//162 166//166
f 160//159 159//158 164//167 165//165
f 166//166 165//165 170//168 171//169
f 164//167 163//164 168//170 169//171
f 162//163 172//109 167//172
f 151//99 166//166 171//169
f 165//165 164//167 169//171 170//168
f 163//164 162//163 167//172 168//170
f 171//169 170//168 173//102 100//100
f 169//171 168//170 98//105 99//1
f 167//172 172//109 97//106
f 151//99 171//169 100//100
f 170//168 169//171 99//1 173//102
f 168//170 167//172 97//106 98//105
