# Blender v2.79 (sub 0) OBJ File: 'Numbers_1.blend'
# www.blender.org
mtllib Numbers_1.mtl
o Numbers_1_Cube.027
v -0.166652 0.388429 0.000000
v 0.000001 0.388429 -0.146957
v 0.166653 0.388429 0.000000
v 0.000001 0.388429 0.146957
v 0.000001 -0.554389 0.000000
v 0.000001 0.535734 0.000000
v 0.000001 0.038459 0.146957
v 0.166653 0.038459 0.000000
v 0.000001 0.038459 -0.146957
v -0.166652 0.038459 0.000000
v -0.166652 -0.359297 0.000000
v 0.000001 -0.359297 -0.146957
v 0.166653 -0.359297 0.000000
v 0.000001 -0.359297 0.146957
v -0.124989 -0.505616 0.000000
v -0.124989 0.388429 0.110218
v -0.124989 0.498908 0.000000
v -0.124989 -0.359297 -0.110218
v 0.000001 -0.505616 -0.110218
v 0.000001 0.498908 -0.110218
v 0.124990 -0.359297 -0.110218
v 0.124990 -0.505616 0.000000
v 0.124990 0.498908 0.000000
v 0.124990 -0.359297 0.110218
v 0.000001 -0.505616 0.110218
v 0.000001 0.498908 0.110218
v -0.124989 0.038459 0.110218
v -0.124989 0.388429 -0.110218
v 0.124990 0.388429 -0.110218
v 0.124990 0.388429 0.110218
v 0.000001 0.227284 0.146957
v 0.166653 0.227284 0.000000
v 0.000001 0.227284 -0.146957
v -0.166652 0.227284 0.000000
v -0.124989 0.038459 -0.110218
v 0.124990 0.038459 -0.110218
v 0.124990 0.038459 0.110218
v -0.124989 -0.359297 0.110218
v -0.166652 -0.162312 0.000000
v 0.000001 -0.162312 -0.146957
v 0.166653 -0.162312 0.000000
v 0.000001 -0.162312 0.146957
v -0.092584 -0.467682 0.081643
v -0.092584 0.470265 0.081643
v -0.092584 -0.467682 -0.081643
v -0.092584 0.470265 -0.081643
v 0.092586 -0.467682 0.081643
v 0.092586 0.470265 0.081643
v 0.092586 -0.467682 -0.081643
v 0.092586 0.470265 -0.081643
v -0.124989 0.227284 0.110218
v -0.124989 0.227284 -0.110218
v 0.124990 0.227284 -0.110218
v 0.124990 0.227284 0.110218
v -0.124989 -0.162312 -0.110218
v 0.124990 -0.162312 -0.110218
v 0.124990 -0.162312 0.110218
v -0.124989 -0.162312 0.110218
vn -0.9083 0.1862 0.3745
vn -0.9354 0.0000 0.3536
vn -0.9090 0.1835 0.3743
vn -0.8420 0.3810 0.3819
vn -0.9083 0.1862 -0.3745
vn -0.8420 0.3810 -0.3819
vn -0.9090 0.1835 -0.3743
vn -0.9354 0.0000 -0.3536
vn -0.3012 0.1738 -0.9376
vn -0.2820 0.0000 -0.9594
vn -0.3003 0.1635 -0.9397
vn -0.3113 0.3522 -0.8826
vn 0.3012 0.1738 -0.9376
vn 0.3113 0.3522 -0.8826
vn 0.3003 0.1635 -0.9397
vn 0.2820 0.0000 -0.9594
vn 0.9083 0.1862 -0.3745
vn 0.9354 0.0000 -0.3536
vn 0.9090 0.1835 -0.3743
vn 0.8420 0.3810 -0.3819
vn 0.9083 0.1862 0.3745
vn 0.8420 0.3810 0.3819
vn 0.9090 0.1835 0.3743
vn 0.9354 0.0000 0.3536
vn 0.3012 0.1738 0.9376
vn 0.2820 0.0000 0.9594
vn 0.3003 0.1635 0.9397
vn 0.3113 0.3522 0.8826
vn -0.3012 0.1738 0.9376
vn -0.3113 0.3522 0.8826
vn -0.3003 0.1635 0.9397
vn -0.2820 0.0000 0.9594
vn -0.3822 -0.8162 -0.4334
vn 0.3822 -0.8162 -0.4334
vn 0.3822 -0.8162 0.4334
vn -0.3822 -0.8162 0.4334
vn 0.3118 0.8819 -0.3536
vn -0.3118 0.8819 -0.3536
vn -0.3118 0.8819 0.3536
vn 0.3118 0.8819 0.3536
vn -0.9144 -0.1456 0.3778
vn -0.8696 -0.2971 0.3944
vn -0.9147 -0.1438 0.3776
vn -0.9144 -0.1456 -0.3778
vn -0.9147 -0.1438 -0.3776
vn -0.8696 -0.2971 -0.3944
vn -0.3036 -0.1349 -0.9432
vn -0.3200 -0.2733 -0.9071
vn -0.3027 -0.1287 -0.9444
vn 0.3036 -0.1349 -0.9432
vn 0.3027 -0.1287 -0.9444
vn 0.3200 -0.2733 -0.9071
vn 0.9144 -0.1456 -0.3778
vn 0.8696 -0.2971 -0.3944
vn 0.9147 -0.1438 -0.3776
vn 0.9144 -0.1456 0.3778
vn 0.9147 -0.1438 0.3776
vn 0.8696 -0.2971 0.3944
vn 0.3036 -0.1349 0.9432
vn 0.3200 -0.2733 0.9071
vn 0.3027 -0.1287 0.9444
vn -0.3036 -0.1349 0.9432
vn -0.3027 -0.1287 0.9444
vn -0.3200 -0.2733 0.9071
usemtl White
s 1
f 1//1 34//2 51//2 16//3
f 1//1 16//3 44//4 17//4
f 1//5 17//6 46//6 28//7
f 1//5 28//7 52//8 34//8
f 2//9 33//10 52//10 28//11
f 2//9 28//11 46//12 20//12
f 2//13 20//14 50//14 29//15
f 2//13 29//15 53//16 33//16
f 3//17 32//18 53//18 29//19
f 3//17 29//19 50//20 23//20
f 3//21 23//22 48//22 30//23
f 3//21 30//23 54//24 32//24
f 4//25 31//26 54//26 30//27
f 4//25 30//27 48//28 26//28
f 4//29 26//30 44//30 16//31
f 4//29 16//31 51//32 31//32
f 5//33 15//33 45//33 19//33
f 5//34 19//34 49//34 22//34
f 5//35 22//35 47//35 25//35
f 5//36 25//36 43//36 15//36
f 6//37 23//37 50//37 20//37
f 6//38 20//38 46//38 17//38
f 6//39 17//39 44//39 26//39
f 6//40 26//40 48//40 23//40
f 7//26 42//26 57//26 37//26
f 7//26 37//26 54//26 31//26
f 7//32 31//32 51//32 27//32
f 7//32 27//32 58//32 42//32
f 8//18 41//18 56//18 36//18
f 8//18 36//18 53//18 32//18
f 8//24 32//24 54//24 37//24
f 8//24 37//24 57//24 41//24
f 9//10 40//10 55//10 35//10
f 9//10 35//10 52//10 33//10
f 9//16 33//16 53//16 36//16
f 9//16 36//16 56//16 40//16
f 10//2 39//2 58//2 27//2
f 10//2 27//2 51//2 34//2
f 10//8 34//8 52//8 35//8
f 10//8 35//8 55//8 39//8
f 11//41 15//42 43//42 38//43
f 11//41 38//43 58//2 39//2
f 11//44 39//8 55//8 18//45
f 11//44 18//45 45//46 15//46
f 12//47 19//48 45//48 18//49
f 12//47 18//49 55//10 40//10
f 12//50 40//16 56//16 21//51
f 12//50 21//51 49//52 19//52
f 13//53 22//54 49//54 21//55
f 13//53 21//55 56//18 41//18
f 13//56 41//24 57//24 24//57
f 13//56 24//57 47//58 22//58
f 14//59 25//60 47//60 24//61
f 14//59 24//61 57//26 42//26
f 14//62 42//32 58//32 38//63
f 14//62 38//63 43//64 25//64
