# Blender v2.79 (sub 0) OBJ File: 'Numbers_0.blend'
# www.blender.org
mtllib Numbers_0.mtl
o Numbers_0_Cube.022
v -0.262358 -0.078605 0.203424
v -0.361147 -0.058576 0.000000
v -0.252842 -0.269945 0.203424
v -0.252842 -0.269945 -0.203424
v -0.353177 -0.295016 -0.000000
v -0.152506 -0.244873 0.000000
v -0.171569 -0.529444 -0.000000
v -0.070639 -0.336438 0.000000
v -0.121104 -0.432941 0.203424
v -0.121104 -0.432941 -0.203424
v -0.163568 -0.098635 0.000000
v -0.262358 -0.078605 -0.203424
v -0.262517 0.075279 0.188924
v -0.364747 0.057487 0.000000
v -0.242218 0.271180 0.174425
v -0.242218 0.271180 -0.174425
v -0.342848 0.286050 -0.000000
v -0.141588 0.256310 0.000000
v -0.157640 0.524216 -0.000000
v -0.063003 0.345848 0.000000
v -0.110322 0.435032 0.174425
v -0.110322 0.435032 -0.174425
v -0.160286 0.093071 0.000000
v -0.262517 0.075279 -0.188924
v 0.262358 -0.078605 0.203424
v 0.361147 -0.058576 0.000000
v 0.252842 -0.269945 0.203424
v 0.252842 -0.269945 -0.203424
v 0.353177 -0.295016 -0.000000
v 0.152506 -0.244873 0.000000
v 0.171569 -0.529444 -0.000000
v 0.070639 -0.336438 0.000000
v 0.121104 -0.432941 0.203424
v 0.121104 -0.432941 -0.203424
v 0.163568 -0.098635 0.000000
v 0.262358 -0.078605 -0.203424
v 0.262517 0.075279 0.188924
v 0.364747 0.057487 0.000000
v 0.242218 0.271180 0.174425
v 0.242218 0.271180 -0.174425
v 0.342848 0.286050 -0.000000
v 0.141588 0.256310 0.000000
v 0.157640 0.524216 -0.000000
v 0.063003 0.345848 0.000000
v 0.110322 0.435032 0.174425
v 0.110322 0.435032 -0.174425
v 0.160286 0.093071 0.000000
v 0.262517 0.075279 -0.188924
v -0.361013 -0.000485 0.000000
v -0.162664 -0.004935 0.000000
v -0.261838 -0.002710 -0.199799
v -0.261838 -0.002710 0.199799
v -0.126425 -0.295110 0.000000
v -0.214591 -0.368939 -0.203424
v -0.302756 -0.442767 -0.000000
v -0.214590 -0.368939 0.203424
v -0.188265 -0.093627 0.162831
v -0.328093 -0.288748 0.142305
v -0.336450 -0.063583 -0.142305
v -0.177590 -0.251141 -0.162831
v 0.000000 -0.354874 -0.000000
v 0.000000 -0.456194 -0.203424
v 0.000000 -0.557514 -0.000000
v 0.000000 -0.456194 0.203424
v -0.158953 -0.505318 0.142304
v -0.158953 -0.505318 -0.142305
v -0.083255 -0.360564 -0.162831
v -0.083255 -0.360564 0.162831
v -0.177590 -0.251141 0.162831
v -0.336450 -0.063583 0.142305
v -0.328094 -0.288748 -0.142305
v -0.188265 -0.093627 -0.162831
v -0.160886 -0.180968 0.000000
v -0.360189 -0.146762 0.000000
v -0.260538 -0.163865 -0.203424
v -0.260538 -0.163865 0.203424
v -0.114151 0.310235 0.000000
v -0.198457 0.370576 -0.174425
v -0.282762 0.430917 -0.000000
v -0.198457 0.370576 0.174425
v -0.185843 0.088623 -0.144707
v -0.317691 0.282332 0.135055
v -0.339190 0.061935 -0.138680
v -0.166746 0.260028 -0.126582
v 0.000000 0.359077 0.000000
v 0.000000 0.458525 -0.174425
v 0.000000 0.557973 -0.000000
v 0.000000 0.458525 0.174425
v -0.145810 0.501920 0.135055
v -0.145810 0.501920 -0.135055
v -0.074833 0.368144 -0.126582
v -0.074833 0.368144 0.126582
v -0.185843 0.088623 0.144707
v -0.166746 0.260028 0.126582
v -0.339190 0.061935 0.138680
v -0.317691 0.282332 -0.135055
v -0.154054 0.183960 0.000000
v -0.362107 0.143583 -0.000000
v -0.258080 0.163771 -0.178050
v -0.258080 0.163771 0.178050
v 0.361013 -0.000485 0.000000
v 0.162664 -0.004935 0.000000
v 0.261838 -0.002710 -0.199799
v 0.261838 -0.002710 0.199799
v 0.126425 -0.295110 0.000000
v 0.214591 -0.368939 -0.203424
v 0.302756 -0.442767 -0.000000
v 0.214590 -0.368939 0.203424
v 0.188265 -0.093627 0.162831
v 0.328093 -0.288748 0.142305
v 0.336450 -0.063583 -0.142305
v 0.177590 -0.251141 -0.162831
v 0.158953 -0.505318 0.142304
v 0.158953 -0.505318 -0.142305
v 0.083255 -0.360564 -0.162831
v 0.083255 -0.360564 0.162831
v 0.177590 -0.251141 0.162831
v 0.336450 -0.063583 0.142305
v 0.328094 -0.288748 -0.142305
v 0.188265 -0.093627 -0.162831
v 0.160886 -0.180968 0.000000
v 0.360189 -0.146762 -0.000000
v 0.260538 -0.163865 -0.203424
v 0.260538 -0.163865 0.203424
v 0.114151 0.310235 0.000000
v 0.198457 0.370576 -0.174425
v 0.282762 0.430917 -0.000000
v 0.198457 0.370576 0.174425
v 0.185843 0.088623 -0.144707
v 0.317691 0.282332 0.135055
v 0.339190 0.061935 -0.138680
v 0.166746 0.260028 -0.126582
v 0.145810 0.501920 0.135055
v 0.145810 0.501920 -0.135055
v 0.074833 0.368144 -0.126582
v 0.074833 0.368144 0.126582
v 0.185843 0.088623 0.144707
v 0.166746 0.260028 0.126582
v 0.339190 0.061935 0.138680
v 0.317691 0.282332 -0.135055
v 0.154054 0.183960 0.000000
v 0.362107 0.143583 0.000000
v 0.258080 0.163771 -0.178050
v 0.258080 0.163771 0.178050
v -0.187458 -0.004379 0.158300
v -0.187458 -0.004379 -0.158300
v -0.148466 -0.313568 0.162831
v -0.148466 -0.313567 -0.162831
v -0.280715 -0.424310 -0.142305
v -0.280714 -0.424310 0.142305
v -0.185799 -0.176692 0.162831
v -0.335276 -0.151037 0.142305
v -0.335276 -0.151037 -0.142305
v -0.185799 -0.176692 -0.162831
v -0.336219 -0.001041 0.141398
v -0.336219 -0.001041 -0.141398
v -0.135227 0.325321 0.126582
v -0.135227 0.325321 -0.126582
v -0.261686 0.415832 -0.135055
v -0.261686 0.415832 0.135055
v -0.180060 0.178913 0.131113
v -0.336100 0.148630 0.135961
v -0.336100 0.148630 -0.135961
v -0.180060 0.178913 -0.131113
v 0.187458 -0.004379 0.158300
v 0.187458 -0.004379 -0.158300
v 0.148466 -0.313568 0.162831
v 0.148466 -0.313567 -0.162831
v 0.280715 -0.424310 -0.142305
v 0.280714 -0.424310 0.142305
v 0.000000 -0.380204 0.162831
v 0.000000 -0.380204 -0.162831
v 0.000000 -0.532184 -0.142305
v 0.000000 -0.532184 0.142305
v 0.185799 -0.176692 0.162831
v 0.335276 -0.151037 0.142305
v 0.335276 -0.151037 -0.142305
v 0.185799 -0.176692 -0.162831
v 0.336219 -0.001041 0.141398
v 0.336219 -0.001041 -0.141398
v 0.135227 0.325321 0.126582
v 0.135227 0.325321 -0.126582
v 0.261686 0.415832 -0.135055
v 0.261686 0.415832 0.135055
v 0.000000 0.383939 0.126582
v 0.000000 0.383939 -0.126582
v 0.000000 0.533111 -0.135055
v 0.000000 0.533111 0.135055
v 0.180060 0.178913 0.131113
v 0.336100 0.148630 0.135961
v 0.336100 0.148630 -0.135961
v 0.180060 0.178913 -0.131113
vn -0.6311 0.0067 0.7757
vn -0.6066 0.0450 0.7937
vn -0.6050 0.0464 0.7949
vn -0.6299 0.0110 0.7766
vn -0.6335 -0.0234 0.7734
vn -0.6329 -0.0262 0.7738
vn 0.4841 0.0272 0.8746
vn 0.4779 0.0252 0.8781
vn 0.4771 0.0290 0.8784
vn 0.4834 0.0243 0.8750
vn 0.4852 0.0814 0.8706
vn 0.4853 0.0797 0.8707
vn -1.0000 -0.0037 0.0000
vn -0.9997 -0.0236 0.0000
vn -0.9844 -0.0225 -0.1747
vn -0.9852 -0.0041 -0.1716
vn -0.9846 -0.0308 -0.1723
vn -0.9995 -0.0304 0.0000
vn -0.9846 -0.0308 0.1723
vn -0.9852 -0.0041 0.1716
vn -0.9844 -0.0225 0.1747
vn 0.4477 0.1097 0.8874
vn -0.6051 -0.1236 0.7865
vn -0.6040 -0.1269 0.7868
vn -0.4594 -0.3622 0.8110
vn -0.4637 -0.3571 0.8108
vn 0.3378 0.2730 0.9007
vn 0.3397 0.2710 0.9007
vn -0.6051 -0.1236 -0.7865
vn -0.6040 -0.1269 -0.7868
vn -0.6335 -0.0234 -0.7734
vn -0.6329 -0.0262 -0.7738
vn 0.4477 0.1097 -0.8874
vn 0.4779 0.0252 -0.8781
vn 0.4771 0.0290 -0.8784
vn 0.3397 0.2710 -0.9007
vn 0.3378 0.2730 -0.9007
vn -0.4637 -0.3571 -0.8108
vn -0.4594 -0.3622 -0.8110
vn -0.9817 -0.1906 0.0000
vn -0.9661 -0.1859 0.1792
vn -0.9661 -0.1859 -0.1792
vn -0.9295 -0.3209 -0.1818
vn -0.9453 -0.3263 0.0000
vn -0.9295 -0.3209 0.1818
vn 0.9587 0.2843 -0.0000
vn 0.9470 0.2794 -0.1585
vn 0.9859 0.0733 -0.1507
vn 0.9971 0.0762 -0.0000
vn 0.9859 0.0733 0.1507
vn 0.9470 0.2794 0.1585
vn 0.7552 0.6335 0.1684
vn 0.7661 0.6427 -0.0000
vn 0.7552 0.6335 -0.1684
vn -0.3687 -0.9296 0.0000
vn -0.3574 -0.9152 0.1861
vn -0.5426 -0.8185 0.1885
vn -0.5525 -0.8335 0.0000
vn -0.5426 -0.8185 -0.1885
vn -0.3574 -0.9152 -0.1861
vn -0.0000 -0.9840 -0.1782
vn -0.0000 -1.0000 0.0000
vn -0.0000 -0.9840 0.1782
vn 0.4220 0.9066 -0.0000
vn 0.4180 0.8936 -0.1634
vn 0.4180 0.8936 0.1634
vn 0.0000 0.9872 0.1594
vn 0.0000 1.0000 -0.0000
vn 0.0000 0.9872 -0.1594
vn 0.1803 0.4100 0.8941
vn 0.1737 0.4140 0.8935
vn -0.2193 -0.5623 0.7973
vn -0.2305 -0.5563 0.7984
vn 0.0000 -0.6189 0.7855
vn -0.0000 0.4609 0.8874
vn -0.2193 -0.5623 -0.7973
vn -0.2305 -0.5563 -0.7984
vn 0.1803 0.4100 -0.8941
vn 0.1737 0.4140 -0.8936
vn -0.0000 0.4609 -0.8874
vn -0.0000 -0.6189 -0.7855
vn 0.9999 0.0132 0.0000
vn 0.9884 0.0126 -0.1511
vn 0.9875 -0.0071 -0.1578
vn 1.0000 -0.0073 0.0000
vn 0.9875 -0.0071 0.1578
vn 0.9884 0.0126 0.1511
vn 0.4841 0.0272 -0.8746
vn 0.4853 0.0797 -0.8707
vn 0.4852 0.0814 -0.8706
vn 0.4834 0.0243 -0.8750
vn -0.6311 0.0067 -0.7757
vn -0.6299 0.0110 -0.7766
vn -0.6050 0.0464 -0.7949
vn -0.6066 0.0450 -0.7937
vn -0.5529 0.0763 0.8298
vn -0.5571 0.0746 0.8271
vn 0.4873 0.1082 0.8665
vn 0.4889 0.1033 0.8662
vn 0.5139 0.0095 0.8578
vn 0.5076 0.0354 0.8608
vn -0.4923 0.0854 0.8662
vn -0.5000 0.0861 0.8617
vn -1.0000 -0.0084 -0.0000
vn -0.9836 -0.0077 -0.1805
vn -0.9836 -0.0077 0.1805
vn -0.9793 0.0856 0.1834
vn -0.9964 0.0844 -0.0000
vn -0.9793 0.0856 -0.1834
vn 0.5115 -0.1274 0.8498
vn 0.5084 -0.1429 0.8492
vn 0.4040 -0.3386 0.8498
vn 0.4104 -0.3307 0.8498
vn -0.4477 0.1367 0.8837
vn -0.3534 0.2845 0.8912
vn -0.3576 0.2791 0.8912
vn -0.4505 0.1298 0.8833
vn -0.4477 0.1367 -0.8837
vn -0.4923 0.0854 -0.8662
vn -0.5000 0.0861 -0.8617
vn -0.4505 0.1298 -0.8833
vn -0.3576 0.2791 -0.8912
vn -0.3534 0.2845 -0.8912
vn 0.5115 -0.1274 -0.8498
vn 0.4104 -0.3307 -0.8498
vn 0.4040 -0.3386 -0.8498
vn 0.5084 -0.1429 -0.8492
vn 0.5139 0.0095 -0.8578
vn 0.5076 0.0354 -0.8608
vn -0.9654 0.2608 0.0000
vn -0.9481 0.2595 0.1839
vn -0.9076 0.3785 0.1817
vn -0.9230 0.3849 0.0000
vn -0.9076 0.3785 -0.1817
vn -0.9481 0.2595 -0.1839
vn 0.9514 -0.3081 0.0000
vn 0.9941 -0.1084 -0.0000
vn 0.9774 -0.0992 -0.1865
vn 0.9358 -0.2940 -0.1943
vn 0.7459 -0.6359 -0.1983
vn 0.7574 -0.6530 0.0000
vn 0.7459 -0.6359 0.1983
vn 0.9358 -0.2940 0.1943
vn 0.9774 -0.0992 0.1865
vn -0.4140 0.9103 0.0000
vn -0.5971 0.8022 0.0000
vn -0.5873 0.7890 0.1807
vn -0.4043 0.8962 0.1829
vn 0.0000 0.9835 0.1809
vn 0.0000 0.9835 -0.1809
vn -0.4043 0.8962 -0.1829
vn -0.5873 0.7890 -0.1807
vn 0.3969 -0.9178 0.0000
vn 0.3929 -0.8989 -0.1940
vn 0.0000 -0.9813 -0.1924
vn 0.0000 -0.9813 0.1924
vn 0.3929 -0.8989 0.1940
vn 0.2209 -0.4889 0.8439
vn 0.2130 -0.4927 0.8437
vn -0.0000 -0.5403 0.8414
vn -0.1864 0.4241 0.8862
vn -0.0000 0.4671 0.8842
vn -0.1930 0.4208 0.8864
vn -0.1864 0.4241 -0.8862
vn -0.1930 0.4208 -0.8864
vn 0.0000 0.4671 -0.8842
vn 0.2209 -0.4889 -0.8439
vn -0.0000 -0.5403 -0.8414
vn 0.2130 -0.4927 -0.8437
vn 0.9995 -0.0312 -0.0000
vn 0.9847 -0.0278 -0.1718
vn 0.9847 -0.0278 0.1718
vn 0.4873 0.1082 -0.8665
vn 0.4889 0.1033 -0.8662
vn -0.5529 0.0763 -0.8298
vn -0.5571 0.0746 -0.8271
vn 0.6311 0.0067 0.7757
vn 0.6299 0.0110 0.7766
vn 0.6050 0.0464 0.7949
vn 0.6066 0.0450 0.7937
vn -0.4841 0.0272 0.8746
vn -0.4853 0.0797 0.8707
vn -0.4852 0.0814 0.8706
vn -0.4834 0.0243 0.8750
vn -0.4771 0.0290 0.8784
vn -0.4779 0.0252 0.8781
vn 0.6329 -0.0262 0.7738
vn 0.6335 -0.0234 0.7734
vn 1.0000 -0.0037 0.0000
vn 0.9852 -0.0041 -0.1716
vn 0.9844 -0.0225 -0.1747
vn 0.9997 -0.0236 0.0000
vn 0.9844 -0.0225 0.1747
vn 0.9852 -0.0041 0.1716
vn 0.9846 -0.0308 0.1723
vn 0.9995 -0.0304 0.0000
vn 0.9846 -0.0308 -0.1723
vn -0.4477 0.1097 0.8874
vn -0.3397 0.2710 0.9007
vn -0.3378 0.2730 0.9007
vn 0.6051 -0.1236 0.7865
vn 0.4637 -0.3571 0.8108
vn 0.4594 -0.3622 0.8110
vn 0.6040 -0.1269 0.7868
vn 0.6051 -0.1236 -0.7865
vn 0.6329 -0.0262 -0.7738
vn 0.6335 -0.0234 -0.7734
vn 0.6040 -0.1269 -0.7868
vn 0.4594 -0.3622 -0.8110
vn 0.4637 -0.3571 -0.8108
vn -0.4477 0.1097 -0.8874
vn -0.3378 0.2730 -0.9007
vn -0.3397 0.2710 -0.9007
vn -0.4771 0.0290 -0.8784
vn -0.4779 0.0252 -0.8781
vn 0.9817 -0.1906 0.0000
vn 0.9661 -0.1859 0.1792
vn 0.9295 -0.3209 0.1818
vn 0.9453 -0.3263 0.0000
vn 0.9295 -0.3209 -0.1818
vn 0.9661 -0.1859 -0.1792
vn -0.9587 0.2843 -0.0000
vn -0.9971 0.0762 -0.0000
vn -0.9859 0.0733 -0.1507
vn -0.9470 0.2794 -0.1585
vn -0.7552 0.6335 -0.1684
vn -0.7661 0.6427 -0.0000
vn -0.7552 0.6335 0.1684
vn -0.9470 0.2794 0.1585
vn -0.9859 0.0733 0.1507
vn 0.3687 -0.9296 0.0000
vn 0.5525 -0.8335 0.0000
vn 0.5426 -0.8185 0.1885
vn 0.3574 -0.9152 0.1861
vn 0.3574 -0.9152 -0.1861
vn 0.5426 -0.8185 -0.1885
vn -0.4220 0.9066 -0.0000
vn -0.4180 0.8936 -0.1634
vn -0.4180 0.8936 0.1634
vn -0.1803 0.4100 0.8941
vn -0.1737 0.4140 0.8935
vn 0.2193 -0.5623 0.7973
vn 0.2305 -0.5563 0.7984
vn 0.2193 -0.5623 -0.7973
vn 0.2305 -0.5563 -0.7984
vn -0.1803 0.4100 -0.8941
vn -0.1737 0.4140 -0.8936
vn -0.9999 0.0132 -0.0000
vn -1.0000 -0.0073 0.0000
vn -0.9875 -0.0071 -0.1578
vn -0.9884 0.0126 -0.1511
vn -0.9884 0.0126 0.1511
vn -0.9875 -0.0071 0.1578
vn -0.4841 0.0272 -0.8746
vn -0.4834 0.0243 -0.8750
vn -0.4852 0.0814 -0.8706
vn -0.4853 0.0797 -0.8707
vn 0.6311 0.0067 -0.7757
vn 0.6066 0.0450 -0.7937
vn 0.6050 0.0464 -0.7949
vn 0.6299 0.0110 -0.7766
vn 0.5529 0.0763 0.8298
vn 0.5571 0.0746 0.8271
vn 0.5000 0.0861 0.8617
vn 0.4923 0.0854 0.8662
vn -0.4873 0.1082 0.8665
vn -0.5076 0.0354 0.8608
vn -0.5139 0.0095 0.8578
vn -0.4889 0.1033 0.8662
vn 1.0000 -0.0084 -0.0000
vn 0.9836 -0.0077 -0.1805
vn 0.9793 0.0856 -0.1834
vn 0.9964 0.0844 -0.0000
vn 0.9793 0.0856 0.1834
vn 0.9836 -0.0077 0.1805
vn -0.5115 -0.1274 0.8498
vn -0.5084 -0.1429 0.8492
vn 0.4477 0.1367 0.8837
vn 0.4505 0.1298 0.8833
vn 0.3576 0.2791 0.8912
vn 0.3534 0.2845 0.8912
vn -0.4104 -0.3307 0.8498
vn -0.4040 -0.3386 0.8498
vn 0.4477 0.1367 -0.8837
vn 0.4505 0.1298 -0.8833
vn 0.5000 0.0861 -0.8617
vn 0.4923 0.0854 -0.8662
vn -0.5115 -0.1274 -0.8498
vn -0.5076 0.0354 -0.8608
vn -0.5139 0.0095 -0.8578
vn -0.5084 -0.1429 -0.8492
vn -0.4040 -0.3386 -0.8498
vn -0.4104 -0.3307 -0.8498
vn 0.3534 0.2845 -0.8912
vn 0.3576 0.2791 -0.8912
vn 0.9654 0.2608 0.0000
vn 0.9481 0.2595 0.1839
vn 0.9481 0.2595 -0.1839
vn 0.9076 0.3785 -0.1817
vn 0.9230 0.3849 0.0000
vn 0.9076 0.3785 0.1817
vn -0.9514 -0.3081 0.0000
vn -0.9358 -0.2940 -0.1943
vn -0.9774 -0.0992 -0.1865
vn -0.9941 -0.1084 -0.0000
vn -0.9774 -0.0992 0.1865
vn -0.9358 -0.2940 0.1943
vn -0.7459 -0.6359 0.1983
vn -0.7574 -0.6530 0.0000
vn -0.7459 -0.6359 -0.1983
vn 0.4140 0.9103 0.0000
vn 0.4043 0.8962 0.1829
vn 0.5873 0.7890 0.1807
vn 0.5971 0.8022 0.0000
vn 0.5873 0.7890 -0.1807
vn 0.4043 0.8962 -0.1829
vn -0.3969 -0.9178 0.0000
vn -0.3929 -0.8989 -0.1940
vn -0.3929 -0.8989 0.1940
vn -0.2209 -0.4889 0.8439
vn -0.2130 -0.4927 0.8437
vn 0.1864 0.4241 0.8862
vn 0.1930 0.4208 0.8864
vn 0.1864 0.4241 -0.8862
vn 0.1930 0.4208 -0.8864
vn -0.2209 -0.4889 -0.8439
vn -0.2130 -0.4927 -0.8437
vn -0.9995 -0.0312 0.0000
vn -0.9847 -0.0278 -0.1718
vn -0.9847 -0.0278 0.1718
vn -0.4873 0.1082 -0.8665
vn -0.4889 0.1033 -0.8662
vn 0.5529 0.0763 -0.8298
vn 0.5571 0.0746 -0.8271
usemtl White
s 1
f 1//1 52//2 155//3 70//4
f 1//1 70//4 152//5 76//6
f 1//7 76//8 151//9 57//10
f 1//7 57//10 145//11 52//12
f 2//13 49//14 156//15 59//16
f 2//13 59//16 153//17 74//18
f 2//13 74//18 152//19 70//20
f 2//13 70//20 155//21 49//14
f 3//22 69//22 151//9 76//8
f 3//23 76//6 152//5 58//24
f 3//23 58//24 150//25 56//26
f 3//22 56//27 147//28 69//22
f 4//29 71//30 153//31 75//32
f 4//33 75//34 154//35 60//33
f 4//33 60//33 148//36 54//37
f 4//29 54//38 149//39 71//30
f 5//40 58//41 152//19 74//18
f 5//40 74//18 153//17 71//42
f 5//40 71//42 149//43 55//44
f 5//40 55//44 150//45 58//41
f 6//46 60//47 154//48 73//49
f 6//46 73//49 151//50 69//51
f 6//46 69//51 147//52 53//53
f 6//46 53//53 148//54 60//47
f 7//55 65//56 150//57 55//58
f 7//55 55//58 149//59 66//60
f 7//55 66//60 173//61 63//62
f 7//55 63//62 174//63 65//56
f 8//64 67//65 148//54 53//53
f 8//64 53//53 147//52 68//66
f 8//64 68//66 171//67 61//68
f 8//64 61//68 172//69 67//65
f 9//70 68//71 147//28 56//27
f 9//72 56//26 150//25 65//73
f 9//72 65//73 174//74 64//74
f 9//70 64//75 171//75 68//71
f 10//76 66//77 149//39 54//38
f 10//78 54//37 148//36 67//79
f 10//78 67//79 172//80 62//80
f 10//76 62//81 173//81 66//77
f 11//82 72//83 146//84 50//85
f 11//82 50//85 145//86 57//87
f 11//82 57//87 151//50 73//49
f 11//82 73//49 154//48 72//83
f 12//88 51//89 146//90 72//91
f 12//88 72//91 154//35 75//34
f 12//92 75//32 153//31 59//93
f 12//92 59//93 156//94 51//95
f 13//96 95//97 155//3 52//2
f 13//98 52//12 145//11 93//99
f 13//98 93//99 161//100 100//101
f 13//96 100//102 162//103 95//97
f 14//104 83//105 156//15 49//14
f 14//104 49//14 155//21 95//106
f 14//104 95//106 162//107 98//108
f 14//104 98//108 163//109 83//105
f 15//110 100//101 161//100 94//111
f 15//110 94//111 157//112 80//113
f 15//114 80//115 160//116 82//117
f 15//114 82//117 162//103 100//102
f 16//118 99//119 163//120 96//121
f 16//118 96//121 159//122 78//123
f 16//124 78//125 158//126 84//127
f 16//124 84//127 164//128 99//129
f 17//130 98//108 162//107 82//131
f 17//130 82//131 160//132 79//133
f 17//130 79//133 159//134 96//135
f 17//130 96//135 163//109 98//108
f 18//136 97//137 164//138 84//139
f 18//136 84//139 158//140 77//141
f 18//136 77//141 157//142 94//143
f 18//136 94//143 161//144 97//137
f 19//145 79//146 160//147 89//148
f 19//145 89//148 188//149 87//68
f 19//145 87//68 187//150 90//151
f 19//145 90//151 159//152 79//146
f 20//153 77//141 158//140 91//154
f 20//153 91//154 186//155 85//62
f 20//153 85//62 185//156 92//157
f 20//153 92//157 157//142 77//141
f 21//158 80//113 157//112 92//159
f 21//158 92//159 185//160 88//160
f 21//161 88//162 188//162 89//163
f 21//161 89//163 160//116 80//115
f 22//164 78//123 159//122 90//165
f 22//164 90//165 187//166 86//166
f 22//167 86//168 186//168 91//169
f 22//167 91//169 158//126 78//125
f 23//170 50//85 146//84 81//171
f 23//170 81//171 164//138 97//137
f 23//170 97//137 161//144 93//172
f 23//170 93//172 145//86 50//85
f 24//173 81//174 146//90 51//89
f 24//175 51//95 156//94 83//176
f 24//175 83//176 163//120 99//119
f 24//173 99//129 164//128 81//174
f 25//177 118//178 179//179 104//180
f 25//181 104//182 165//183 109//184
f 25//181 109//184 175//185 124//186
f 25//177 124//187 176//188 118//178
f 26//189 111//190 180//191 101//192
f 26//189 101//192 179//193 118//194
f 26//189 118//194 176//195 122//196
f 26//189 122//196 177//197 111//190
f 27//198 124//186 175//185 117//198
f 27//198 117//198 167//199 108//200
f 27//201 108//202 170//203 110//204
f 27//201 110//204 176//188 124//187
f 28//205 123//206 177//207 119//208
f 28//205 119//208 169//209 106//210
f 28//211 106//212 168//213 112//211
f 28//211 112//211 178//214 123//215
f 29//216 122//196 176//195 110//217
f 29//216 110//217 170//218 107//219
f 29//216 107//219 169//220 119//221
f 29//216 119//221 177//197 122//196
f 30//222 121//223 178//224 112//225
f 30//222 112//225 168//226 105//227
f 30//222 105//227 167//228 117//229
f 30//222 117//229 175//230 121//223
f 31//231 107//232 170//233 113//234
f 31//231 113//234 174//63 63//62
f 31//231 63//62 173//61 114//235
f 31//231 114//235 169//236 107//232
f 32//237 105//227 168//226 115//238
f 32//237 115//238 172//69 61//68
f 32//237 61//68 171//67 116//239
f 32//237 116//239 167//228 105//227
f 33//240 108//200 167//199 116//241
f 33//240 116//241 171//75 64//75
f 33//242 64//74 174//74 113//243
f 33//242 113//243 170//203 108//202
f 34//244 106//210 169//209 114//245
f 34//244 114//245 173//81 62//81
f 34//246 62//80 172//80 115//247
f 34//246 115//247 168//213 106//212
f 35//248 102//249 166//250 120//251
f 35//248 120//251 178//224 121//223
f 35//248 121//223 175//230 109//252
f 35//248 109//252 165//253 102//249
f 36//254 120//255 166//256 103//257
f 36//258 103//259 180//260 111//261
f 36//258 111//261 177//207 123//206
f 36//254 123//215 178//214 120//255
f 37//262 104//180 179//179 139//263
f 37//262 139//263 190//264 144//265
f 37//266 144//267 189//268 137//269
f 37//266 137//269 165//183 104//182
f 38//270 101//192 180//191 131//271
f 38//270 131//271 191//272 142//273
f 38//270 142//273 190//274 139//275
f 38//270 139//275 179//193 101//192
f 39//276 138//277 189//268 144//267
f 39//278 144//265 190//264 130//279
f 39//278 130//279 184//280 128//281
f 39//276 128//282 181//283 138//277
f 40//284 140//285 191//286 143//287
f 40//288 143//289 192//290 132//291
f 40//288 132//291 182//292 126//293
f 40//284 126//294 183//295 140//285
f 41//296 130//297 190//274 142//273
f 41//296 142//273 191//272 140//298
f 41//296 140//298 183//299 127//300
f 41//296 127//300 184//301 130//297
f 42//302 132//303 192//304 141//305
f 42//302 141//305 189//306 138//307
f 42//302 138//307 181//308 125//309
f 42//302 125//309 182//310 132//303
f 43//311 133//312 184//313 127//314
f 43//311 127//314 183//315 134//316
f 43//311 134//316 187//150 87//68
f 43//311 87//68 188//149 133//312
f 44//317 135//318 182//310 125//309
f 44//317 125//309 181//308 136//319
f 44//317 136//319 185//156 85//62
f 44//317 85//62 186//155 135//318
f 45//320 136//321 181//283 128//282
f 45//322 128//281 184//280 133//323
f 45//322 133//323 188//162 88//162
f 45//320 88//160 185//160 136//321
f 46//324 134//325 183//295 126//294
f 46//326 126//293 182//292 135//327
f 46//326 135//327 186//168 86//168
f 46//324 86//166 187//166 134//325
f 47//328 129//329 166//250 102//249
f 47//328 102//249 165//253 137//330
f 47//328 137//330 189//306 141//305
f 47//328 141//305 192//304 129//329
f 48//331 103//257 166//256 129//332
f 48//331 129//332 192//290 143//289
f 48//333 143//287 191//286 131//334
f 48//333 131//334 180//260 103//259
