# Blender v2.79 (sub 0) OBJ File: 'Numbers_4.blend'
# www.blender.org
mtllib Numbers_4.mtl
o Numbers_4_Cube.034
v 0.105845 0.460742 0.000000
v 0.227768 0.460742 -0.149814
v 0.349691 0.460742 0.000000
v 0.227768 0.460742 0.149814
v 0.227768 -0.559754 0.000000
v 0.227768 0.533049 0.000000
v 0.227768 0.023166 0.149814
v 0.349691 0.023166 0.000000
v 0.227768 0.023166 -0.149814
v -0.080402 0.019577 -0.149814
v 0.105845 -0.481058 0.000000
v 0.227768 -0.481058 -0.149814
v 0.349691 -0.481058 0.000000
v 0.227768 -0.481058 0.149814
v 0.105845 -0.239597 0.000000
v 0.227768 -0.239597 -0.149814
v 0.349691 -0.239597 0.000000
v 0.227768 -0.239597 0.149814
v -0.223328 0.008416 -0.149814
v -0.080402 0.019577 0.149814
v -0.072577 -0.080117 0.000000
v -0.088228 0.119271 0.000000
v -0.340370 -0.000724 0.000000
v -0.223328 0.008416 0.149814
v -0.215503 -0.091278 0.000000
v -0.273336 0.477574 -0.149814
v -0.273336 0.565555 0.000000
v -0.390736 0.477574 0.000000
v -0.273336 0.477574 0.149814
v -0.155935 0.477574 0.000000
v -0.000091 0.122228 0.000000
v 0.007735 -0.077464 0.000000
v 0.003822 0.022382 0.149814
v 0.003822 0.022382 -0.149814
v 0.084004 0.023166 -0.149814
v 0.084004 0.023166 0.149814
v 0.084004 -0.076833 0.000000
v 0.084004 0.123165 0.000000
v -0.135023 0.253421 0.000000
v -0.252245 0.248851 0.149814
v -0.369466 0.244282 0.000000
v -0.252245 0.248851 -0.149814
v 0.227768 0.255799 0.149814
v 0.349691 0.255799 0.000000
v 0.227768 0.255799 -0.149814
v 0.105845 0.255799 0.000000
v 0.136326 -0.540080 0.000000
v 0.136326 0.460742 0.112361
v 0.136326 0.514972 0.000000
v 0.136326 -0.481058 -0.112360
v 0.227768 -0.540080 -0.112360
v 0.227768 0.514972 -0.112360
v 0.319210 -0.481058 -0.112360
v 0.319210 -0.540080 0.000000
v 0.319210 0.514972 0.000000
v 0.319210 -0.481058 0.112361
v 0.227768 -0.540080 0.112361
v 0.227768 0.514972 0.112361
v 0.130866 0.023166 0.149814
v 0.136326 0.255799 -0.112360
v 0.319210 0.255799 -0.112360
v 0.319210 0.255799 0.112361
v 0.227768 0.131324 0.149814
v 0.349691 0.131324 0.000000
v 0.227768 0.131324 -0.149814
v 0.100385 0.156323 0.000000
v 0.136326 -0.239597 -0.112360
v 0.319210 -0.239597 -0.112360
v 0.319210 -0.239597 0.112361
v 0.136326 -0.481058 0.112361
v 0.105845 -0.381344 0.000000
v 0.227768 -0.381344 -0.149814
v 0.349691 -0.381344 0.000000
v 0.227768 -0.381344 0.149814
v 0.136326 -0.239597 0.112361
v 0.130866 0.023166 -0.149814
v 0.319210 0.023166 -0.112360
v 0.319210 0.023166 0.112361
v 0.100385 -0.117524 0.000000
v 0.227768 -0.092524 -0.149814
v 0.349691 -0.092524 0.000000
v 0.227768 -0.092524 0.149814
v -0.129076 0.015776 0.149814
v -0.112868 0.151798 0.000000
v -0.129076 0.015776 -0.149814
v -0.121250 -0.083917 0.000000
v -0.074533 -0.055193 -0.112360
v 0.084004 0.098165 -0.112360
v -0.086271 0.094347 0.112361
v 0.084004 -0.051833 0.112361
v -0.311110 0.001561 0.112361
v -0.351557 0.110375 0.000000
v -0.311110 0.001561 -0.112360
v -0.305241 -0.073209 0.000000
v -0.217459 -0.066354 -0.112360
v -0.234470 0.118372 -0.149814
v -0.234470 0.118372 0.149814
v -0.217459 -0.066354 0.112361
v -0.185285 0.543560 0.000000
v -0.361386 0.543560 0.000000
v -0.273336 0.543560 -0.112360
v -0.273336 0.543560 0.112361
v -0.361386 0.477574 -0.112360
v -0.164329 0.252279 -0.112360
v -0.361386 0.477574 0.112361
v -0.185285 0.477574 0.112361
v 0.006756 -0.052503 -0.112360
v -0.086271 0.094347 -0.112360
v 0.000887 0.097267 0.112361
v -0.074533 -0.055193 0.112361
v -0.053252 0.121021 0.000000
v -0.039557 -0.078443 0.000000
v -0.046404 0.021289 0.149814
v -0.046404 0.021289 -0.149814
v 0.000887 0.097267 -0.112360
v 0.006756 -0.052503 0.112361
v 0.084004 -0.051833 -0.112360
v 0.084004 0.098165 0.112361
v 0.053038 0.022970 -0.149814
v 0.053038 0.022970 0.149814
v 0.054016 -0.076991 0.000000
v 0.052059 0.122930 0.000000
v -0.340160 0.245424 -0.112360
v -0.185285 0.477574 -0.112360
v -0.340160 0.245424 0.112361
v -0.164329 0.252279 0.112361
v -0.150707 0.377545 0.000000
v -0.268063 0.376403 0.149814
v -0.385418 0.375260 0.000000
v -0.268063 0.376403 -0.149814
v 0.136326 0.255799 0.112361
v 0.136326 0.460742 -0.112360
v 0.319210 0.460742 -0.112360
v 0.319210 0.460742 0.112361
v 0.227768 0.373352 0.149814
v 0.349691 0.373352 0.000000
v 0.227768 0.373352 -0.149814
v 0.105845 0.373352 0.000000
v 0.160033 -0.524778 0.083230
v 0.160033 0.500913 0.083230
v 0.160033 -0.524778 -0.083230
v 0.160033 0.500913 -0.083230
v 0.295503 -0.524778 0.083230
v 0.295503 0.500913 0.083230
v 0.295503 -0.524778 -0.083230
v 0.295503 0.500913 -0.083230
v 0.121858 0.128386 0.125844
v 0.121858 0.128386 -0.125844
v 0.319210 0.131324 -0.112360
v 0.319210 0.131324 0.112361
v 0.136326 -0.381344 -0.112360
v 0.319210 -0.381344 -0.112360
v 0.319210 -0.381344 0.112361
v 0.136326 -0.381344 0.112361
v 0.121858 -0.086875 0.125844
v 0.121858 -0.086875 -0.125844
v 0.319210 -0.092524 -0.112360
v 0.319210 -0.092524 0.112361
v -0.123207 -0.058994 0.112361
v -0.130798 0.122130 0.125844
v -0.130798 0.122130 -0.125844
v -0.123207 -0.058994 -0.112360
v -0.284004 -0.052047 0.083230
v -0.322285 0.112374 0.112361
v -0.322285 0.112374 -0.112360
v -0.284004 -0.052047 -0.083230
v -0.208113 0.526452 0.083230
v -0.208113 0.526452 -0.083230
v -0.338558 0.526452 0.083230
v -0.338558 0.526452 -0.083230
v -0.041269 -0.053510 -0.112360
v -0.051540 0.096088 -0.112360
v -0.051540 0.096088 0.112361
v -0.041269 -0.053510 0.112361
v 0.052304 0.097940 -0.112360
v 0.053771 -0.052001 0.112361
v 0.053771 -0.052001 -0.112360
v 0.052304 0.097940 0.112361
v -0.356079 0.375546 -0.112360
v -0.180046 0.377260 -0.112360
v -0.356079 0.375546 0.112361
v -0.180046 0.377260 0.112361
v 0.136326 0.373353 0.112361
v 0.136326 0.373353 -0.112360
v 0.319210 0.373353 -0.112360
v 0.319210 0.373353 0.112361
vn -0.9651 -0.0000 0.2618
vn -0.8004 0.5399 0.2606
vn -0.8004 0.5399 -0.2606
vn -0.9651 -0.0000 -0.2618
vn -0.3790 -0.0000 -0.9254
vn -0.3539 0.5968 -0.7201
vn 0.3539 0.5968 -0.7201
vn 0.3790 0.0000 -0.9254
vn 0.9651 0.0000 -0.2618
vn 0.8004 0.5399 -0.2606
vn 0.8004 0.5399 0.2606
vn 0.9651 0.0000 0.2618
vn 0.3790 0.0000 0.9254
vn 0.3539 0.5968 0.7201
vn -0.3539 0.5968 0.7201
vn -0.3790 -0.0000 0.9254
vn -0.0000 -1.0000 0.0000
vn -0.2500 -0.9682 0.0000
vn -0.2450 -0.9488 -0.1994
vn 0.0000 -0.9786 -0.2056
vn 0.2450 -0.9488 -0.1994
vn 0.2500 -0.9682 -0.0000
vn 0.2450 -0.9488 0.1994
vn 0.0000 -0.9786 0.2056
vn -0.2450 -0.9488 0.1994
vn -0.0000 1.0000 0.0000
vn 0.2308 0.9730 0.0000
vn 0.2268 0.9563 -0.1846
vn 0.0000 0.9819 -0.1896
vn -0.2268 0.9563 -0.1846
vn -0.2308 0.9730 -0.0000
vn -0.2268 0.9563 0.1846
vn 0.0000 0.9819 0.1896
vn 0.2268 0.9563 0.1846
vn 0.1348 0.0015 0.9909
vn 0.0878 -0.0410 0.9953
vn 0.0891 0.0455 0.9950
vn -0.2219 0.1463 0.9640
vn -0.1911 0.0036 0.9816
vn -0.2244 -0.1346 0.9651
vn 0.1348 0.0015 -0.9909
vn 0.0878 -0.0410 -0.9953
vn -0.2244 -0.1346 -0.9651
vn -0.1911 0.0036 -0.9816
vn -0.2219 0.1463 -0.9640
vn 0.0891 0.0455 -0.9950
vn 0.0968 0.3881 -0.9165
vn 0.1128 0.3797 -0.9182
vn -0.0163 0.4467 -0.8945
vn -0.0160 0.4467 -0.8945
vn 0.0287 -0.4459 -0.8946
vn 0.0162 -0.4467 -0.8945
vn 0.0159 -0.4467 -0.8945
vn 0.0286 -0.4459 -0.8946
vn 0.0348 -0.4454 -0.8946
vn 0.1638 0.2165 -0.9625
vn 0.2080 0.1712 -0.9630
vn -0.8192 -0.5077 0.2667
vn -0.8192 -0.5077 -0.2667
vn -0.3642 -0.5642 -0.7410
vn 0.3642 -0.5642 -0.7410
vn 0.8192 -0.5077 -0.2667
vn 0.8192 -0.5077 0.2667
vn 0.3642 -0.5642 0.7410
vn -0.3642 -0.5642 0.7410
vn -0.9991 -0.0421 0.0000
vn -0.9694 -0.0415 0.2420
vn -0.9175 -0.3328 0.2179
vn -0.9532 -0.3024 -0.0000
vn -0.9175 -0.3328 -0.2179
vn -0.9694 -0.0415 -0.2420
vn -0.3391 -0.0287 -0.9403
vn -0.3384 -0.0291 -0.9406
vn -0.3391 -0.0287 0.9403
vn -0.3384 -0.0291 0.9406
vn 0.1130 0.1161 -0.9868
vn 0.2121 0.1124 -0.9708
vn -0.2444 -0.3378 -0.9090
vn -0.1639 -0.4831 -0.8601
vn -0.3632 -0.5008 -0.7857
vn -0.3885 -0.2652 -0.8825
vn -0.3894 -0.0462 -0.9199
vn -0.3894 -0.0458 -0.9199
vn 0.0287 -0.4459 0.8946
vn 0.0286 -0.4459 0.8946
vn 0.0159 -0.4467 0.8945
vn 0.0162 -0.4467 0.8945
vn 0.0968 0.3881 0.9165
vn -0.0160 0.4467 0.8945
vn -0.0163 0.4467 0.8945
vn 0.1128 0.3797 0.9182
vn 0.2080 0.1712 0.9630
vn 0.1638 0.2165 0.9625
vn 0.0348 -0.4454 0.8946
vn 0.0642 -0.9979 0.0000
vn 0.0627 -0.9741 -0.2172
vn 0.0349 -0.9755 -0.2170
vn 0.0356 -0.9994 -0.0000
vn 0.0349 -0.9755 0.2170
vn 0.0627 -0.9741 0.2172
vn 0.0760 -0.9732 0.2172
vn 0.0779 -0.9970 0.0000
vn 0.0760 -0.9732 -0.2172
vn -0.0500 0.9987 0.0000
vn -0.0488 0.9749 0.2171
vn -0.0354 0.9755 0.2170
vn -0.0364 0.9993 0.0000
vn -0.0354 0.9755 -0.2170
vn -0.0488 0.9749 -0.2171
vn 0.6805 0.7327 -0.0000
vn 0.6655 0.7166 -0.2088
vn 0.6655 0.7166 0.2088
vn -0.9549 -0.2969 -0.0000
vn -0.8362 -0.4758 0.2729
vn -0.9255 -0.2689 0.2668
vn -0.9611 -0.1127 0.2522
vn -0.9932 -0.1167 0.0000
vn -0.9611 -0.1127 -0.2522
vn -0.9255 -0.2689 -0.2668
vn -0.8362 -0.4758 -0.2729
vn -0.2444 -0.3378 0.9090
vn -0.1639 -0.4831 0.8601
vn 0.1130 0.1161 0.9868
vn 0.2121 0.1124 0.9708
vn -0.3894 -0.0458 0.9199
vn -0.3894 -0.0462 0.9199
vn -0.3885 -0.2652 0.8825
vn -0.3632 -0.5008 0.7857
vn -0.0824 -0.9966 0.0000
vn -0.0642 -0.9705 -0.2324
vn -0.0642 -0.9705 0.2324
vn -0.2403 -0.9393 0.2450
vn -0.2478 -0.9688 0.0000
vn -0.2403 -0.9393 -0.2450
vn 0.3913 0.0204 -0.9200
vn 0.3908 0.0352 -0.9198
vn 0.3909 0.0339 -0.9198
vn -0.3913 -0.0204 -0.9200
vn -0.3908 -0.0348 -0.9198
vn -0.3909 -0.0336 -0.9198
vn -0.3887 0.5187 -0.7615
vn 0.3887 0.5187 -0.7615
vn 0.2871 0.9579 0.0000
vn 0.2801 0.9345 0.2195
vn 0.2801 0.9345 -0.2195
vn -0.2871 0.9579 -0.0000
vn -0.2801 0.9345 -0.2195
vn -0.2801 0.9345 0.2195
vn -0.9780 0.2088 -0.0000
vn -0.9480 0.1724 -0.2674
vn -0.9640 -0.0842 -0.2521
vn -0.9963 -0.0862 -0.0000
vn -0.9640 -0.0842 0.2521
vn -0.9480 0.1724 0.2674
vn -0.8503 0.4538 0.2665
vn -0.8503 0.4538 -0.2665
vn -0.3913 -0.0204 0.9200
vn -0.3909 -0.0336 0.9198
vn -0.3908 -0.0348 0.9198
vn 0.3913 0.0204 0.9200
vn 0.3909 0.0339 0.9198
vn 0.3908 0.0352 0.9198
vn 0.3887 0.5187 0.7615
vn -0.3887 0.5187 0.7615
vn 0.9658 0.2593 0.0000
vn 0.9364 0.2308 0.2643
vn 0.9639 0.0854 0.2521
vn 0.9960 0.0891 0.0000
vn 0.9639 0.0854 -0.2521
vn 0.9364 0.2308 -0.2643
vn 0.8503 0.4538 -0.2665
vn 0.8503 0.4538 0.2665
vn -0.0180 0.9998 0.0000
vn -0.0175 0.9760 0.2170
vn -0.0100 0.9761 0.2171
vn -0.0102 0.9999 0.0000
vn -0.0100 0.9761 -0.2171
vn -0.0175 0.9760 -0.2170
vn 0.0156 -0.9999 0.0000
vn 0.0153 -0.9761 -0.2170
vn 0.0077 -0.9761 -0.2171
vn 0.0079 -1.0000 0.0000
vn 0.0077 -0.9761 0.2171
vn 0.0153 -0.9761 0.2170
vn 0.0073 -0.4471 0.8945
vn 0.0039 -0.4469 0.8946
vn -0.0077 0.4470 0.8945
vn -0.0043 0.4469 0.8946
vn -0.0078 0.4470 0.8945
vn -0.0077 0.4470 -0.8945
vn -0.0078 0.4470 -0.8945
vn -0.0043 0.4469 -0.8946
vn 0.0073 -0.4471 -0.8945
vn 0.0039 -0.4469 -0.8946
vn -0.1294 0.3779 -0.9167
vn -0.1452 0.3687 -0.9182
vn -0.1340 -0.3738 -0.9178
vn -0.1521 -0.3633 -0.9192
vn -0.1340 -0.3738 0.9178
vn -0.1521 -0.3633 0.9192
vn -0.1294 0.3779 0.9167
vn -0.1452 0.3687 0.9182
vn -0.8299 -0.5578 -0.0000
vn -0.8130 -0.5465 -0.2010
vn -0.8130 -0.5465 0.2010
vn 0.0054 -1.0000 0.0000
vn 0.0053 -0.9761 0.2171
vn 0.0053 -0.9761 -0.2171
vn -0.7813 0.6241 0.0000
vn -0.7648 0.6109 0.2047
vn -0.7648 0.6109 -0.2047
vn -0.0072 1.0000 0.0000
vn -0.0070 0.9761 -0.2171
vn -0.0070 0.9761 0.2171
vn 0.9823 0.1874 0.0000
vn 0.9549 0.1813 0.2353
vn 0.9458 0.2400 0.2186
vn 0.9693 0.2459 0.0000
vn 0.9458 0.2400 -0.2186
vn 0.9549 0.1813 -0.2353
vn -0.3897 -0.0505 0.9196
vn -0.3898 -0.0502 0.9195
vn 0.3480 0.0769 0.9343
vn 0.3423 0.0807 0.9361
vn -0.9919 -0.1269 0.0000
vn -0.9600 -0.1230 -0.2517
vn -0.9600 -0.1230 0.2517
vn 0.3480 0.0769 -0.9343
vn 0.3423 0.0807 -0.9361
vn -0.3897 -0.0505 -0.9196
vn -0.3898 -0.0502 -0.9195
vn -0.3387 0.0341 0.9403
vn -0.3379 0.0348 0.9405
vn -0.3387 0.0341 -0.9403
vn -0.3379 0.0348 -0.9405
vn -0.9987 0.0510 -0.0000
vn -0.9949 0.1010 -0.0000
vn -0.9698 0.0984 0.2231
vn -0.9689 0.0504 0.2423
vn -0.9689 0.0504 -0.2423
vn -0.9698 0.0984 -0.2231
usemtl White
s 1
f 1//1 138//1 183//1 48//1
f 1//2 48//2 140//2 49//2
f 1//3 49//3 142//3 132//3
f 1//4 132//4 184//4 138//4
f 2//5 137//5 184//5 132//5
f 2//6 132//6 142//6 52//6
f 2//7 52//7 146//7 133//7
f 2//8 133//8 185//8 137//8
f 3//9 136//9 185//9 133//9
f 3//10 133//10 146//10 55//10
f 3//11 55//11 144//11 134//11
f 3//12 134//12 186//12 136//12
f 4//13 135//13 186//13 134//13
f 4//14 134//14 144//14 58//14
f 4//15 58//15 140//15 48//15
f 4//16 48//16 183//16 135//16
f 5//17 47//18 141//19 51//20
f 5//17 51//20 145//21 54//22
f 5//17 54//22 143//23 57//24
f 5//17 57//24 139//25 47//18
f 6//26 55//27 146//28 52//29
f 6//26 52//29 142//30 49//31
f 6//26 49//31 140//32 58//33
f 6//26 58//33 144//34 55//27
f 7//35 82//36 158//13 78//13
f 7//35 78//13 150//13 63//37
f 7//35 63//37 147//38 59//39
f 7//35 59//39 155//40 82//36
f 8//9 81//9 157//9 77//9
f 8//9 77//9 149//9 64//9
f 8//12 64//12 150//12 78//12
f 8//12 78//12 158//12 81//12
f 9//41 80//42 156//43 76//44
f 9//41 76//44 148//45 65//46
f 9//41 65//46 149//8 77//8
f 9//41 77//8 157//8 80//42
f 10//47 108//48 172//49 114//50
f 10//51 114//52 171//53 87//54
f 10//51 87//54 162//55 85//55
f 10//47 85//56 161//57 108//48
f 11//58 47//58 139//58 70//58
f 11//1 70//1 154//1 71//1
f 11//4 71//4 151//4 50//4
f 11//59 50//59 141//59 47//59
f 12//60 51//60 141//60 50//60
f 12//5 50//5 151//5 72//5
f 12//8 72//8 152//8 53//8
f 12//61 53//61 145//61 51//61
f 13//62 54//62 145//62 53//62
f 13//9 53//9 152//9 73//9
f 13//12 73//12 153//12 56//12
f 13//63 56//63 143//63 54//63
f 14//64 57//64 143//64 56//64
f 14//13 56//13 153//13 74//13
f 14//16 74//16 154//16 70//16
f 14//65 70//65 139//65 57//65
f 15//66 71//1 154//1 75//67
f 15//66 75//67 155//68 79//69
f 15//66 79//69 156//70 67//71
f 15//66 67//71 151//4 71//4
f 16//72 72//5 151//5 67//73
f 16//72 67//73 156//43 80//42
f 16//8 80//42 157//8 68//8
f 16//8 68//8 152//8 72//8
f 17//9 73//9 152//9 68//9
f 17//9 68//9 157//9 81//9
f 17//12 81//12 158//12 69//12
f 17//12 69//12 153//12 73//12
f 18//13 74//13 153//13 69//13
f 18//13 69//13 158//13 82//36
f 18//74 82//36 155//40 75//75
f 18//74 75//75 154//16 74//16
f 19//76 96//77 161//57 85//56
f 19//78 85//55 162//55 95//79
f 19//78 95//79 166//80 93//81
f 19//78 93//81 165//82 96//83
f 20//84 110//85 174//86 113//87
f 20//88 113//89 173//90 89//91
f 20//88 89//91 160//92 83//93
f 20//84 83//94 159//94 110//85
f 21//95 87//96 171//97 112//98
f 21//95 112//98 174//99 110//100
f 21//95 110//100 159//101 86//102
f 21//95 86//102 162//103 87//96
f 22//104 89//105 173//106 111//107
f 22//104 111//107 172//108 108//109
f 22//110 108//111 161//111 84//110
f 22//110 84//110 160//112 89//112
f 23//113 94//114 163//114 91//115
f 23//113 91//115 164//116 92//117
f 23//113 92//117 165//118 93//119
f 23//113 93//119 166//120 94//120
f 24//121 98//122 159//94 83//94
f 24//123 83//93 160//92 97//124
f 24//121 97//125 164//126 91//127
f 24//121 91//127 163//128 98//122
f 25//129 95//130 162//103 86//102
f 25//129 86//102 159//101 98//131
f 25//129 98//131 163//132 94//133
f 25//129 94//133 166//134 95//130
f 26//135 124//135 180//136 130//137
f 26//138 130//139 179//140 103//138
f 26//141 103//141 170//141 101//141
f 26//142 101//142 168//142 124//142
f 27//143 102//144 167//144 99//143
f 27//143 99//143 168//145 101//145
f 27//146 101//147 170//147 100//146
f 27//146 100//146 169//148 102//148
f 28//149 103//150 179//151 129//152
f 28//149 129//152 181//153 105//154
f 28//149 105//154 169//155 100//155
f 28//149 100//156 170//156 103//150
f 29//157 105//157 181//158 128//159
f 29//160 128//161 182//162 106//160
f 29//163 106//163 167//163 102//163
f 29//164 102//164 169//164 105//164
f 30//165 106//166 182//167 127//168
f 30//165 127//168 180//169 124//170
f 30//165 124//170 168//171 99//171
f 30//165 99//172 167//172 106//166
f 31//173 109//174 178//175 122//176
f 31//173 122//176 175//177 115//178
f 31//173 115//178 172//108 111//107
f 31//173 111//107 173//106 109//174
f 32//179 107//180 177//181 121//182
f 32//179 121//182 176//183 116//184
f 32//179 116//184 174//99 112//98
f 32//179 112//98 171//97 107//180
f 33//185 116//185 176//186 120//186
f 33//187 120//188 178//188 109//189
f 33//187 109//189 173//90 113//89
f 33//185 113//87 174//86 116//185
f 34//190 115//191 175//192 119//192
f 34//193 119//194 177//194 107//193
f 34//193 107//193 171//53 114//52
f 34//190 114//50 172//49 115//191
f 35//195 88//196 148//45 76//44
f 35//197 76//44 156//43 117//198
f 35//197 117//198 177//194 119//194
f 35//195 119//192 175//192 88//196
f 36//199 90//200 155//40 59//39
f 36//201 59//39 147//38 118//202
f 36//201 118//202 178//188 120//188
f 36//199 120//186 176//186 90//200
f 37//203 117//204 156//70 79//69
f 37//203 79//69 155//68 90//205
f 37//206 90//207 176//183 121//182
f 37//206 121//182 177//181 117//208
f 38//209 118//210 147//210 66//209
f 38//209 66//209 148//211 88//211
f 38//212 88//213 175//177 122//176
f 38//212 122//176 178//175 118//214
f 39//215 126//216 160//217 84//218
f 39//215 84//218 161//219 104//220
f 39//215 104//220 180//169 127//168
f 39//215 127//168 182//167 126//216
f 40//221 125//222 164//126 97//125
f 40//223 97//124 160//92 126//224
f 40//223 126//224 182//162 128//161
f 40//221 128//159 181//158 125//222
f 41//225 123//226 165//118 92//117
f 41//225 92//117 164//116 125//227
f 41//225 125//227 181//153 129//152
f 41//225 129//152 179//151 123//226
f 42//228 104//229 161//57 96//77
f 42//230 96//83 165//82 123//231
f 42//230 123//231 179//140 130//139
f 42//228 130//137 180//136 104//229
f 43//13 63//37 150//13 62//13
f 43//13 62//13 186//13 135//13
f 43//232 135//16 183//16 131//233
f 43//232 131//233 147//38 63//37
f 44//9 64//9 149//9 61//9
f 44//9 61//9 185//9 136//9
f 44//12 136//12 186//12 62//12
f 44//12 62//12 150//12 64//12
f 45//234 65//46 148//45 60//235
f 45//234 60//235 184//5 137//5
f 45//8 137//8 185//8 61//8
f 45//8 61//8 149//8 65//46
f 46//236 66//237 147//238 131//239
f 46//236 131//239 183//1 138//1
f 46//236 138//4 184//4 60//240
f 46//236 60//240 148//241 66//237
