# Blender v2.79 (sub 0) OBJ File: 'Numbers_8.blend'
# www.blender.org
mtllib Numbers_8.mtl
o Numbers_8_Cube.040
v -0.210586 -0.098370 0.203424
v -0.305255 -0.053811 0.000000
v -0.257017 -0.268435 0.203424
v -0.257017 -0.268435 -0.203424
v -0.360992 -0.290384 -0.000000
v -0.153043 -0.246487 0.000000
v -0.186604 -0.530613 -0.000000
v -0.082638 -0.340727 0.000000
v -0.134621 -0.435670 0.203424
v -0.134621 -0.435670 -0.203424
v 0.060204 -0.351235 0.000000
v 0.112409 -0.443240 0.203424
v 0.112409 -0.443240 -0.203424
v 0.164614 -0.535246 -0.000000
v 0.367209 -0.277646 -0.000000
v 0.251645 -0.265253 0.196022
v 0.251645 -0.265253 -0.196022
v 0.217556 -0.085861 0.191760
v 0.217557 -0.085861 -0.191760
v 0.324660 -0.036440 -0.000000
v 0.110453 -0.135282 0.000000
v 0.006594 0.002469 -0.188092
v 0.005005 -0.090872 0.000000
v -0.115916 -0.142929 0.000000
v 0.136081 -0.252861 0.000000
v -0.210586 -0.098370 -0.203424
v -0.207808 0.103400 0.174425
v -0.305255 0.062308 0.000000
v -0.232532 0.272100 0.174425
v -0.232533 0.272100 -0.174425
v -0.332653 0.290082 -0.000000
v -0.132412 0.254117 0.000000
v -0.154359 0.522675 -0.000000
v -0.059332 0.341354 0.000000
v -0.106846 0.432014 0.174425
v -0.106846 0.432014 -0.174425
v 0.062156 0.340229 0.000000
v 0.105726 0.433881 0.174425
v 0.105726 0.433881 -0.174425
v 0.149295 0.527532 -0.000000
v 0.342864 0.263571 -0.000000
v 0.239353 0.263062 0.170163
v 0.239353 0.263063 -0.170163
v 0.216789 0.090794 0.165901
v 0.216790 0.090794 -0.165901
v 0.319538 0.030939 -0.000000
v 0.114040 0.150649 0.000000
v 0.006858 0.094030 0.000000
v -0.110360 0.144492 0.000000
v 0.135842 0.262554 0.000000
v -0.207808 0.103400 -0.174425
v 0.006594 0.002469 0.188092
v -0.275134 0.004249 0.000000
v -0.065269 -0.105643 0.000000
v -0.131022 -0.046510 -0.199591
v -0.131022 -0.046510 0.199591
v -0.133588 -0.297554 0.000000
v -0.224365 -0.368626 -0.203424
v -0.315142 -0.439698 -0.000000
v -0.224365 -0.368626 0.203424
v -0.139584 -0.131790 0.162831
v -0.334998 -0.284897 0.142305
v -0.281588 -0.064950 -0.142305
v -0.179036 -0.251974 -0.162831
v -0.013579 -0.362967 -0.000000
v -0.013718 -0.462798 -0.203424
v -0.013858 -0.562629 -0.000000
v -0.013718 -0.462798 0.203424
v -0.173608 -0.506877 0.142305
v -0.173608 -0.506877 -0.142305
v -0.095634 -0.364462 -0.162831
v -0.095634 -0.364462 0.162831
v 0.117246 -0.312282 0.000000
v 0.211588 -0.377294 -0.201574
v 0.305930 -0.442305 -0.000000
v 0.211588 -0.377293 0.201574
v 0.073256 -0.374236 -0.162831
v 0.073256 -0.374236 0.162831
v 0.151563 -0.512244 0.142305
v 0.151563 -0.512244 -0.142305
v 0.129540 -0.188638 0.000000
v 0.248371 -0.152862 -0.191256
v 0.367201 -0.117086 -0.000000
v 0.248371 -0.152862 0.191256
v 0.338318 -0.274548 0.134856
v 0.338318 -0.274548 -0.134856
v 0.164972 -0.255959 -0.159177
v 0.164972 -0.255959 0.159177
v 0.071411 -0.100218 0.000000
v 0.142524 -0.041626 -0.192413
v 0.291475 0.000749 -0.000000
v 0.142524 -0.041626 0.192413
v 0.137229 -0.122927 0.158112
v 0.297884 -0.048795 0.129529
v 0.297884 -0.048795 -0.129529
v 0.137229 -0.122927 -0.158112
v 0.005402 -0.067537 0.158998
v 0.005402 -0.067537 -0.158998
v -0.179036 -0.251974 0.162831
v -0.281588 -0.064950 0.142305
v -0.334998 -0.284897 -0.142305
v -0.139584 -0.131790 -0.162831
v -0.145615 -0.193091 0.000000
v -0.349311 -0.141983 0.000000
v -0.247463 -0.167537 -0.203424
v -0.247463 -0.167537 0.203424
v -0.061264 0.108348 0.000000
v -0.129251 0.051888 -0.177841
v -0.129251 0.051888 0.177842
v -0.105377 0.307210 0.000000
v -0.188517 0.370149 -0.174425
v -0.271657 0.433088 -0.000000
v -0.188517 0.370149 0.174425
v -0.134722 0.134219 0.126582
v -0.307623 0.285587 0.135055
v -0.280894 0.072581 -0.135055
v -0.157442 0.258613 -0.126582
v -0.001185 0.353407 0.000000
v -0.003454 0.454368 -0.174425
v -0.005722 0.555328 -0.000000
v -0.003454 0.454367 0.174425
v -0.142481 0.500010 0.135055
v -0.142481 0.500010 -0.135055
v -0.071211 0.364019 -0.126582
v -0.071211 0.364019 0.126582
v 0.113547 0.307914 0.000000
v 0.195169 0.370223 -0.173359
v 0.276791 0.432532 -0.000000
v 0.195169 0.370223 0.173359
v 0.073049 0.363642 -0.126582
v 0.073049 0.363642 0.126582
v 0.138403 0.504119 0.135055
v 0.138403 0.504120 -0.135055
v 0.134264 0.208637 0.000000
v 0.244489 0.155540 -0.166966
v 0.354714 0.102442 -0.000000
v 0.244489 0.155540 0.166966
v 0.316986 0.263444 0.129727
v 0.316986 0.263444 -0.129727
v 0.161719 0.262681 -0.125517
v 0.161719 0.262681 0.125517
v 0.072471 0.106482 0.000000
v 0.142182 0.047034 -0.171449
v 0.142182 0.047034 0.171449
v 0.139728 0.135685 0.124451
v 0.293851 0.045903 0.124400
v 0.293851 0.045903 -0.124400
v 0.139728 0.135685 -0.124451
v 0.006792 0.071140 0.129999
v 0.006792 0.071140 -0.129999
v -0.157442 0.258613 0.126582
v -0.280893 0.072581 0.135055
v -0.307623 0.285587 -0.135055
v -0.134722 0.134219 -0.126582
v -0.135664 0.195427 0.000000
v -0.342226 0.148281 0.000000
v -0.238945 0.171854 -0.174425
v -0.238945 0.171854 0.174425
v -0.081707 -0.090860 0.161873
v -0.081707 -0.090860 -0.161873
v -0.156282 -0.315322 0.162831
v -0.156282 -0.315322 -0.162831
v -0.292448 -0.421930 -0.142305
v -0.292448 -0.421930 0.142305
v -0.013613 -0.387924 0.162831
v -0.013614 -0.387924 -0.162831
v -0.013823 -0.537671 -0.142305
v -0.013823 -0.537671 0.142305
v 0.140832 -0.328535 0.161918
v 0.140831 -0.328535 -0.161918
v 0.282345 -0.426052 -0.140443
v 0.282345 -0.426052 0.140442
v 0.159248 -0.179694 0.157084
v 0.159248 -0.179694 -0.157084
v 0.337494 -0.126030 -0.129800
v 0.337494 -0.126030 0.129800
v 0.089189 -0.085570 0.159628
v 0.089189 -0.085570 -0.159628
v -0.171077 -0.186703 0.162831
v -0.323849 -0.148372 0.142305
v -0.323849 -0.148372 -0.142305
v -0.171077 -0.186702 -0.162831
v -0.232775 0.003821 0.155288
v -0.232775 0.003821 -0.155288
v -0.078261 0.094233 0.127436
v -0.078261 0.094233 -0.127436
v -0.126162 0.322945 0.126582
v -0.126162 0.322945 -0.126582
v -0.250872 0.417353 -0.135055
v -0.250872 0.417353 0.135055
v -0.001752 0.378647 0.126582
v -0.001752 0.378647 -0.126582
v -0.005155 0.530088 -0.135055
v -0.005155 0.530088 0.135055
v 0.133953 0.323491 0.126316
v 0.133952 0.323491 -0.126316
v 0.256385 0.416955 -0.133723
v 0.256386 0.416954 0.133723
v 0.161821 0.195363 0.124718
v 0.161821 0.195363 -0.124718
v 0.327158 0.115717 -0.125732
v 0.327157 0.115717 0.125732
v 0.089899 0.091620 0.125838
v 0.089899 0.091620 -0.125838
v 0.247802 0.002146 -0.143356
v 0.247801 0.002146 0.143356
v -0.161484 0.189534 0.126582
v -0.316406 0.154174 0.135055
v -0.316406 0.154174 -0.135055
v -0.161484 0.189534 -0.126582
vn -0.4512 0.3112 0.8364
vn -0.2119 0.2554 0.9433
vn -0.2962 0.1324 0.9459
vn -0.4704 0.3065 0.8275
vn -0.5893 0.1689 0.7900
vn -0.5880 0.1732 0.7901
vn 0.3675 -0.2969 0.8814
vn 0.4386 -0.1347 0.8885
vn 0.4366 -0.1407 0.8886
vn 0.3487 -0.3288 0.8777
vn 0.2381 -0.4211 0.8752
vn 0.2621 -0.4145 0.8715
vn -0.8766 0.4812 0.0000
vn -0.8585 0.5128 0.0000
vn -0.8401 0.5018 -0.2059
vn -0.8590 0.4740 -0.1933
vn -0.9468 0.2657 -0.1815
vn -0.9631 0.2691 0.0000
vn -0.9468 0.2657 0.1815
vn -0.8590 0.4740 0.1933
vn -0.8401 0.5018 0.2059
vn 0.4466 0.0542 0.8931
vn 0.4487 0.0434 0.8926
vn -0.6040 -0.0598 0.7948
vn -0.6019 -0.0716 0.7954
vn -0.4709 -0.3431 0.8128
vn -0.4757 -0.3366 0.8126
vn 0.3498 0.2530 0.9020
vn 0.3539 0.2476 0.9019
vn -0.6040 -0.0598 -0.7948
vn -0.6019 -0.0716 -0.7954
vn -0.5893 0.1689 -0.7900
vn -0.5880 0.1732 -0.7901
vn 0.4466 0.0542 -0.8931
vn 0.4386 -0.1347 -0.8885
vn 0.4366 -0.1407 -0.8886
vn 0.4487 0.0434 -0.8926
vn 0.3539 0.2476 -0.9019
vn 0.3498 0.2530 -0.9020
vn -0.4757 -0.3366 -0.8126
vn -0.4709 -0.3431 -0.8128
vn -0.9938 -0.1116 0.0000
vn -0.9772 -0.1055 0.1841
vn -0.9772 -0.1055 -0.1841
vn -0.9391 -0.2899 -0.1843
vn -0.9555 -0.2950 0.0000
vn -0.9391 -0.2899 0.1843
vn 0.9940 0.1096 -0.0000
vn 0.9801 0.1127 -0.1636
vn 0.9352 -0.3168 -0.1584
vn 0.9461 -0.3240 -0.0000
vn 0.9352 -0.3168 0.1584
vn 0.9801 0.1127 0.1636
vn 0.8032 0.5709 0.1700
vn 0.8167 0.5771 0.0000
vn 0.8032 0.5709 -0.1700
vn -0.3937 -0.9192 0.0000
vn -0.3824 -0.9053 0.1851
vn -0.5691 -0.8005 0.1881
vn -0.5794 -0.8150 0.0000
vn -0.5691 -0.8005 -0.1881
vn -0.3824 -0.9053 -0.1851
vn -0.0172 -0.9844 -0.1749
vn -0.0168 -0.9999 0.0000
vn -0.0172 -0.9844 0.1749
vn 0.4727 0.8812 0.0000
vn 0.4667 0.8694 -0.1624
vn 0.4667 0.8694 0.1624
vn 0.0662 0.9857 0.1553
vn 0.0699 0.9976 0.0000
vn 0.0662 0.9857 -0.1553
vn 0.1973 0.4045 0.8930
vn 0.1929 0.4075 0.8926
vn -0.2383 -0.5569 0.7957
vn -0.2480 -0.5511 0.7967
vn -0.0141 -0.6267 0.7792
vn -0.0168 -0.6265 0.7792
vn 0.0184 0.4691 0.8829
vn 0.0231 0.4687 0.8830
vn -0.2383 -0.5569 -0.7957
vn -0.2480 -0.5511 -0.7967
vn 0.1973 0.4045 -0.8930
vn 0.1929 0.4075 -0.8926
vn 0.0231 0.4687 -0.8830
vn 0.0184 0.4691 -0.8829
vn -0.0168 -0.6265 -0.7792
vn -0.0141 -0.6267 -0.7792
vn -0.3645 0.9312 0.0000
vn -0.3648 0.9173 -0.1594
vn -0.3648 0.9173 0.1594
vn -0.5538 0.8169 0.1612
vn -0.5611 0.8277 0.0000
vn -0.5538 0.8169 -0.1612
vn -0.1661 0.4264 0.8892
vn -0.1526 0.4338 0.8880
vn 0.2145 -0.5754 0.7893
vn 0.2338 -0.5654 0.7910
vn 0.4694 -0.3347 0.8171
vn 0.4596 -0.3496 0.8164
vn -0.3145 0.2763 0.9081
vn -0.3112 0.2814 0.9077
vn 0.2145 -0.5754 -0.7893
vn 0.2338 -0.5654 -0.7910
vn -0.1661 0.4264 -0.8892
vn -0.1526 0.4338 -0.8880
vn -0.3112 0.2814 -0.9077
vn -0.3145 0.2763 -0.9081
vn 0.4596 -0.3496 -0.8164
vn 0.4694 -0.3347 -0.8171
vn 0.3629 -0.9318 0.0000
vn 0.3493 -0.9193 0.1814
vn 0.3493 -0.9193 -0.1814
vn 0.5414 -0.8204 -0.1840
vn 0.5508 -0.8347 0.0000
vn 0.5414 -0.8204 0.1840
vn 0.9854 -0.1705 -0.0000
vn 0.9388 -0.3446 -0.0000
vn 0.9200 -0.3377 -0.1991
vn 0.9620 -0.1735 -0.2107
vn 0.9464 0.2301 -0.2267
vn 0.9702 0.2423 0.0000
vn 0.9464 0.2301 0.2267
vn 0.9620 -0.1735 0.2107
vn 0.9200 -0.3377 0.1991
vn 0.5697 -0.0703 0.8189
vn 0.5699 -0.0606 0.8195
vn 0.5408 0.1484 0.8279
vn 0.5431 0.1406 0.8278
vn -0.3783 0.0928 0.9210
vn -0.3477 -0.0693 0.9351
vn -0.3498 -0.0632 0.9347
vn -0.3783 0.0945 0.9209
vn -0.3783 0.0928 -0.9210
vn -0.3783 0.0945 -0.9208
vn -0.3498 -0.0632 -0.9347
vn -0.3477 -0.0693 -0.9351
vn 0.5697 -0.0703 -0.8189
vn 0.5431 0.1406 -0.8278
vn 0.5408 0.1484 -0.8279
vn 0.5699 -0.0606 -0.8195
vn -0.2847 -0.2350 0.9293
vn -0.2701 -0.2699 0.9242
vn 0.4291 0.3062 0.8498
vn 0.4498 0.2915 0.8442
vn 0.3137 0.1272 0.9410
vn 0.2350 0.2650 0.9352
vn -0.1956 -0.3859 0.9015
vn -0.1734 -0.3997 0.9001
vn 0.4291 0.3062 -0.8498
vn 0.4498 0.2915 -0.8442
vn -0.2847 -0.2350 -0.9293
vn -0.2701 -0.2699 -0.9242
vn -0.1734 -0.3997 -0.9001
vn -0.1956 -0.3859 -0.9015
vn 0.2350 0.2650 -0.9352
vn 0.3137 0.1272 -0.9410
vn 0.8236 0.5672 0.0000
vn 0.7959 0.5637 0.2207
vn 0.7959 0.5637 -0.2207
vn 0.7266 0.6530 -0.2138
vn 0.7438 0.6684 0.0000
vn 0.7266 0.6530 0.2138
vn -0.8113 -0.5847 -0.0000
vn -0.8028 -0.5696 -0.1766
vn -0.9581 -0.2166 -0.1873
vn -0.9758 -0.2186 0.0000
vn -0.9581 -0.2166 0.1873
vn -0.8028 -0.5696 0.1766
vn -0.4255 -0.8933 0.1448
vn -0.4134 -0.9106 -0.0000
vn -0.4255 -0.8933 -0.1448
vn -0.1314 0.2162 -0.9675
vn -0.2119 0.2554 -0.9433
vn -0.2962 0.1324 -0.9459
vn -0.1799 0.1188 -0.9765
vn 0.0265 0.6509 -0.7587
vn 0.2632 0.5718 -0.7770
vn 0.2332 0.5975 -0.7672
vn 0.0259 0.6509 -0.7587
vn -0.1818 0.5639 -0.8056
vn -0.2095 0.5275 -0.8233
vn 0.1779 0.2271 -0.9575
vn 0.2130 0.1272 -0.9687
vn 0.0261 -0.4323 -0.9014
vn 0.0317 -0.4325 -0.9011
vn 0.2381 -0.4211 -0.8752
vn 0.2621 -0.4145 -0.8715
vn 0.0304 -0.9995 -0.0000
vn 0.4132 -0.9107 -0.0000
vn 0.4238 -0.8958 -0.1337
vn 0.0300 -0.9912 -0.1292
vn 0.0300 -0.9912 0.1292
vn 0.4238 -0.8958 0.1337
vn 0.7367 -0.6762 -0.0000
vn 0.7372 -0.6590 -0.1492
vn 0.7372 -0.6590 0.1492
vn -0.9932 0.1168 0.0000
vn -0.9498 0.3128 0.0000
vn -0.9357 0.3082 0.1715
vn -0.9764 0.1186 0.1807
vn -0.9764 0.1186 -0.1807
vn -0.9357 0.3082 -0.1715
vn 0.3675 -0.2969 -0.8814
vn 0.3487 -0.3288 -0.8777
vn -0.4512 0.3112 -0.8364
vn -0.4704 0.3065 -0.8275
vn -0.3378 -0.1418 0.9305
vn -0.3542 -0.1509 0.9229
vn -0.1799 0.1188 0.9765
vn 0.4173 0.3453 0.8406
vn 0.2632 0.5718 0.7770
vn 0.2332 0.5975 0.7672
vn 0.3929 0.3944 0.8307
vn 0.5064 0.0930 0.8573
vn 0.5051 0.0981 0.8574
vn -0.4373 -0.0740 0.8963
vn -0.4358 -0.0799 0.8965
vn -0.8936 -0.4488 0.0000
vn -0.8730 -0.4439 -0.2021
vn -0.8466 -0.4886 -0.2111
vn -0.8661 -0.4999 0.0000
vn -0.8466 -0.4886 0.2111
vn -0.8730 -0.4439 0.2021
vn -0.9673 -0.1650 0.1927
vn -0.9852 -0.1712 0.0000
vn -0.9673 -0.1650 -0.1927
vn 0.5129 -0.1263 0.8491
vn 0.5112 -0.1337 0.8490
vn 0.4065 -0.3317 0.8513
vn 0.4095 -0.3280 0.8513
vn -0.4430 0.1112 0.8896
vn -0.3540 0.2802 0.8923
vn -0.3556 0.2782 0.8923
vn -0.4442 0.1057 0.8897
vn -0.4430 0.1112 -0.8896
vn -0.4373 -0.0740 -0.8963
vn -0.4358 -0.0799 -0.8965
vn -0.4442 0.1057 -0.8897
vn -0.3556 0.2782 -0.8923
vn -0.3540 0.2802 -0.8923
vn 0.5129 -0.1263 -0.8491
vn 0.4095 -0.3280 -0.8513
vn 0.4065 -0.3317 -0.8513
vn 0.5112 -0.1337 -0.8490
vn 0.5064 0.0930 -0.8573
vn 0.5051 0.0981 -0.8574
vn -0.9726 0.2327 0.0000
vn -0.9551 0.2308 0.1858
vn -0.7744 0.6039 0.1888
vn -0.7891 0.6143 0.0000
vn -0.7744 0.6039 -0.1888
vn -0.9551 0.2308 -0.1858
vn 0.9661 -0.2582 -0.0000
vn 0.9804 0.1972 -0.0000
vn 0.9591 0.1946 -0.2055
vn 0.9478 -0.2491 -0.1990
vn 0.7529 -0.6271 -0.1997
vn 0.7666 -0.6422 -0.0000
vn 0.7529 -0.6271 0.1997
vn 0.9478 -0.2491 0.1990
vn 0.9591 0.1946 0.2055
vn -0.4215 0.9068 0.0000
vn -0.4119 0.8920 0.1859
vn -0.0185 0.9828 0.1840
vn -0.0190 0.9998 0.0000
vn -0.0185 0.9828 -0.1840
vn -0.4119 0.8920 -0.1859
vn 0.4091 -0.9125 -0.0000
vn 0.4039 -0.8932 -0.1978
vn 0.0029 -0.9806 -0.1961
vn 0.0019 -1.0000 -0.0000
vn 0.0029 -0.9806 0.1961
vn 0.4039 -0.8932 0.1978
vn 0.2226 -0.4804 0.8483
vn 0.2163 -0.4835 0.8482
vn 0.0047 -0.5332 0.8460
vn 0.0062 -0.5332 0.8460
vn -0.1884 0.4163 0.8895
vn -0.0073 0.4606 0.8876
vn -0.0080 0.4606 0.8876
vn -0.1936 0.4137 0.8896
vn -0.1884 0.4163 -0.8895
vn -0.1936 0.4137 -0.8896
vn -0.0080 0.4606 -0.8876
vn -0.0073 0.4606 -0.8876
vn 0.2226 -0.4804 -0.8483
vn 0.0062 -0.5332 -0.8460
vn 0.0047 -0.5332 -0.8460
vn 0.2163 -0.4835 -0.8482
vn -0.3763 -0.9265 0.0000
vn -0.3708 -0.9078 -0.1961
vn -0.5317 -0.8247 -0.1929
vn -0.5419 -0.8404 0.0000
vn -0.5317 -0.8247 0.1929
vn -0.3708 -0.9078 0.1961
vn -0.2039 -0.4893 0.8479
vn -0.1999 -0.4911 0.8479
vn -0.3925 -0.3416 0.8539
vn -0.3952 -0.3384 0.8540
vn 0.1819 0.4189 0.8897
vn 0.3690 0.2690 0.8897
vn 0.3709 0.2666 0.8896
vn 0.1856 0.4172 0.8897
vn 0.1819 0.4189 -0.8897
vn 0.1856 0.4172 -0.8897
vn 0.3709 0.2666 -0.8896
vn 0.3690 0.2690 -0.8897
vn -0.2039 -0.4893 -0.8479
vn -0.3952 -0.3384 -0.8540
vn -0.3925 -0.3416 -0.8539
vn -0.1999 -0.4911 -0.8479
vn 0.3981 0.9174 0.0000
vn 0.3891 0.9021 0.1867
vn 0.5865 0.7890 0.1828
vn 0.5966 0.8026 0.0000
vn 0.5865 0.7890 -0.1828
vn 0.3891 0.9021 -0.1867
vn 0.9767 0.2148 0.0000
vn 0.9560 0.2208 -0.1934
vn 0.9159 0.3575 -0.1822
vn 0.9315 0.3636 -0.0000
vn 0.9159 0.3575 0.1822
vn 0.9560 0.2208 0.1934
vn 0.9592 -0.1728 0.2240
vn 0.9797 -0.2003 0.0000
vn 0.9592 -0.1728 -0.2239
vn 0.4548 0.0894 0.8861
vn 0.4550 0.0691 0.8878
vn -0.4847 -0.1196 0.8665
vn -0.4846 -0.1407 0.8633
vn -0.4478 0.0445 0.8930
vn -0.4342 0.0731 0.8978
vn 0.4216 -0.0785 0.9034
vn 0.4081 -0.1093 0.9064
vn -0.4847 -0.1196 -0.8665
vn -0.4846 -0.1407 -0.8633
vn 0.4548 0.0894 -0.8861
vn 0.4550 0.0691 -0.8878
vn 0.4081 -0.1093 -0.9064
vn 0.4216 -0.0785 -0.9034
vn -0.4342 0.0731 -0.8978
vn -0.4478 0.0445 -0.8930
vn -0.3440 0.2824 0.8955
vn -0.3337 0.3065 0.8915
vn -0.1818 0.5639 0.8056
vn -0.2095 0.5275 0.8233
vn 0.3290 -0.1596 0.9307
vn 0.2130 0.1272 0.9687
vn 0.3374 -0.1645 0.9269
vn 0.3290 -0.1596 -0.9307
vn 0.3374 -0.1645 -0.9269
vn -0.3440 0.2824 -0.8955
vn -0.3337 0.3065 -0.8915
vn 0.8268 -0.5625 0.0000
vn 0.7962 -0.5588 0.2320
vn 0.7164 -0.6601 0.2259
vn 0.7354 -0.6776 0.0000
vn 0.7164 -0.6601 -0.2259
vn 0.7962 -0.5588 -0.2320
vn -0.8384 0.5450 -0.0000
vn -0.9855 0.1699 -0.0000
vn -0.9581 0.1777 -0.2245
vn -0.8184 0.5298 -0.2227
vn -0.6788 0.7063 -0.2011
vn -0.6929 0.7210 -0.0000
vn -0.6788 0.7063 0.2011
vn -0.8184 0.5298 0.2227
vn -0.9581 0.1777 0.2245
vn 0.0119 0.9999 -0.0000
vn 0.0129 0.9872 -0.1590
vn 0.4170 0.8938 -0.1653
vn 0.4087 0.9126 -0.0000
vn 0.4170 0.8938 0.1653
vn 0.0129 0.9872 0.1590
vn -0.2094 0.9652 0.1566
vn -0.2120 0.9773 -0.0000
vn -0.2094 0.9652 -0.1566
vn 0.7575 0.6528 -0.0000
vn 0.7547 0.6272 -0.1923
vn 0.7547 0.6272 0.1923
vn -0.9755 -0.2200 0.0000
vn -0.9570 -0.2056 0.2045
vn -0.8876 -0.4199 0.1893
vn -0.9039 -0.4277 0.0000
vn -0.8876 -0.4199 -0.1893
vn -0.9570 -0.2056 -0.2045
vn 0.4173 0.3453 -0.8406
vn 0.3929 0.3944 -0.8307
vn -0.3378 -0.1418 -0.9305
vn -0.3542 -0.1509 -0.9229
vn 0.0265 0.6509 0.7587
vn 0.0259 0.6509 0.7587
vn -0.1314 0.2162 0.9675
vn 0.0261 -0.4323 0.9014
vn 0.0317 -0.4325 0.9011
vn 0.1779 0.2271 0.9575
usemtl White
s 1
f 1//1 56//2 183//3 100//4
f 1//1 100//4 180//5 106//6
f 1//7 106//8 179//9 61//10
f 1//7 61//10 159//11 56//12
f 2//13 53//14 184//15 63//16
f 2//13 63//16 181//17 104//18
f 2//13 104//18 180//19 100//20
f 2//13 100//20 183//21 53//14
f 3//22 99//23 179//9 106//8
f 3//24 106//6 180//5 62//25
f 3//24 62//25 164//26 60//27
f 3//22 60//28 161//29 99//23
f 4//30 101//31 181//32 105//33
f 4//34 105//35 182//36 64//37
f 4//34 64//37 162//38 58//39
f 4//30 58//40 163//41 101//31
f 5//42 62//43 180//19 104//18
f 5//42 104//18 181//17 101//44
f 5//42 101//44 163//45 59//46
f 5//42 59//46 164//47 62//43
f 6//48 64//49 182//50 103//51
f 6//48 103//51 179//52 99//53
f 6//48 99//53 161//54 57//55
f 6//48 57//55 162//56 64//49
f 7//57 69//58 164//59 59//60
f 7//57 59//60 163//61 70//62
f 7//57 70//62 167//63 67//64
f 7//57 67//64 168//65 69//58
f 8//66 71//67 162//56 57//55
f 8//66 57//55 161//54 72//68
f 8//66 72//68 165//69 65//70
f 8//66 65//70 166//71 71//67
f 9//72 72//73 161//29 60//28
f 9//74 60//27 164//26 69//75
f 9//74 69//75 168//76 68//77
f 9//72 68//78 165//79 72//73
f 10//80 70//81 163//41 58//40
f 10//82 58//39 162//38 71//83
f 10//82 71//83 166//84 66//85
f 10//80 66//86 167//87 70//81
f 11//88 77//89 166//71 65//70
f 11//88 65//70 165//69 78//90
f 11//88 78//90 169//91 73//92
f 11//88 73//92 170//93 77//89
f 12//94 78//95 165//79 68//78
f 12//96 68//77 168//76 79//97
f 12//96 79//97 172//98 76//99
f 12//94 76//100 169//101 78//95
f 13//102 80//103 167//87 66//86
f 13//104 66//85 166//84 77//105
f 13//104 77//105 170//106 74//107
f 13//102 74//108 171//109 80//103
f 14//110 79//111 168//65 67//64
f 14//110 67//64 167//63 80//112
f 14//110 80//112 171//113 75//114
f 14//110 75//114 172//115 79//111
f 15//116 75//117 171//118 86//119
f 15//116 86//119 175//120 83//121
f 15//116 83//121 176//122 85//123
f 15//116 85//123 172//124 75//117
f 16//125 76//99 172//98 85//126
f 16//125 85//126 176//127 84//128
f 16//129 84//130 173//131 88//132
f 16//129 88//132 169//101 76//100
f 17//133 74//107 170//106 87//134
f 17//133 87//134 174//135 82//136
f 17//137 82//138 175//139 86//140
f 17//137 86//140 171//109 74//108
f 18//141 93//142 173//131 84//130
f 18//143 84//128 176//127 94//144
f 18//143 94//144 206//145 92//146
f 18//141 92//147 177//148 93//142
f 19//149 95//150 175//139 82//138
f 19//151 82//136 174//135 96//152
f 19//151 96//152 178//153 90//154
f 19//149 90//155 205//156 95//150
f 20//157 94//158 176//122 83//121
f 20//157 83//121 175//120 95//159
f 20//157 95//159 205//160 91//161
f 20//157 91//161 206//162 94//158
f 21//163 96//164 174//165 81//166
f 21//163 81//166 173//167 93//168
f 21//163 93//168 177//169 89//170
f 21//163 89//170 178//171 96//164
f 22//172 55//173 184//174 108//175
f 22//176 108//177 186//178 150//179
f 22//176 150//179 204//180 143//181
f 22//182 143//183 205//156 90//155
f 22//184 90//154 178//153 98//185
f 22//184 98//185 160//186 55//187
f 23//188 54//189 160//190 98//191
f 23//188 98//191 178//171 89//170
f 23//188 89//170 177//169 97//192
f 23//188 97//192 159//193 54//189
f 24//194 102//195 160//190 54//189
f 24//194 54//189 159//193 61//196
f 24//194 61//196 179//52 103//51
f 24//194 103//51 182//50 102//195
f 25//197 73//198 169//199 88//200
f 25//197 88//200 173//167 81//166
f 25//197 81//166 174//165 87//201
f 25//197 87//201 170//202 73//198
f 26//203 55//187 160//186 102//204
f 26//203 102//204 182//36 105//35
f 26//205 105//33 181//32 63//206
f 26//205 63//206 184//174 55//173
f 27//207 152//208 183//3 109//209
f 27//210 109//211 185//212 114//213
f 27//210 114//213 207//214 158//215
f 27//207 158//216 208//217 152//208
f 28//218 116//219 184//220 53//221
f 28//218 53//221 183//222 152//223
f 28//218 152//223 208//224 156//225
f 28//218 156//225 209//226 116//219
f 29//227 158//215 207//214 151//228
f 29//227 151//228 187//229 113//230
f 29//231 113//232 190//233 115//234
f 29//231 115//234 208//217 158//216
f 30//235 157//236 209//237 153//238
f 30//235 153//238 189//239 111//240
f 30//241 111//242 188//243 117//244
f 30//241 117//244 210//245 157//246
f 31//247 156//225 208//224 115//248
f 31//247 115//248 190//249 112//250
f 31//247 112//250 189//251 153//252
f 31//247 153//252 209//226 156//225
f 32//253 155//254 210//255 117//256
f 32//253 117//256 188//257 110//258
f 32//253 110//258 187//259 151//260
f 32//253 151//260 207//261 155//254
f 33//262 112//250 190//249 122//263
f 33//262 122//263 194//264 120//265
f 33//262 120//265 193//266 123//267
f 33//262 123//267 189//251 112//250
f 34//268 110//258 188//257 124//269
f 34//268 124//269 192//270 118//271
f 34//268 118//271 191//272 125//273
f 34//268 125//273 187//259 110//258
f 35//274 113//230 187//229 125//275
f 35//274 125//275 191//276 121//277
f 35//278 121//279 194//280 122//281
f 35//278 122//281 190//233 113//232
f 36//282 111//240 189//239 123//283
f 36//282 123//283 193//284 119//285
f 36//286 119//287 192//288 124//289
f 36//286 124//289 188//243 111//242
f 37//290 118//271 192//270 130//291
f 37//290 130//291 196//292 126//293
f 37//290 126//293 195//294 131//295
f 37//290 131//295 191//272 118//271
f 38//296 121//277 191//276 131//297
f 38//296 131//297 195//298 129//299
f 38//300 129//301 198//302 132//303
f 38//300 132//303 194//280 121//279
f 39//304 119//285 193//284 133//305
f 39//304 133//305 197//306 127//307
f 39//308 127//309 196//310 130//311
f 39//308 130//311 192//288 119//287
f 40//312 120//265 194//264 132//313
f 40//312 132//313 198//314 128//315
f 40//312 128//315 197//316 133//317
f 40//312 133//317 193//266 120//265
f 41//318 139//319 197//320 128//321
f 41//318 128//321 198//322 138//323
f 41//318 138//323 202//324 136//325
f 41//318 136//325 201//326 139//319
f 42//327 138//328 198//302 129//301
f 42//329 129//299 195//298 141//330
f 42//329 141//330 199//331 137//332
f 42//327 137//333 202//334 138//328
f 43//335 140//336 196//310 127//309
f 43//337 127//307 197//306 139//338
f 43//337 139//338 201//339 135//340
f 43//335 135//341 200//342 140//336
f 44//343 137//332 199//331 145//344
f 44//343 145//344 203//345 144//346
f 44//347 144//348 206//145 146//349
f 44//347 146//349 202//334 137//333
f 45//350 135//340 201//339 147//351
f 45//350 147//351 205//156 143//183
f 45//352 143//181 204//180 148//353
f 45//352 148//353 200//342 135//341
f 46//354 136//325 202//324 146//355
f 46//354 146//355 206//356 91//357
f 46//354 91//357 205//358 147//359
f 46//354 147//359 201//326 136//325
f 47//360 134//361 200//362 148//363
f 47//360 148//363 204//364 142//365
f 47//360 142//365 203//366 145//367
f 47//360 145//367 199//368 134//361
f 48//369 150//370 186//371 107//372
f 48//369 107//372 185//373 149//374
f 48//369 149//374 203//375 142//376
f 48//369 142//376 204//377 150//370
f 49//378 107//372 186//371 154//379
f 49//378 154//379 210//255 155//254
f 49//378 155//254 207//261 114//380
f 49//378 114//380 185//373 107//372
f 50//381 141//382 195//383 126//384
f 50//381 126//384 196//385 140//386
f 50//381 140//386 200//362 134//361
f 50//381 134//361 199//368 141//382
f 51//387 154//388 186//178 108//177
f 51//389 108//175 184//174 116//390
f 51//389 116//390 209//237 157//236
f 51//387 157//246 210//245 154//388
f 52//391 149//392 185//212 109//211
f 52//393 109//209 183//3 56//2
f 52//394 56//12 159//11 97//395
f 52//394 97//395 177//148 92//147
f 52//396 92//146 206//145 144//348
f 52//391 144//346 203//345 149//392
