# Blender v2.79 (sub 0) OBJ File: 'Numbers_7.blend'
# www.blender.org
mtllib Numbers_7.mtl
o Numbers_7_Cube.039
v 0.285433 0.546751 0.000000
v 0.127821 -0.053214 -0.000000
v -0.034033 -0.051263 -0.160966
v -0.195887 -0.049312 -0.000000
v -0.034033 -0.051263 0.160966
v -0.215674 -0.563544 -0.000000
v 0.333166 0.217415 0.000000
v 0.168336 0.220000 -0.160966
v 0.003505 0.222585 0.000000
v 0.168336 0.220000 0.160966
v -0.046265 -0.416029 -0.000000
v -0.211251 -0.415580 -0.160966
v -0.376236 -0.415132 -0.000000
v -0.211251 -0.415580 0.160966
v 0.241671 0.410830 0.160966
v -0.267184 0.277074 0.000000
v 0.241671 0.410830 -0.160966
v 0.392433 0.403897 0.000000
v -0.350830 0.417763 0.000000
v -0.222233 0.417763 -0.160966
v -0.222233 0.417763 0.160966
v -0.177283 0.558451 0.000000
v 0.061639 0.558451 0.000000
v -0.001363 0.417763 0.160966
v -0.001363 0.417763 -0.160966
v -0.064366 0.277074 0.000000
v 0.377943 0.505187 0.000000
v 0.354742 0.405630 -0.120724
v 0.274493 0.512770 -0.120724
v 0.105532 0.416030 -0.160966
v 0.163725 0.555526 0.000000
v 0.105532 0.416030 0.160966
v 0.274493 0.512770 0.120724
v -0.001000 -0.251568 -0.000000
v -0.164735 -0.250520 -0.160966
v -0.328470 -0.249471 -0.000000
v -0.164735 -0.250520 0.160966
v 0.087357 -0.052727 0.120724
v 0.087357 -0.052727 -0.120724
v -0.155423 -0.049800 -0.120724
v -0.155423 -0.049800 0.120724
v 0.291959 0.218061 0.120724
v 0.264457 0.122094 -0.000000
v 0.102957 0.124729 -0.160966
v -0.058543 0.127365 -0.000000
v 0.102957 0.124729 0.160966
v -0.087512 -0.415917 0.120724
v -0.334990 -0.415244 0.120724
v -0.334990 -0.415244 -0.120725
v -0.087512 -0.415917 -0.120725
v -0.090361 -0.526665 -0.000000
v -0.214568 -0.526553 -0.120725
v -0.338775 -0.526441 -0.000000
v -0.214568 -0.526553 0.120724
v 0.291959 0.218061 -0.120724
v 0.044713 0.221938 -0.120724
v 0.044713 0.221938 0.120724
v 0.354742 0.405630 0.120724
v 0.201456 0.295162 0.160966
v -0.001262 0.263452 0.000000
v 0.201456 0.295162 -0.160966
v 0.365356 0.291700 0.000000
v -0.318681 0.417763 -0.120724
v -0.293994 0.523279 0.000000
v -0.318681 0.417763 0.120724
v -0.343367 0.312247 0.000000
v -0.255946 0.312247 0.120724
v -0.048616 0.312247 -0.120724
v 0.045889 0.523279 -0.120724
v -0.188520 0.523279 0.120724
v -0.048616 0.312246 0.120724
v -0.255946 0.312247 -0.120724
v -0.188520 0.523279 -0.120724
v 0.045889 0.523279 0.120724
v -0.044228 0.558451 0.000000
v -0.102717 0.417763 0.160966
v -0.102717 0.417763 -0.160966
v -0.161207 0.277074 0.000000
v 0.345464 0.481430 0.089426
v 0.345464 0.481430 -0.089425
v 0.149176 0.520652 0.120724
v 0.149176 0.520652 -0.120724
v -0.041934 -0.251306 0.120724
v -0.287536 -0.249733 0.120724
v -0.287536 -0.249733 -0.120724
v -0.041934 -0.251306 -0.120724
v 0.224082 0.122753 -0.120724
v -0.018168 0.126706 -0.120724
v -0.018168 0.126706 0.120724
v 0.224082 0.122752 0.120724
v -0.121841 -0.497932 0.089425
v -0.121841 -0.497932 -0.089426
v -0.305575 -0.497633 -0.089426
v -0.305575 -0.497633 0.089425
v 0.324381 0.292565 -0.120724
v 0.045543 0.290312 -0.135211
v 0.045543 0.290312 0.135211
v 0.324381 0.292565 0.120724
v -0.314637 0.339603 -0.089425
v -0.272715 0.495923 -0.089425
v -0.272715 0.495923 0.089426
v -0.314637 0.339603 0.089426
v -0.146585 0.312247 0.120724
v -0.146585 0.312247 -0.120724
v -0.058850 0.523279 -0.120724
v -0.058850 0.523279 0.120724
vn 0.2576 0.9163 -0.3067
vn 0.4363 0.8406 -0.3211
vn 0.2284 0.9251 -0.3034
vn 0.0440 0.9587 -0.2808
vn 0.0465 0.9587 -0.2807
vn 0.2576 0.9163 0.3067
vn 0.0465 0.9587 0.2807
vn 0.0440 0.9587 0.2808
vn 0.2284 0.9251 0.3034
vn 0.4363 0.8406 0.3211
vn 0.8114 -0.5845 -0.0000
vn 0.8024 -0.5968 -0.0000
vn 0.7716 -0.5796 0.2623
vn 0.7875 -0.5555 0.2669
vn 0.8752 -0.3812 0.2977
vn 0.8662 -0.4038 0.2945
vn 0.8662 -0.4038 -0.2945
vn 0.8752 -0.3812 -0.2977
vn 0.7875 -0.5555 -0.2669
vn 0.7716 -0.5796 -0.2623
vn 0.3045 -0.2109 -0.9289
vn 0.3028 -0.2282 -0.9253
vn 0.3025 -0.2190 -0.9276
vn 0.3038 -0.2242 -0.9260
vn 0.3070 -0.1561 -0.9388
vn 0.3079 -0.1272 -0.9429
vn -0.3037 0.2246 -0.9259
vn -0.3069 0.1577 -0.9386
vn -0.3079 0.1286 -0.9427
vn -0.3044 0.2118 -0.9287
vn -0.3030 0.2255 -0.9259
vn -0.3030 0.2139 -0.9287
vn -0.8149 0.5796 0.0000
vn -0.8107 0.5854 0.0000
vn -0.7864 0.5568 -0.2675
vn -0.7808 0.5659 -0.2646
vn -0.8626 0.4121 -0.2933
vn -0.8720 0.3893 -0.2966
vn -0.8720 0.3893 0.2966
vn -0.8626 0.4121 0.2933
vn -0.7808 0.5659 0.2646
vn -0.7864 0.5568 0.2675
vn -0.3037 0.2246 0.9259
vn -0.3030 0.2139 0.9287
vn -0.3030 0.2255 0.9259
vn -0.3044 0.2118 0.9287
vn -0.3079 0.1286 0.9427
vn -0.3069 0.1577 0.9386
vn 0.3045 -0.2109 0.9289
vn 0.3079 -0.1272 0.9429
vn 0.3070 -0.1561 0.9388
vn 0.3038 -0.2242 0.9260
vn 0.3025 -0.2190 0.9276
vn 0.3028 -0.2282 0.9253
vn 0.3146 -0.8921 0.3245
vn -0.3219 -0.8873 0.3304
vn -0.3219 -0.8873 -0.3304
vn 0.3146 -0.8921 -0.3245
vn 0.8381 -0.4639 0.2871
vn 0.9032 -0.3041 0.3027
vn 0.9002 -0.3131 0.3026
vn 0.8290 -0.4818 0.2839
vn 0.8381 -0.4639 -0.2871
vn 0.8290 -0.4818 -0.2839
vn 0.9002 -0.3131 -0.3026
vn 0.9032 -0.3041 -0.3027
vn 0.3036 -0.1836 -0.9350
vn 0.0934 -0.0932 -0.9913
vn 0.3132 -0.1124 -0.9430
vn 0.3045 -0.1602 -0.9389
vn -0.2564 0.0414 -0.9657
vn -0.2744 0.1013 -0.9563
vn -0.1437 -0.1256 -0.9816
vn -0.9403 -0.0778 -0.3313
vn -0.8040 0.5274 -0.2745
vn -0.8040 0.5274 0.2745
vn -0.9403 -0.0778 0.3313
vn -0.2564 0.0414 0.9657
vn 0.0934 -0.0932 0.9913
vn -0.1437 -0.1256 0.9816
vn -0.2744 0.1013 0.9563
vn 0.3036 -0.1836 0.9350
vn 0.3045 -0.1602 0.9389
vn 0.3132 -0.1124 0.9430
vn 0.8868 -0.3234 0.3301
vn 0.8859 -0.3253 0.3306
vn 0.8471 -0.4014 0.3483
vn 0.8868 -0.3234 -0.3301
vn 0.8471 -0.4014 -0.3483
vn 0.8859 -0.3253 -0.3306
vn 0.3265 -0.2477 -0.9122
vn 0.3235 -0.2143 -0.9216
vn 0.3346 -0.3842 -0.8605
vn -0.3308 -0.1154 -0.9366
vn -0.3386 -0.3664 -0.8667
vn -0.3331 -0.1486 -0.9311
vn -0.9133 0.2626 -0.3113
vn -0.8646 -0.3558 -0.3549
vn -0.8646 -0.3558 0.3549
vn -0.9133 0.2626 0.3113
vn -0.3308 -0.1154 0.9366
vn -0.3331 -0.1486 0.9311
vn -0.3386 -0.3664 0.8667
vn 0.3265 -0.2477 0.9122
vn 0.3346 -0.3842 0.8605
vn 0.3235 -0.2143 0.9216
vn 0.1677 0.1261 0.9777
vn 0.2291 0.3306 0.9155
vn 0.0137 0.3563 0.9343
vn -0.0408 0.1189 0.9921
vn 0.3677 0.1144 0.9229
vn 0.3966 0.2971 0.8686
vn -0.2407 -0.9178 -0.3158
vn -0.1962 -0.9301 -0.3105
vn -0.0000 -0.9601 -0.2797
vn -0.2407 -0.9178 0.3158
vn -0.0000 -0.9601 0.2797
vn -0.1962 -0.9301 0.3105
vn -0.4591 -0.8238 0.3324
vn -0.4591 -0.8238 -0.3324
vn 0.1677 0.1261 -0.9777
vn 0.2291 0.3306 -0.9155
vn 0.3966 0.2971 -0.8686
vn 0.3677 0.1144 -0.9229
vn -0.0408 0.1189 -0.9921
vn 0.0137 0.3563 -0.9343
vn 0.9460 -0.0270 0.3231
vn 0.9267 0.1824 0.3285
vn 0.9454 -0.0556 0.3213
vn 0.9460 -0.0270 -0.3231
vn 0.9454 -0.0556 -0.3213
vn 0.9267 0.1824 -0.3285
vn -0.8186 0.5048 -0.2738
vn -0.9509 -0.1089 -0.2897
vn -0.9509 -0.1089 0.2897
vn -0.8186 0.5048 0.2738
vn -0.2250 0.4341 -0.8723
vn -0.1509 0.4109 -0.8991
vn 0.0000 0.3563 -0.9344
vn -0.1744 -0.3286 -0.9282
vn -0.0000 -0.3563 -0.9344
vn -0.2529 -0.3124 -0.9157
vn -0.4419 -0.2627 -0.8578
vn -0.3852 0.4752 -0.7910
vn -0.1744 -0.3286 0.9282
vn -0.2529 -0.3124 0.9157
vn -0.0000 -0.3563 0.9344
vn -0.2250 0.4341 0.8723
vn 0.0000 0.3563 0.9344
vn -0.1509 0.4109 0.8991
vn -0.3852 0.4752 0.7910
vn -0.4419 -0.2627 0.8578
vn -0.1510 0.9464 0.2855
vn -0.1608 0.9447 0.2857
vn -0.0000 0.9601 0.2797
vn -0.1510 0.9464 -0.2855
vn 0.0000 0.9601 -0.2797
vn -0.1608 0.9447 -0.2857
vn -0.3250 0.9021 -0.2839
vn -0.3250 0.9021 0.2839
vn 0.0140 0.9597 0.2807
vn 0.0120 0.9598 0.2806
vn 0.0140 0.9597 -0.2807
vn 0.0120 0.9598 -0.2806
vn -0.0607 -0.2791 0.9583
vn -0.0395 -0.3066 0.9510
vn 0.0028 0.3558 0.9346
vn 0.0046 0.3554 0.9347
vn 0.0028 0.3558 -0.9346
vn 0.0046 0.3554 -0.9347
vn -0.0607 -0.2791 -0.9583
vn -0.0395 -0.3066 -0.9510
vn -0.1120 -0.9525 -0.2833
vn -0.1310 -0.9500 -0.2835
vn -0.2362 -0.9296 -0.2830
vn -0.1120 -0.9525 0.2833
vn -0.2362 -0.9296 0.2830
vn -0.1310 -0.9500 0.2835
usemtl White
s 1
f 1//1 27//2 80//2 29//3
f 1//1 29//3 82//4 31//5
f 1//6 31//7 81//8 33//9
f 1//6 33//9 79//10 27//10
f 2//11 43//12 90//13 38//14
f 2//11 38//14 83//15 34//16
f 2//11 34//17 86//18 39//19
f 2//11 39//19 87//20 43//12
f 3//21 44//22 87//23 39//24
f 3//21 39//24 86//25 35//26
f 3//27 35//28 85//29 40//30
f 3//27 40//30 88//31 44//32
f 4//33 45//34 88//35 40//36
f 4//33 40//36 85//37 36//38
f 4//33 36//39 84//40 41//41
f 4//33 41//41 89//42 45//34
f 5//43 46//44 89//45 41//46
f 5//43 41//46 84//47 37//48
f 5//49 37//50 83//51 38//52
f 5//49 38//52 90//53 46//54
f 6//55 51//55 91//55 54//55
f 6//56 54//56 94//56 53//56
f 6//57 53//57 93//57 52//57
f 6//58 52//58 92//58 51//58
f 7//59 62//60 98//61 42//62
f 7//59 42//62 90//13 43//12
f 7//63 43//12 87//20 55//64
f 7//63 55//64 95//65 62//66
f 8//67 61//68 95//69 55//70
f 8//67 55//70 87//23 44//22
f 8//71 44//32 88//31 56//72
f 8//71 56//72 96//73 61//68
f 9//74 60//74 96//74 56//74
f 9//75 56//75 88//35 45//34
f 9//76 45//34 89//42 57//76
f 9//77 57//77 97//77 60//77
f 10//78 59//79 97//80 57//81
f 10//78 57//81 89//45 46//44
f 10//82 46//54 90//53 42//83
f 10//82 42//83 98//84 59//79
f 11//85 34//16 83//15 47//86
f 11//85 47//86 91//87 51//87
f 11//88 51//89 92//89 50//90
f 11//88 50//90 86//18 34//17
f 12//91 35//26 86//25 50//92
f 12//91 50//92 92//93 52//93
f 12//94 52//95 93//95 49//96
f 12//94 49//96 85//29 35//28
f 13//97 36//38 85//37 49//97
f 13//98 49//98 93//98 53//98
f 13//99 53//99 94//99 48//99
f 13//100 48//100 84//40 36//39
f 14//101 37//48 84//47 48//102
f 14//101 48//102 94//103 54//103
f 14//104 54//105 91//105 47//106
f 14//104 47//106 83//51 37//50
f 15//107 33//108 81//109 32//110
f 15//107 32//110 97//80 59//79
f 15//107 59//79 98//84 58//111
f 15//107 58//111 79//112 33//108
f 16//113 72//114 104//115 78//115
f 16//116 78//117 103//117 67//118
f 16//116 67//118 102//119 66//119
f 16//113 66//120 99//120 72//114
f 17//121 29//122 80//123 28//124
f 17//121 28//124 95//69 61//68
f 17//121 61//68 96//73 30//125
f 17//121 30//125 82//126 29//122
f 18//127 27//128 79//128 58//129
f 18//127 58//129 98//61 62//60
f 18//130 62//66 95//65 28//131
f 18//130 28//131 80//132 27//132
f 19//133 64//133 100//133 63//133
f 19//134 63//134 99//134 66//134
f 19//135 66//135 102//135 65//135
f 19//136 65//136 101//136 64//136
f 20//137 73//138 105//139 77//139
f 20//140 77//141 104//141 72//142
f 20//140 72//142 99//143 63//143
f 20//137 63//144 100//144 73//138
f 21//145 67//146 103//147 76//147
f 21//148 76//149 106//149 70//150
f 21//148 70//150 101//151 65//151
f 21//145 65//152 102//152 67//146
f 22//153 70//154 106//155 75//155
f 22//156 75//157 105//157 73//158
f 22//156 73//158 100//159 64//159
f 22//153 64//160 101//160 70//154
f 23//161 74//162 81//8 31//7
f 23//163 31//5 82//4 69//164
f 23//163 69//164 105//157 75//157
f 23//161 75//155 106//155 74//162
f 24//165 71//166 97//80 32//110
f 24//167 32//110 81//109 74//168
f 24//167 74//168 106//149 76//149
f 24//165 76//147 103//147 71//166
f 25//169 69//170 82//126 30//125
f 25//171 30//125 96//73 68//172
f 25//171 68//172 104//141 77//141
f 25//169 77//139 105//139 69//170
f 26//173 68//174 96//175 60//175
f 26//176 60//177 97//177 71//178
f 26//176 71//178 103//117 78//117
f 26//173 78//115 104//115 68//174
