# Blender v2.79 (sub 0) OBJ File: 'Pipe_Straight.blend'
# www.blender.org
mtllib Pipe_Straight.mtl
o Pipe_Straight_Cylinder.023
v -0.000000 1.000000 -0.867681
v 0.000000 -1.000000 -0.867681
v -0.332048 1.000000 -0.801633
v -0.332047 -1.000000 -0.801633
v -0.613544 1.000000 -0.613543
v -0.613543 -1.000000 -0.613543
v -0.801633 1.000000 -0.332047
v -0.801633 -1.000000 -0.332047
v -0.867682 1.000000 0.000000
v -0.867681 -1.000000 0.000000
v -0.801633 1.000000 0.332048
v -0.801633 -1.000000 0.332047
v -0.613544 1.000000 0.613544
v -0.613543 -1.000000 0.613543
v -0.332048 1.000000 0.801633
v -0.332047 -1.000000 0.801633
v -0.000000 1.000000 0.867681
v 0.000000 -1.000000 0.867681
v 0.332047 1.000000 0.801633
v 0.332048 -1.000000 0.801633
v 0.613543 1.000000 0.613544
v 0.613544 -1.000000 0.613543
v 0.801633 1.000000 0.332047
v 0.801633 -1.000000 0.332047
v 0.867681 1.000000 0.000000
v 0.867682 -1.000000 -0.000000
v 0.801633 1.000000 -0.332047
v 0.801633 -1.000000 -0.332048
v 0.613543 1.000000 -0.613544
v 0.613543 -1.000000 -0.613544
v 0.332047 1.000000 -0.801633
v 0.332047 -1.000000 -0.801633
v -0.000000 1.000000 -0.739831
v -0.283122 1.000000 -0.683515
v -0.283121 -1.000000 -0.683515
v 0.000001 -1.000000 -0.739831
v -0.523140 1.000000 -0.523140
v -0.523139 -1.000000 -0.523140
v -0.683515 1.000000 -0.283121
v -0.683514 -1.000000 -0.283121
v -0.739831 1.000000 0.000000
v -0.739831 -1.000000 -0.000000
v -0.683515 1.000000 0.283121
v -0.683514 -1.000000 0.283121
v -0.523140 1.000000 0.523140
v -0.523139 -1.000000 0.523140
v -0.283121 1.000000 0.683515
v -0.283121 -1.000000 0.683515
v -0.000000 1.000000 0.739831
v 0.000000 -1.000000 0.739831
v 0.283121 1.000000 0.683515
v 0.283122 -1.000000 0.683515
v 0.523139 1.000000 0.523140
v 0.523140 -1.000000 0.523140
v 0.683515 1.000000 0.283121
v 0.683516 -1.000000 0.283121
v 0.739831 1.000000 0.000000
v 0.739832 -1.000000 -0.000000
v 0.683515 1.000000 -0.283121
v 0.683515 -1.000000 -0.283122
v 0.523139 1.000000 -0.523140
v 0.523140 -1.000000 -0.523140
v 0.283120 1.000000 -0.683515
v 0.283121 -1.000000 -0.683515
v -0.000000 0.202383 -0.684517
v -0.268648 0.202383 -0.631080
v -0.268648 -0.202383 -0.631080
v 0.000000 -0.202383 -0.684518
v -0.496397 0.202383 -0.478903
v -0.496397 -0.202383 -0.478903
v -0.648574 0.202383 -0.251154
v -0.648574 -0.202383 -0.251154
v -0.702012 0.202383 0.017494
v -0.702011 -0.202383 0.017494
v -0.648574 0.202383 0.286142
v -0.648574 -0.202383 0.286142
v -0.496397 0.202383 0.513891
v -0.496396 -0.202383 0.513891
v -0.268648 0.202383 0.666068
v -0.268648 -0.202383 0.666068
v -0.000000 0.202383 0.719505
v 0.000000 -0.202383 0.719505
v 0.268648 0.202383 0.666068
v 0.268649 -0.202383 0.666068
v 0.496397 0.202383 0.513891
v 0.496397 -0.202383 0.513891
v 0.648574 0.202383 0.286142
v 0.648574 -0.202383 0.286142
v 0.702011 0.202383 0.017494
v 0.702012 -0.202383 0.017494
v 0.648573 0.202383 -0.251154
v 0.648574 -0.202383 -0.251155
v 0.496397 0.202383 -0.478903
v 0.496397 -0.202383 -0.478903
v 0.268648 0.202383 -0.631080
v 0.268648 -0.202383 -0.631080
v -0.000000 0.202383 -0.925070
v -0.000000 0.133177 -0.970548
v 0.000000 -0.133177 -0.970549
v 0.000000 -0.202383 -0.925070
v -0.378108 0.133177 -0.895338
v -0.360704 0.202383 -0.853322
v -0.360703 -0.202383 -0.853322
v -0.378107 -0.133177 -0.895338
v -0.698652 0.133177 -0.681157
v -0.666494 0.202383 -0.648999
v -0.666493 -0.202383 -0.649000
v -0.698651 -0.133177 -0.681158
v -0.912832 0.133177 -0.360613
v -0.870816 0.202383 -0.343210
v -0.870815 -0.202383 -0.343210
v -0.912832 -0.133177 -0.360614
v -0.988043 0.133177 0.017494
v -0.942564 0.202383 0.017494
v -0.942563 -0.202383 0.017494
v -0.988042 -0.133177 0.017494
v -0.912832 0.133177 0.395602
v -0.870816 0.202383 0.378198
v -0.870815 -0.202383 0.378198
v -0.912832 -0.133177 0.395601
v -0.698652 0.133177 0.716145
v -0.666494 0.202383 0.683987
v -0.666493 -0.202383 0.683987
v -0.698651 -0.133177 0.716145
v -0.378108 0.133177 0.930326
v -0.360704 0.202383 0.888310
v -0.360703 -0.202383 0.888309
v -0.378107 -0.133177 0.930326
v -0.000000 0.133177 1.005536
v -0.000000 0.202383 0.960058
v 0.000000 -0.202383 0.960058
v 0.000000 -0.133177 1.005536
v 0.378107 0.133177 0.930326
v 0.360703 0.202383 0.888310
v 0.360704 -0.202383 0.888309
v 0.378108 -0.133177 0.930326
v 0.698651 0.133177 0.716145
v 0.666493 0.202383 0.683987
v 0.666494 -0.202383 0.683987
v 0.698652 -0.133177 0.716145
v 0.912832 0.133177 0.395601
v 0.870815 0.202383 0.378198
v 0.870816 -0.202383 0.378197
v 0.912832 -0.133177 0.395601
v 0.988042 0.133177 0.017494
v 0.942564 0.202383 0.017494
v 0.942565 -0.202383 0.017494
v 0.988043 -0.133177 0.017494
v 0.912832 0.133177 -0.360614
v 0.870815 0.202383 -0.343210
v 0.870816 -0.202383 -0.343210
v 0.912832 -0.133177 -0.360614
v 0.698651 0.133177 -0.681158
v 0.666493 0.202383 -0.649000
v 0.666493 -0.202383 -0.649000
v 0.698651 -0.133177 -0.681158
v 0.378107 0.133177 -0.895339
v 0.360703 0.202383 -0.853322
v 0.360704 -0.202383 -0.853322
v 0.378107 -0.133177 -0.895339
v 0.678333 -0.091385 0.678334
v 0.724026 -0.064619 0.632641
v 0.742952 0.000000 0.613715
v 0.724026 0.064619 0.632641
v 0.678333 0.091385 0.678334
v 0.632641 0.064619 0.724026
v 0.613714 0.000000 0.742953
v 0.632641 -0.064619 0.724026
v 0.735743 -0.065822 0.735744
v 0.716148 -0.091385 0.716149
v 0.768654 -0.046543 0.702833
v 0.761841 -0.064619 0.670457
v 0.782286 0.000000 0.689201
v 0.780767 0.000000 0.651530
v 0.768654 0.046543 0.702833
v 0.761841 0.064619 0.670457
v 0.735743 0.065822 0.735744
v 0.716148 0.091385 0.716149
v 0.702832 0.046543 0.768655
v 0.670456 0.064619 0.761841
v 0.689200 0.000000 0.782287
v 0.651529 0.000000 0.780768
v 0.702832 -0.046543 0.768654
v 0.670456 -0.064619 0.761841
v 0.959308 -0.091385 0.000000
v 0.959309 -0.064619 -0.064619
v 0.959309 0.000000 -0.091385
v 0.959309 0.064619 -0.064619
v 0.959308 0.091385 0.000000
v 0.959308 0.064619 0.064619
v 0.959308 0.000000 0.091385
v 0.959308 -0.064619 0.064619
v 1.040498 -0.065822 0.000000
v 1.012787 -0.091385 0.000000
v 1.040498 -0.046543 -0.046543
v 1.012787 -0.064619 -0.064619
v 1.040498 0.000000 -0.065822
v 1.012787 0.000000 -0.091385
v 1.040498 0.046543 -0.046543
v 1.012787 0.064619 -0.064619
v 1.040498 0.065822 0.000000
v 1.012787 0.091385 0.000000
v 1.040498 0.046543 0.046543
v 1.012787 0.064619 0.064619
v 1.040498 0.000000 0.065822
v 1.012787 0.000000 0.091385
v 1.040498 -0.046543 0.046543
v 1.012787 -0.064619 0.064619
v 0.678334 -0.091385 -0.678333
v 0.632641 -0.064619 -0.724026
v 0.613715 0.000000 -0.742952
v 0.632641 0.064619 -0.724026
v 0.678333 0.091385 -0.678333
v 0.724026 0.064619 -0.632641
v 0.742952 0.000000 -0.613715
v 0.724026 -0.064619 -0.632641
v 0.735743 -0.065822 -0.735743
v 0.716149 -0.091385 -0.716149
v 0.702833 -0.046543 -0.768654
v 0.670456 -0.064619 -0.761841
v 0.689200 0.000000 -0.782286
v 0.651530 0.000000 -0.780768
v 0.702833 0.046543 -0.768654
v 0.670456 0.064619 -0.761841
v 0.735743 0.065822 -0.735743
v 0.716149 0.091385 -0.716149
v 0.768654 0.046543 -0.702832
v 0.761841 0.064619 -0.670456
v 0.782286 0.000000 -0.689200
v 0.780768 0.000000 -0.651530
v 0.768654 -0.046543 -0.702832
v 0.761841 -0.064619 -0.670456
v -0.000000 -0.091385 -0.959308
v -0.064619 -0.064619 -0.959309
v -0.091385 -0.000000 -0.959309
v -0.064619 0.064619 -0.959309
v -0.000000 0.091385 -0.959308
v 0.064619 0.064619 -0.959308
v 0.091385 -0.000000 -0.959308
v 0.064619 -0.064619 -0.959308
v -0.000000 -0.065822 -1.040498
v -0.000000 -0.091385 -1.012787
v -0.046543 -0.046543 -1.040498
v -0.064619 -0.064619 -1.012787
v -0.065822 -0.000000 -1.040498
v -0.091385 -0.000000 -1.012787
v -0.046543 0.046543 -1.040498
v -0.064619 0.064619 -1.012787
v -0.000000 0.065822 -1.040498
v -0.000000 0.091385 -1.012787
v 0.046543 0.046543 -1.040498
v 0.064619 0.064619 -1.012787
v 0.065822 -0.000000 -1.040498
v 0.091385 -0.000000 -1.012787
v 0.046543 -0.046543 -1.040498
v 0.064619 -0.064619 -1.012787
v -0.678334 -0.091385 -0.678333
v -0.724026 -0.064619 -0.632641
v -0.742952 -0.000000 -0.613715
v -0.724026 0.064619 -0.632641
v -0.678334 0.091385 -0.678333
v -0.632641 0.064619 -0.724026
v -0.613715 -0.000000 -0.742952
v -0.632641 -0.064619 -0.724026
v -0.735743 -0.065822 -0.735743
v -0.716149 -0.091385 -0.716149
v -0.768654 -0.046543 -0.702832
v -0.761841 -0.064619 -0.670456
v -0.782287 -0.000000 -0.689200
v -0.780768 -0.000000 -0.651530
v -0.768654 0.046543 -0.702832
v -0.761841 0.064619 -0.670456
v -0.735744 0.065822 -0.735743
v -0.716149 0.091385 -0.716149
v -0.702833 0.046543 -0.768654
v -0.670456 0.064619 -0.761841
v -0.689200 -0.000000 -0.782286
v -0.651530 -0.000000 -0.780767
v -0.702833 -0.046543 -0.768654
v -0.670456 -0.064619 -0.761841
v -0.959308 -0.091385 0.000000
v -0.959309 -0.064619 0.064619
v -0.959309 -0.000000 0.091385
v -0.959309 0.064619 0.064619
v -0.959308 0.091385 0.000000
v -0.959308 0.064619 -0.064619
v -0.959308 -0.000000 -0.091385
v -0.959308 -0.064619 -0.064619
v -1.040498 -0.065822 0.000000
v -1.012787 -0.091385 0.000000
v -1.040498 -0.046543 0.046543
v -1.012787 -0.064619 0.064619
v -1.040498 -0.000000 0.065822
v -1.012787 -0.000000 0.091385
v -1.040498 0.046543 0.046543
v -1.012787 0.064619 0.064619
v -1.040498 0.065821 0.000000
v -1.012787 0.091385 0.000000
v -1.040498 0.046543 -0.046543
v -1.012787 0.064619 -0.064619
v -1.040498 -0.000000 -0.065822
v -1.012787 -0.000000 -0.091385
v -1.040498 -0.046543 -0.046543
v -1.012787 -0.064619 -0.064619
v -0.678333 -0.091385 0.678334
v -0.632641 -0.064619 0.724026
v -0.613715 -0.000000 0.742952
v -0.632641 0.064619 0.724026
v -0.678333 0.091385 0.678334
v -0.724026 0.064619 0.632641
v -0.742952 -0.000000 0.613715
v -0.724026 -0.064619 0.632641
v -0.735743 -0.065822 0.735743
v -0.716149 -0.091385 0.716149
v -0.702833 -0.046543 0.768654
v -0.670456 -0.064619 0.761841
v -0.689200 -0.000000 0.782287
v -0.651530 -0.000000 0.780768
v -0.702833 0.046543 0.768654
v -0.670456 0.064619 0.761841
v -0.735743 0.065822 0.735744
v -0.716149 0.091385 0.716149
v -0.768654 0.046543 0.702833
v -0.761841 0.064619 0.670456
v -0.782286 -0.000000 0.689200
v -0.780767 -0.000000 0.651530
v -0.768654 -0.046543 0.702832
v -0.761841 -0.064619 0.670456
v 0.000000 -0.091385 0.959308
v 0.064619 -0.064619 0.959309
v 0.091385 -0.000000 0.959309
v 0.064619 0.064619 0.959309
v 0.000000 0.091385 0.959308
v -0.064619 0.064619 0.959308
v -0.091385 -0.000000 0.959308
v -0.064619 -0.064619 0.959308
v 0.000000 -0.065822 1.040498
v 0.000000 -0.091385 1.012787
v 0.046543 -0.046543 1.040498
v 0.064619 -0.064619 1.012787
v 0.065822 -0.000000 1.040498
v 0.091385 -0.000000 1.012787
v 0.046543 0.046543 1.040498
v 0.064619 0.064619 1.012787
v 0.000000 0.065822 1.040498
v 0.000000 0.091385 1.012787
v -0.046543 0.046543 1.040498
v -0.064619 0.064619 1.012787
v -0.065822 -0.000000 1.040498
v -0.091385 -0.000000 1.012787
v -0.046543 -0.046543 1.040498
v -0.064619 -0.064619 1.012787
vn -0.2706 -0.9239 0.2706
vn 0.6533 0.3827 -0.6533
vn 0.2706 0.9239 -0.2706
vn -0.2706 0.9239 0.2706
vn -0.6533 0.3827 0.6533
vn -0.6533 -0.3827 0.6533
vn 0.6533 -0.3827 -0.6533
vn 0.2706 -0.9239 -0.2706
vn 0.6646 -0.7032 0.2527
vn 0.9559 -0.2913 -0.0385
vn 0.9559 0.2913 -0.0385
vn 0.6646 0.7032 0.2527
vn 0.2527 0.7032 0.6646
vn -0.0385 0.2913 0.9559
vn -0.0385 -0.2913 0.9559
vn 0.2527 -0.7032 0.6646
vn 0.7071 -0.0000 0.7071
vn 0.0000 -0.9239 0.3827
vn -0.0000 0.3827 -0.9239
vn -0.0000 0.9239 -0.3827
vn -0.0000 0.9239 0.3827
vn -0.0000 0.3827 0.9239
vn -0.0000 -0.3827 0.9239
vn -0.0000 -0.3827 -0.9239
vn 0.0000 -0.9239 -0.3827
vn 0.6487 -0.7032 -0.2913
vn 0.6487 -0.2913 -0.7032
vn 0.6487 0.2913 -0.7032
vn 0.6487 0.7032 -0.2913
vn 0.6486 0.7032 0.2913
vn 0.6486 0.2913 0.7032
vn 0.6486 -0.2913 0.7032
vn 0.6487 -0.7032 0.2913
vn 1.0000 0.0000 0.0000
vn 0.2706 -0.9239 0.2706
vn -0.6533 0.3827 -0.6533
vn -0.2706 0.9239 -0.2706
vn 0.2706 0.9239 0.2706
vn 0.6533 0.3827 0.6533
vn 0.6533 -0.3827 0.6533
vn -0.6533 -0.3827 -0.6533
vn -0.2706 -0.9239 -0.2706
vn 0.2527 -0.7032 -0.6646
vn -0.0385 -0.2913 -0.9559
vn -0.0385 0.2913 -0.9559
vn 0.2527 0.7032 -0.6646
vn 0.6646 0.7032 -0.2527
vn 0.9559 0.2913 0.0385
vn 0.9559 -0.2913 0.0385
vn 0.6646 -0.7032 -0.2527
vn 0.7071 -0.0000 -0.7071
vn 0.3827 -0.9239 -0.0000
vn -0.9239 0.3827 0.0000
vn -0.3827 0.9239 0.0000
vn 0.3827 0.9239 -0.0000
vn 0.9239 0.3827 0.0000
vn 0.9239 -0.3827 0.0000
vn -0.9239 -0.3827 0.0000
vn -0.3827 -0.9239 -0.0000
vn -0.2913 -0.7032 -0.6487
vn -0.7031 -0.2913 -0.6487
vn -0.7032 0.2913 -0.6487
vn -0.2913 0.7032 -0.6487
vn 0.2913 0.7032 -0.6486
vn 0.7032 0.2913 -0.6486
vn 0.7032 -0.2913 -0.6487
vn 0.2913 -0.7032 -0.6487
vn 0.0000 -0.0000 -1.0000
vn -0.6646 -0.7032 -0.2527
vn -0.9559 -0.2913 0.0385
vn -0.9559 0.2913 0.0385
vn -0.6646 0.7032 -0.2527
vn -0.2527 0.7032 -0.6646
vn 0.0385 0.2913 -0.9559
vn 0.0385 -0.2913 -0.9559
vn -0.2527 -0.7032 -0.6646
vn -0.7071 -0.0000 -0.7071
vn -0.6487 -0.7032 0.2913
vn -0.6487 -0.2913 0.7032
vn -0.6487 0.2913 0.7032
vn -0.6487 0.7031 0.2913
vn -0.6486 0.7032 -0.2913
vn -0.6486 0.2913 -0.7032
vn -0.6486 -0.2913 -0.7032
vn -0.6487 -0.7032 -0.2913
vn -1.0000 0.0000 -0.0000
vn -0.2527 -0.7032 0.6646
vn 0.0385 -0.2913 0.9559
vn 0.0385 0.2913 0.9559
vn -0.2527 0.7032 0.6646
vn -0.6646 0.7032 0.2527
vn -0.9559 0.2913 -0.0385
vn -0.9559 -0.2913 -0.0385
vn -0.6646 -0.7032 0.2527
vn -0.7071 -0.0000 0.7071
vn 0.2913 -0.7032 0.6487
vn 0.7032 -0.2913 0.6487
vn 0.7032 0.2913 0.6487
vn 0.2913 0.7032 0.6487
vn -0.2913 0.7032 0.6486
vn -0.7032 0.2913 0.6486
vn -0.7032 -0.2913 0.6486
vn -0.2913 -0.7032 0.6487
vn -0.0000 -0.0000 1.0000
vn -0.3827 -0.0000 -0.9239
vn -0.9239 -0.0000 -0.3827
vn -0.9239 -0.0000 0.3827
vn -0.3827 -0.0000 0.9239
vn 0.3827 0.0000 0.9239
vn 0.9239 0.0000 0.3827
vn 0.9239 0.0000 -0.3827
vn -0.0000 -1.0000 0.0000
vn 0.3827 0.0000 -0.9239
vn 0.0000 1.0000 -0.0000
vn -0.0000 0.5492 -0.8357
vn -0.3198 0.5492 -0.7721
vn -0.3198 -0.5492 -0.7721
vn -0.0000 -0.5492 -0.8357
vn -0.5909 0.5492 -0.5909
vn -0.5909 -0.5492 -0.5909
vn -0.7721 0.5492 -0.3198
vn -0.7721 -0.5492 -0.3198
vn -0.8357 0.5492 -0.0000
vn -0.8357 -0.5492 0.0000
vn -0.7721 0.5492 0.3198
vn -0.7721 -0.5492 0.3198
vn -0.5909 0.5492 0.5909
vn -0.5909 -0.5492 0.5909
vn -0.3198 0.5492 0.7721
vn -0.3198 -0.5492 0.7721
vn 0.0000 0.5492 0.8357
vn -0.0000 -0.5492 0.8357
vn 0.3198 0.5492 0.7721
vn 0.3198 -0.5492 0.7721
vn 0.5909 0.5492 0.5909
vn 0.5909 -0.5492 0.5909
vn 0.7721 0.5492 0.3198
vn 0.7721 -0.5492 0.3198
vn 0.8357 0.5492 -0.0000
vn 0.8357 -0.5492 -0.0000
vn 0.7721 0.5492 -0.3198
vn 0.7721 -0.5492 -0.3198
vn 0.5909 0.5492 -0.5909
vn 0.5909 -0.5492 -0.5909
vn 0.3198 0.5492 -0.7721
vn 0.3198 -0.5492 -0.7721
usemtl Pipe
s off
f 184//1 168//1 161//1 170//1
f 174//2 163//2 164//2 176//2
f 176//3 164//3 165//3 178//3
f 178//4 165//4 166//4 180//4
f 180//5 166//5 167//5 182//5
f 182//6 167//6 168//6 184//6
f 172//7 162//7 163//7 174//7
f 170//8 161//8 162//8 172//8
f 170//9 172//9 171//9 169//9
f 172//10 174//10 173//10 171//10
f 174//11 176//11 175//11 173//11
f 176//12 178//12 177//12 175//12
f 178//13 180//13 179//13 177//13
f 180//14 182//14 181//14 179//14
f 182//15 184//15 183//15 181//15
f 184//16 170//16 169//16 183//16
f 169//17 171//17 173//17 175//17 177//17 179//17 181//17 183//17
f 208//18 192//18 185//18 194//18
f 198//19 187//19 188//19 200//19
f 200//20 188//20 189//20 202//20
f 202//21 189//21 190//21 204//21
f 204//22 190//22 191//22 206//22
f 206//23 191//23 192//23 208//23
f 196//24 186//24 187//24 198//24
f 194//25 185//25 186//25 196//25
f 194//26 196//26 195//26 193//26
f 196//27 198//27 197//27 195//27
f 198//28 200//28 199//28 197//28
f 200//29 202//29 201//29 199//29
f 202//30 204//30 203//30 201//30
f 204//31 206//31 205//31 203//31
f 206//32 208//32 207//32 205//32
f 208//33 194//33 193//33 207//33
f 193//34 195//34 197//34 199//34 201//34 203//34 205//34 207//34
f 232//35 216//35 209//35 218//35
f 222//36 211//36 212//36 224//36
f 224//37 212//37 213//37 226//37
f 226//38 213//38 214//38 228//38
f 228//39 214//39 215//39 230//39
f 230//40 215//40 216//40 232//40
f 220//41 210//41 211//41 222//41
f 218//42 209//42 210//42 220//42
f 218//43 220//43 219//43 217//43
f 220//44 222//44 221//44 219//44
f 222//45 224//45 223//45 221//45
f 224//46 226//46 225//46 223//46
f 226//47 228//47 227//47 225//47
f 228//48 230//48 229//48 227//48
f 230//49 232//49 231//49 229//49
f 232//50 218//50 217//50 231//50
f 217//51 219//51 221//51 223//51 225//51 227//51 229//51 231//51
f 256//52 240//52 233//52 242//52
f 246//53 235//53 236//53 248//53
f 248//54 236//54 237//54 250//54
f 250//55 237//55 238//55 252//55
f 252//56 238//56 239//56 254//56
f 254//57 239//57 240//57 256//57
f 244//58 234//58 235//58 246//58
f 242//59 233//59 234//59 244//59
f 242//60 244//60 243//60 241//60
f 244//61 246//61 245//61 243//61
f 246//62 248//62 247//62 245//62
f 248//63 250//63 249//63 247//63
f 250//64 252//64 251//64 249//64
f 252//65 254//65 253//65 251//65
f 254//66 256//66 255//66 253//66
f 256//67 242//67 241//67 255//67
f 241//68 243//68 245//68 247//68 249//68 251//68 253//68 255//68
f 280//8 264//8 257//8 266//8
f 270//5 259//5 260//5 272//5
f 272//4 260//4 261//4 274//4
f 274//3 261//3 262//3 276//3
f 276//2 262//2 263//2 278//2
f 278//7 263//7 264//7 280//7
f 268//6 258//6 259//6 270//6
f 266//1 257//1 258//1 268//1
f 266//69 268//69 267//69 265//69
f 268//70 270//70 269//70 267//70
f 270//71 272//71 271//71 269//71
f 272//72 274//72 273//72 271//72
f 274//73 276//73 275//73 273//73
f 276//74 278//74 277//74 275//74
f 278//75 280//75 279//75 277//75
f 280//76 266//76 265//76 279//76
f 265//77 267//77 269//77 271//77 273//77 275//77 277//77 279//77
f 304//25 288//25 281//25 290//25
f 294//22 283//22 284//22 296//22
f 296//21 284//21 285//21 298//21
f 298//20 285//20 286//20 300//20
f 300//19 286//19 287//19 302//19
f 302//24 287//24 288//24 304//24
f 292//23 282//23 283//23 294//23
f 290//18 281//18 282//18 292//18
f 290//78 292//78 291//78 289//78
f 292//79 294//79 293//79 291//79
f 294//80 296//80 295//80 293//80
f 296//81 298//81 297//81 295//81
f 298//82 300//82 299//82 297//82
f 300//83 302//83 301//83 299//83
f 302//84 304//84 303//84 301//84
f 304//85 290//85 289//85 303//85
f 289//86 291//86 293//86 295//86 297//86 299//86 301//86 303//86
f 328//42 312//42 305//42 314//42
f 318//39 307//39 308//39 320//39
f 320//38 308//38 309//38 322//38
f 322//37 309//37 310//37 324//37
f 324//36 310//36 311//36 326//36
f 326//41 311//41 312//41 328//41
f 316//40 306//40 307//40 318//40
f 314//35 305//35 306//35 316//35
f 314//87 316//87 315//87 313//87
f 316//88 318//88 317//88 315//88
f 318//89 320//89 319//89 317//89
f 320//90 322//90 321//90 319//90
f 322//91 324//91 323//91 321//91
f 324//92 326//92 325//92 323//92
f 326//93 328//93 327//93 325//93
f 328//94 314//94 313//94 327//94
f 313//95 315//95 317//95 319//95 321//95 323//95 325//95 327//95
f 352//59 336//59 329//59 338//59
f 342//56 331//56 332//56 344//56
f 344//55 332//55 333//55 346//55
f 346//54 333//54 334//54 348//54
f 348//53 334//53 335//53 350//53
f 350//58 335//58 336//58 352//58
f 340//57 330//57 331//57 342//57
f 338//52 329//52 330//52 340//52
f 338//96 340//96 339//96 337//96
f 340//97 342//97 341//97 339//97
f 342//98 344//98 343//98 341//98
f 344//99 346//99 345//99 343//99
f 346//100 348//100 347//100 345//100
f 348//101 350//101 349//101 347//101
f 350//102 352//102 351//102 349//102
f 352//103 338//103 337//103 351//103
f 337//104 339//104 341//104 343//104 345//104 347//104 349//104 351//104
s 1
f 1//68 2//68 4//105 3//105
f 3//105 4//105 6//77 5//77
f 5//77 6//77 8//106 7//106
f 7//106 8//106 10//86 9//86
f 9//86 10//86 12//107 11//107
f 11//107 12//107 14//95 13//95
f 13//95 14//95 16//108 15//108
f 15//108 16//108 18//104 17//104
f 17//104 18//104 20//109 19//109
f 19//109 20//109 22//17 21//17
f 21//17 22//17 24//110 23//110
f 23//110 24//110 26//34 25//34
f 25//34 26//34 28//111 27//111
f 27//111 28//111 30//51 29//51
f 26//112 24//112 56//112 58//112
f 29//51 30//51 32//113 31//113
f 31//113 32//113 2//68 1//68
f 8//112 6//112 38//112 40//112
f 63//108 64//108 62//95 61//95
f 33//104 36//104 64//108 63//108
f 15//114 17//114 49//114 47//114
f 18//112 16//112 48//112 50//112
f 7//114 9//114 41//114 39//114
f 25//114 27//114 59//114 57//114
f 10//112 8//112 40//112 42//112
f 28//112 26//112 58//112 60//112
f 17//114 19//114 51//114 49//114
f 20//112 18//112 50//112 52//112
f 9//114 11//114 43//114 41//114
f 27//114 29//114 61//114 59//114
f 1//114 3//114 34//114 33//114
f 12//112 10//112 42//112 44//112
f 30//112 28//112 60//112 62//112
f 4//112 2//112 36//112 35//112
f 19//114 21//114 53//114 51//114
f 22//112 20//112 52//112 54//112
f 11//114 13//114 45//114 43//114
f 29//114 31//114 63//114 61//114
f 14//112 12//112 44//112 46//112
f 32//112 30//112 62//112 64//112
f 3//114 5//114 37//114 34//114
f 21//114 23//114 55//114 53//114
f 6//112 4//112 35//112 38//112
f 24//112 22//112 54//112 56//112
f 13//114 15//114 47//114 45//114
f 31//114 1//114 33//114 63//114
f 16//112 14//112 46//112 48//112
f 2//112 32//112 64//112 36//112
f 5//114 7//114 39//114 37//114
f 23//114 25//114 57//114 55//114
f 61//95 62//95 60//107 59//107
f 59//107 60//107 58//86 57//86
f 57//86 58//86 56//106 55//106
f 55//106 56//106 54//77 53//77
f 53//77 54//77 52//105 51//105
f 51//105 52//105 50//68 49//68
f 49//68 50//68 48//113 47//113
f 47//113 48//113 46//51 45//51
f 45//51 46//51 44//111 43//111
f 43//111 44//111 42//34 41//34
f 41//34 42//34 40//110 39//110
f 39//110 40//110 38//17 37//17
f 37//17 38//17 35//109 34//109
f 34//109 35//109 36//104 33//104
usemtl Pipe_Light
f 157//113 160//113 99//68 98//68
f 106//114 69//114 66//114 102//114
f 110//114 71//114 69//114 106//114
f 114//114 73//114 71//114 110//114
f 118//114 75//114 73//114 114//114
f 122//114 77//114 75//114 118//114
f 126//114 79//114 77//114 122//114
f 130//114 81//114 79//114 126//114
f 134//114 83//114 81//114 130//114
f 138//114 85//114 83//114 134//114
f 142//114 87//114 85//114 138//114
f 146//114 89//114 87//114 142//114
f 150//114 91//114 89//114 146//114
f 154//114 93//114 91//114 150//114
f 158//114 95//114 93//114 154//114
f 97//114 65//114 95//114 158//114
f 98//68 99//68 104//105 101//105
f 117//107 120//107 124//95 121//95
f 153//51 156//51 160//113 157//113
f 159//112 96//112 68//112 100//112
f 135//112 84//112 86//112 139//112
f 137//17 140//17 144//110 141//110
f 119//112 76//112 78//112 123//112
f 155//112 94//112 96//112 159//112
f 121//95 124//95 128//108 125//108
f 103//112 67//112 70//112 107//112
f 139//112 86//112 88//112 143//112
f 105//77 108//77 112//106 109//106
f 141//110 144//110 148//34 145//34
f 123//112 78//112 80//112 127//112
f 100//112 68//112 67//112 103//112
f 125//108 128//108 132//104 129//104
f 101//105 104//105 108//77 105//77
f 107//112 70//112 72//112 111//112
f 143//112 88//112 90//112 147//112
f 109//106 112//106 116//86 113//86
f 145//34 148//34 152//111 149//111
f 127//112 80//112 82//112 131//112
f 129//104 132//104 136//109 133//109
f 111//112 72//112 74//112 115//112
f 147//112 90//112 92//112 151//112
f 113//86 116//86 120//107 117//107
f 149//111 152//111 156//51 153//51
f 131//112 82//112 84//112 135//112
f 133//109 136//109 140//17 137//17
f 115//112 74//112 76//112 119//112
f 151//112 92//112 94//112 155//112
f 98//115 101//116 102//116 97//115
f 104//117 99//118 100//118 103//117
f 101//116 105//119 106//119 102//116
f 108//120 104//117 103//117 107//120
f 105//119 109//121 110//121 106//119
f 112//122 108//120 107//120 111//122
f 109//121 113//123 114//123 110//121
f 116//124 112//122 111//122 115//124
f 113//123 117//125 118//125 114//123
f 120//126 116//124 115//124 119//126
f 117//125 121//127 122//127 118//125
f 124//128 120//126 119//126 123//128
f 121//127 125//129 126//129 122//127
f 128//130 124//128 123//128 127//130
f 125//129 129//131 130//131 126//129
f 132//132 128//130 127//130 131//132
f 129//131 133//133 134//133 130//131
f 136//134 132//132 131//132 135//134
f 133//133 137//135 138//135 134//133
f 140//136 136//134 135//134 139//136
f 137//135 141//137 142//137 138//135
f 144//138 140//136 139//136 143//138
f 141//137 145//139 146//139 142//137
f 148//140 144//138 143//138 147//140
f 145//139 149//141 150//141 146//139
f 152//142 148//140 147//140 151//142
f 149//141 153//143 154//143 150//141
f 156//144 152//142 151//142 155//144
f 153//143 157//145 158//145 154//143
f 160//146 156//144 155//144 159//146
f 157//145 98//115 97//115 158//145
f 99//118 160//146 159//146 100//118
f 102//114 66//114 65//114 97//114
