# Blender v2.79 (sub 0) OBJ File: 'Stairs.blend'
# www.blender.org
mtllib Stairs.mtl
o Stairs_Cube.162
v -0.829068 -0.500000 0.000000
v -0.700323 -0.500000 -0.128745
v -0.571578 -0.500000 0.000000
v -0.700323 -0.500000 0.128745
v -0.425344 -0.425814 0.004128
v -0.425344 -0.520013 0.098327
v -0.425344 -0.520013 -0.090071
v -0.425344 -0.614212 0.004128
v -0.882883 -0.520013 0.004128
v -0.866786 -0.614212 0.004128
v -0.866786 -0.520013 -0.090071
v -0.866786 -0.520013 0.098327
v -0.866786 -0.425814 0.004128
v 0.829068 -0.500000 0.000000
v 0.700323 -0.500000 -0.128745
v 0.571578 -0.500000 0.000000
v 0.700323 -0.500000 0.128745
v 0.425344 -0.425814 0.004128
v 0.425344 -0.520013 0.098327
v 0.425344 -0.520013 -0.090071
v 0.425344 -0.614212 0.004128
v 0.882883 -0.520013 0.004128
v 0.866786 -0.614212 0.004128
v 0.866786 -0.520013 -0.090071
v 0.866786 -0.520013 0.098327
v 0.866786 -0.425814 0.004128
v -0.829068 0.500000 0.000000
v -0.700323 0.500000 -0.128745
v -0.571578 0.500000 0.000000
v -0.700323 0.500000 0.128745
v -0.425344 0.574186 0.004128
v -0.425344 0.479987 0.098327
v -0.425344 0.479987 -0.090071
v -0.425344 0.385788 0.004128
v -0.882883 0.479987 0.004128
v -0.866786 0.385788 0.004128
v -0.866786 0.479987 -0.090071
v -0.866786 0.479987 0.098327
v -0.866786 0.574186 0.004128
v 0.829068 0.500000 0.000000
v 0.700323 0.500000 -0.128745
v 0.571578 0.500000 0.000000
v 0.700323 0.500000 0.128745
v 0.425344 0.574186 0.004128
v 0.425344 0.479987 0.098327
v 0.425344 0.479987 -0.090071
v 0.425344 0.385788 0.004128
v 0.882883 0.479987 0.004128
v 0.866786 0.385788 0.004128
v 0.866786 0.479987 -0.090071
v 0.866786 0.479987 0.098327
v 0.866786 0.574186 0.004128
v -0.829068 -1.000000 0.000000
v -0.796882 -0.500000 0.096559
v -0.829068 -0.000000 0.000000
v -0.796882 -0.500000 -0.096559
v -0.700323 -1.000000 -0.128745
v -0.700323 -0.000000 -0.128745
v -0.603764 -0.500000 -0.096559
v -0.571578 -1.000000 0.000000
v -0.571578 -0.000000 0.000000
v -0.603764 -0.500000 0.096559
v -0.700323 -1.000000 0.128745
v -0.700323 -0.000000 0.128745
v -0.878859 -0.449364 0.004128
v -0.878859 -0.520013 -0.066521
v -0.878859 -0.590662 0.004128
v -0.878859 -0.520013 0.074777
v 0.000000 -0.425814 0.004128
v 0.000000 -0.520013 -0.090071
v 0.000000 -0.614212 0.004128
v 0.000000 -0.520013 0.098327
v -0.425344 -0.449364 -0.066521
v -0.866786 -0.449364 0.074777
v -0.866786 -0.590662 0.074777
v -0.425344 -0.590662 -0.066521
v -0.866786 -0.449364 -0.066521
v -0.425344 -0.449364 0.074777
v -0.425344 -0.590662 0.074777
v -0.866786 -0.590662 -0.066521
v -0.748376 -0.614212 0.004128
v -0.748376 -0.520013 -0.090071
v -0.748376 -0.520013 0.098327
v -0.748376 -0.425814 0.004128
v 0.829068 -1.000000 0.000000
v 0.796882 -0.500000 0.096559
v 0.829068 -0.000000 0.000000
v 0.796882 -0.500000 -0.096559
v 0.700323 -1.000000 -0.128745
v 0.700323 -0.000000 -0.128745
v 0.603764 -0.500000 -0.096559
v 0.571578 -1.000000 0.000000
v 0.571578 -0.000000 0.000000
v 0.603764 -0.500000 0.096559
v 0.700323 -1.000000 0.128745
v 0.700323 -0.000000 0.128745
v 0.878859 -0.449364 0.004128
v 0.878859 -0.520013 -0.066521
v 0.878859 -0.590662 0.004128
v 0.878859 -0.520013 0.074777
v 0.425344 -0.449364 -0.066521
v 0.866786 -0.449364 0.074777
v 0.866786 -0.590662 0.074777
v 0.425344 -0.590662 -0.066521
v 0.866786 -0.449364 -0.066521
v 0.425344 -0.449364 0.074777
v 0.425344 -0.590662 0.074777
v 0.866786 -0.590662 -0.066521
v 0.748376 -0.614212 0.004128
v 0.748376 -0.520013 -0.090071
v 0.748376 -0.520013 0.098327
v 0.748376 -0.425814 0.004128
v -0.796882 0.500000 0.096559
v -0.829068 1.000000 0.000000
v -0.796882 0.500000 -0.096559
v -0.700323 1.000000 -0.128745
v -0.603764 0.500000 -0.096559
v -0.571578 1.000000 0.000000
v -0.603764 0.500000 0.096559
v -0.700323 1.000000 0.128745
v -0.878859 0.550636 0.004128
v -0.878859 0.479987 -0.066521
v -0.878859 0.409338 0.004128
v -0.878859 0.479987 0.074777
v 0.000000 0.574186 0.004128
v 0.000000 0.479987 -0.090071
v 0.000000 0.385788 0.004128
v 0.000000 0.479987 0.098327
v -0.425344 0.550636 -0.066521
v -0.866786 0.550636 0.074777
v -0.866786 0.409338 0.074777
v -0.425344 0.409338 -0.066521
v -0.866786 0.550636 -0.066521
v -0.425344 0.550636 0.074777
v -0.425344 0.409338 0.074777
v -0.866786 0.409338 -0.066521
v -0.748376 0.385788 0.004128
v -0.748376 0.479987 -0.090071
v -0.748376 0.479987 0.098327
v -0.748376 0.574186 0.004128
v 0.796882 0.500000 0.096559
v 0.829068 1.000000 0.000000
v 0.796882 0.500000 -0.096559
v 0.700323 1.000000 -0.128745
v 0.603764 0.500000 -0.096559
v 0.571578 1.000000 0.000000
v 0.603764 0.500000 0.096559
v 0.700323 1.000000 0.128745
v 0.878859 0.550636 0.004128
v 0.878859 0.479987 -0.066521
v 0.878859 0.409338 0.004128
v 0.878859 0.479987 0.074777
v 0.425344 0.550636 -0.066521
v 0.866786 0.550636 0.074777
v 0.866786 0.409338 0.074777
v 0.425344 0.409338 -0.066521
v 0.866786 0.550636 -0.066521
v 0.425344 0.550636 0.074777
v 0.425344 0.409338 0.074777
v 0.866786 0.409338 -0.066521
v 0.748376 0.385788 0.004128
v 0.748376 0.479987 -0.090071
v 0.748376 0.479987 0.098327
v 0.748376 0.574186 0.004128
v -0.796882 -1.000000 0.096559
v -0.796882 -0.000000 0.096559
v -0.796882 -1.000000 -0.096559
v -0.796882 -0.000000 -0.096559
v -0.603764 -1.000000 0.096559
v -0.603764 -0.000000 0.096559
v -0.603764 -1.000000 -0.096559
v -0.603764 -0.000000 -0.096559
v -0.875729 -0.467680 0.056461
v -0.875729 -0.467680 -0.048205
v -0.875729 -0.572346 0.056461
v -0.875729 -0.572346 -0.048205
v -0.748376 -0.449364 -0.066521
v -0.748376 -0.449364 0.074777
v -0.748376 -0.590662 0.074777
v -0.748376 -0.590662 -0.066521
v 0.796882 -1.000000 0.096559
v 0.796882 -0.000000 0.096559
v 0.796882 -1.000000 -0.096559
v 0.796882 -0.000000 -0.096559
v 0.603764 -1.000000 0.096559
v 0.603764 -0.000000 0.096559
v 0.603764 -1.000000 -0.096559
v 0.603764 -0.000000 -0.096559
v 0.875729 -0.467680 0.056461
v 0.875729 -0.467680 -0.048205
v 0.875729 -0.572346 0.056461
v 0.875729 -0.572346 -0.048205
v 0.000000 -0.449364 -0.066521
v 0.000000 -0.449364 0.074777
v 0.000000 -0.590662 -0.066521
v 0.000000 -0.590662 0.074777
v 0.748376 -0.449364 -0.066521
v 0.748376 -0.449364 0.074777
v 0.748376 -0.590662 0.074777
v 0.748376 -0.590662 -0.066521
v -0.796882 1.000000 0.096559
v -0.796882 1.000000 -0.096559
v -0.603764 1.000000 0.096559
v -0.603764 1.000000 -0.096559
v -0.875729 0.532320 0.056461
v -0.875729 0.532320 -0.048205
v -0.875729 0.427654 0.056461
v -0.875729 0.427654 -0.048205
v -0.748376 0.550636 -0.066521
v -0.748376 0.550636 0.074777
v -0.748376 0.409338 0.074777
v -0.748376 0.409338 -0.066521
v 0.796882 1.000000 0.096559
v 0.796882 1.000000 -0.096559
v 0.603764 1.000000 0.096559
v 0.603764 1.000000 -0.096559
v 0.875729 0.532320 0.056461
v 0.875729 0.532320 -0.048205
v 0.875729 0.427654 0.056461
v 0.875729 0.427654 -0.048205
v 0.000000 0.550636 -0.066521
v 0.000000 0.550636 0.074777
v 0.000000 0.409338 -0.066521
v 0.000000 0.409338 0.074777
v 0.748376 0.550636 -0.066521
v 0.748376 0.550636 0.074777
v 0.748376 0.409338 0.074777
v 0.748376 0.409338 -0.066521
vn -1.0000 0.0000 0.0000
vn -0.7071 0.0000 0.7071
vn -0.7071 -0.0000 -0.7071
vn -0.0000 0.0000 -1.0000
vn 0.7071 0.0000 -0.7071
vn 1.0000 0.0000 -0.0000
vn 0.7071 -0.0000 0.7071
vn 0.0000 0.0000 1.0000
vn 0.0000 -1.0000 0.0000
vn 0.0000 1.0000 0.0000
vn 0.0000 0.7071 0.7071
vn 0.0000 0.7071 -0.7071
vn 0.0000 -0.7071 0.7071
vn 0.0000 -0.7071 -0.7071
vn -0.9642 0.2651 0.0000
vn -0.9580 0.2028 -0.2028
vn -0.9642 0.0000 -0.2651
vn -0.9580 -0.2028 -0.2028
vn -0.9642 -0.2651 -0.0000
vn -0.9580 -0.2028 0.2028
vn -0.9642 -0.0000 0.2651
vn -0.9580 0.2028 0.2028
vn -0.9196 -0.3929 -0.0000
vn -0.9210 -0.2754 -0.2754
vn -0.9210 -0.2754 0.2754
vn -0.9196 0.0000 -0.3929
vn -0.9210 0.2754 -0.2754
vn -0.9196 0.0000 0.3929
vn -0.9210 0.2754 0.2754
vn -0.9196 0.3929 0.0000
vn 0.9642 0.0000 -0.2651
vn 0.9580 0.2028 -0.2028
vn 0.9642 0.2651 0.0000
vn 0.9580 0.2028 0.2028
vn 0.9642 0.0000 0.2651
vn 0.9580 -0.2028 0.2028
vn 0.9642 -0.2651 -0.0000
vn 0.9580 -0.2028 -0.2028
vn 0.9196 -0.3929 -0.0000
vn 0.9210 -0.2754 -0.2754
vn 0.9210 -0.2754 0.2754
vn 0.9196 0.0000 -0.3929
vn 0.9210 0.2754 -0.2754
vn 0.9196 0.0000 0.3929
vn 0.9210 0.2754 0.2754
vn 0.9196 0.3929 0.0000
usemtl Wood
s 1
f 1//1 53//1 165//2 54//2
f 1//1 54//2 166//2 55//1
f 1//1 55//1 168//3 56//3
f 1//1 56//3 167//3 53//1
f 2//4 57//4 167//3 56//3
f 2//4 56//3 168//3 58//4
f 2//4 58//4 172//5 59//5
f 2//4 59//5 171//5 57//4
f 3//6 60//6 171//5 59//5
f 3//6 59//5 172//5 61//6
f 3//6 61//6 170//7 62//7
f 3//6 62//7 169//7 60//6
f 4//8 63//8 169//7 62//7
f 4//8 62//7 170//7 64//8
f 4//8 64//8 166//2 54//2
f 4//8 54//2 165//2 63//8
f 14//6 86//7 181//7 85//6
f 14//6 85//6 183//5 88//5
f 14//6 88//5 184//5 87//6
f 14//6 87//6 182//7 86//7
f 15//4 88//5 183//5 89//4
f 15//4 89//4 187//3 91//3
f 15//4 91//3 188//3 90//4
f 15//4 90//4 184//5 88//5
f 16//1 91//3 187//3 92//1
f 16//1 92//1 185//2 94//2
f 16//1 94//2 186//2 93//1
f 16//1 93//1 188//3 91//3
f 17//8 94//2 185//2 95//8
f 17//8 95//8 181//7 86//7
f 17//8 86//7 182//7 96//8
f 17//8 96//8 186//2 94//2
f 27//1 55//1 166//2 113//2
f 27//1 113//2 201//2 114//1
f 27//1 114//1 202//3 115//3
f 27//1 115//3 168//3 55//1
f 28//4 58//4 168//3 115//3
f 28//4 115//3 202//3 116//4
f 28//4 116//4 204//5 117//5
f 28//4 117//5 172//5 58//4
f 29//6 61//6 172//5 117//5
f 29//6 117//5 204//5 118//6
f 29//6 118//6 203//7 119//7
f 29//6 119//7 170//7 61//6
f 30//8 64//8 170//7 119//7
f 30//8 119//7 203//7 120//8
f 30//8 120//8 201//2 113//2
f 30//8 113//2 166//2 64//8
f 40//6 141//7 182//7 87//6
f 40//6 87//6 184//5 143//5
f 40//6 143//5 214//5 142//6
f 40//6 142//6 213//7 141//7
f 41//4 143//5 184//5 90//4
f 41//4 90//4 188//3 145//3
f 41//4 145//3 216//3 144//4
f 41//4 144//4 214//5 143//5
f 42//1 145//3 188//3 93//1
f 42//1 93//1 186//2 147//2
f 42//1 147//2 215//2 146//1
f 42//1 146//1 216//3 145//3
f 43//8 147//2 186//2 96//8
f 43//8 96//8 182//7 141//7
f 43//8 141//7 213//7 148//8
f 43//8 148//8 215//2 147//2
f 167//9 57//9 171//9 60//9 169//9 63//9 165//9 53//9
f 183//9 85//9 181//9 95//9 185//9 92//9 187//9 89//9
f 201//10 120//10 203//10 118//10 204//10 116//10 202//10 114//10
f 213//10 142//10 214//10 144//10 216//10 146//10 215//10 148//10
usemtl Wood_Light
f 5//10 84//10 178//11 78//11
f 5//10 78//11 194//11 69//10
f 5//10 69//10 193//12 73//12
f 5//10 73//12 177//12 84//10
f 6//8 83//8 179//13 79//13
f 6//8 79//13 196//13 72//8
f 6//8 72//8 194//11 78//11
f 6//8 78//11 178//11 83//8
f 7//4 82//4 177//12 73//12
f 7//4 73//12 193//12 70//4
f 7//4 70//4 195//14 76//14
f 7//4 76//14 180//14 82//4
f 8//9 81//9 180//14 76//14
f 8//9 76//14 195//14 71//9
f 8//9 71//9 196//13 79//13
f 8//9 79//13 179//13 81//9
f 9//1 65//15 174//16 66//17
f 9//1 66//17 176//18 67//19
f 9//1 67//19 175//20 68//21
f 9//1 68//21 173//22 65//15
f 10//23 67//19 176//18 80//24
f 10//9 80//14 180//14 81//9
f 10//9 81//9 179//13 75//13
f 10//23 75//25 175//20 67//19
f 11//26 66//17 174//16 77//27
f 11//4 77//12 177//12 82//4
f 11//4 82//4 180//14 80//14
f 11//26 80//24 176//18 66//17
f 12//28 68//21 175//20 75//25
f 12//8 75//13 179//13 83//8
f 12//8 83//8 178//11 74//11
f 12//28 74//29 173//22 68//21
f 13//30 65//15 173//22 74//29
f 13//10 74//11 178//11 84//10
f 13//10 84//10 177//12 77//12
f 13//30 77//27 174//16 65//15
f 18//10 106//11 198//11 112//10
f 18//10 112//10 197//12 101//12
f 18//10 101//12 193//12 69//10
f 18//10 69//10 194//11 106//11
f 19//8 107//13 199//13 111//8
f 19//8 111//8 198//11 106//11
f 19//8 106//11 194//11 72//8
f 19//8 72//8 196//13 107//13
f 20//4 101//12 197//12 110//4
f 20//4 110//4 200//14 104//14
f 20//4 104//14 195//14 70//4
f 20//4 70//4 193//12 101//12
f 21//9 104//14 200//14 109//9
f 21//9 109//9 199//13 107//13
f 21//9 107//13 196//13 71//9
f 21//9 71//9 195//14 104//14
f 22//6 98//31 190//32 97//33
f 22//6 97//33 189//34 100//35
f 22//6 100//35 191//36 99//37
f 22//6 99//37 192//38 98//31
f 23//39 108//40 192//38 99//37
f 23//39 99//37 191//36 103//41
f 23//9 103//13 199//13 109//9
f 23//9 109//9 200//14 108//14
f 24//42 105//43 190//32 98//31
f 24//42 98//31 192//38 108//40
f 24//4 108//14 200//14 110//4
f 24//4 110//4 197//12 105//12
f 25//44 103//41 191//36 100//35
f 25//44 100//35 189//34 102//45
f 25//8 102//11 198//11 111//8
f 25//8 111//8 199//13 103//13
f 26//46 102//45 189//34 97//33
f 26//46 97//33 190//32 105//43
f 26//10 105//12 197//12 112//10
f 26//10 112//10 198//11 102//11
f 31//10 140//10 210//11 134//11
f 31//10 134//11 222//11 125//10
f 31//10 125//10 221//12 129//12
f 31//10 129//12 209//12 140//10
f 32//8 139//8 211//13 135//13
f 32//8 135//13 224//13 128//8
f 32//8 128//8 222//11 134//11
f 32//8 134//11 210//11 139//8
f 33//4 138//4 209//12 129//12
f 33//4 129//12 221//12 126//4
f 33//4 126//4 223//14 132//14
f 33//4 132//14 212//14 138//4
f 34//9 137//9 212//14 132//14
f 34//9 132//14 223//14 127//9
f 34//9 127//9 224//13 135//13
f 34//9 135//13 211//13 137//9
f 35//1 121//15 206//16 122//17
f 35//1 122//17 208//18 123//19
f 35//1 123//19 207//20 124//21
f 35//1 124//21 205//22 121//15
f 36//23 123//19 208//18 136//24
f 36//9 136//14 212//14 137//9
f 36//9 137//9 211//13 131//13
f 36//23 131//25 207//20 123//19
f 37//26 122//17 206//16 133//27
f 37//4 133//12 209//12 138//4
f 37//4 138//4 212//14 136//14
f 37//26 136//24 208//18 122//17
f 38//28 124//21 207//20 131//25
f 38//8 131//13 211//13 139//8
f 38//8 139//8 210//11 130//11
f 38//28 130//29 205//22 124//21
f 39//30 121//15 205//22 130//29
f 39//10 130//11 210//11 140//10
f 39//10 140//10 209//12 133//12
f 39//30 133//27 206//16 121//15
f 44//10 158//11 226//11 164//10
f 44//10 164//10 225//12 153//12
f 44//10 153//12 221//12 125//10
f 44//10 125//10 222//11 158//11
f 45//8 159//13 227//13 163//8
f 45//8 163//8 226//11 158//11
f 45//8 158//11 222//11 128//8
f 45//8 128//8 224//13 159//13
f 46//4 153//12 225//12 162//4
f 46//4 162//4 228//14 156//14
f 46//4 156//14 223//14 126//4
f 46//4 126//4 221//12 153//12
f 47//9 156//14 228//14 161//9
f 47//9 161//9 227//13 159//13
f 47//9 159//13 224//13 127//9
f 47//9 127//9 223//14 156//14
f 48//6 150//31 218//32 149//33
f 48//6 149//33 217//34 152//35
f 48//6 152//35 219//36 151//37
f 48//6 151//37 220//38 150//31
f 49//39 160//40 220//38 151//37
f 49//39 151//37 219//36 155//41
f 49//9 155//13 227//13 161//9
f 49//9 161//9 228//14 160//14
f 50//42 157//43 218//32 150//31
f 50//42 150//31 220//38 160//40
f 50//4 160//14 228//14 162//4
f 50//4 162//4 225//12 157//12
f 51//44 155//41 219//36 152//35
f 51//44 152//35 217//34 154//45
f 51//8 154//11 226//11 163//8
f 51//8 163//8 227//13 155//13
f 52//46 154//45 217//34 149//33
f 52//46 149//33 218//32 157//43
f 52//10 157//12 225//12 164//10
f 52//10 164//10 226//11 154//11
