# Blender v2.79 (sub 0) OBJ File: 'Cube_Grass_Center.blend'
# www.blender.org
mtllib Cube_Grass_Center.mtl
o Cube_Grass_Center_Cube.015
v -1.000000 0.995956 1.000000
v 1.000000 0.995956 1.000000
v -1.000000 0.995956 -1.000000
v 1.000000 0.995956 -1.000000
v -1.000000 -1.000000 1.000000
v 1.000000 -1.000000 1.000000
v -1.000000 -1.000000 -1.000000
v 1.000000 -1.000000 -1.000000
vn 0.0000 1.0000 0.0000
vn 0.0000 -1.0000 0.0000
usemtl Green_Light
s 1
f 4//1 3//1 1//1 2//1
usemtl Dirt_1
f 8//2 6//2 5//2 7//2
