# Blender v2.79 (sub 0) OBJ File: 'Cube_Grass_Side.blend'
# www.blender.org
mtllib Cube_Grass_Side.mtl
o Cube_Grass_Side_Cube.277
v 1.000000 -1.000000 -1.000000
v -1.000000 -1.000000 -1.000000
v 1.000000 -0.873585 1.000000
v 1.000000 -1.000000 0.873585
v 1.000000 -0.962974 0.962974
v -1.000000 -1.000000 0.873585
v -1.000000 -0.873585 1.000000
v -1.000000 -0.962974 0.962974
v -1.000000 -0.623989 1.000000
v -1.000000 -0.327668 1.000000
v -1.000000 -0.024298 1.000000
v -1.000000 0.281256 1.000000
v -1.000000 0.623989 1.000000
v 1.000000 0.623989 1.000000
v 1.000000 0.281256 1.000000
v 1.000000 -0.024298 1.000000
v 1.000000 -0.327668 1.000000
v 1.000000 -0.623989 1.000000
v -1.000000 0.801033 1.099939
v -1.000000 0.527155 0.848220
v -1.000000 0.995956 0.848220
v -1.000000 0.566632 1.099939
v -1.000000 0.947225 1.020231
v -1.000000 0.995956 0.355842
v -1.000000 0.537025 1.020231
v -1.000000 0.644971 1.116719
v 1.000000 0.995956 0.848220
v 1.000000 0.566632 1.099939
v 1.000000 0.801033 1.099939
v 1.000000 0.527155 0.848220
v 1.000000 0.947225 1.020231
v 1.000000 0.995956 0.355842
v 1.000000 0.537025 1.020231
v 1.000000 0.644971 1.116719
v -1.000000 0.995956 -1.000000
v 1.000000 0.995956 -1.000000
vn 0.0000 0.4787 0.8780
vn 0.0000 0.2985 0.9544
vn 0.0000 -0.9788 0.2050
vn 0.0000 -0.9984 0.0573
vn 0.0000 -0.9374 0.3482
vn 0.0000 -0.0519 0.9987
vn 0.0000 0.9621 0.2726
vn 0.0000 0.9905 0.1376
vn 0.0000 -0.2094 0.9778
vn 0.0000 1.0000 0.0000
vn 0.0000 -1.0000 0.0000
vn 0.0000 -0.9808 0.1951
vn 0.0000 -0.1951 0.9808
vn 0.0000 -0.3827 0.9239
vn 0.0000 -0.9239 0.3827
vn 0.0000 0.0000 1.0000
usemtl Green_Light
s 1
f 31//1 23//1 19//2 29//2
f 33//3 25//3 20//4 30//4
f 33//3 28//5 22//5 25//3
f 29//2 19//2 26//6 34//6
f 31//7 27//8 21//8 23//7
f 34//6 26//6 22//9 28//9
f 36//10 35//10 24//10 32//10
f 21//8 27//8 32//10 24//10
usemtl Dirt_1
f 1//11 4//12 6//12 2//11
f 3//13 7//13 8//14 5//14
f 5//15 8//15 6//12 4//12
f 10//16 17//16 16//16 11//16
usemtl Dirt_2
f 13//16 12//16 15//16 14//16
f 10//16 9//16 18//16 17//16
usemtl Dirt_3
f 9//16 7//13 3//13 18//16
f 12//16 11//16 16//16 15//16
