# Blender v2.79 (sub 0) OBJ File: 'Cube_Dirt_Corner.blend'
# www.blender.org
mtllib Cube_Dirt_Corner.mtl
o Cube_Dirt_Corner_Cube.310
v 1.000001 -1.000000 -0.999999
v -1.000000 -0.873585 0.873584
v -0.873585 -1.000000 0.873584
v -0.873585 -0.873585 0.999999
v -0.962974 -0.962974 0.873584
v -0.946571 -0.946571 0.946570
v -0.873585 -0.962974 0.962973
v -0.962974 -0.873585 0.962973
v 0.999999 -1.000000 0.873585
v 0.999999 -0.873585 1.000000
v 0.999999 -0.962974 0.962974
v -0.999999 -0.873585 -1.000001
v -0.873584 -1.000000 -1.000001
v -0.962973 -0.962974 -1.000001
v -1.000000 -0.327668 0.873584
v -1.000000 -0.623989 0.873584
v -0.962974 -0.623989 0.962973
v -0.962974 -0.327668 0.962973
v -0.873585 -0.623989 0.999999
v -0.873585 -0.327668 0.999999
v 0.999999 -0.623989 1.000000
v 0.999999 -0.327668 1.000000
v -0.999999 -0.327668 -1.000001
v -0.999999 -0.623989 -1.000001
v 1.000001 1.000000 -0.999999
v -1.000000 0.873585 0.873584
v -0.873585 1.000000 0.873584
v -0.873585 0.873585 0.999999
v -0.962974 0.962974 0.873584
v -0.946571 0.946571 0.946570
v -0.873585 0.962974 0.962973
v -0.962974 0.873585 0.962973
v 0.999999 1.000000 0.873585
v 0.999999 0.873585 1.000000
v 0.999999 0.962974 0.962974
v -0.999999 0.873585 -1.000001
v -0.873584 1.000000 -1.000001
v -0.962973 0.962974 -1.000001
v -1.000000 0.000000 0.873584
v -1.000000 0.327668 0.873584
v -1.000000 0.623989 0.873584
v -0.962974 0.623989 0.962973
v -0.962974 0.327668 0.962973
v -0.962974 0.000000 0.962973
v -0.873585 0.623989 0.999999
v -0.873585 0.327668 0.999999
v -0.873585 0.000000 0.999999
v 0.999999 0.623989 1.000000
v 0.999999 0.327668 1.000000
v 0.999999 0.000000 1.000000
v -0.999999 0.000000 -1.000001
v -0.999999 0.327668 -1.000001
v -0.999999 0.623989 -1.000001
vn 0.0000 -1.0000 0.0000
vn -0.0000 -0.9808 0.1951
vn -0.1794 -0.9673 0.1794
vn -0.1951 -0.9808 -0.0000
vn -0.9673 -0.1794 0.1794
vn -0.9194 -0.3600 0.1585
vn -0.8881 -0.3251 0.3251
vn -0.9194 -0.1585 0.3600
vn -0.1585 -0.9194 0.3600
vn -0.3251 -0.8881 0.3251
vn -0.3600 -0.9194 0.1585
vn -0.1794 -0.1794 0.9673
vn -0.3600 -0.1585 0.9194
vn -0.3251 -0.3251 0.8881
vn -0.1585 -0.3600 0.9194
vn -0.0000 -0.1951 0.9808
vn -0.0000 -0.3827 0.9239
vn -0.0000 -0.9239 0.3827
vn -0.9808 -0.1951 -0.0000
vn -0.9239 -0.3827 -0.0000
vn -0.3827 -0.9239 -0.0000
vn -0.3827 0.0000 0.9239
vn -0.1951 0.0000 0.9808
vn -0.9808 0.0000 0.1951
vn -0.9239 0.0000 0.3827
vn -1.0000 0.0000 -0.0000
vn -0.0000 0.0000 1.0000
vn 0.0000 1.0000 0.0000
vn -0.1951 0.9808 -0.0000
vn -0.1794 0.9673 0.1794
vn -0.0000 0.9808 0.1951
vn -0.9673 0.1794 0.1794
vn -0.9194 0.1585 0.3600
vn -0.8881 0.3251 0.3251
vn -0.9194 0.3600 0.1585
vn -0.3600 0.9194 0.1585
vn -0.3251 0.8881 0.3251
vn -0.1585 0.9194 0.3600
vn -0.1794 0.1794 0.9673
vn -0.1585 0.3600 0.9194
vn -0.3251 0.3251 0.8881
vn -0.3600 0.1585 0.9194
vn -0.0000 0.1951 0.9808
vn -0.0000 0.3827 0.9239
vn -0.0000 0.9239 0.3827
vn -0.9239 0.3827 -0.0000
vn -0.9808 0.1951 -0.0000
vn -0.3827 0.9239 -0.0000
usemtl Dirt_1
s 1
f 1//1 9//2 3//3 13//4
f 2//5 5//6 6//7 8//8
f 3//3 7//9 6//10 5//11
f 4//12 8//13 6//14 7//15
f 10//16 4//12 7//15 11//17
f 11//18 7//9 3//3 9//2
f 2//5 12//19 14//20 5//6
f 5//11 14//21 13//4 3//3
f 18//22 20//23 47//23 44//22
f 39//24 15//24 18//25 44//25
f 51//26 23//26 15//24 39//24
f 20//23 22//27 50//27 47//23
f 25//28 37//29 27//30 33//31
f 26//32 32//33 30//34 29//35
f 27//30 29//36 30//37 31//38
f 28//39 31//40 30//41 32//42
f 34//43 35//44 31//40 28//39
f 35//45 33//31 27//30 31//38
f 26//32 29//35 38//46 36//47
f 29//36 27//30 37//29 38//48
f 43//22 44//22 47//23 46//23
f 39//24 44//25 43//25 40//24
f 51//26 39//24 40//24 52//26
f 46//23 47//23 50//27 49//27
usemtl Dirt_2
f 20//23 19//23 21//27 22//27
f 18//22 17//22 19//23 20//23
f 15//24 16//24 17//25 18//25
f 23//26 24//26 16//24 15//24
f 46//23 49//27 48//27 45//23
f 43//22 46//23 45//23 42//22
f 40//24 43//25 42//25 41//24
f 52//26 40//24 41//24 53//26
usemtl Dirt_3
f 24//26 12//19 2//5 16//24
f 16//24 2//5 8//8 17//25
f 17//22 8//13 4//12 19//23
f 19//23 4//12 10//16 21//27
f 53//26 41//24 26//32 36//47
f 41//24 42//25 32//33 26//32
f 42//22 45//23 28//39 32//42
f 45//23 48//27 34//43 28//39
