# Blender v2.79 (sub 0) OBJ File: 'Cube_Dirt_Side.blend'
# www.blender.org
mtllib Cube_Dirt_Side.mtl
o Cube_Dirt_Side_Cube.311
v 1.000000 -1.000000 -1.000000
v -1.000000 -1.000000 -1.000000
v 1.000000 -0.873585 1.000000
v 1.000000 -1.000000 0.873585
v 1.000000 -0.962974 0.962974
v -1.000000 -1.000000 0.873585
v -1.000000 -0.873585 1.000000
v -1.000000 -0.962974 0.962974
v -1.000000 -0.623989 1.000000
v -1.000000 -0.327668 1.000000
v 1.000000 -0.327668 1.000000
v 1.000000 -0.623989 1.000000
v 1.000000 1.000000 -1.000000
v -1.000000 1.000000 -1.000000
v 1.000000 0.873585 1.000000
v 1.000000 1.000000 0.873585
v 1.000000 0.962974 0.962974
v -1.000000 1.000000 0.873585
v -1.000000 0.873585 1.000000
v -1.000000 0.962974 0.962974
v -1.000000 0.623989 1.000000
v -1.000000 0.327668 1.000000
v -1.000000 0.000000 1.000000
v 1.000000 0.000000 1.000000
v 1.000000 0.327668 1.000000
v 1.000000 0.623989 1.000000
vn 0.0000 -1.0000 0.0000
vn 0.0000 -0.9808 0.1951
vn 0.0000 -0.1951 0.9808
vn 0.0000 -0.3827 0.9239
vn 0.0000 -0.9239 0.3827
vn 0.0000 0.0000 1.0000
vn 0.0000 1.0000 0.0000
vn 0.0000 0.9808 0.1951
vn 0.0000 0.1951 0.9808
vn 0.0000 0.3827 0.9239
vn 0.0000 0.9239 0.3827
usemtl Dirt_1
s 1
f 1//1 4//2 6//2 2//1
f 3//3 7//3 8//4 5//4
f 5//5 8//5 6//2 4//2
f 10//6 11//6 24//6 23//6
f 13//7 14//7 18//8 16//8
f 15//9 17//10 20//10 19//9
f 17//11 16//8 18//8 20//11
f 22//6 23//6 24//6 25//6
usemtl Dirt_2
f 10//6 9//6 12//6 11//6
f 22//6 25//6 26//6 21//6
usemtl Dirt_3
f 9//6 7//3 3//3 12//6
f 21//6 26//6 15//9 19//9
