# Blender v2.79 (sub 0) OBJ File: 'Cube_Dirt_1x1End.blend'
# www.blender.org
mtllib Cube_Dirt_1x1End.mtl
o Cube_Dirt_1x1End_Cube.046
v -1.000000 -0.873585 0.873585
v -0.873585 -1.000000 0.873585
v -0.873585 -0.873585 1.000000
v -0.962974 -0.962974 0.873585
v -0.946571 -0.946571 0.946571
v -0.873585 -0.962974 0.962974
v -0.962974 -0.873585 0.962974
v -1.000000 -0.327668 0.873585
v -1.000000 -0.623989 0.873585
v -0.962974 -0.623989 0.962974
v -0.962974 -0.327668 0.962974
v -0.873585 -0.623989 1.000000
v -0.873585 -0.327668 1.000000
v 1.000001 -1.000000 0.873585
v 1.000001 -0.873585 1.000000
v 1.000001 -0.962974 0.962974
v 1.000001 -0.623989 1.000000
v 1.000001 -0.327668 1.000000
v 0.000000 -0.873585 1.000000
v 0.000000 -0.962974 0.962974
v 0.000000 -1.000000 0.873585
v 0.000000 -0.327668 1.000000
v 0.000000 -0.623989 1.000000
v -1.000000 -0.873585 -0.873585
v -0.873585 -1.000000 -0.873585
v -0.873585 -0.873585 -1.000000
v -0.962974 -0.962974 -0.873585
v -0.946571 -0.946571 -0.946571
v -0.873585 -0.962974 -0.962974
v -0.962974 -0.873585 -0.962974
v -1.000000 -0.327668 -0.873585
v -1.000000 -0.623989 -0.873585
v -0.962974 -0.623989 -0.962974
v -0.962974 -0.327668 -0.962974
v -0.873585 -0.623989 -1.000000
v -0.873585 -0.327668 -1.000000
v -1.000000 -0.873585 0.000000
v -0.962974 -0.962974 0.000000
v -0.873585 -1.000000 0.000000
v -1.000000 -0.327668 0.000000
v -1.000000 -0.623989 0.000000
v 1.000001 -1.000000 -0.873585
v 1.000001 -0.873585 -1.000000
v 1.000001 -0.962974 -0.962974
v 1.000001 -0.623989 -1.000000
v 1.000001 -0.327668 -1.000000
v 0.000000 -0.873585 -1.000000
v 0.000000 -0.962974 -0.962974
v 0.000000 -1.000000 -0.873585
v 0.000000 -0.327668 -1.000000
v 0.000000 -0.623989 -1.000000
v 1.000001 -1.000000 0.000000
v 0.000000 -1.000000 0.000000
v -1.000000 0.873585 0.873585
v -0.873585 1.000000 0.873585
v -0.873585 0.873585 1.000000
v -0.962974 0.962974 0.873585
v -0.946571 0.946571 0.946571
v -0.873585 0.962974 0.962974
v -0.962974 0.873585 0.962974
v -1.000000 0.000000 0.873585
v -1.000000 0.327668 0.873585
v -1.000000 0.623989 0.873585
v -0.962974 0.623989 0.962974
v -0.962974 0.327668 0.962974
v -0.962974 0.000000 0.962974
v -0.873585 0.623989 1.000000
v -0.873585 0.327668 1.000000
v -0.873585 0.000000 1.000000
v 1.000001 1.000000 0.873585
v 1.000001 0.873585 1.000000
v 1.000001 0.962974 0.962974
v 1.000001 0.623989 1.000000
v 1.000001 0.327668 1.000000
v 1.000001 0.000000 1.000000
v 0.000000 0.873585 1.000000
v 0.000000 0.962974 0.962974
v 0.000000 1.000000 0.873585
v 0.000000 0.000000 1.000000
v 0.000000 0.327668 1.000000
v 0.000000 0.623989 1.000000
v -1.000000 0.873585 -0.873585
v -0.873585 1.000000 -0.873585
v -0.873585 0.873585 -1.000000
v -0.962974 0.962974 -0.873585
v -0.946571 0.946571 -0.946571
v -0.873585 0.962974 -0.962974
v -0.962974 0.873585 -0.962974
v -1.000000 0.000000 -0.873585
v -1.000000 0.327668 -0.873585
v -1.000000 0.623989 -0.873585
v -0.962974 0.623989 -0.962974
v -0.962974 0.327668 -0.962974
v -0.962974 0.000000 -0.962974
v -0.873585 0.623989 -1.000000
v -0.873585 0.327668 -1.000000
v -0.873585 0.000000 -1.000000
v -1.000000 0.873585 0.000000
v -0.962974 0.962974 0.000000
v -0.873585 1.000000 0.000000
v -1.000000 0.000000 0.000000
v -1.000000 0.327668 0.000000
v -1.000000 0.623989 0.000000
v 1.000001 1.000000 -0.873585
v 1.000001 0.873585 -1.000000
v 1.000001 0.962974 -0.962974
v 1.000001 0.623989 -1.000000
v 1.000001 0.327668 -1.000000
v 1.000001 0.000000 -1.000000
v 0.000000 0.873585 -1.000000
v 0.000000 0.962974 -0.962974
v 0.000000 1.000000 -0.873585
v 0.000000 0.000000 -1.000000
v 0.000000 0.327668 -1.000000
v 0.000000 0.623989 -1.000000
v 1.000001 1.000000 0.000000
v 0.000000 1.000000 0.000000
vn 0.0000 -1.0000 0.0000
vn -0.0000 -0.9808 0.1951
vn -0.1794 -0.9673 0.1794
vn -0.1951 -0.9808 0.0000
vn -0.9673 -0.1794 0.1794
vn -0.9194 -0.3600 0.1585
vn -0.8881 -0.3251 0.3251
vn -0.9194 -0.1585 0.3600
vn -0.1585 -0.9194 0.3600
vn -0.3251 -0.8881 0.3251
vn -0.3600 -0.9194 0.1585
vn -0.1794 -0.1794 0.9673
vn -0.3600 -0.1585 0.9194
vn -0.3251 -0.3251 0.8881
vn -0.1585 -0.3600 0.9194
vn 0.0000 -0.1951 0.9808
vn 0.0000 -0.3827 0.9239
vn -0.0000 -0.9239 0.3827
vn -0.3827 0.0000 0.9239
vn -0.1951 0.0000 0.9808
vn -0.9808 0.0000 0.1951
vn -0.9239 0.0000 0.3827
vn -1.0000 0.0000 0.0000
vn 0.0000 0.0000 1.0000
vn -0.3827 -0.9239 0.0000
vn -0.9808 -0.1951 0.0000
vn -0.9239 -0.3827 0.0000
vn -0.1794 -0.9673 -0.1794
vn -0.0000 -0.9808 -0.1951
vn -0.9673 -0.1794 -0.1794
vn -0.9194 -0.1585 -0.3600
vn -0.8881 -0.3251 -0.3251
vn -0.9194 -0.3600 -0.1585
vn -0.3600 -0.9194 -0.1585
vn -0.3251 -0.8881 -0.3251
vn -0.1585 -0.9194 -0.3600
vn -0.1794 -0.1794 -0.9673
vn -0.1585 -0.3600 -0.9194
vn -0.3251 -0.3251 -0.8881
vn -0.3600 -0.1585 -0.9194
vn -0.0000 -0.1951 -0.9808
vn -0.0000 -0.3827 -0.9239
vn -0.0000 -0.9239 -0.3827
vn -0.3827 0.0000 -0.9239
vn -0.1951 0.0000 -0.9808
vn -0.9808 0.0000 -0.1951
vn -0.9239 0.0000 -0.3827
vn 0.0000 0.0000 -1.0000
vn 0.0000 1.0000 0.0000
vn -0.1951 0.9808 0.0000
vn -0.1794 0.9673 0.1794
vn -0.0000 0.9808 0.1951
vn -0.9673 0.1794 0.1794
vn -0.9194 0.1585 0.3600
vn -0.8881 0.3251 0.3251
vn -0.9194 0.3600 0.1585
vn -0.3600 0.9194 0.1585
vn -0.3251 0.8881 0.3251
vn -0.1585 0.9194 0.3600
vn -0.1794 0.1794 0.9673
vn -0.1585 0.3600 0.9194
vn -0.3251 0.3251 0.8881
vn -0.3600 0.1585 0.9194
vn -0.0000 0.1951 0.9808
vn -0.0000 0.3827 0.9239
vn -0.0000 0.9239 0.3827
vn -0.3827 0.9239 0.0000
vn -0.9239 0.3827 0.0000
vn -0.9808 0.1951 0.0000
vn -0.0000 0.9808 -0.1951
vn -0.1794 0.9673 -0.1794
vn -0.9673 0.1794 -0.1794
vn -0.9194 0.3600 -0.1585
vn -0.8881 0.3251 -0.3251
vn -0.9194 0.1585 -0.3600
vn -0.1585 0.9194 -0.3600
vn -0.3251 0.8881 -0.3251
vn -0.3600 0.9194 -0.1585
vn -0.1794 0.1794 -0.9673
vn -0.3600 0.1585 -0.9194
vn -0.3251 0.3251 -0.8881
vn -0.1585 0.3600 -0.9194
vn 0.0000 0.1951 -0.9808
vn 0.0000 0.3827 -0.9239
vn -0.0000 0.9239 -0.3827
usemtl Dirt_1
s 1
f 53//1 21//2 2//3 39//4
f 1//5 4//6 5//7 7//8
f 2//3 6//9 5//10 4//11
f 3//12 7//13 5//14 6//15
f 19//16 3//12 6//15 20//17
f 20//18 6//9 2//3 21//2
f 11//19 13//20 69//20 66//19
f 61//21 8//21 11//22 66//22
f 101//23 40//23 8//21 61//21
f 13//20 22//24 79//24 69//20
f 4//11 38//25 39//4 2//3
f 1//5 37//26 38//27 4//6
f 53//1 52//1 14//2 21//2
f 19//16 20//17 16//17 15//16
f 20//18 21//2 14//2 16//18
f 18//24 75//24 79//24 22//24
f 53//1 39//4 25//28 49//29
f 24//30 30//31 28//32 27//33
f 25//28 27//34 28//35 29//36
f 26//37 29//38 28//39 30//40
f 47//41 48//42 29//38 26//37
f 48//43 49//29 25//28 29//36
f 34//44 94//44 97//45 36//45
f 89//46 94//47 34//47 31//46
f 101//23 89//46 31//46 40//23
f 36//45 97//45 113//48 50//48
f 27//34 25//28 39//4 38//25
f 24//30 27//33 38//27 37//26
f 53//1 49//29 42//29 52//1
f 47//41 43//41 44//42 48//42
f 48//43 44//43 42//29 49//29
f 46//48 50//48 113//48 109//48
f 117//49 100//50 55//51 78//52
f 54//53 60//54 58//55 57//56
f 55//51 57//57 58//58 59//59
f 56//60 59//61 58//62 60//63
f 76//64 77//65 59//61 56//60
f 77//66 78//52 55//51 59//59
f 65//19 66//19 69//20 68//20
f 61//21 66//22 65//22 62//21
f 101//23 61//21 62//21 102//23
f 68//20 69//20 79//24 80//24
f 57//57 55//51 100//50 99//67
f 54//53 57//56 99//68 98//69
f 117//49 78//52 70//52 116//49
f 76//64 71//64 72//65 77//65
f 77//66 72//66 70//52 78//52
f 74//24 80//24 79//24 75//24
f 117//49 112//70 83//71 100//50
f 82//72 85//73 86//74 88//75
f 83//71 87//76 86//77 85//78
f 84//79 88//80 86//81 87//82
f 110//83 84//79 87//82 111//84
f 111//85 87//76 83//71 112//70
f 93//44 96//45 97//45 94//44
f 89//46 90//46 93//47 94//47
f 101//23 102//23 90//46 89//46
f 96//45 114//48 113//48 97//45
f 85//78 99//67 100//50 83//71
f 82//72 98//69 99//68 85//73
f 117//49 116//49 104//70 112//70
f 110//83 111//84 106//84 105//83
f 111//85 112//70 104//70 106//85
f 108//48 109//48 113//48 114//48
usemtl Dirt_2
f 11//19 10//19 12//20 13//20
f 8//21 9//21 10//22 11//22
f 40//23 41//23 9//21 8//21
f 13//20 12//20 23//24 22//24
f 18//24 22//24 23//24 17//24
f 34//44 36//45 35//45 33//44
f 31//46 34//47 33//47 32//46
f 40//23 31//46 32//46 41//23
f 36//45 50//48 51//48 35//45
f 46//48 45//48 51//48 50//48
f 65//19 68//20 67//20 64//19
f 62//21 65//22 64//22 63//21
f 102//23 62//21 63//21 103//23
f 68//20 80//24 81//24 67//20
f 74//24 73//24 81//24 80//24
f 93//44 92//44 95//45 96//45
f 90//46 91//46 92//47 93//47
f 102//23 103//23 91//46 90//46
f 96//45 95//45 115//48 114//48
f 108//48 114//48 115//48 107//48
usemtl Dirt_3
f 41//23 37//26 1//5 9//21
f 9//21 1//5 7//8 10//22
f 10//19 7//13 3//12 12//20
f 12//20 3//12 19//16 23//24
f 17//24 23//24 19//16 15//16
f 41//23 32//46 24//30 37//26
f 32//46 33//47 30//31 24//30
f 33//44 35//45 26//37 30//40
f 35//45 51//48 47//41 26//37
f 45//48 43//41 47//41 51//48
f 103//23 63//21 54//53 98//69
f 63//21 64//22 60//54 54//53
f 64//19 67//20 56//60 60//63
f 67//20 81//24 76//64 56//60
f 73//24 71//64 76//64 81//24
f 103//23 98//69 82//72 91//46
f 91//46 82//72 88//75 92//47
f 92//44 88//80 84//79 95//45
f 95//45 84//79 110//83 115//48
f 107//48 115//48 110//83 105//83
