{
    "asset" : {
        "generator" : "Khronos glTF Blender I/O v1.7.33",
        "version" : "2.0"
    },
    "scene" : 0,
    "scenes" : [
        {
            "name" : "Scene",
            "nodes" : [
                0
            ]
        }
    ],
    "nodes" : [
        {
            "mesh" : 0,
            "name" : "Stairs_Modular_Start"
        }
    ],
    "materials" : [
        {
            "doubleSided" : true,
            "name" : "Wood",
            "pbrMetallicRoughness" : {
                "baseColorFactor" : [
                    0.3757452964782715,
                    0.20292167365550995,
                    0.0587104856967926,
                    1
                ],
                "metallicFactor" : 0,
                "roughnessFactor" : 0.5
            }
        }
    ],
    "meshes" : [
        {
            "name" : "Cube.058",
            "primitives" : [
                {
                    "attributes" : {
                        "POSITION" : 0,
                        "NORMAL" : 1
                    },
                    "indices" : 2,
                    "material" : 0
                }
            ]
        }
    ],
    "accessors" : [
        {
            "bufferView" : 0,
            "componentType" : 5126,
            "count" : 1004,
            "max" : [
                1.2374428510665894,
                2.338581085205078,
                1.2804949283599854
            ],
            "min" : [
                -1.0000014305114746,
                -0.09484918415546417,
                -1.2804949283599854
            ],
            "type" : "VEC3"
        },
        {
            "bufferView" : 1,
            "componentType" : 5126,
            "count" : 1004,
            "type" : "VEC3"
        },
        {
            "bufferView" : 2,
            "componentType" : 5123,
            "count" : 3228,
            "type" : "SCALAR"
        }
    ],
    "bufferViews" : [
        {
            "buffer" : 0,
            "byteLength" : 12048,
            "byteOffset" : 0
        },
        {
            "buffer" : 0,
            "byteLength" : 12048,
            "byteOffset" : 12048
        },
        {
            "buffer" : 0,
            "byteLength" : 6456,
            "byteOffset" : 24096
        }
    ],
    "buffers" : [
        {
            "byteLength" : 30552,
            "uri" : "data:application/octet-stream;base64,"
        }
    ]
}
